<svg id="filled_outline" data-name="filled outline" xmlns="http://www.w3.org/2000/svg" viewBox="0 0 340 340"><rect x="10" y="63.085" width="182.739" height="170.709" style="fill:#dbf778"/><path d="M161.393,135.979V104.725h-14v31.254H55.909v97.814h136.83V135.979Z" style="fill:#bad644"/><rect x="69.909" y="149.979" width="182.739" height="175.074" style="fill:#ffc45f"/><path d="M147.393,260.46v14H252.648V149.979H147.393Z" style="fill:#ffa82c"/><polygon points="161.393 260.46 288.768 260.46 330 205.082 330 104.725 161.393 104.725 161.393 260.46" style="fill:#c7e2ff"/><path d="M330,205.082a130.952,130.952,0,0,0-30.628-7.855,9.118,9.118,0,0,0-10.16,9.472c.583,13.427,1.243,37.319-.444,53.761Z" style="fill:#92b4dd"/><path d="M291.037,153.979H214.259a4,4,0,0,1,0-8h76.778C296.288,146.1,296.331,153.841,291.037,153.979Z" style="fill:#92b4dd"/><path d="M263.444,182.423H192.259a4,4,0,0,1,0-8h71.185C268.7,174.549,268.738,182.286,263.444,182.423Z" style="fill:#92b4dd"/><path d="M263.444,210.868H192.259a4,4,0,1,1,0-8h71.185C268.7,202.993,268.738,210.731,263.444,210.868Z" style="fill:#92b4dd"/><path d="M130.184,30.355a15.407,15.407,0,0,1-15.407,15.407c-20.4-.7-20.391-30.113,0-30.815A15.408,15.408,0,0,1,130.184,30.355Z" style="fill:#fc707e"/><path d="M273.556,74.127a15.408,15.408,0,0,1-15.408,15.407c-20.4-.705-20.39-30.113,0-30.815A15.409,15.409,0,0,1,273.556,74.127Z" style="fill:#fc707e"/><path d="M114.777,49.762c25.686-.911,25.679-37.907,0-38.815-20.37.181-26.71,27.38-8.881,36.644L95.6,76.417a4,4,0,1,0,7.534,2.69l4.293-12.023h81.309V85.951a4,4,0,0,0,8,0V63.084a4,4,0,0,0-4-4H110.287l3.349-9.38C114.016,49.727,114.392,49.762,114.777,49.762ZM103.37,30.355a11.421,11.421,0,0,1,11.407-11.408c15.1.536,15.094,22.282,0,22.815A11.42,11.42,0,0,1,103.37,30.355Z" style="fill:#2f313f"/><path d="M10,237.793H47.35c5.271-.132,5.278-7.866,0-8H14V67.084H83.806a4,4,0,0,0,0-8H10a4,4,0,0,0-4,4V233.793A4,4,0,0,0,10,237.793Z" style="fill:#2f313f"/><path d="M65.909,149.979V325.053a4,4,0,0,0,4,4H252.648a4,4,0,0,0,4-4V279.636a4,4,0,0,0-8,0v41.417H73.909V153.979h65.7c5.259-.128,5.288-7.864,0-8h-69.7A4,4,0,0,0,65.909,149.979Z" style="fill:#2f313f"/><path d="M330,100.726H254.419l2.589-7.25c26.439.549,27.578-37.684,1.14-38.757-20.371.182-26.71,27.38-8.881,36.644l-10.293,28.826a4,4,0,1,0,7.534,2.69l5.054-14.153H326v78.431a4,4,0,1,0,8,0V104.726A4,4,0,0,0,330,100.726Zm-83.259-26.6a11.421,11.421,0,0,1,11.407-11.408c15.1.536,15.095,22.281,0,22.815A11.42,11.42,0,0,1,246.741,74.127Z" style="fill:#2f313f"/><path d="M227.852,100.726H161.393a4,4,0,0,0-4,4V260.46a4,4,0,0,0,4,4H279.962a21.629,21.629,0,0,0,17.273-8.675c.24-.4,36.07-48.3,36.212-48.712a3.978,3.978,0,0,0-.856-5.015c-1.915-1.286-14-6.087-31.719-8.673-8.236-1.285-16.178,5.942-15.623,14.266.271,6.4.594,16.127.594,26.142a4,4,0,0,0,8,0c0-10.155-.327-20-.6-26.481a5.845,5.845,0,0,1,6.589-6,128.134,128.134,0,0,1,23.761,5.673l-32.774,44.018a13.593,13.593,0,0,1-10.856,5.452H165.393V108.726h62.459C233.122,108.594,233.131,100.859,227.852,100.726Z" style="fill:#2f313f"/><path d="M295.037,149.979a4,4,0,0,0-4-4H214.259a4,4,0,0,0,0,8h76.778A4,4,0,0,0,295.037,149.979Z" style="fill:#2f313f"/><path d="M263.444,174.423H192.259a4,4,0,0,0,0,8h71.185C268.7,182.3,268.738,174.56,263.444,174.423Z" style="fill:#2f313f"/><path d="M263.444,202.868H192.259a4,4,0,1,0,0,8h71.185C268.7,210.742,268.738,203.005,263.444,202.868Z" style="fill:#2f313f"/></svg>