<?xml version="1.0" encoding="iso-8859-1"?>
<!-- Generator: Adobe Illustrator 19.0.0, SVG Export Plug-In . SVG Version: 6.00 Build 0)  -->
<svg xmlns="http://www.w3.org/2000/svg" xmlns:xlink="http://www.w3.org/1999/xlink" version="1.1" id="Layer_1" x="0px" y="0px" viewBox="0 0 512.002 512.002" style="enable-background:new 0 0 512.002 512.002;" xml:space="preserve">
<path style="fill:#72CDED;" d="M344.659,66.986v207.852H167.337V66.986c0-22.184,17.988-40.172,40.173-40.172h96.989  C326.683,26.813,344.659,44.802,344.659,66.986z"/>
<path style="fill:#5FBAD3;" d="M344.659,66.986v207.852H167.337c185.331,0,137.161-248.024,137.161-248.024  C326.683,26.813,344.659,44.802,344.659,66.986z"/>
<g>
	<rect x="8.693" y="167.298" style="fill:#FEC95B;" width="494.611" height="59.447"/>
	<rect x="45.028" y="226.734" style="fill:#FEC95B;" width="49.227" height="258.455"/>
	<rect x="417.743" y="226.734" style="fill:#FEC95B;" width="49.227" height="258.455"/>
</g>
<g>
	<rect x="45.028" y="226.734" style="fill:#E2AD50;" width="49.227" height="33.032"/>
	<rect x="417.743" y="226.734" style="fill:#E2AD50;" width="49.227" height="33.032"/>
</g>
<g>
	<rect x="161.061" y="324.29" style="fill:#72CDED;" width="49.227" height="160.899"/>
	<rect x="301.711" y="324.29" style="fill:#72CDED;" width="49.227" height="160.899"/>
</g>
<g>
	<rect x="161.061" y="324.29" style="fill:#5FBAD3;" width="49.227" height="36.313"/>
	<rect x="301.711" y="324.29" style="fill:#5FBAD3;" width="49.227" height="36.313"/>
</g>
<rect x="146.469" y="274.834" style="fill:#72CDED;" width="219.059" height="49.453"/>
<path d="M503.307,158.599H176.03V66.986c0-17.358,14.122-31.48,31.48-31.48h96.989c17.352,0,31.468,14.122,31.468,31.48v72.827  c0,4.801,3.891,8.693,8.693,8.693c4.802,0,8.693-3.892,8.693-8.693V66.986c0-26.944-21.915-48.865-48.854-48.865H207.51  c-26.944,0-48.865,21.921-48.865,48.865v91.613h-39.873c-4.801,0-8.693,3.892-8.693,8.693s3.892,8.693,8.693,8.693h375.845v42.059  H17.386v-42.059h72.409c4.801,0,8.693-3.892,8.693-8.693s-3.892-8.693-8.693-8.693H8.693c-4.801,0-8.693,3.892-8.693,8.693v59.445  c0,4.801,3.892,8.693,8.693,8.693h27.642v249.759c0,4.801,3.892,8.693,8.693,8.693h49.227c4.801,0,8.693-3.892,8.693-8.693v-85.183  c0-4.801-3.892-8.693-8.693-8.693c-4.801,0-8.693,3.892-8.693,8.693v76.49H53.721V235.431h31.841v135.6  c0,4.801,3.892,8.693,8.693,8.693c4.801,0,8.693-3.892,8.693-8.693v-135.6h55.697v30.714h-12.172c-4.801,0-8.693,3.892-8.693,8.693  v49.453c0,4.801,3.892,8.693,8.693,8.693h5.898v152.206c0,4.801,3.892,8.693,8.693,8.693h49.227c4.801,0,8.693-3.892,8.693-8.693  V332.983h123.263v143.513h-31.841V351.908c0-4.801-3.891-8.693-8.693-8.693c-4.802,0-8.693,3.892-8.693,8.693v133.281  c0,4.801,3.891,8.693,8.693,8.693h49.227c4.802,0,8.693-3.892,8.693-8.693V332.983h5.898c4.802,0,8.693-3.892,8.693-8.693v-49.453  c0-4.801-3.891-8.693-8.693-8.693h-12.177v-30.714h55.701v249.758c0,4.801,3.891,8.693,8.693,8.693h49.227  c4.802,0,8.693-3.892,8.693-8.693V235.431h27.642c4.802,0,8.693-3.892,8.693-8.693v-59.445  C512,162.491,508.109,158.599,503.307,158.599z M201.597,476.496h-31.841V332.983h31.841V476.496z M356.836,315.598H155.165V283.53  h201.673v32.067H356.836z M335.967,266.145H176.03v-30.714h159.937V266.145z M458.281,476.496h-31.841V235.431h31.841  L458.281,476.496L458.281,476.496z"/>
<g>
</g>
<g>
</g>
<g>
</g>
<g>
</g>
<g>
</g>
<g>
</g>
<g>
</g>
<g>
</g>
<g>
</g>
<g>
</g>
<g>
</g>
<g>
</g>
<g>
</g>
<g>
</g>
<g>
</g>
</svg>
