<?xml version="1.0" encoding="utf-8"?>
<!-- Generator: Adobe Illustrator 22.1.0, SVG Export Plug-In . SVG Version: 6.00 Build 0)  -->
<svg version="1.1" id="Layer_1" xmlns="http://www.w3.org/2000/svg" xmlns:xlink="http://www.w3.org/1999/xlink" x="0px" y="0px"
	 viewBox="0 0 256 256" style="enable-background:new 0 0 256 256;" xml:space="preserve">
<style type="text/css">
	.st0{fill:#D73735;}
	.st1{fill:#F85252;}
	.st2{fill:#EDAF85;}
	.st3{fill:#F7C09A;}
	.st4{fill:#D8D6D7;}
	.st5{fill:#FFFFFF;}
	.st6{fill:#1C868E;}
	.st7{fill:#40C4DF;}
	.st8{fill:#491352;}
	.st9{fill:#56C1B3;}
	.st10{fill:#7BEFE4;}
</style>
<g>
	<path class="st6" d="M251.42,59.54v152c0,2.77-2.24,5-5,5H9.58c-2.76,0-5-2.23-5-5v-152c0-2.76,2.24-5,5-5h236.84
		C249.18,54.54,251.42,56.78,251.42,59.54z"/>
	<path class="st7" d="M251.42,59.54v152c0,2.77-2.24,5-5,5H22.71c-2.76,0-5-2.23-5-5v-152c0-2.76,2.24-5,5-5h223.71
		C249.18,54.54,251.42,56.78,251.42,59.54z"/>
	<path class="st4" d="M25.74,160.006h-3c-2.761,0-5-2.239-5-5v-81.5c0-2.761,2.239-5,5-5h3c2.761,0,5,2.239,5,5v81.5
		C30.74,157.767,28.501,160.006,25.74,160.006z"/>
	<path class="st4" d="M57.25,160.006h-3c-2.761,0-5-2.239-5-5v-81.5c0-2.761,2.239-5,5-5h3c2.761,0,5,2.239,5,5v81.5
		C62.25,157.767,60.011,160.006,57.25,160.006z"/>
	<path class="st4" d="M88.76,160.006h-3c-2.761,0-5-2.239-5-5v-81.5c0-2.761,2.239-5,5-5h3c2.761,0,5,2.239,5,5v81.5
		C93.76,157.767,91.521,160.006,88.76,160.006z"/>
	<path id="XMLID_69_" class="st5" d="M210.421,93.061h-75.065c-2.761,0-5,2.239-5,5v75.065c0,2.761,2.239,5,5,5h75.065
		c2.761,0,5-2.239,5-5V98.061C215.421,95.299,213.182,93.061,210.421,93.061z"/>
	<path class="st4" d="M204.5,108.98v53.23c0,2.76-2.24,5-5,5h-53.22c-2.77,0-5-2.24-5-5v-53.23c0-2.76,2.23-5,5-5h53.22
		C202.26,103.98,204.5,106.22,204.5,108.98z"/>
	<path class="st5" d="M204.5,108.98v53.23c0,2.76-2.24,5-5,5h-42.3c-2.76,0-5-2.24-5-5v-53.23c0-2.76,2.24-5,5-5h42.3
		C202.26,103.98,204.5,106.22,204.5,108.98z"/>
	<circle id="XMLID_48_" class="st1" cx="172.888" cy="67.955" r="4.726"/>
	<circle id="XMLID_46_" class="st1" cx="152.015" cy="203.134" r="4.726"/>
	<circle id="XMLID_42_" class="st1" cx="114.701" cy="156.466" r="4.726"/>
	<circle id="XMLID_38_" class="st1" cx="230.78" cy="114.721" r="4.726"/>
	<path class="st1" d="M44.25,203.343H22.74c-2.761,0-5-2.239-5-5v-20.256c0-2.761,2.239-5,5-5h21.51c2.761,0,5,2.239,5,5v20.256
		C49.25,201.105,47.011,203.343,44.25,203.343z"/>
	<path class="st1" d="M88.76,203.343H67.25c-2.761,0-5-2.239-5-5v-20.256c0-2.761,2.239-5,5-5h21.51c2.761,0,5,2.239,5,5v20.256
		C93.76,201.105,91.521,203.343,88.76,203.343z"/>
	<path class="st4" d="M235.51,44.46v10.08H208V44.46c0-2.77,2.24-5,5-5h17.51C233.27,39.46,235.51,41.69,235.51,44.46z"/>
	<path class="st4" d="M198.43,44.46v10.08h-27.5V44.46c0-2.77,2.24-5,5-5h17.5C196.2,39.46,198.43,41.69,198.43,44.46z"/>
	<path class="st5" d="M235.51,44.46v10.08H217V44.46c0-2.77,2.24-5,5-5h8.51C233.27,39.46,235.51,41.69,235.51,44.46z"/>
	<path class="st5" d="M198.43,44.46v10.08h-18.5V44.46c0-2.77,2.24-5,5-5h8.5C196.2,39.46,198.43,41.69,198.43,44.46z"/>
	<g>
		<path class="st8" d="M246.417,52.544h-8.911v-8.089c0-3.86-3.141-7-7-7H213c-3.859,0-7,3.14-7,7v8.089h-5.565v-8.089
			c0-3.86-3.141-7-7-7h-17.506c-3.859,0-7,3.14-7,7v8.089H9.583c-3.859,0-7,3.14-7,7v152c0,3.86,3.141,7,7,7h236.834
			c3.859,0,7-3.14,7-7v-152C253.417,55.685,250.276,52.544,246.417,52.544z M210,44.456c0-1.654,1.346-3,3-3h17.506
			c1.654,0,3,1.346,3,3v8.089H210V44.456z M172.929,44.456c0-1.654,1.346-3,3-3h17.506c1.654,0,3,1.346,3,3v8.089h-23.506V44.456z
			 M249.417,211.544c0,1.654-1.346,3-3,3H9.583c-1.654,0-3-1.346-3-3v-152c0-1.654,1.346-3,3-3c10.793,0,224.541,0,236.834,0
			c1.654,0,3,1.346,3,3V211.544z"/>
		<path class="st8" d="M22.74,162.006h3c3.859,0,7-3.14,7-7v-81.5c0-3.86-3.141-7-7-7h-3c-3.859,0-7,3.14-7,7v81.5
			C15.74,158.866,18.881,162.006,22.74,162.006z M19.74,73.506c0-1.654,1.346-3,3-3h3c1.654,0,3,1.346,3,3v81.5c0,1.654-1.346,3-3,3
			h-3c-1.654,0-3-1.346-3-3V73.506z"/>
		<path class="st8" d="M64.25,155.006v-81.5c0-3.86-3.141-7-7-7h-3c-3.859,0-7,3.14-7,7v81.5c0,3.86,3.141,7,7,7h3
			C61.109,162.006,64.25,158.866,64.25,155.006z M60.25,155.006c0,1.654-1.346,3-3,3h-3c-1.654,0-3-1.346-3-3v-81.5
			c0-1.654,1.346-3,3-3h3c1.654,0,3,1.346,3,3V155.006z"/>
		<path class="st8" d="M88.76,66.506h-3c-3.859,0-7,3.14-7,7v81.5c0,3.86,3.141,7,7,7h3c3.859,0,7-3.14,7-7v-81.5
			C95.76,69.646,92.619,66.506,88.76,66.506z M91.76,155.006c0,1.654-1.346,3-3,3h-3c-1.654,0-3-1.346-3-3v-81.5
			c0-1.654,1.346-3,3-3h3c1.654,0,3,1.346,3,3V155.006z"/>
		<path class="st8" d="M243.775,133.593h-26.354v-16.873h6.936c2.279,7.304,13.149,5.675,13.149-2c0-7.671-10.868-9.309-13.148-2
			h-6.937v-14.66c0-3.86-3.141-7-7-7h-14.66V78.883c0-2.642-4-2.646-4,0v12.177h-16.873V74.377c7.304-2.279,5.675-13.149-2-13.149
			c-7.672,0-9.308,10.868-2,13.149v16.683h-16.872v-18.38c0-2.642-4-2.646-4,0v18.38h-14.66c-3.859,0-7,3.14-7,7v14.66h-19.857
			c-2.642,0-2.646,4,0,4h19.857v16.873H102c-2.642,0-2.646,4,0,4h26.355v16.873h-7.232c-2.279-7.304-13.148-5.674-13.148,2
			c0,7.673,10.869,9.308,13.149,2h7.232v14.66c0,3.86,3.141,7,7,7h14.66v16.586c-7.306,2.28-5.675,13.148,2,13.148
			c7.671,0,9.31-10.867,2-13.148v-16.586h16.872v12.178c0,2.642,4,2.646,4,0v-12.178h16.873v26.355c0,2.642,4,2.646,4,0v-26.355
			h14.66c3.859,0,7-3.14,7-7v-14.66h15.722c2.642,0,2.646-4,0-4h-15.722v-16.873h26.354
			C246.418,137.593,246.421,133.593,243.775,133.593z M230.779,111.995c3.612,0,3.598,5.452,0,5.452
			C227.178,117.447,227.177,111.995,230.779,111.995z M111.975,156.466c0-3.602,5.452-3.602,5.452,0
			C117.427,160.068,111.975,160.069,111.975,156.466z M170.162,67.955c0-3.602,5.451-3.603,5.451,0
			C175.613,71.557,170.162,71.557,170.162,67.955z M154.741,203.134c0,3.603-5.452,3.603-5.452,0
			C149.289,199.531,154.741,199.532,154.741,203.134z M213.421,173.126c0,1.654-1.346,3-3,3h-75.065c-1.654,0-3-1.346-3-3V98.061
			c0-1.654,1.346-3,3-3h75.065c1.654,0,3,1.346,3,3V173.126z"/>
		<path class="st8" d="M199.5,101.981h-53.224c-3.859,0-7,3.14-7,7v53.224c0,3.86,3.141,7,7,7H199.5c3.859,0,7-3.14,7-7v-53.224
			C206.5,105.122,203.359,101.981,199.5,101.981z M202.5,162.205c0,1.654-1.346,3-3,3h-53.224c-1.654,0-3-1.346-3-3v-53.224
			c0-1.654,1.346-3,3-3H199.5c1.654,0,3,1.346,3,3V162.205z"/>
		<path class="st8" d="M44.25,171.087H22.74c-3.859,0-7,3.14-7,7v20.256c0,3.86,3.141,7,7,7h21.51c3.859,0,7-3.14,7-7v-20.256
			C51.25,174.227,48.109,171.087,44.25,171.087z M47.25,198.343c0,1.654-1.346,3-3,3H22.74c-1.654,0-3-1.346-3-3v-20.256
			c0-1.654,1.346-3,3-3h21.51c1.654,0,3,1.346,3,3V198.343z"/>
		<path class="st8" d="M88.76,171.087H67.25c-3.859,0-7,3.14-7,7v20.256c0,3.86,3.141,7,7,7h21.51c3.859,0,7-3.14,7-7v-20.256
			C95.76,174.227,92.619,171.087,88.76,171.087z M91.76,198.343c0,1.654-1.346,3-3,3H67.25c-1.654,0-3-1.346-3-3v-20.256
			c0-1.654,1.346-3,3-3h21.51c1.654,0,3,1.346,3,3V198.343z"/>
	</g>
</g>
</svg>
