<?xml version="1.0" ?><svg enable-background="new 0 0 32 32" version="1.1" viewBox="0 0 32 32" xml:space="preserve" xmlns="http://www.w3.org/2000/svg" xmlns:xlink="http://www.w3.org/1999/xlink"><g id="grid"/><g id="ball"/><g id="wistle"/><g id="pitch"/><g id="goal"/><g id="socks"/><g id="shoe"/><g id="jersey"/><g id="bottle"/><g id="shorts"/><g id="corner"/><g id="winner"/><g id="trophy"/><g id="substitution"/><g id="medal_award"/><g id="strategy"/><g id="card"/><g id="gloves"/><g id="stadium"/><g id="keeper"/><g id="time"/><g id="horns"/><g id="flag"/><g id="referee"/><g id="player"/><g id="injury"/><g id="supporter"/><g id="coach"/><g id="cone"/><g id="captain"/><g id="match"/><g id="score"/><g id="celender"/><g id="grass"/><g id="game"><path d="M2,4.57v11.303c0,0.084,0.009,0.169,0.026,0.251l1.857,8.897C4.002,25.591,4.504,26,5.087,26H8.06   c2.377,0,4.758-3.829,5.619-5.369C13.897,20.241,14.306,20,14.753,20h2.497c0.446,0,0.853,0.239,1.072,0.627   C19.189,22.165,21.586,26,23.94,26h2.973c0.582,0,1.085-0.409,1.204-0.979l1.857-8.897C29.991,16.042,30,15.957,30,15.873V4.509   c0-0.326-0.13-0.639-0.36-0.87L28.36,2.36C28.13,2.13,27.817,2,27.491,2H21.23C20.551,2,20,2.551,20,3.23v0.007   c0,0.467-0.265,0.894-0.684,1.102l-1.075,0.533C18.072,4.956,17.885,5,17.695,5h-3.39c-0.19,0-0.377-0.044-0.546-0.128   l-1.075-0.533C12.265,4.131,12,3.704,12,3.237V3.23C12,2.551,11.449,2,10.77,2H4.522C4.189,2,3.869,2.136,3.637,2.376l-1.292,1.34   C2.124,3.945,2,4.251,2,4.57z" fill="#E74C3C"/><path d="M29.64,3.64L28.36,2.36C28.13,2.13,27.817,2,27.491,2h-3c0.326,0,0.639,0.13,0.87,0.36   l1.28,1.279C26.87,3.87,27,4.183,27,4.509v11.364c0,0.084-0.009,0.169-0.026,0.251l-1.857,8.897   c-0.118,0.567-0.616,0.972-1.194,0.977c0.006,0,0.012,0.002,0.017,0.002h2.973c0.582,0,1.085-0.409,1.204-0.979l1.857-8.897   C29.991,16.042,30,15.957,30,15.873V4.509C30,4.183,29.87,3.87,29.64,3.64z" fill="#FFFFFF" opacity="0.2"/><path d="M6.883,25.021l-1.857-8.897C5.009,16.042,5,15.957,5,15.873V4.57c0-0.319,0.124-0.625,0.345-0.854   l1.292-1.34C6.869,2.136,7.189,2,7.522,2h-3C4.189,2,3.869,2.136,3.637,2.376l-1.292,1.34C2.124,3.945,2,4.251,2,4.57v11.303   c0,0.084,0.009,0.169,0.026,0.251l1.857,8.897C4.002,25.591,4.504,26,5.087,26H8.06c0.006,0,0.012-0.002,0.017-0.002   C7.499,25.994,7.001,25.588,6.883,25.021z" fill="#C0392B"/><g><path d="M30.347,2.933l-1.279-1.279C28.646,1.232,28.086,1,27.491,1H21.23C20,1,19,2,19,3.237    c0,0.088-0.049,0.167-0.128,0.206l-1.073,0.533C17.766,3.992,17.73,4,17.695,4h-3.391c-0.035,0-0.071-0.008-0.102-0.024    l-1.074-0.533C13.049,3.404,13,3.325,13,3.23C13,2,12,1,10.77,1H4.522C3.921,1,3.336,1.249,2.917,1.682l-1.293,1.34    C1.222,3.44,1,3.989,1,4.569v11.304c0,0.152,0.016,0.306,0.047,0.455l1.857,8.897C3.118,26.254,4.036,27,5.087,27H8.06    c2.789,0,5.264-3.685,6.492-5.882C14.593,21.044,14.668,21,14.753,21h2.497c0.084,0,0.159,0.044,0.201,0.118    C18.689,23.314,21.179,27,23.94,27h2.973c1.051,0,1.969-0.746,2.183-1.774l1.857-8.897C30.984,16.179,31,16.025,31,15.873V4.51    C31,3.914,30.768,3.354,30.347,2.933z M28.995,15.92l-1.857,8.897C27.116,24.924,27.021,25,26.913,25H23.94    c-1.218,0-3.082-1.909-4.747-4.863C18.799,19.436,18.054,19,17.25,19h-2.497c-0.807,0-1.553,0.438-1.947,1.143    C11.157,23.094,9.293,25,8.06,25H5.087c-0.108,0-0.203-0.076-0.225-0.183L3,15.873V4.569C3,4.51,3.023,4.453,3.064,4.41    l1.292-1.34C4.4,3.026,4.46,3,4.522,3h6.248C10.897,3,11,3.103,11,3.237c0,0.853,0.475,1.619,1.239,1.998l1.076,0.534    C13.622,5.92,13.964,6,14.305,6h3.391c0.341,0,0.683-0.08,0.991-0.232l1.075-0.533C20.525,4.855,21,4.09,21,3.23    C21,3.103,21.103,3,21.23,3h6.261c0.062,0,0.119,0.024,0.163,0.067l1.279,1.279C28.976,4.391,29,4.448,29,4.51L28.995,15.92z" fill="#2C3E50"/><path d="M30,29h-8c-0.552,0-1,0.447-1,1s0.448,1,1,1h8c0.552,0,1-0.447,1-1S30.552,29,30,29z" fill="#2C3E50"/><path d="M19,29h-2c-0.552,0-1,0.447-1,1s0.448,1,1,1h2c0.552,0,1-0.447,1-1S19.552,29,19,29z" fill="#2C3E50"/><path d="M14,29H2c-0.552,0-1,0.447-1,1s0.448,1,1,1h12c0.552,0,1-0.447,1-1S14.552,29,14,29z" fill="#2C3E50"/><path d="M17,12h-2c-0.552,0-1,0.447-1,1s0.448,1,1,1h2c0.552,0,1-0.447,1-1S17.552,12,17,12z" fill="#2C3E50"/><path d="M24,12h-1c-0.552,0-1,0.447-1,1v1c0,0.553,0.448,1,1,1h1c0.552,0,1-0.447,1-1v-1    C25,12.447,24.552,12,24,12z" fill="#2C3E50"/><path d="M22,10c0-0.553-0.448-1-1-1h-1c-0.552,0-1,0.447-1,1v1c0,0.553,0.448,1,1,1h1c0.552,0,1-0.447,1-1V10z" fill="#2C3E50"/><path d="M23,9h1c0.552,0,1-0.447,1-1V7c0-0.553-0.448-1-1-1h-1c-0.552,0-1,0.447-1,1v1C22,8.553,22.448,9,23,9z" fill="#2C3E50"/><path d="M27,9h-1c-0.552,0-1,0.447-1,1v1c0,0.553,0.448,1,1,1h1c0.552,0,1-0.447,1-1v-1C28,9.447,27.552,9,27,9z" fill="#2C3E50"/><path d="M9,12H8c-0.552,0-1,0.447-1,1v1c0,0.553,0.448,1,1,1h1c0.552,0,1-0.447,1-1v-1C10,12.447,9.552,12,9,12z" fill="#2C3E50"/><path d="M7,10c0-0.553-0.448-1-1-1H5c-0.552,0-1,0.447-1,1v1c0,0.553,0.448,1,1,1h1c0.552,0,1-0.447,1-1V10z" fill="#2C3E50"/><path d="M8,9h1c0.552,0,1-0.447,1-1V7c0-0.553-0.448-1-1-1H8C7.448,6,7,6.447,7,7v1C7,8.553,7.448,9,8,9z" fill="#2C3E50"/><path d="M12,9h-1c-0.552,0-1,0.447-1,1v1c0,0.553,0.448,1,1,1h1c0.552,0,1-0.447,1-1v-1C13,9.447,12.552,9,12,9z" fill="#2C3E50"/></g></g><g id="subsitutions"/><g id="bench"/></svg>