<?xml version="1.0" ?><svg data-name="Layer 1" id="Layer_1" viewBox="0 0 140 140" xmlns="http://www.w3.org/2000/svg"><defs><style>.cls-1{fill:#d77165;}.cls-2{fill:#525354;}.cls-3{fill:#d7dadb;}.cls-4{fill:#1a1a1a;}.cls-5{fill:#fff;}</style></defs><title/><circle class="cls-1" cx="70" cy="70" r="64"/><rect class="cls-2" height="98" rx="8" ry="8" width="47" x="47" y="21.5"/><rect class="cls-3" height="98" rx="8" ry="8" width="47" x="46" y="20.5"/><circle class="cls-2" cx="55" cy="31" r="4"/><circle class="cls-4" cx="55" cy="31" r="3"/><circle class="cls-5" cx="64" cy="31" r="2"/><path class="cls-2" d="M73,52.25A2.72,2.72,0,0,1,74.19,50a2.55,2.55,0,0,0-2.11-1.68,5,5,0,0,0-1.81.32,1.69,1.69,0,0,1-1.22,0,5,5,0,0,0-1.81-.32c-1.51,0-2.73,2-2.73,4.54S66.33,58,67.83,58c.44,0,1-.63,1.47-.78a1.28,1.28,0,0,1,.7,0c.51.15,1,.78,1.47.78,1.14,0,2.46-1.51,3-3.32A2.72,2.72,0,0,1,73,52.25Z"/><path class="cls-2" d="M71.53,46.61a3.57,3.57,0,0,1-2,.9,3.07,3.07,0,0,1,2.94-2.94A3.57,3.57,0,0,1,71.53,46.61Z"/></svg>