<?xml version="1.0" ?><!DOCTYPE svg  PUBLIC '-//W3C//DTD SVG 1.1//EN'  'http://www.w3.org/Graphics/SVG/1.1/DTD/svg11.dtd'><svg height="512px" id="Layer_1" style="enable-background:new 0 0 512 512;" version="1.1" viewBox="0 0 512 512" width="512px" xml:space="preserve" xmlns="http://www.w3.org/2000/svg" xmlns:xlink="http://www.w3.org/1999/xlink"><g id="Layer_1_1_"><circle cx="256" cy="261.504" r="243" style="fill:#E34F50;"/></g><g id="Layer_2"><g id="Favorite"/><g><g><path d="M61.235,389.529c-8.271,0-15-6.729-15-15V85.877c0-8.271,6.729-15,15-15h386.648     c8.271,0,15,6.729,15,15v288.651c0,8.271-6.729,15-15,15L61.235,389.529L61.235,389.529z" style="fill:#1A1A1A;"/><g><path d="M447.883,71.877c7.72,0,14,6.28,14,14v288.651c0,7.72-6.28,14-14,14H61.235      c-7.72,0-14-6.28-14-14V85.877c0-7.72,6.28-14,14-14H447.883 M447.883,69.877H61.235c-8.8,0-16,7.2-16,16v288.651      c0,8.8,7.2,16,16,16h386.648c8.8,0,16-7.2,16-16V85.877C463.883,77.077,456.683,69.877,447.883,69.877L447.883,69.877z" style="fill:#666666;"/></g></g><rect height="255.8" style="fill:#CBCBCB;" width="340.82" x="82.709" y="102.302"/><circle cx="63.499" cy="231.538" r="4.108" style="fill:#808080;"/><g><ellipse cx="444.201" cy="230.208" rx="9.35" ry="9.017" transform="matrix(-1 -0.0044 0.0044 -1 887.385 462.3685)"/></g><g><circle cx="443.519" cy="229.868" r="8.683" style="fill:#4D4D4D;"/><g style="opacity:0.6;adobe-blending-mode:multiply;"><path d="M443.523,221.185l0.026,1.764c1.848,0.008,3.583,0.735,4.884,2.048      s2.013,3.053,2.005,4.902c-0.016,3.799-3.12,6.889-6.949,6.889c-1.848-0.008-3.583-0.735-4.884-2.048s-2.013-3.053-2.005-4.902      c0.016-3.798,3.12-6.889,6.92-6.889L443.523,221.185 M443.518,221.185c-4.778,0-8.662,3.863-8.682,8.645      c-0.021,4.796,3.85,8.7,8.645,8.721c0.013,0,0.026,0,0.039,0c4.778,0,8.662-3.863,8.682-8.645c0.021-4.796-3.85-8.7-8.645-8.721      C443.544,221.185,443.531,221.185,443.518,221.185L443.518,221.185z" style="fill:#333333;adobe-blending-mode:normal;"/></g></g><circle cx="443.519" cy="229.868" r="3.199" style="fill:#333333;"/><rect height="77.02" style="fill:#26A5D0;" width="340.82" x="82.71" y="152.847"/><path d="M213.02,212.167    c0,6.4-1.61,12.43-4.44,17.7H142.5c-2.83-5.27-4.44-11.3-4.44-17.7c0-20.7,16.78-37.48,37.48-37.48S213.02,191.467,213.02,212.167    z" style="opacity:0.3;fill:#26A5D0;adobe-blending-mode:screen;enable-background:new    ;"/><path d="M356.31,229.867h-68.1    c5.93-12.88,18.95-21.81,34.05-21.81C337.36,208.057,350.38,216.987,356.31,229.867z" style="opacity:0.3;fill:#26A5D0;adobe-blending-mode:screen;enable-background:new    ;"/><path d="M368.53,152.847    c-2.49,18.28-18.17,32.36-37.13,32.36c-13.22,0-24.84-6.85-31.51-17.19c-2.9-4.49-4.87-9.64-5.62-15.17H368.53z" style="opacity:0.3;fill:#26A5D0;adobe-blending-mode:screen;enable-background:new    ;"/><circle cx="213.02" cy="178.804" r="25.599" style="opacity:0.3;fill:#26A5D0;adobe-blending-mode:screen;enable-background:new    ;"/><path d="M423.53,157.337v50.24    c-1.6,0.32-3.26,0.48-4.95,0.48c-14.13,0-25.59-11.46-25.59-25.6s11.46-25.6,25.59-25.6    C420.27,156.857,421.93,157.017,423.53,157.337z" style="opacity:0.3;fill:#26A5D0;adobe-blending-mode:screen;enable-background:new    ;"/><circle cx="343.282" cy="200.289" r="25.599" style="opacity:0.3;fill:#26A5D0;adobe-blending-mode:screen;enable-background:new    ;"/><path d="M306.99,153.207    c0,5.99-2.77,11.33-7.1,14.81c-3.26,2.63-7.4,4.2-11.91,4.2c-10.5,0-19.02-8.51-19.02-19.01c0-0.12,0-0.24,0.01-0.36h38.01    C306.99,152.967,306.99,153.087,306.99,153.207z" style="opacity:0.3;fill:#26A5D0;adobe-blending-mode:screen;enable-background:new    ;"/><path d="M180.11,229.867c0,14.38-7.72,26.96-19.25,33.81c-5.87,3.49-12.73,5.5-20.06,5.5    c-8.31,0-16.02-2.58-22.36-6.98c-10.24-7.1-16.94-18.93-16.94-32.33c0-21.71,17.6-39.3,39.3-39.3    C162.51,190.567,180.11,208.157,180.11,229.867z" style="fill:#F1F1F1;"/><ellipse cx="140.803" cy="218.527" rx="12.447" ry="16.037" style="fill:#F4B93D;"/><path d="M163.34,254.177c0,3.2-0.89,6.48-2.48,9.5c-5.87,3.49-12.73,5.5-20.06,5.5    c-8.31,0-16.02-2.58-22.36-6.98c-1.13-2.6-1.76-5.33-1.76-8.02c0-11,10.44-17.08,23.33-17.08    C152.89,237.097,163.34,243.177,163.34,254.177z" style="fill:#8CC53F;"/><rect height="8.497" style="opacity:0.5;fill:#335C64;enable-background:new    ;" width="85.921" x="95.83" y="286.904"/><rect height="8.497" style="opacity:0.5;fill:#335C64;enable-background:new    ;" width="85.921" x="95.83" y="306.749"/><rect height="8.497" style="opacity:0.5;fill:#335C64;enable-background:new    ;" width="85.921" x="95.83" y="326.594"/><rect height="5.597" style="opacity:0.1;fill:#335C64;enable-background:new    ;" width="195.22" x="213.04" y="250.083"/><rect height="5.597" style="opacity:0.1;fill:#335C64;enable-background:new    ;" width="195.22" x="213.04" y="263.153"/><rect height="5.597" style="opacity:0.1;fill:#335C64;enable-background:new    ;" width="195.22" x="213.04" y="276.224"/><rect height="5.597" style="opacity:0.1;fill:#335C64;enable-background:new    ;" width="195.22" x="213.04" y="303.352"/><rect height="5.597" style="opacity:0.1;fill:#335C64;enable-background:new    ;" width="195.22" x="213.04" y="316.423"/><rect height="5.597" style="opacity:0.1;fill:#335C64;enable-background:new    ;" width="195.22" x="213.04" y="329.494"/><rect height="9.63" style="fill:#26A5D0;" width="59.48" x="90.307" y="130.005"/><rect height="9.63" style="opacity:0.1;fill:#335C64;enable-background:new    ;" width="59.48" x="166.214" y="130.005"/><rect height="9.63" style="opacity:0.1;fill:#335C64;enable-background:new    ;" width="59.48" x="239.22" y="130.005"/><rect height="9.63" style="opacity:0.1;fill:#335C64;enable-background:new    ;" width="59.48" x="310.65" y="130.005"/></g></g></svg>