<svg xmlns="http://www.w3.org/2000/svg" viewBox="0 0 512 512"><defs><style>.cls-1{fill:#fc4581;}.cls-2{fill:#32314b;}.cls-3{fill:#fff;}.cls-4{fill:#dcd4ff;}.cls-5{fill:#27273d;}.cls-6{fill:#4f4f74;}.cls-7{fill:#3e436d;}.cls-8{fill:#b0d46c;}.cls-9{fill:#616187;}</style></defs><title>50-Computer-Hardware</title><g id="BULINE"><circle class="cls-1" cx="256" cy="256" r="256"/></g><g id="Icons"><rect class="cls-2" x="133.89" y="70.13" width="244.81" height="137.09"/><path class="cls-3" d="M326.19,105.26a117.06,117.06,0,0,0-69.9-23c-1.89,0-3.77,0-5.63.13a117.74,117.74,0,1,0,75.53,22.85Zm-69.9,115.3a20.54,20.54,0,0,1-9.14-38.93,20.26,20.26,0,0,1,8.29-2.13l.85,0a20.48,20.48,0,0,1,11.89,3.79,21.25,21.25,0,0,1,2.09,1.7,20.54,20.54,0,0,1-14,35.59Z"/><path class="cls-4" d="M255.44,179.5a20.26,20.26,0,0,0-8.29,2.13l-50.43-83.2a117.13,117.13,0,0,1,53.94-16Z"/><path class="cls-4" d="M326.19,105.26,270.27,185a21.25,21.25,0,0,0-2.09-1.7L295,88.77A117.49,117.49,0,0,1,326.19,105.26Z"/><path class="cls-5" d="M256.29,161.35A38.67,38.67,0,1,0,295,200,38.67,38.67,0,0,0,256.29,161.35Zm0,58.46A19.79,19.79,0,1,1,276.08,200,19.79,19.79,0,0,1,256.29,219.81Z"/><path class="cls-6" d="M141.08,200H371.51a7.19,7.19,0,0,1,7.19,7.19V436a20.54,20.54,0,0,1-20.54,20.54H154.43A20.54,20.54,0,0,1,133.89,436V207.21A7.19,7.19,0,0,1,141.08,200Z"/><path class="cls-7" d="M378.7,428.17V436a20.55,20.55,0,0,1-20.54,20.54H154.43A20.55,20.55,0,0,1,133.89,436V207.21a7.19,7.19,0,0,1,7.2-7.19h24.8V407.63a20.55,20.55,0,0,0,20.54,20.54Z"/><rect class="cls-7" x="126.91" y="55.46" width="258.77" height="15.67" rx="2.66"/><circle class="cls-8" cx="349.26" cy="222.32" r="11.17"/><circle class="cls-9" cx="349.26" cy="335.57" r="19.87"/><circle class="cls-9" cx="349.26" cy="294.18" r="14.07"/></g></svg>