<svg xmlns="http://www.w3.org/2000/svg" viewBox="0 0 58 58"><g fill="none"><path fill="#f29c1f" d="M11 4h14c1.1046 0 2 .8954 2 2v19H9V6c0-1.1046.8954-2 2-2m22 0h14c1.1046 0 2 .8954 2 2v19H31V6c0-1.1046.8954-2 2-2M11 32h14c1.1046 0 2 .8954 2 2v19H9V34c0-1.1046.8954-2 2-2m22 0h14c1.1046 0 2 .8954 2 2v19H31V34c0-1.1046.8954-2 2-2"/><path fill="#bdc3c7" d="M4 22h50v4H4zm0 28h50v4H4z"/><rect width="5" height="58" fill="#3b97d3" rx="1"/><rect width="5" height="58" x="53" fill="#3b97d3" rx="1"/><path fill="#a56a43" d="m19.76 11.786-1.246-1.247a.728.728 0 0 0-1.028 0l-1.246 1.247a.727.727 0 0 1-1.24-.514V4h6v7.272a.727.727 0 0 1-1.24.514"/><path fill="#804537" d="M13 19c-.5523 0-1-.4477-1-1v-2c0-.5523.4477-1 1-1s1 .4477 1 1v2c0 .5523-.4477 1-1 1m4 0c-.5523 0-1-.4477-1-1v-2c0-.5523.4477-1 1-1s1 .4477 1 1v2c0 .5523-.4477 1-1 1"/><path fill="#a56a43" d="m41.76 11.786-1.246-1.247a.728.728 0 0 0-1.028 0l-1.246 1.247a.727.727 0 0 1-1.24-.514V4h6v7.272a.727.727 0 0 1-1.24.514"/><path fill="#804537" d="M35 19c-.5523 0-1-.4477-1-1v-2c0-.5523.4477-1 1-1s1 .4477 1 1v2c0 .5523-.4477 1-1 1m4 0c-.5523 0-1-.4477-1-1v-2c0-.5523.4477-1 1-1s1 .4477 1 1v2c0 .5523-.4477 1-1 1"/><path fill="#a56a43" d="m19.76 39.786-1.246-1.247a.728.728 0 0 0-1.028 0l-1.246 1.247a.727.727 0 0 1-1.24-.514V32h6v7.272a.727.727 0 0 1-1.24.514"/><path fill="#804537" d="M13 47c-.5523 0-1-.4477-1-1v-2c0-.5523.4477-1 1-1s1 .4477 1 1v2c0 .5523-.4477 1-1 1m4 0c-.5523 0-1-.4477-1-1v-2c0-.5523.4477-1 1-1s1 .4477 1 1v2c0 .5523-.4477 1-1 1"/><path fill="#a56a43" d="m41.76 39.786-1.246-1.247a.728.728 0 0 0-1.028 0l-1.246 1.247a.727.727 0 0 1-1.24-.514V32h6v7.272a.727.727 0 0 1-1.24.514"/><path fill="#804537" d="M35 47c-.5523 0-1-.4477-1-1v-2c0-.5523.4477-1 1-1s1 .4477 1 1v2c0 .5523-.4477 1-1 1m4 0c-.5523 0-1-.4477-1-1v-2c0-.5523.4477-1 1-1s1 .4477 1 1v2c0 .5523-.4477 1-1 1"/></g></svg>