<svg xmlns="http://www.w3.org/2000/svg" viewBox="0 0 48 48"><title>10-eye</title><g id="_10-eye" data-name="10-eye"><path d="M33.83,16.12A33.8,33.8,0,0,0,23,14a27.506,27.506,0,0,0-8.84,1.76C7.65,18.09,1.31,22.51,1.01,27.63a15.843,15.843,0,0,1,1.79-7.1C6.3,13.91,14.47,10,24,10c8.74,0,16.33,3.56,20.23,9.18a15.283,15.283,0,0,1,2.76,8.44C46.68,22.76,40.53,18.53,33.83,16.12Z" style="fill:#ffcdbe"/><path d="M14.16,15.76A27.506,27.506,0,0,1,23,14a33.8,33.8,0,0,1,10.83,2.12C39.071,18.005,43.961,21.006,46,24.549A15.743,15.743,0,0,0,44.23,21.18C40.33,15.56,32.74,12,24,12,14.47,12,6.3,15.91,2.8,22.53a15.77,15.77,0,0,0-.857,2.006C3.972,20.762,9.006,17.6,14.16,15.76Z" style="fill:#faa68e"/><path d="M23,14a33.8,33.8,0,0,1,10.83,2.12A12,12,0,1,1,14.25,16l-.09-.24A27.506,27.506,0,0,1,23,14Z" style="fill:#376dff"/><path d="M23.465,14.014c-1,.015-1.98.065-2.941.165A31.092,31.092,0,0,0,14.16,15.76l.09.24a11.889,11.889,0,0,0-1.982,4.506c.626-.266,1.257-.519,1.892-.746A27.506,27.506,0,0,1,23,18a33.8,33.8,0,0,1,10.83,2.12c.668.24,1.327.5,1.978.778A12.028,12.028,0,0,0,33.83,16.12,34.427,34.427,0,0,0,23.465,14.014Z" style="fill:#2a54c4"/><path d="M46.99,27.62c.01.12.01.25.01.38,0,1.12-1.52,2.81-4.07,4.48A36.222,36.222,0,0,1,24,38c-9.12,0-16.57-3.31-20.34-6.35C1.95,30.27,1,28.94,1,28c0-.13,0-.25.01-.37.3-5.12,6.64-9.54,13.15-11.87l.09.24a12,12,0,1,0,19.58.12C40.53,18.53,46.68,22.76,46.99,27.62Z" style="fill:#e8eeff"/><path d="M46.99,27.62c-.31-4.86-6.46-9.09-13.16-11.5.122.176.235.358.348.541C39.641,19.134,44.394,23.1,44.651,27.62c.009.12.009.25.009.38,0,1.12-1.355,2.81-3.628,4.48a29.986,29.986,0,0,1-15.56,5.485A36.3,36.3,0,0,0,42.93,32.48C45.48,30.81,47,29.12,47,28,47,27.87,47,27.74,46.99,27.62Z" style="fill:#bccced"/><path d="M3.66,28c0-.13,0-.25.009-.37.246-4.712,5.054-8.827,10.342-11.27.08-.12.155-.243.239-.36l-.09-.24C7.65,18.09,1.31,22.51,1.01,27.63,1,27.75,1,27.87,1,28c0,.94.95,2.27,2.66,3.65C7.43,34.69,14.88,38,24,38l.085,0c-8.094-.02-14.7-3.317-18.054-6.348C4.507,30.27,3.66,28.94,3.66,28Z" style="fill:#bccced"/><path d="M46.949,27.324c-.247,1.108-1.7,2.638-4.019,4.156A36.222,36.222,0,0,1,24,37c-9.12,0-16.57-3.31-20.34-6.35a7.075,7.075,0,0,1-2.616-3.28c-.008.087-.029.173-.034.26C1,27.75,1,27.87,1,28c0,.94.95,2.27,2.66,3.65C7.43,34.69,14.88,38,24,38a36.222,36.222,0,0,0,18.93-5.52C45.48,30.81,47,29.12,47,28c0-.13,0-.26-.01-.38C46.984,27.52,46.96,27.423,46.949,27.324Z" style="fill:#faa68e"/><circle cx="23.66" cy="23" r="9" style="fill:#2a54c4"/><path d="M30,19a3,3,0,0,1,0,6c-.11,0-.23-.01-.34-.02A3,3,0,0,1,30,19Z" style="fill:#e8eeff"/><path d="M28.57,19.36a3,3,0,0,0,1.09,5.62V25a6.005,6.005,0,1,1-1.19-6Z" style="fill:#192b44"/><path d="M47,19.5a.5.5,0,0,1-.5-.5,6.668,6.668,0,0,0-.066-.925.5.5,0,1,1,.99-.139A7.571,7.571,0,0,1,47.5,19,.5.5,0,0,1,47,19.5ZM1.025,18.922a.317.317,0,0,1-.043,0,.5.5,0,0,1-.456-.539,7.941,7.941,0,0,1,.161-1.053.5.5,0,1,1,.977.217,7.108,7.108,0,0,0-.142.919A.5.5,0,0,1,1.025,18.922ZM46.4,16.584a.5.5,0,0,1-.462-.311q-.177-.432-.4-.859a.5.5,0,0,1,.885-.467q.249.473.443.949a.5.5,0,0,1-.463.688ZM1.836,16.056a.481.481,0,0,1-.214-.049.5.5,0,0,1-.238-.665c.146-.31.312-.617.5-.924a.5.5,0,0,1,.857.515q-.249.416-.449.837A.5.5,0,0,1,1.836,16.056ZM44.891,14a.5.5,0,0,1-.4-.2q-.288-.377-.614-.744a.5.5,0,0,1,.748-.664q.349.4.659.8a.5.5,0,0,1-.4.8Zm-41.42-.451a.5.5,0,0,1-.384-.82q.324-.39.688-.771a.5.5,0,0,1,.723.691q-.339.355-.644.72A.5.5,0,0,1,3.471,13.551ZM42.84,11.82a.5.5,0,0,1-.331-.125q-.36-.318-.746-.626a.5.5,0,1,1,.621-.783q.409.324.787.66a.5.5,0,0,1-.331.874ZM5.6,11.443a.5.5,0,0,1-.32-.885q.388-.322.8-.635a.5.5,0,0,1,.6.8q-.4.3-.766.6A.5.5,0,0,1,5.6,11.443ZM40.451,10.01a.508.508,0,0,1-.273-.081q-.4-.264-.83-.516a.5.5,0,1,1,.507-.861c.3.176.587.355.87.539a.5.5,0,0,1-.274.919ZM8.038,9.7a.5.5,0,0,1-.262-.927c.287-.175.58-.348.88-.516a.5.5,0,0,1,.489.873q-.433.243-.845.5A.5.5,0,0,1,8.038,9.7Zm29.8-1.165a.5.5,0,0,1-.219-.05q-.438-.213-.891-.414a.5.5,0,0,1,.405-.914c.313.138.622.281.924.428a.5.5,0,0,1-.219.95ZM10.682,8.287a.5.5,0,0,1-.209-.954c.3-.141.616-.278.931-.41a.5.5,0,0,1,.387.923c-.306.127-.605.259-.9.395A.5.5,0,0,1,10.682,8.287ZM35.077,7.37a.5.5,0,0,1-.169-.03q-.457-.165-.931-.318a.5.5,0,1,1,.306-.952q.49.159.963.329a.5.5,0,0,1-.169.971ZM13.469,7.179a.5.5,0,0,1-.16-.973q.477-.162.968-.31a.5.5,0,1,1,.289.957q-.476.144-.937.3A.5.5,0,0,1,13.469,7.179ZM32.208,6.5a.515.515,0,0,1-.122-.015q-.472-.118-.959-.226a.5.5,0,1,1,.215-.976q.5.11.988.232a.5.5,0,0,1-.122.985ZM16.354,6.36a.5.5,0,0,1-.113-.987q.491-.114.992-.214a.5.5,0,0,1,.2.981q-.488.1-.963.208A.552.552,0,0,1,16.354,6.36ZM29.27,5.9a.713.713,0,0,1-.079,0q-.481-.075-.974-.137a.5.5,0,1,1,.121-.992c.34.042.675.088,1.008.14a.5.5,0,0,1-.076.994ZM19.3,5.818a.5.5,0,0,1-.068-.995q.5-.071,1.008-.124a.512.512,0,0,1,.55.444.5.5,0,0,1-.444.55q-.494.054-.977.12A.521.521,0,0,1,19.3,5.818Zm6.984-.244h-.032q-.489-.032-.985-.051A.5.5,0,0,1,24.789,5a.487.487,0,0,1,.519-.481c.34.013.678.031,1.012.052a.5.5,0,0,1-.032,1Zm-4-.032a.5.5,0,0,1-.024-1c.336-.016.673-.028,1.014-.035a.52.52,0,0,1,.51.49.5.5,0,0,1-.49.51c-.331.007-.659.018-.986.034Z" style="fill:#a7bfe8"/><path d="M23.914,43.5h0c-.341,0-.678-.006-1.014-.017a.5.5,0,0,1-.484-.515.487.487,0,0,1,.516-.485c.326.011.655.016.986.017a.5.5,0,0,1,0,1Zm2-.052a.5.5,0,0,1-.027-1c.33-.018.658-.04.982-.068a.5.5,0,0,1,.084,1c-.334.029-.672.052-1.012.071Zm-4.993-.083-.045,0q-.508-.045-1.01-.1a.5.5,0,0,1-.437-.555.512.512,0,0,1,.554-.438c.325.039.652.072.981.1a.5.5,0,0,1-.043,1Zm7.976-.211a.5.5,0,0,1-.071-1c.327-.047.652-.1.973-.155a.5.5,0,0,1,.172.986c-.331.057-.665.111-1,.159A.443.443,0,0,1,28.9,43.154Zm-10.95-.187a.463.463,0,0,1-.09-.008c-.335-.061-.668-.126-1-.2a.5.5,0,0,1,.207-.978q.479.1.967.189a.5.5,0,0,1-.088.992Zm13.9-.373a.5.5,0,0,1-.116-.987c.321-.076.639-.157.952-.243a.5.5,0,1,1,.265.964c-.324.089-.652.172-.985.252A.518.518,0,0,1,31.843,42.594Zm-16.822-.3a.522.522,0,0,1-.135-.018q-.493-.139-.973-.289a.5.5,0,0,1,.3-.954q.466.145.943.28a.5.5,0,0,1-.134.981Zm19.7-.544a.5.5,0,0,1-.163-.972q.468-.162.922-.337a.5.5,0,1,1,.36.933q-.47.182-.956.349A.493.493,0,0,1,34.722,41.755Zm-22.546-.4a.517.517,0,0,1-.184-.035c-.318-.126-.633-.255-.94-.389a.5.5,0,1,1,.4-.917q.447.194.909.375a.5.5,0,0,1-.183.966ZM37.5,40.628a.5.5,0,0,1-.213-.952c.3-.141.593-.287.882-.435a.5.5,0,1,1,.457.888q-.449.233-.913.451A.49.49,0,0,1,37.5,40.628ZM9.448,40.1a.506.506,0,0,1-.232-.057q-.457-.24-.894-.494a.5.5,0,0,1,.5-.865q.42.243.859.473a.5.5,0,0,1-.233.943Zm30.685-.912a.5.5,0,0,1-.266-.923q.419-.264.819-.539a.5.5,0,1,1,.566.824q-.414.287-.854.562A.5.5,0,0,1,40.133,39.193ZM6.888,38.544a.5.5,0,0,1-.287-.09c-.285-.2-.559-.4-.825-.611a.5.5,0,0,1,.616-.788c.252.2.512.391.783.58a.5.5,0,0,1-.287.909Zm35.667-1.117a.5.5,0,0,1-.325-.881c.251-.213.493-.43.723-.65a.5.5,0,0,1,.69.724q-.367.35-.764.688A.5.5,0,0,1,42.555,37.427Zm-37.98-.788a.5.5,0,0,1-.348-.141c-.25-.244-.491-.491-.717-.74a.5.5,0,1,1,.738-.674c.215.235.439.467.676.7a.5.5,0,0,1-.349.858Zm40.083-1.346a.5.5,0,0,1-.388-.814q.309-.383.58-.771a.5.5,0,1,1,.82.573q-.291.417-.623.827A.5.5,0,0,1,44.658,35.293Zm-42.016-.94a.5.5,0,0,1-.415-.222q-.3-.441-.544-.889a.5.5,0,1,1,.875-.484q.227.411.5.816a.5.5,0,0,1-.415.779Z" style="fill:#a7bfe8"/><path d="M47.707,3.293l-3-3a1,1,0,0,0-1.414,0l-3,3,1.414,1.414L43,3.414V7h2V3.414l1.293,1.293Z" style="fill:#4f7fff"/><path d="M5,44.586V41H3v3.586L1.707,43.293.293,44.707l3,3a1,1,0,0,0,1.414,0l3-3L6.293,43.293Z" style="fill:#4f7fff"/><path d="M4.707,46.707a1,1,0,0,1-1.414,0l-2.5-2.5-.5.5,3,3a1,1,0,0,0,1.414,0l3-3-.5-.5Z" style="fill:#759bff"/><path d="M44.707,1.293l2.5,2.5.5-.5-3-3a1,1,0,0,0-1.414,0l-3,3,.5.5,2.5-2.5A1,1,0,0,1,44.707,1.293Z" style="fill:#759bff"/></g></svg>