<svg enable-background="new 0 0 256 256" viewBox="0 0 256 256" xmlns="http://www.w3.org/2000/svg"><g fill="#afafaf"><path d="m46.24 131.38v33.932h-34.56v-78.732h15.25c-1.43 4.1-2.14 8.52-1.99 13.14.46 14.09 9.15 26.14 21.3 31.66z"/><path d="m73.42 86.58v15.57l-28.27-.01v-15.56z"/><path d="m244.32 86.58v78.732h-171.99v-33.882c12.57-5.65 21.32-18.26 21.33-32.93 0-4.18-.71-8.19-2.02-11.92h27.95v1.3l2.8 5.3v35.96h11.22v-35.76l2.8-5.5v-1.3h30.17v28.93c5.75 0 10.42-4.67 10.42-10.42v-8.32h54.08v-10.19z"/></g><path d="m244.32 165.312v74.02c0 5.53-4.48 10-10 10h-212.64c-5.52 0-10-4.47-10-10v-74.02z" fill="#f0c020"/><path d="m233.32 240.832h-194.161c-1.381 0-2.5-1.119-2.5-2.5s1.119-2.5 2.5-2.5h191.661v-59.339c0-1.381 1.119-2.5 2.5-2.5s2.5 1.119 2.5 2.5v61.839c0 1.381-1.119 2.5-2.5 2.5zm-204.161 0h-6.479c-1.381 0-2.5-1.119-2.5-2.5s1.119-2.5 2.5-2.5h6.479c1.381 0 2.5 1.119 2.5 2.5s-1.119 2.5-2.5 2.5z" fill="#f9e5af"/><path d="m244.32 52.43v34.15h-13.24v-12.81c0-2.76-2.24-5-5-5h-54.5c-2.76 0-5 2.24-5 5v12.81h-30.17v-14.81c0-1.65-1.34-3-3-3h-10.82c-1.66 0-3 1.35-3 3v14.81h-27.95c-2.47-7.06-7.08-13.12-13.04-17.41-2.15-1.55-5.18.02-5.18 2.7v14.71h-28.27v-14.72c0-2.65-3-4.24-5.16-2.69-5.97 4.28-10.58 10.34-13.06 17.41h-15.25v-34.15c0-5.79 4.69-10.48 10.48-10.48h211.68c5.79 0 10.48 4.69 10.48 10.48z" fill="#f0c020"/><path d="m173.474 6.668h-90.948c-2.761 0-5 2.239-5 5v9.321h100.948v-9.321c0-2.761-2.239-5-5-5z" fill="#fc5d3d"/><path d="m147.63 165.312h-39.26c0-3.54.95-7.802 2.76-10.842 3.23-5.37 2.91-10.11 2.91-13.41h27.92c0 3.43-.29 7.47 2.4 12.5.62 1.21 3.27 5.722 3.27 11.752z" fill="#72c2e9"/><path d="m138.505 167.813c-1.381 0-2.5-1.119-2.5-2.5 0-1.856-.155-2.942-1.073-4.469-1.619-2.731-2.657-5.703-3.093-8.845-.19-1.367.765-2.63 2.132-2.82 1.375-.176 2.63.766 2.82 2.133.345 2.48 1.164 4.825 2.435 6.97 1.487 2.474 1.779 4.452 1.779 7.031 0 1.38-1.119 2.5-2.5 2.5z" fill="#c5e5fe"/><path d="m142.987 141.06h-29.98c-4.01 0-6.88-3.9-5.69-7.73.75-2.42 3.02-4.19 5.69-4.19h29.98c2.67 0 4.94 1.77 5.7 4.19 1.18 3.84-1.69 7.73-5.7 7.73z" fill="#fc5d3d"/><path d="m136.41 71.77v16.11l-2.8 5.5v35.76h-11.22v-35.96l-2.8-5.3v-16.11c0-1.65 1.34-3 3-3h10.82c1.66 0 3 1.35 3 3z" fill="#efefef"/><path d="m192.24 96.773h19.76v68.539h-19.76z" fill="#72c2e9"/><path d="m231.08 73.77v23h-54.08v8.32c0 5.75-4.67 10.42-10.42 10.42v-41.74c0-2.76 2.24-5 5-5h54.5c2.76 0 5 2.24 5 5z" fill="#efefef"/><path d="m160.842 188.002h-65.684l-4.495-22.69h74.674z" fill="#fc5d3d"/><path d="m231.08 62.833c-1.381 0-2.5-1.119-2.5-2.5v-5.5h-191.9c-1.381 0-2.5-1.119-2.5-2.5s1.119-2.5 2.5-2.5h194.4c1.381 0 2.5 1.119 2.5 2.5v8c0 1.381-1.119 2.5-2.5 2.5zm-204.4-8h-4c-1.381 0-2.5-1.119-2.5-2.5s1.119-2.5 2.5-2.5h4c1.381 0 2.5 1.119 2.5 2.5s-1.119 2.5-2.5 2.5z" fill="#f9e5af"/><path d="m93.66 98.5c-.01 14.67-8.76 27.28-21.33 32.93v33.882h-26.09v-33.932c-12.15-5.52-20.84-17.57-21.3-31.66-.15-4.62.56-9.04 1.99-13.14 2.48-7.07 7.09-13.13 13.06-17.41 2.16-1.55 5.16.04 5.16 2.69v30.28l28.27.01v-30.28c0-2.68 3.03-4.25 5.18-2.7 5.96 4.29 10.57 10.35 13.04 17.41 1.31 3.73 2.02 7.74 2.02 11.92z" fill="#efefef"/><path d="m62.33 167.813c-1.381 0-2.5-1.119-2.5-2.5v-40.343c0-.984.577-1.876 1.475-2.28 4.64-2.085 9.01-3.657 12.753-7.291.991-.961 2.573-.938 3.535.053.961.99.938 2.573-.053 3.535-3.889 3.775-8.147 5.625-12.71 7.61v38.716c0 1.38-1.119 2.5-2.5 2.5zm18.085-56.508c-1.245-.599-1.768-2.093-1.169-3.337.543-1.129 1.061-2.36 1.537-3.659.476-1.296 1.913-1.964 3.208-1.485 1.296.476 1.962 1.911 1.486 3.208-.532 1.449-1.112 2.83-1.725 4.104-.598 1.239-2.088 1.77-3.337 1.169z" fill="#fff"/><path d="m204.04 160c-1.381 0-2.5-1.119-2.5-2.5v-2.25c0-1.381 1.119-2.5 2.5-2.5s2.5 1.119 2.5 2.5v2.25c0 1.381-1.119 2.5-2.5 2.5zm0-12.25c-1.381 0-2.5-1.119-2.5-2.5v-38c0-1.381 1.119-2.5 2.5-2.5s2.5 1.119 2.5 2.5v38c0 1.381-1.119 2.5-2.5 2.5z" fill="#c5e5fe"/><path d="m149.917 176.747c0-1.381-1.119-2.5-2.5-2.5h-38.833c-1.381 0-2.5 1.119-2.5 2.5s1.119 2.5 2.5 2.5h38.833c1.38 0 2.5-1.119 2.5-2.5z"/><circle cx="120.84" cy="188" r="2.5"/><circle cx="53.29" cy="41.95" r="2.5"/><path d="m233.84 39.45h-52.866c0-10.835 0-17.674 0-27.782 0-4.136-3.364-7.5-7.5-7.5h-90.948c-4.136 0-7.5 3.364-7.5 7.5v27.782h-11.736c-1.38 0-2.5 1.119-2.5 2.5 0 1.38 1.12 2.5 2.5 2.5h170.55c4.39.01 7.97 3.59 7.98 7.979v31.65h-8.24v-10.309c0-4.136-3.364-7.5-7.5-7.5h-54.5c-4.136 0-7.5 3.364-7.5 7.5v10.31h-25.17v-12.31c0-3.032-2.467-5.5-5.5-5.5h-10.82c-3.033 0-5.5 2.468-5.5 5.5v12.31h-23.749c-2.731-6.781-7.278-12.619-13.279-16.938-3.795-2.737-9.142.008-9.142 4.729v12.21h-23.27v-12.222c0-4.689-5.31-7.448-9.116-4.722-6.005 4.306-10.56 10.144-13.303 16.942h-11.051v-31.649c.01-4.39 3.59-7.97 7.98-7.979h21.13c1.38 0 2.5-1.12 2.5-2.5 0-1.381-1.12-2.5-2.5-2.5h-21.13c-7.16-.001-12.98 5.819-12.98 12.979v186.902c0 6.893 5.607 12.5 12.5 12.5h212.64c6.893 0 12.5-5.607 12.5-12.5v-74.02c0-10.274 0-99.819 0-112.883 0-7.159-5.82-12.979-12.98-12.979zm-153.814-27.782c0-1.379 1.122-2.5 2.5-2.5h90.948c1.378 0 2.5 1.121 2.5 2.5v6.821h-95.948zm0 11.821h95.948v15.961h-95.948zm161.794 65.591v73.732h-27.32v-63.542h16.58c1.381 0 2.5-1.119 2.5-2.5v-7.69zm-13.24-15.31v20.5c-17.802 0-31.323 0-49.08 0v-23h46.58c1.378 0 2.5 1.121 2.5 2.5zm-59.5 0c0-1.379 1.122-2.5 2.5-2.5h2.92v33.82c0 3.494-2.274 6.467-5.42 7.516zm-2.5 44.24c7.124 0 12.92-5.796 12.92-12.92v-5.82h10.24v32.34c0 1.381 1.12 2.5 2.5 2.5s2.5-1.119 2.5-2.5v-32.34h14.76v63.54h-14.76v-11.2c0-1.38-1.12-2.5-2.5-2.5s-2.5 1.12-2.5 2.5v11.203c-20.397 0-28.434-.003-39.747-.003-.427-4.01-1.665-7.069-3.428-10.428-1.829-3.422-2.086-6.267-2.109-8.961 2.124-.368 4.02-1.515 5.335-3.296 1.616-2.187 2.084-4.932 1.281-7.544-1.116-3.554-4.366-5.94-8.085-5.94h-6.877v-32.662l2.495-4.899h25.475v26.43c0 1.381 1.119 2.5 2.5 2.5zm-70.42-19.508c0-.001 0-.001 0-.002 0-3.202-.394-6.358-1.164-9.42h22.401l2.494 4.72v32.841h-6.883c-3.67 0-6.992 2.446-8.077 5.947-.806 2.594-.343 5.337 1.271 7.527 1.316 1.788 3.216 2.939 5.344 3.307-.035 2.801-.361 6.108-2.562 9.769-1.548 2.599-2.61 6.122-2.968 9.619-26.423 0-4.763.003-31.184.003v-29.804c12.999-6.518 21.318-19.887 21.328-34.507zm46.827 33.139c1.501 0 2.864 1.003 3.311 2.424.328 1.066.135 2.192-.528 3.09-.661.894-1.675 1.406-2.783 1.406h-1.027-27.92-1.033c-1.107 0-2.121-.514-2.781-1.41-.661-.896-.851-2.02-.521-3.08.443-1.431 1.801-2.43 3.302-2.43h9.383 11.22zm-31.954 31.169c.329-2.605 1.138-5.202 2.239-7.052 2.807-4.667 3.224-8.969 3.271-12.197h22.91c.032 3.1.362 6.802 2.682 11.141 1.137 2.167 2.352 4.635 2.824 8.108zm11.057-91.04c0-.275.224-.5.5-.5h10.82c.276 0 .5.225.5.5v14.806.005s0 .003 0 .005v.695l-2.528 4.965c-.179.352-.272.74-.272 1.135v33.261h-6.22v-33.462c0-.407-.1-.808-.29-1.168l-2.511-4.752v-15.49zm-51.17 17.31v10.569l-23.27-.008v-10.561zm-29.472-17.879c.502-.361 1.202.033 1.202.658v30.281c0 1.381 1.119 2.5 2.499 2.5l28.27.01h.001c1.383 0 2.5-1.122 2.5-2.5v-30.28c0-.649.722-1.031 1.22-.671 8.911 6.413 14.021 16.538 14.021 27.299-.009 13.202-7.803 25.233-19.855 30.651-.898.403-1.475 1.296-1.475 2.28v31.383h-21.091v-31.432c0-.98-.573-1.87-1.466-2.276-11.638-5.287-19.424-16.854-19.836-29.465-.362-11.174 4.735-21.789 14.01-28.438zm-27.268 91.612v-73.733h9.398c-.872 3.48-1.255 7.073-1.137 10.722.456 13.96 8.758 26.8 21.299 33.15v29.86h-29.56zm227.64 76.519c0 4.136-3.365 7.5-7.5 7.5h-212.64c-4.135 0-7.5-3.364-7.5-7.5v-71.52h74.429l4.101 20.678c.23 1.159 1.26 2.01 2.45 2.01h15.68c1.38 0 2.5-1.12 2.5-2.5 0-1.37-1.11-2.49-2.48-2.5-.01 0-.01 0-.02 0h-13.63l-3.499-17.688h68.579l-3.5 17.688h-27.95c-1.38 0-2.5 1.12-2.5 2.5s1.12 2.5 2.5 2.5h30c1.19 0 2.22-.851 2.45-2.01l4.101-20.678h74.429z"/><circle cx="192.24" cy="141.609" r="2.5"/></svg>