<?xml version="1.0" ?><svg enable-background="new 0 0 52 52" id="Layer_1" version="1.1" viewBox="0 0 52 52" xml:space="preserve" xmlns="http://www.w3.org/2000/svg" xmlns:xlink="http://www.w3.org/1999/xlink"><g><g><g><polygon fill="#0096E6" points="7.5047302,44.5 5.5047302,44.5 5.5047302,9.5419922 2.4905701,9.5 2.5188904,7.5      7.5047302,7.5703125    "/></g></g><g><g><path d="M5.5094299,13.4953003v28h44v-28H5.5094299z M47.5094299,39.4953003h-40v-24h40V39.4953003z" fill="#0096E6"/></g></g><g><g><path d="M10.5094299,19.4953003v15h14v-15H10.5094299z M12.5094299,32.4953003v-11h10v11H12.5094299z" fill="#0096E6"/></g><g><rect fill="#D0E8F9" height="11" width="10" x="12.5094299" y="21.4953003"/></g></g><g><g><rect fill="#0096E6" height="3" width="2" x="21.5047302" y="17.5"/></g></g><g><g><rect fill="#0096E6" height="3" width="2" x="11.5047302" y="17.5"/></g></g><g><g><rect fill="#0096E6" height="3" width="2" x="16.5047302" y="17.5"/></g></g><g><g><rect fill="#0096E6" height="3" width="2" x="21.5047302" y="33.5"/></g></g><g><g><rect fill="#0096E6" height="3" width="2" x="11.5047302" y="33.5"/></g></g><g><g><rect fill="#0096E6" height="3" width="2" x="16.5047302" y="33.5"/></g></g><g><g><path d="M31.5094299,22.4953003v7h10v-7H31.5094299z M39.5094299,27.4953003h-6v-3h6V27.4953003z" fill="#0096E6"/></g><g><rect fill="#D0E8F9" height="3" width="6" x="33.5094299" y="24.4953003"/></g></g><g><g><rect fill="#0096E6" height="6" width="2" x="35.5047302" y="17.5"/></g></g><g><g><rect fill="#0096E6" height="6" width="2" x="35.5047302" y="28.5"/></g></g><g><g><rect fill="#0096E6" height="2" width="6" x="40.5047302" y="25"/></g></g><g><g><rect fill="#0096E6" height="2" width="6" x="26.5047302" y="25"/></g></g></g></svg>