<?xml version="1.0" encoding="utf-8"?>
<!-- Generator: Adobe Illustrator 24.0.0, SVG Export Plug-In . SVG Version: 6.00 Build 0)  -->
<svg version="1.1" xmlns="http://www.w3.org/2000/svg" xmlns:xlink="http://www.w3.org/1999/xlink" x="0px" y="0px"
	 viewBox="0 0 64 64" enable-background="new 0 0 64 64" xml:space="preserve">
<g id="Captions">
</g>
<g id="Icons">
	<g>
		<path fill="#00A0C8" d="M52.707,11.293l-3-3c-0.287-0.287-0.716-0.372-1.09-0.217C48.244,8.231,48,8.596,48,9v2H33
			c-0.552,0-1,0.448-1,1s0.448,1,1,1h15v2c0,0.404,0.244,0.769,0.617,0.924C48.741,15.975,48.871,16,49,16
			c0.26,0,0.516-0.102,0.707-0.293l3-3C53.098,12.316,53.098,11.684,52.707,11.293z"/>
		<g>
			<path fill="#0A5078" d="M40.001,30c-0.367,0-0.72-0.202-0.896-0.553l-2-4c-0.155-0.31-0.138-0.678,0.044-0.973
				C37.332,24.18,37.653,24,38,24h6c0.552,0,1,0.448,1,1s-0.448,1-1,1h-4.382l1.276,2.553c0.247,0.494,0.047,1.095-0.447,1.342
				C40.304,29.966,40.151,30,40.001,30z"/>
		</g>
		<g>
			<path fill="#00325A" d="M40.123,27.009c-0.108-0.013-0.22-0.01-0.333,0.013l-1.714,0.367L39,29.237l0.489-0.105l0.488,0.867
				c0.008,0,0.016,0.001,0.024,0.001c0.15,0,0.303-0.034,0.446-0.105c0.494-0.247,0.694-0.848,0.447-1.342L40.123,27.009z"/>
		</g>
		<g>
			<path fill="#C80A50" d="M59,60H5c-0.552,0-1-0.448-1-1v-2c0-0.552,0.448-1,1-1h54c0.552,0,1,0.448,1,1v2
				C60,59.552,59.552,60,59,60z"/>
		</g>
		<g>
			<path fill="#A00028" d="M59,58H5c-0.552,0-1-0.448-1-1l0,0c0-0.552,0.448-1,1-1h54c0.552,0,1,0.448,1,1l0,0
				C60,57.552,59.552,58,59,58z"/>
		</g>
		<g>
			<path fill="#0A5078" d="M15,34C8.925,34,4,38.925,4,45s4.925,11,11,11s11-4.925,11-11S21.075,34,15,34z M15,54
				c-4.971,0-9-4.029-9-9c0-4.971,4.029-9,9-9s9,4.029,9,9C24,49.971,19.971,54,15,54z"/>
		</g>
		<g>
			<path fill="#0A5078" d="M49,34c-6.075,0-11,4.925-11,11s4.925,11,11,11s11-4.925,11-11S55.075,34,49,34z M49,54
				c-4.971,0-9-4.029-9-9c0-4.971,4.029-9,9-9s9,4.029,9,9C58,49.971,53.971,54,49,54z"/>
		</g>
		<g>
			<circle fill="#C80A50" cx="15" cy="45" r="3"/>
		</g>
		<g>
			<circle fill="#C80A50" cx="49" cy="45" r="3"/>
		</g>
		<g>
			<path fill="#00325A" d="M21.972,39.309l1.31-1.548c-0.44-0.503-0.926-0.966-1.45-1.382l-1.293,1.528
				C21.067,38.319,21.548,38.79,21.972,39.309z"/>
		</g>
		<path fill="#00325A" d="M23.777,47h2.041C25.937,46.351,26,45.683,26,45h-2C24,45.687,23.923,46.357,23.777,47z"/>
		<path fill="#00325A" d="M43.35,37.995c0.518-0.419,1.084-0.781,1.689-1.078l-0.982-1.746c-0.6,0.302-1.168,0.658-1.698,1.06
			L43.35,37.995z"/>
		<path fill="#A00028" d="M17.235,47C17.711,46.469,18,45.768,18,45h-0.844l0.72-0.851c-0.202-0.684-0.641-1.266-1.223-1.651
			l-2.417,2.857c-0.252,0.297-0.308,0.713-0.144,1.067C14.257,46.774,14.611,47,15,47H17.235z"/>
		<path fill="#A00028" d="M47.995,42.173c-0.661,0.235-1.215,0.695-1.57,1.288l1.704,3.029c0.184,0.326,0.523,0.51,0.873,0.51
			c0.166,0,0.334-0.041,0.489-0.128c0.481-0.271,0.652-0.88,0.381-1.362L47.995,42.173z"/>
		<path fill="#00A0C8" d="M49.872,44.51l-9-16c-0.215-0.382-0.654-0.577-1.081-0.488l-13.694,2.934l-1.202-2.404
			c-0.247-0.494-0.846-0.696-1.342-0.447c-0.494,0.247-0.694,0.848-0.447,1.342l1.391,2.782l-10.26,12.125
			c-0.252,0.297-0.308,0.713-0.144,1.067C14.257,45.774,14.611,46,15,46h17v0c0,0,0.001,0,0.001,0c0.15,0,0.303-0.034,0.446-0.105
			c0.145-0.072,0.264-0.175,0.354-0.297l8.888-11.554l6.439,11.447c0.184,0.326,0.523,0.51,0.873,0.51
			c0.166,0,0.334-0.041,0.489-0.128C49.972,45.601,50.143,44.991,49.872,44.51z M25.469,34.175L30.382,44H17.156L25.469,34.175z
			 M32.181,43.125L27.02,32.804l12.469-2.672l1.134,2.017L32.181,43.125z"/>
		<path fill="#00A0C8" d="M49.872,44.51l-9-16c-0.215-0.382-0.654-0.577-1.081-0.488l-13.694,2.934l-1.202-2.404
			c-0.247-0.494-0.846-0.696-1.342-0.447c-0.494,0.247-0.694,0.848-0.447,1.342l1.391,2.782l-10.26,12.125
			c-0.252,0.297-0.308,0.713-0.144,1.067C14.257,45.774,14.611,46,15,46h17v0c0,0,0.001,0,0.001,0c0.15,0,0.303-0.034,0.446-0.105
			c0.145-0.072,0.264-0.175,0.354-0.297l8.888-11.554l6.439,11.447c0.184,0.326,0.523,0.51,0.873,0.51
			c0.166,0,0.334-0.041,0.489-0.128C49.972,45.601,50.143,44.991,49.872,44.51z M25.469,34.175L30.382,44H17.156L25.469,34.175z
			 M32.181,43.125L27.02,32.804l12.469-2.672l1.134,2.017L32.181,43.125z"/>
		<g>
			<path fill="#0082AA" d="M32,44h-4.874C27.044,44.32,27,44.655,27,45s0.044,0.68,0.126,1H32c0.552,0,1-0.448,1-1S32.552,44,32,44z
				"/>
		</g>
		<g>
			<circle fill="#FAB400" cx="32" cy="45" r="4"/>
		</g>
		<g>
			<circle fill="#DC9600" cx="32" cy="45" r="2"/>
		</g>
		<path fill="#0082AA" d="M24.895,28.553c-0.247-0.494-0.846-0.696-1.342-0.447c-0.494,0.247-0.694,0.848-0.447,1.342L23.382,30
			h2.236L24.895,28.553z"/>
		<g>
			<path fill="#0A5078" d="M26.5,29h-5c-0.828,0-1.5-0.672-1.5-1.5v0c0-0.828,0.672-1.5,1.5-1.5h5c0.828,0,1.5,0.672,1.5,1.5v0
				C28,28.328,27.328,29,26.5,29z"/>
		</g>
		<g>
			<circle fill="#FAB400" cx="44" cy="25" r="2"/>
		</g>
		<g>
			<circle fill="#DC9600" cx="44" cy="25" r="1"/>
		</g>
		<g>
			<path fill="#C80A50" d="M40,12c0-4.418-3.582-8-8-8s-8,3.582-8,8c0,1.457,0.396,2.818,1.076,3.995h-0.009l5.2,9.004h0.01
				C30.623,25.595,31.261,26,32,26s1.377-0.405,1.723-1.001h0.01l5.2-9.004h-0.009C39.604,14.818,40,13.457,40,12z"/>
		</g>
		<g>
			<circle fill="#A00028" cx="32" cy="13" r="4"/>
		</g>
		<g>
			<circle fill="#00A0C8" cx="32" cy="12" r="4"/>
		</g>
	</g>
</g>
</svg>
