<svg enable-background="new 0 0 500 500" viewBox="0 0 500 500" xmlns="http://www.w3.org/2000/svg"><path d="m280 90.5h-60v-56.3c0-16.1 13-29.2 29.1-29.2h1.8c16.1 0 29.1 13.1 29.1 29.2z" fill="#ecf4f7"/><path d="m280 95.5h-60c-2.8 0-5-2.2-5-5v-56.3c0-18.9 15.3-34.2 34.1-34.2h1.8c18.8 0 34.1 15.3 34.1 34.2v56.4c0 2.7-2.2 4.9-5 4.9zm-55-10h50v-51.3c0-13.3-10.8-24.2-24.2-24.2h-1.8c-13.2-0-24 10.8-24 24.2z" fill="#1c1d21"/><path d="m365.1 285.2v-94.4c0-63.6-51.5-115.1-115.1-115.1-63.6 0-115.1 51.5-115.1 115.1v94.4c0 33.6-8.9 66.5-25.9 95.5l-6.6 11.3c-12.1 20.7 2.8 46.7 26.8 46.7h241.6c24 0 38.9-26 26.8-46.7l-6.6-11.3c-17-28.9-25.9-61.9-25.9-95.5z" fill="#fddf7f"/><g fill="#1c1d21"><path d="m104 244.5c-2.8 0-5-2.2-5-5v-48.7c0-2.8 2.2-5 5-5s5 2.2 5 5v48.7c0 2.8-2.3 5-5 5z"/><path d="m100.8 321.8c-.3 0-.7 0-1-.1-2.7-.6-4.5-3.2-3.9-5.9 2-10.1 3.1-20.3 3.1-30.6 0-2.8 2.2-5 5-5s5 2.2 5 5c0 10.9-1.1 21.9-3.3 32.6-.5 2.4-2.6 4-4.9 4z"/><path d="m75.5 443.5c-1.7 0-3.4-.9-4.3-2.5-12.1-21.1-12-46.1.3-67.1l6.6-11.3c1.4-2.4 4.5-3.2 6.8-1.8 2.4 1.4 3.2 4.5 1.8 6.8l-6.6 11.4c-10.4 17.8-10.5 39.2-.2 57.1 1.4 2.4.5 5.5-1.8 6.8-.9.4-1.8.6-2.6.6z"/><path d="m121.8 125.9c-.8 0-1.6-.2-2.4-.6-2.4-1.3-3.3-4.4-2-6.8 4-7.2 8.6-14.2 13.7-20.8 10.4-13.3 22.9-24.7 37-33.8 2.3-1.5 5.4-.8 6.9 1.5s.8 5.4-1.5 6.9c-13.2 8.6-24.9 19.2-34.6 31.6-4.8 6.1-9.1 12.6-12.8 19.4-.8 1.7-2.5 2.6-4.3 2.6z"/><path d="m396 244.5c-2.8 0-5-2.2-5-5v-48.7c0-2.8 2.2-5 5-5s5 2.2 5 5v48.7c0 2.8-2.2 5-5 5z"/><path d="m399.2 321.8c-2.3 0-4.4-1.6-4.9-4-2.2-10.7-3.3-21.7-3.3-32.6 0-2.8 2.2-5 5-5s5 2.2 5 5c0 10.2 1 20.5 3.1 30.6.6 2.7-1.2 5.3-3.9 5.9-.3.1-.7.1-1 .1z"/><path d="m424.5 443.5c-.8 0-1.7-.2-2.5-.7-2.4-1.4-3.2-4.4-1.8-6.8 10.3-17.9 10.2-39.2-.2-57.1l-6.6-11.3c-1.4-2.4-.6-5.4 1.8-6.8s5.4-.6 6.8 1.8l6.6 11.3c12.3 21 12.4 46 .3 67.1-1 1.6-2.7 2.5-4.4 2.5z"/><path d="m378.2 125.9c-1.8 0-3.5-.9-4.4-2.6-3.7-6.8-8-13.3-12.8-19.4-9.7-12.4-21.4-23-34.6-31.6-2.3-1.5-3-4.6-1.5-6.9s4.6-3 6.9-1.5c14.2 9.2 26.6 20.5 37 33.8 5.1 6.5 9.7 13.5 13.7 20.8 1.3 2.4.4 5.5-2 6.8-.7.4-1.5.6-2.3.6z"/><path d="m370.8 443.8h-241.6c-13.1 0-24.8-6.8-31.3-18.1s-6.5-24.8.1-36.1l6.6-11.3c16.5-28.2 25.2-60.3 25.2-93v-94.4c0-66.2 53.9-120.1 120.1-120.1s120.1 53.9 120.1 120.1v94.4c0 32.6 8.7 64.8 25.2 93l6.6 11.3c6.6 11.3 6.6 24.8.1 36.1-6.4 11.3-18.1 18.1-31.1 18.1zm-120.8-363.1c-60.7 0-110.1 49.4-110.1 110.1v94.4c0 34.4-9.2 68.3-26.5 98l-6.6 11.3c-4.8 8.2-4.8 17.9-.1 26.1s13.1 13.1 22.6 13.1h241.6c9.4 0 17.9-4.9 22.6-13.1s4.7-17.9-.1-26.1l-6.6-11.3c-17.4-29.7-26.5-63.6-26.5-98v-94.4c-.2-60.7-49.6-110.1-110.3-110.1z"/></g><path d="m304.6 440.4c0 30.1-24.4 54.6-54.6 54.6s-54.6-24.4-54.6-54.6z" fill="#aab1ba"/><path d="m250 500c-32.9 0-59.6-26.7-59.6-59.6 0-2.8 2.2-5 5-5h109.2c2.8 0 5 2.2 5 5 0 32.9-26.7 59.6-59.6 59.6zm-49.3-54.6c2.5 25 23.7 44.6 49.3 44.6s46.8-19.6 49.3-44.6z" fill="#1c1d21"/><path d="m227.2 385.8h-80.8c-2.8 0-5-2.2-5-5s2.2-5 5-5h80.8c2.8 0 5 2.2 5 5 0 2.7-2.2 5-5 5z" fill="#1c1d21"/><path d="m287.9 385.8h-29.9c-2.8 0-5-2.2-5-5s2.2-5 5-5h29.9c2.8 0 5 2.2 5 5 0 2.7-2.2 5-5 5z" fill="#1c1d21"/><path d="m325.4 385.8h-9.5c-2.8 0-5-2.2-5-5s2.2-5 5-5h9.5c2.8 0 5 2.2 5 5 0 2.7-2.2 5-5 5z" fill="#1c1d21"/></svg>