<?xml version="1.0" ?><svg height="48" viewBox="0 0 48 48" width="48" xmlns="http://www.w3.org/2000/svg"><defs><style>.cls-1{fill:#f1f2f2;}.cls-2{fill:#fed049;}.cls-3{fill:#fa5c66;}.cls-4{fill:#35dc86;}.cls-5{fill:#d0d7df;}.cls-6{fill:none;stroke:#474c54;stroke-linecap:round;stroke-linejoin:round;stroke-width:2px;}</style></defs><title/><g data-name="17-Google chrome" id="_17-Google_chrome"><g data-name="&lt;Group&gt;" id="_Group_"><path class="cls-1" d="M32,24a8,8,0,0,1-15.94.99A8.1,8.1,0,0,1,16,24a8,8,0,0,1,16,0Z"/><path class="cls-2" d="M45.49,15.81A22.734,22.734,0,0,1,47,24,23,23,0,0,1,24,47l1.45-3.93L31,28l-.06-.03A7.992,7.992,0,0,0,24,16H45Z"/><path class="cls-3" d="M16,24a8.1,8.1,0,0,0,.06.99L16,25,12,9l-.99-3.97A22.982,22.982,0,0,1,45.49,15.81L45,16H24A8,8,0,0,0,16,24Z"/><path class="cls-4" d="M24,32a7.974,7.974,0,0,0,6.94-4.03L31,28,25.45,43.07,24,47A22.993,22.993,0,0,1,11.01,5.03L12,9l4,16,.06-.01A8,8,0,0,0,24,32Z"/><circle class="cls-5" cx="24" cy="24" r="3"/><path class="cls-6" d="M45.49,15.81A22.734,22.734,0,0,1,47,24a23.008,23.008,0,1,1-1.51-8.19Z"/><path class="cls-6" d="M24,16a8,8,0,1,1-7.94,8.99A8.1,8.1,0,0,1,16,24,8,8,0,0,1,24,16Z"/><line class="cls-6" x1="24" x2="41" y1="16" y2="16"/><line class="cls-6" x1="31" x2="25.45" y1="28" y2="43.07"/><line class="cls-6" x1="12" x2="16" y1="9" y2="25"/><path class="cls-6" d="M24,27a3,3,0,1,1,3-3"/></g></g></svg>