<?xml version="1.0" ?><svg enable-background="new 0 0 52 52" id="Layer_1" version="1.1" viewBox="0 0 52 52" xml:space="preserve" xmlns="http://www.w3.org/2000/svg" xmlns:xlink="http://www.w3.org/1999/xlink"><g><g><g><g><path d="M14.9976501,50c-5.5141602,0-10-4.4858398-10-10V10h20v30      C24.9976501,45.5141602,20.5118103,50,14.9976501,50z M6.9976501,12v28c0,4.4111328,3.5888672,8,8,8s8-3.5888672,8-8V12      H6.9976501z" fill="#0096E6"/></g></g><g><g><path d="M22.9976501,12h-16V2h16V12z M8.9976501,10h12V4h-12V10z" fill="#0096E6"/></g></g><g><g><rect fill="#0096E6" height="4" width="2" x="16.9976501" y="3"/></g></g><g><g><rect fill="#0096E6" height="4" width="2" x="10.9976501" y="3"/></g></g></g><g><g><path d="M37.0023499,2.0031738c-5.5199585,0-10,4.4799805-10,10v6h20v-6     C47.0023499,6.4831543,42.5123596,2.0031738,37.0023499,2.0031738z M45.0023499,16.0031738h-16v-4c0-4.4100342,3.5800171-8,8-8     c4.4100342,0,8,3.5899658,8,8V16.0031738z" fill="#0096E6"/></g><g><path d="M45.0023499,12.0031738v4h-16v-4c0-4.4100342,3.5800171-8,8-8     C41.412384,4.0031738,45.0023499,7.5931396,45.0023499,12.0031738z" fill="#D0E8F9"/></g></g></g></svg>