<svg clip-rule="evenodd" fill-rule="evenodd" height="6.82666in" image-rendering="optimizeQuality" shape-rendering="geometricPrecision" text-rendering="geometricPrecision" viewBox="0 0 6.82666 6.82666" width="6.82666in" xmlns="http://www.w3.org/2000/svg"><g fill="#b0784a"><path d="m3.58029 1.99124v.98928h-.33391v-.98928z" fill-rule="nonzero"/><path d="m4.53694 2.52581-.69953.69952-.23608-.23608.69952-.69953z" fill-rule="nonzero"/><path d="m4.83542 3.58028h-.98928v-.33391h.98928z" fill-rule="nonzero"/><path d="m4.30085 4.53694-.69952-.69953.23608-.23609.69953.69953z" fill-rule="nonzero"/><path d="m3.24638 4.83541v-.98928h.33391v.98928z" fill-rule="nonzero"/><path d="m2.28972 4.30085.69954-.69953.23608.23609-.69953.69953z" fill-rule="nonzero"/><path d="m1.99125 3.24637h.98928v.33391h-.98928z" fill-rule="nonzero"/><path d="m2.52581 2.28972.69953.69953-.23608.23608-.69954-.69952z" fill-rule="nonzero"/><path d="m3.63673 1.50242s.292854-.539079-.223394-.649087c-.516248.110008-.223394.649087-.223394.649087.109843.207252.0717205.400268.0370197.500925.0609921-.00798031.123201-.0121024.186374-.0121024.0631732 0 .125382.00412205.186378.0121024-.0347047-.100657-.0728268-.293673.0370157-.500925z"/><path d="m4.92252 2.22007s.588264-.174106.301004-.616933c-.442827-.28726-.616933.301004-.616933.301004-.0689016.224287-.232421.333815-.328126.380437.0494843.0379803.0963976.0791417.140437.123181.0440394.0440394.0852008.0909528.123181.140437.046622-.0957008.156146-.259224.380437-.328126z"/><path d="m5.32424 3.63672s.539079.292854.649087-.223394c-.110008-.516248-.649087-.223394-.649087-.223394-.207252.109843-.400268.0717205-.500925.0370157.00798031.0609961.0121024.123205.0121024.186378 0 .0631732-.00412205.125382-.0121024.186374.100657-.0347008.293673-.0728228.500925.0370197z"/><path d="m5.22352 5.22352c.28726-.442827-.301004-.616933-.301004-.616933-.224287-.0689016-.333815-.232421-.380437-.328126-.0379803.0494843-.0791417.0963976-.123181.140433-.0440394.0440433-.0909528.0852047-.140437.123185.0957008.046622.259224.156146.328126.380437 0 0 .174106.58826.616933.301004z"/><path d="m3.41333 5.97333c.516248-.110012.223394-.649091.223394-.649091-.109843-.207252-.0717205-.400272-.0370157-.500929-.0609961.00798031-.123205.0121024-.186378.0121024-.0631732 0-.125382-.00412205-.186374-.0121024.0347008.100657.0728228.293677-.0370197.500929 0 0-.292854.539079.223394.649091z"/><path d="m1.60314 5.22352c.442831.287252.616933-.301004.616933-.301004.0689016-.224291.232429-.333819.328134-.380437-.0494843-.0379843-.0963976-.0791457-.140437-.123189-.0440433-.0440394-.0852047-.0909528-.123189-.140437-.0466181.0957008-.156142.259232-.380437.328134 0 0-.588256.174102-.301004.616933z"/><path d="m2.00335 3.5997c-.00798031-.0609921-.0121024-.123201-.0121024-.186374 0-.0631732.00412205-.125382.0121024-.186378-.100657.0347047-.293677.0728268-.500929-.0370157 0 0-.539079-.292854-.649091.223394.110012.516248.649091.223394.649091.223394.207252-.109843.400272-.0717205.500929-.0370197z"/><path d="m2.54821 2.28457c-.0957047-.0466181-.259232-.156146-.328134-.380437 0 0-.174102-.58826-.616933-.301004-.287252.442831.301004.616933.301004.616933.224291.0689016.333819.232429.380437.328134.0379843-.0494843.0791457-.0963976.123189-.140441.0440394-.0440394.0909528-.0852008.140437-.123185z"/></g><path d="m3.41333 1.82428c.438783 0 .836043.177866 1.12361.465433s.465433.684827.465433 1.12361-.177866.836043-.465433 1.12361-.684827.465433-1.12361.465433-.836043-.177866-1.12361-.465433-.465433-.684827-.465433-1.12361.177866-.836043.465433-1.12361.684827-.465433 1.12361-.465433zm.88752.701524c-.227122-.227126-.540913-.36761-.88752-.36761-.346606 0-.660398.140484-.88752.36761-.227126.227122-.36761.540913-.36761.88752 0 .346606.140484.660398.36761.88752.227122.227126.540913.36761.88752.36761.346606 0 .660398-.140484.88752-.36761.227126-.227122.36761-.540913.36761-.88752 0-.346606-.140484-.660398-.36761-.88752z" fill="#bf8b55" fill-rule="nonzero"/><path d="m3.41333 2.88c.14726 0 .280591.0597008.37711.15622.0965197.0965197.15622.22985.15622.37711s-.0597008.280591-.15622.37711c-.0965197.0965197-.22985.15622-.37711.15622s-.280591-.0597008-.37711-.15622c-.0965197-.0965197-.15622-.22985-.15622-.37711s.0597008-.280591.15622-.37711c.0965197-.0965197.22985-.15622.37711-.15622z" fill="#ffd54f" fill-rule="nonzero"/><path d="m3.41333 3.03622c.104126 0 .198402.0422126.26665.110461.068248.068248.110461.162524.110461.26665 0 .104122-.0422126.198402-.110461.26665-.068248.068248-.162524.110461-.26665.110461-.104122 0-.198402-.0422126-.26665-.110461-.068248-.068248-.110461-.162528-.110461-.26665 0-.104126.0422126-.198402.110461-.26665.068248-.068248.162528-.110461.26665-.110461z" fill="#b0784a" fill-rule="nonzero"/><path d="m3.41333 3.14668c.073626 0 .140287.0298504.188543.0781063.0482559.0482559.0781063.114917.0781063.188543s-.0298504.140287-.0781063.188543c-.0482559.0482559-.114917.0781063-.188543.0781063s-.140287-.0298504-.188543-.0781063c-.0482559-.0482559-.0781063-.114917-.0781063-.188543s.0298504-.140287.0781063-.188543c.0482559-.0482559.114917-.0781063.188543-.0781063z" fill="#ffd54f" fill-rule="nonzero"/><circle cx="3.41333" cy="2.00017" fill="#ffd54f" r=".080173"/><circle fill="#ffd54f" r=".080173" transform="matrix(.707107 .707107 -.707107 .707107 4.41259 2.41407)"/><circle fill="#ffd54f" r=".080173" transform="matrix(0 1 -1 0 4.82649 3.41333)"/><circle fill="#ffd54f" r=".080173" transform="matrix(-.707107 .707107 -.707107 -.707107 4.41259 4.41258)"/><circle cx="3.41333" cy="4.82648" fill="#ffd54f" r=".080173"/><circle fill="#ffd54f" r=".080173" transform="matrix(-.707107 -.707107 .707107 -.707107 2.41408 4.41258)"/><circle fill="#ffd54f" r=".080173" transform="matrix(-0 -1 1 -0 2.00018 3.41333)"/><circle fill="#ffd54f" r=".080173" transform="matrix(.707107 -.707107 .707107 .707107 2.41408 2.41407)"/><path d="m0 0h6.82666v6.82666h-6.82666z" fill="none"/></svg>