<?xml version="1.0" encoding="iso-8859-1"?>
<!-- Generator: Adobe Illustrator 19.0.0, SVG Export Plug-In . SVG Version: 6.00 Build 0)  -->
<svg xmlns="http://www.w3.org/2000/svg" xmlns:xlink="http://www.w3.org/1999/xlink" version="1.1" id="Capa_1" x="0px" y="0px" viewBox="0 0 511.999 511.999" style="enable-background:new 0 0 511.999 511.999;" xml:space="preserve">
<path style="fill:#96695A;" d="M352,210.493c0,0-36.667,43.703-45.333,160.471l32.667,7.512  c4.667-118.134,26.667-168.666,26.667-168.666L352,210.493z"/>
<path style="fill:#825A50;" d="M352,210.493c0,0-36.667,43.703-45.333,160.471l18.942,4.355  c1.199-76.596,17.097-125.594,23.629-142.529c1.476-3.826,5.627-5.852,9.579-4.754l1.031,0.287  c3.563-12.459,6.152-18.514,6.152-18.514L352,210.493z"/>
<path style="fill:#96695A;" d="M184.001,97.477l-11.375-4.125l-6.125,9.625c0,0,33.5,109.499,33.5,269.498h48  C232.001,196.476,184.001,97.477,184.001,97.477z"/>
<path style="fill:#825A50;" d="M188.613,117.362l2.267-3.838c-4.231-10.558-6.88-16.046-6.88-16.046l-11.375-4.125l-6.125,9.625  c0,0,33.5,109.499,33.5,269.498h23.07c-3.185-124.606-28.55-217.549-36.012-242.401  C185.772,125.788,186.338,121.213,188.613,117.362z"/>
<path style="fill:#FFDC64;" d="M255.999,364.475c-87.782,0-164.738,35.166-207.998,87.975v7.968l415.997-0.004l0.019-7.939  C420.762,399.65,343.795,364.475,255.999,364.475z"/>
<path style="fill:#FFC850;" d="M159.982,452.451c29.538-44.644,78.559-76.582,135.838-85.422  c-12.972-1.617-26.246-2.553-39.82-2.553c-87.782,0-164.738,35.166-207.998,87.975v7.968l111.98-0.001V452.451z"/>
<path style="fill:#7FE1FF;" d="M463.999,468.414c-0.487,0.012-0.853,0.061-1.383,0.061c-7.359,0-10.375-1.164-14.93-2.922  c-5.844-2.262-13.125-5.078-26.461-5.078c-13.328,0-20.609,2.816-26.453,5.078c-4.547,1.758-7.555,2.922-14.898,2.922  s-10.344-1.16-14.891-2.922c-5.844-2.262-13.117-5.078-26.438-5.078s-20.602,2.816-26.445,5.078  c-4.547,1.758-7.547,2.922-14.898,2.922c-7.344,0-10.344-1.16-14.891-2.922c-5.844-2.262-13.117-5.078-26.437-5.078  c-13.328,0-20.602,2.816-26.445,5.078c-4.547,1.762-7.547,2.922-14.891,2.922s-10.344-1.16-14.891-2.922  c-5.844-2.262-13.117-5.078-26.438-5.078s-20.594,2.816-26.445,5.082c-4.539,1.758-7.539,2.918-14.875,2.918  c-7.328,0-10.32-1.16-14.859-2.918c-5.844-2.266-13.109-5.082-26.43-5.082s-20.594,2.816-26.445,5.082  c-4.539,1.758-7.539,2.918-14.875,2.918c-0.492,0-0.827-0.046-1.281-0.056v8.124c0,14.215,14.273,24.054,27.53,18.924  c0.061-0.023,0.121-0.047,0.181-0.07c4.547-1.762,7.547-2.922,14.891-2.922c7.336,0,10.328,1.16,14.867,2.918  c5.844,2.266,13.109,5.082,26.422,5.082c13.32,0,20.586-2.816,26.43-5.078c4.547-1.762,7.547-2.922,14.891-2.922  s10.344,1.16,14.891,2.922c5.844,2.262,13.117,5.078,26.438,5.078s20.594-2.816,26.438-5.078c4.547-1.758,7.547-2.922,14.898-2.922  c7.344,0,10.344,1.16,14.891,2.922c5.844,2.262,13.117,5.078,26.438,5.078c13.321,0,20.602-2.816,26.445-5.078  c4.547-1.758,7.547-2.922,14.898-2.922c7.344,0,10.344,1.16,14.891,2.922c5.844,2.262,13.117,5.078,26.438,5.078  c13.321,0,20.602-2.816,26.445-5.078c4.547-1.758,7.555-2.922,14.906-2.922c7.359,0,10.375,1.164,14.93,2.922  c0.104,0.04,0.208,0.081,0.313,0.121c13.257,5.127,27.531-4.711,27.531-18.924L463.999,468.414z"/>
<path style="fill:#00C3FF;" d="M462.616,476.474c-13.336,0-20.617-2.816-26.461-5.078c-4.555-1.758-7.57-2.922-14.93-2.922  c-7.352,0-10.359,1.164-14.906,2.922c-5.844,2.262-13.125,5.078-26.445,5.078c-13.32,0-20.594-2.816-26.438-5.078  c-4.547-1.762-7.547-2.922-14.891-2.922c-7.352,0-10.352,1.164-14.898,2.922c-5.844,2.262-13.125,5.078-26.445,5.078  c-13.32,0-20.594-2.816-26.438-5.078c-4.547-1.762-7.547-2.922-14.891-2.922c-7.352,0-10.352,1.164-14.898,2.922  c-5.844,2.262-13.117,5.078-26.438,5.078s-20.594-2.816-26.438-5.078c-4.547-1.762-7.547-2.922-14.891-2.922  s-10.344,1.16-14.891,2.922c-5.844,2.262-13.109,5.078-26.43,5.078c-13.313,0-20.578-2.816-26.422-5.082  c-4.539-1.758-7.531-2.918-14.867-2.918c-7.344,0-10.344,1.16-14.891,2.922c-5.844,2.262-13.109,5.078-26.43,5.078  c-13.313,0-20.586-2.816-26.422-5.082c-3.172-1.227-5.453-2.113-8.953-2.574c-8.766-1.156-14.922-9.199-13.766-17.957  c1.156-8.766,9.258-14.922,17.953-13.77c7.305,0.965,12.305,2.906,16.328,4.465c4.531,1.758,7.531,2.918,14.859,2.918  c7.336,0,10.336-1.16,14.875-2.918c5.852-2.266,13.125-5.082,26.445-5.082s20.586,2.816,26.43,5.082  c4.539,1.758,7.531,2.918,14.859,2.918c7.336,0,10.336-1.16,14.875-2.918c5.852-2.266,13.125-5.082,26.445-5.082  s20.594,2.816,26.438,5.078c4.547,1.762,7.547,2.922,14.891,2.922s10.344-1.16,14.891-2.922c5.844-2.262,13.117-5.078,26.445-5.078  c13.32,0,20.594,2.816,26.437,5.078c4.547,1.762,7.547,2.922,14.891,2.922c7.352,0,10.352-1.164,14.898-2.922  c5.844-2.262,13.125-5.078,26.445-5.078s20.594,2.816,26.438,5.078c4.547,1.762,7.547,2.922,14.891,2.922s10.352-1.164,14.898-2.922  c5.844-2.262,13.125-5.078,26.453-5.078c13.336,0,20.617,2.816,26.461,5.078c4.555,1.758,7.57,2.922,14.93,2.922  s10.367-1.164,14.922-2.922c4.031-1.563,9.055-3.504,16.383-4.461c8.656-1.164,16.797,5.02,17.945,13.785  c1.148,8.762-5.023,16.793-13.789,17.941c-3.523,0.461-5.82,1.352-9,2.582C483.225,473.662,475.944,476.474,462.616,476.474z"/>
<g>
	<path style="fill:#A0D755;" d="M251.834,94.81c0,0-75.966,3.558-75.81,3.301l-59.356,36.866   c-0.669,29.902,13.965,46.309,23.713,53.889c3.631,2.823,8.923,0.628,9.547-3.929c2.474-18.081,8.8-59.722,24.756-86.812   c29.438,11.392,61.029,40.391,74.188,53.202c3.257,3.171,8.698,1.744,9.936-2.63C262.139,136.931,265.034,115.619,251.834,94.81z"/>
	<path style="fill:#A0D755;" d="M183.743,50.735c-8.299-16.025-23.817-31.085-34.422-27.434   c-10.525,3.623-12.831,24.606-9.653,42.177l35.69,33.468L183.743,50.735z"/>
</g>
<path style="fill:#B4E66E;" d="M306.014,93.43c-14.717-19.986-56.148-61.022-119.85-4.734c-0.853,0.753-2.228-0.043-1.825-1.107  c7.054-18.646,28.109-40.985,66.591-56.658c3.139-1.278,2.844-5.86-0.443-6.687c-23.954-6.026-83.9-13.315-80.513,54.542  c0.104,2.074-2.563,3.027-3.766,1.334c-38.891-54.725-80.931-13.225-96.041,6.19c-2.082,2.675,0.506,6.467,3.767,5.543  c35.957-10.192,69.451-3.763,84.436,3.502c1.071,0.519,0.534,2.087-0.655,2.033c-82.21-3.706-89.429,53.143-88.729,77.656  c0.134,4.678,5.582,7.132,9.19,4.151c17.214-14.22,57.369-47.389,80.302-66.332c10.873-8.981,24.618-13.707,38.715-13.322  l104.092,2.84C305.976,102.509,308.797,97.209,306.014,93.43z"/>
<path style="fill:#A0D755;" d="M362,207.476c-45.209-46.362-75.422-5.844-84.52,9.557c-1.317,2.229,0.51,4.986,3.085,4.716  l68.732-7.209c6.392-0.67,12.779,1.304,17.678,5.464l53.62,45.534c1.963,1.667,5.011,0.447,5.206-2.121  C427.146,245.658,425.595,195.082,362,207.476z"/>
<path style="fill:#B4E66E;" d="M425.077,196.971c-10.005-13.487-35.04-39.192-59.148,0.147c-0.836,1.364-2.939,0.724-2.872-0.875  c1.93-46.199-32.67-39.2-48.298-33.732c-2.643,0.925-2.721,4.597-0.122,5.639c24.237,9.714,33.354,25.262,37.936,34.659  c1.209,2.479,3.199,4.445,5.699,5.612l0,0c3.296,1.538,7.116,1.549,10.352-0.109c10.011-5.13,28.395-12.188,53.412-6.6  C424.762,202.32,426.741,199.213,425.077,196.971z"/>
<path d="M504.502,428.353c-11.767,0-17.968,2.397-23.439,4.513c-4.862,1.88-9.062,3.503-18.03,3.503  c-2.231,0-4.165-0.101-5.889-0.281c-27.115-30.521-65.538-53.51-109.94-66.808c3.334-73.501,13.848-119.289,20.404-141.455  l52.917,46.242c1.389,1.213,3.148,1.853,4.936,1.853c0.848,0,1.702-0.144,2.526-0.439c2.56-0.916,4.423-3.145,4.871-5.827  c0.249-1.49,5.852-36.73-15.156-56.371c-3.177-2.97-6.76-5.391-10.722-7.285c6.33,0.336,13.26,1.472,20.74,3.808  c2.923,0.914,6.107-0.043,8.044-2.415c1.937-2.372,2.237-5.683,0.759-8.365c-0.175-0.317-4.367-7.863-11.235-15.318  c-9.832-10.671-20.532-16.069-30.929-15.608c-9.078,0.402-17.51,5.093-25.226,13.983c-1.447-11.866-5.858-20.616-13.254-26.101  c-19.463-14.434-50.545,1.042-51.858,1.708c-2.722,1.38-4.337,4.272-4.083,7.313c0.254,3.041,2.325,5.625,5.239,6.535  c7.503,2.343,13.881,5.369,19.315,8.716c-4.373-0.686-8.724-0.696-13.046-0.015c-28.171,4.436-43.023,36.624-43.642,37.992  c-1.113,2.462-0.816,5.331,0.777,7.513c1.422,1.947,3.679,3.076,6.056,3.076c0.287,0,0.575-0.016,0.864-0.05l59.886-6.941  c-2.556,4.733-5.388,10.488-8.317,17.352c-1.626,3.81,0.144,8.216,3.954,9.842c0.96,0.41,1.959,0.604,2.941,0.604  c2.914,0,5.686-1.708,6.901-4.558c5.213-12.213,10.029-20.521,13.202-25.405l0.289-0.033c-6.722,21.348-18.2,67.946-21.979,145.619  c-5.81-1.418-11.707-2.674-17.68-3.766c2.922-34.127,8.667-64.97,17.106-91.742c1.246-3.95-0.947-8.163-4.898-9.408  c-3.952-1.246-8.163,0.948-9.408,4.898c-8.681,27.537-14.612,59.099-17.657,93.899c-14.293-1.919-28.949-2.924-43.838-2.924  c-0.378,0-0.754,0.012-1.132,0.013c-6.799-67.884-18.602-130.192-35.133-185.244c-1.191-3.967-5.375-6.217-9.34-5.026  c-3.967,1.191-6.218,5.373-5.026,9.34c16.166,53.836,27.742,114.815,34.462,181.315c-11,0.533-21.838,1.62-32.468,3.211  c-0.824-132.587-23.582-224.769-30.448-249.617c0.504-1.036,1.02-2.056,1.545-3.063c0.719,0.327,1.439,0.663,2.159,1.008  c3.523,7.548,9.505,21.333,16.418,41.305c1.074,3.102,3.979,5.049,7.087,5.049c0.814,0,1.642-0.133,2.454-0.415  c3.914-1.355,5.989-5.626,4.634-9.541c-3.155-9.114-6.113-16.963-8.756-23.581c26.04,17.783,47.729,40.615,48.026,40.929  c1.425,1.51,3.403,2.354,5.456,2.354c0.269,0,0.539-0.015,0.809-0.044c2.334-0.253,4.416-1.584,5.624-3.598  c0.64-1.068,14.032-23.969,5.95-52.918l43.596,1.19c0.068,0.002,0.137,0.003,0.205,0.003c2.585,0,4.995-1.333,6.366-3.535  c1.408-2.261,1.511-5.098,0.271-7.456c-0.86-1.635-21.518-40.123-60.881-45.901c-13.858-2.035-28.091,0.253-42.599,6.801  c11.792-9.482,27.401-18.831,47.846-25.868c2.998-1.031,5.022-3.836,5.059-7.006c0.036-3.17-1.925-6.02-4.898-7.12  c-2.114-0.781-52.085-18.866-80.398,5.133c-0.846,0.718-1.655,1.47-2.442,2.244c-9.228-10.748-22.23-15.394-33.782-11.417  c-11.518,3.964-18.927,15.647-19.596,29.79c-1.097-0.125-2.198-0.221-3.308-0.266c-37.087-1.47-65.341,43.525-66.525,45.442  c-1.667,2.697-1.458,6.15,0.521,8.626c1.979,2.476,5.3,3.44,8.299,2.409c20.27-6.977,38.249-9.201,53.36-8.991  c-15.341,3.783-27.877,10.716-37.49,20.789c-27.468,28.781-20.062,71.828-19.733,73.647c0.474,2.621,2.302,4.794,4.803,5.709  c0.838,0.307,1.71,0.457,2.577,0.457c1.717,0,3.412-0.59,4.776-1.717l33.629-27.77c11.447,27.791,36.097,37.599,37.259,38.046  c0.871,0.335,1.785,0.501,2.694,0.501c1.38,0,2.751-0.381,3.954-1.127c1.996-1.238,3.296-3.339,3.514-5.678  c0.039-0.422,2.965-30.718,12.176-60.302c9.195,39.184,24.362,120.02,24.8,228.116c-55.988,11.172-104.911,36.968-137.499,73.64  c-1.754,0.188-3.725,0.295-6.009,0.295c-8.938,0-13.124-1.623-17.971-3.501c-5.46-2.117-11.648-4.515-23.392-4.515  c-4.142,0-7.5,3.358-7.5,7.5s3.358,7.5,7.5,7.5c8.938,0,13.124,1.623,17.971,3.501c5.46,2.117,11.648,4.515,23.392,4.515  c11.752,0,17.945-2.398,23.41-4.514c4.853-1.879,9.043-3.502,17.993-3.502c8.942,0,13.13,1.623,17.979,3.501  c5.461,2.116,11.651,4.515,23.398,4.515c11.751,0,17.944-2.398,23.408-4.514c4.852-1.879,9.042-3.502,17.99-3.502  c8.953,0,13.146,1.623,18,3.502c5.466,2.116,11.661,4.514,23.416,4.514s17.95-2.398,23.415-4.514c4.854-1.879,9.047-3.502,18-3.502  c8.953,0,13.146,1.623,18,3.502c5.466,2.116,11.661,4.514,23.416,4.514c11.757,0,17.954-2.398,23.42-4.514  c4.856-1.879,9.05-3.502,18.007-3.502c8.95,0,13.141,1.623,17.994,3.502c5.464,2.116,11.658,4.514,23.411,4.514  c11.76,0,17.958-2.398,23.426-4.513c4.858-1.88,9.054-3.503,18.014-3.503c8.968,0,13.168,1.624,18.03,3.503  c5.471,2.115,11.672,4.513,23.439,4.513s17.968-2.397,23.439-4.513c4.862-1.88,9.062-3.503,18.03-3.503c4.142,0,7.5-3.358,7.5-7.5  S508.643,428.353,504.502,428.353z M418.551,252.423l-41.437-36.209c13.299-1.052,23.461,1.619,30.302,7.99  C415.43,231.666,417.955,243.188,418.551,252.423z M394.999,183.088c0.203-0.009,0.404-0.014,0.606-0.014  c5.72,0,11.386,3.665,16.166,8.23c-13.227-1.274-24.522,0.477-33.45,3.141C383.823,187.207,389.452,183.342,394.999,183.088z   M346.962,168.046c4.506,3.353,7.066,9.745,7.637,18.859c-5.907-7.267-14.268-15.114-25.883-21.569  C335.353,164.272,342.232,164.526,346.962,168.046z M313.778,195.058c1.338-0.211,2.69-0.316,4.058-0.316  c8.104,0,16.713,3.698,25.726,11.041l-54.37,6.302C294.779,204.818,303.196,196.724,313.778,195.058z M253.38,143.576  c-4.57-4.406-10.873-10.247-18.341-16.551c-9.698-8.186-19.021-15.189-27.926-21.008l45.314,1.237  C257.897,122.054,255.94,135.229,253.38,143.576z M255.602,66.814c19.593,2.837,33.923,16.518,42.072,26.669l-104.022-2.838  C215.566,72.037,236.355,64.027,255.602,66.814z M192.567,35.391c7.97-6.769,18.907-8.911,29.567-8.911  c5.017,0,9.973,0.475,14.525,1.165c-29.105,14.197-46.689,32.537-56.749,46.523C179.296,56.069,183.527,43.069,192.567,35.391z   M151.55,28.938c6.365-2.191,14.416,1.971,19.768,9.984c-3.924,8.007-6.052,17.662-6.378,28.919  c-7.187-8.673-14.808-14.975-22.831-18.87C141.4,39.375,145.206,31.122,151.55,28.938z M117.859,76.617  c-10.298,0-21.731,1.042-34.169,3.682c0.932-0.982,1.903-1.971,2.911-2.956c8.77-8.571,22.224-18.667,36.593-18.074  c11.85,0.487,23.186,8.129,33.841,22.773C146.994,79.109,133.78,76.617,117.859,76.617z M92.851,122.832  c12.421-12.964,31.535-19.484,56.994-19.484c2.123,0,4.291,0.045,6.501,0.136l-80.238,66.259  C76.281,156.725,79.156,137.126,92.851,122.832z M146.117,157.631c-2.003,9.55-3.375,18.021-4.265,24.303  c-7.156-5.022-16.821-14.218-21.607-29.186l34.953-28.864C151.76,133.952,148.722,145.21,146.117,157.631z M398.137,432.867  c-4.858,1.879-9.054,3.503-18.014,3.503c-8.95,0-13.141-1.623-17.995-3.502c-5.464-2.116-11.658-4.514-23.41-4.514  c-11.758,0-17.954,2.398-23.421,4.514c-4.856,1.879-9.05,3.502-18.006,3.502c-8.953,0-13.146-1.623-18.001-3.502  c-5.466-2.116-11.661-4.514-23.416-4.514c-11.755,0-17.95,2.398-23.416,4.514c-4.854,1.879-9.047,3.502-18,3.502  c-8.953,0-13.146-1.623-18-3.502c-5.466-2.116-11.661-4.514-23.416-4.514c-11.751,0-17.943,2.398-23.407,4.514  c-4.852,1.879-9.042,3.502-17.991,3.502c-8.942,0-13.13-1.623-17.979-3.501c-5.462-2.116-11.652-4.515-23.399-4.515  c-2.286,0-4.355,0.093-6.256,0.255c16.99-14.426,37.423-26.72,60.317-36.133c33.843-13.913,72.458-21.267,111.672-21.267  c39.22,0,77.841,7.356,111.687,21.273c22.909,9.419,43.374,21.712,60.374,36.149c-1.969-0.175-4.115-0.277-6.501-0.277  C409.803,428.353,403.605,430.751,398.137,432.867z"/>
<path d="M421.563,460.418c-11.76,0-17.958,2.398-23.426,4.513c-4.858,1.88-9.054,3.503-18.014,3.503  c-8.95,0-13.142-1.623-17.995-3.502c-5.464-2.116-11.658-4.514-23.41-4.514c-11.758,0-17.954,2.398-23.421,4.514  c-4.856,1.879-9.05,3.502-18.006,3.502c-8.954,0-13.146-1.623-18.001-3.502c-5.466-2.116-11.661-4.514-23.416-4.514  c-11.755,0-17.95,2.398-23.416,4.514c-4.854,1.879-9.047,3.502-18,3.502c-8.953,0-13.146-1.623-18-3.502  c-5.466-2.116-11.661-4.514-23.416-4.514c-11.751,0-17.943,2.398-23.407,4.514c-4.852,1.879-9.042,3.502-17.991,3.502  c-8.942,0-13.13-1.623-17.979-3.501c-5.461-2.116-11.652-4.515-23.398-4.515c-4.142,0-7.5,3.358-7.5,7.5c0,4.142,3.358,7.5,7.5,7.5  c8.942,0,13.13,1.623,17.979,3.501c5.461,2.116,11.651,4.515,23.398,4.515c11.751,0,17.944-2.398,23.408-4.514  c4.852-1.879,9.042-3.502,17.99-3.502c8.953,0,13.146,1.623,18,3.502c5.466,2.116,11.661,4.514,23.416,4.514  s17.95-2.398,23.415-4.514c4.855-1.879,9.047-3.502,18-3.502c8.953,0,13.146,1.623,18,3.502c5.466,2.116,11.661,4.514,23.416,4.514  c11.757,0,17.954-2.398,23.42-4.514c4.856-1.879,9.05-3.502,18.007-3.502c8.95,0,13.141,1.623,17.994,3.502  c5.464,2.116,11.658,4.514,23.411,4.514c11.76,0,17.958-2.398,23.426-4.513c4.858-1.88,9.054-3.503,18.014-3.503  c4.142,0,7.5-3.358,7.5-7.5C429.061,463.776,425.705,460.418,421.563,460.418z"/>
<g>
</g>
<g>
</g>
<g>
</g>
<g>
</g>
<g>
</g>
<g>
</g>
<g>
</g>
<g>
</g>
<g>
</g>
<g>
</g>
<g>
</g>
<g>
</g>
<g>
</g>
<g>
</g>
<g>
</g>
</svg>
