<svg enable-background="new 0 0 128 128" viewBox="0 0 128 128" xmlns="http://www.w3.org/2000/svg"><path d="m67.051 100.5-12.17-20.65-13.54-22.97c-1.16-1.97-4.01-1.97-5.17 0l-5.67 9.62-11.2 19-17.38 29.48c-1.18 2 .26 4.52 2.58 4.52h68.5c2.32 0 3.77-2.52 2.59-4.52z" fill="#ffa77b"/><path d="m40.907 75.5h-4.306c-1.278 0-2.275 1.105-2.145 2.376l2.153 20.989c.113 1.1 1.039 1.936 2.145 1.936s2.032-.836 2.145-1.936l2.153-20.989c.13-1.271-.868-2.376-2.145-2.376z" fill="#f6f7f7"/><circle cx="38.754" cy="108.756" fill="#f6f7f7" r="3.244"/><path d="m107.501 21.5h-90c-.28 0-.55.04-.8.11-.64.17-1.19.55-1.58 1.06-.38.5-.62 1.14-.62 1.83v58c0 .69.23 1.32.62 1.82.54.72 1.41 1.18 2.38 1.18h1.8l11.2-19v-27c0-.69.24-1.33.62-1.83.09-.11.18-.21.28-.31.04-.04.08-.08.12-.1.1-.11.22-.19.34-.27.02-.01.03-.02.05-.03.06-.04.12-.08.18-.11.02-.01.04-.02.06-.03.12-.06.24-.11.36-.15.31-.11.64-.17.99-.17h77v-12c0-.66-.22-1.28-.58-1.77-.54-.75-1.42-1.23-2.42-1.23z" fill="#cff1fb"/><path d="m94.501 8.5h-90c-.97 0-1.83.46-2.38 1.17-.38.5-.62 1.14-.62 1.83v58c0 .69.23 1.32.62 1.82.54.72 1.41 1.18 2.38 1.18h10v-48c0-.69.24-1.33.62-1.83.55-.71 1.41-1.17 2.38-1.17h80v-10c0-.66-.22-1.28-.58-1.77-.54-.75-1.42-1.23-2.42-1.23z" fill="#ffa77b"/><path d="m123.501 36.5h-90c-1.66 0-3 1.34-3 3v27l5.67-9.62c1.16-1.97 4.01-1.97 5.17 0l13.54 22.97 12.17 20.65h56.45c.1 0 .21-.01.31-.02.06 0 .12-.01.18-.02.07-.01.14-.03.21-.05.06-.01.13-.02.19-.05.1-.03.19-.06.28-.1.5-.21.94-.55 1.25-.99.36-.49.58-1.11.58-1.77v-58c0-1.66-1.34-3-3-3z" fill="#f6f7f7"/><path d="m89.229 67.339c-.553-.452-1.347-.452-1.899 0l-8.828 7.223-8.811-7.222c-.553-.453-1.349-.453-1.901 0l-13.859 11.35c-.572.469-.718 1.285-.342 1.922l12.17 20.65c.27.458.761.738 1.292.738h56.45c.132 0 .276-.01.411-.023.104-.005.204-.018.284-.031.111-.016.223-.041.333-.07.093-.017.225-.046.375-.104.131-.042.25-.085.348-.129.771-.324 1.427-.845 1.895-1.507.454-.644.333-1.528-.276-2.026zm-21.321 31.661-11.082-18.804 11.914-9.757 8.81 7.221c.553.453 1.349.453 1.901.001l8.829-7.224 34.941 28.563z" fill="#f98770"/><g fill="#746887"><path d="m123.501 35h-90c-1.403 0-2.703.638-3.566 1.75-.498.642-.394 1.564.234 2.08l47.381 38.83c.276.227.614.34.951.34s.673-.113.949-.339l47.42-38.77c.614-.501.731-1.395.268-2.038-.835-1.16-2.196-1.853-3.637-1.853zm-44.999 39.562-44.612-36.562h89.331z"/><path d="m107.501 20h-90c-1.403 0-2.703.638-3.566 1.75-.498.642-.394 1.564.234 2.08l17.181 14.08c.273.224.61.34.951.34.201 0 .404-.041.596-.124.197-.084.394-.126.604-.126h59.58c.346 0 .682-.12.949-.339l16.84-13.77c.614-.502.731-1.395.268-2.038-.835-1.16-2.196-1.853-3.637-1.853zm-14.955 15h-59.045c-.293 0-.582.028-.867.084l-14.744-12.084h89.331z"/><path d="m94.501 7h-90c-1.403 0-2.703.638-3.566 1.75-.498.643-.394 1.565.235 2.08l14.58 11.94c.271.222.607.339.95.339.135 0 .271-.018.403-.055.13-.035.264-.054.398-.054h65.029c.346 0 .682-.12.949-.339l14.391-11.77c.614-.502.731-1.395.268-2.038-.835-1.16-2.196-1.853-3.637-1.853zm-12.506 13h-64.494c-.127 0-.253.005-.38.016l-12.23-10.016h89.331z"/><path d="m42.633 56.119c-.816-1.388-2.267-2.216-3.877-2.216s-3.061.829-3.877 2.216l-34.25 58.099c-.831 1.409-.844 3.097-.033 4.516.81 1.419 2.27 2.267 3.905 2.267h30.619c.828 0 1.5-.671 1.5-1.5s-.672-1.5-1.5-1.5h-30.619c-.785 0-1.171-.527-1.301-.754-.129-.227-.387-.827.013-1.504l34.25-58.101c.394-.667 1.035-.739 1.293-.739s.899.072 1.293.739l34.25 58.101c.396.673.139 1.272.01 1.499-.131.227-.519.758-1.308.758h-30.246c-.828 0-1.5.671-1.5 1.5s.672 1.5 1.5 1.5h30.246c1.638 0 3.101-.849 3.913-2.271.81-1.418.798-3.104-.031-4.511z"/></g><path d="m40.906 74h-4.305c-1.033 0-2.021.439-2.714 1.206-.692.766-1.029 1.795-.924 2.823l2.153 20.988c.191 1.872 1.755 3.284 3.637 3.284s3.445-1.412 3.637-3.283l2.153-20.989s0 0 0-.001c.105-1.027-.231-2.056-.924-2.822-.691-.767-1.68-1.206-2.713-1.206zm-1.5 24.713c-.034.335-.314.588-.652.588s-.618-.253-.652-.589l-2.153-20.988c-.025-.253.093-.426.166-.507.072-.081.233-.217.487-.217h4.305c.254 0 .414.136.487.216.073.081.191.254.166.506zm3.646-20.837h.01z" fill="#f98770"/><path d="m38.754 104.012c-2.616 0-4.744 2.128-4.744 4.744s2.128 4.744 4.744 4.744 4.744-2.128 4.744-4.744-2.128-4.744-4.744-4.744zm0 6.488c-.962 0-1.744-.782-1.744-1.744s.782-1.744 1.744-1.744 1.744.782 1.744 1.744-.782 1.744-1.744 1.744z" fill="#f98770"/><path d="m107.501 20h-90c-.407 0-.812.056-1.186.16-.94.25-1.788.817-2.39 1.603-.597.785-.925 1.757-.925 2.737v58c0 1.008.323 1.956.919 2.72.836 1.115 2.175 1.78 3.581 1.78h1.8c.531 0 1.022-.281 1.292-.738l11.2-19c.137-.231.208-.494.208-.762v-27c0-.329.111-.657.275-.875.044-.053.087-.103.137-.155.061-.044.116-.095.176-.161.022-.018.047-.034.071-.05.008-.005.016-.01.023-.015.054-.031.109-.064.138-.083.055-.027.109-.05.191-.078.16-.056.32-.083.49-.083h77c.828 0 1.5-.671 1.5-1.5v-12c0-.948-.31-1.892-.863-2.646-.835-1.161-2.196-1.854-3.637-1.854zm1.5 15h-75.5c-.511 0-1.013.086-1.465.247-.186.062-.371.138-.607.257-.105.052-.211.116-.323.19-.002.001-.004.003-.007.004-.022.014-.045.027-.066.042-.126.083-.303.2-.484.371-.095.075-.165.146-.211.191-.132.133-.252.266-.411.461-.597.785-.925 1.757-.925 2.737v26.591l-10.559 17.909h-.942c-.467 0-.908-.217-1.197-.602-.198-.254-.303-.564-.303-.898v-58c0-.329.111-.657.31-.917.197-.257.472-.442.793-.528.129-.036.263-.055.397-.055h90c.486 0 .925.221 1.211.617.187.254.289.568.289.883z" fill="#746887"/><path d="m94.501 7h-90c-1.403 0-2.703.638-3.575 1.763-.597.784-.925 1.757-.925 2.737v20.861c0 .829.672 1.5 1.5 1.5.049 0 .108-.003.163-.009.771-.062 1.378-.708 1.378-1.495 0-.121-.015-.238-.041-.35v-20.507c0-.329.111-.657.305-.911.29-.374.725-.589 1.195-.589h90c.486 0 .925.221 1.211.617.187.254.289.568.289.883v8.5h-78.5c-1.403 0-2.703.638-3.575 1.763-.597.785-.925 1.757-.925 2.737v46.5h-8.5c-.467 0-.908-.217-1.197-.602-.198-.254-.303-.564-.303-.898v-28.793c.026-.112.041-.229.041-.35 0-.783-.6-1.426-1.365-1.494-.042-.004-.086-.008-.122-.009-.42-.005-.803.137-1.096.419-.293.283-.458.672-.458 1.08v29.147c0 1.008.323 1.956.919 2.72.836 1.114 2.175 1.78 3.581 1.78h10c.828 0 1.5-.671 1.5-1.5v-48c0-.329.111-.657.305-.911.29-.374.725-.589 1.195-.589h80c.828 0 1.5-.671 1.5-1.5v-10c0-.948-.31-1.892-.863-2.646-.835-1.161-2.196-1.854-3.637-1.854z" fill="#746887"/><path d="m123.501 35h-90c-2.481 0-4.5 2.019-4.5 4.5v27c0 .676.453 1.269 1.105 1.447.652.18 1.344-.103 1.687-.686l5.67-9.621c.394-.667 1.035-.739 1.293-.739s.899.072 1.293.739l25.71 43.62c.27.458.761.738 1.292.738h56.45c.132 0 .276-.01.411-.023.104-.005.203-.018.284-.031.111-.016.223-.041.333-.07.093-.017.225-.046.375-.104.131-.042.25-.085.348-.129.771-.324 1.427-.845 1.879-1.486.561-.766.87-1.709.87-2.657v-27.314c0-.829-.672-1.5-1.5-1.5s-1.5.671-1.5 1.5v27.316c0 .314-.103.628-.306.905-.141.2-.355.367-.635.485-.032.014-.064.022-.1.033-.017.005-.033.01-.049.016-.06.012-.144.031-.191.044-.021.001-.042.003-.063.005-.051.005-.106.012-.156.012h-55.593l-25.275-42.881c-.816-1.388-2.267-2.216-3.877-2.216s-3.061.829-3.877 2.216l-2.878 4.883v-21.502c0-.827.673-1.5 1.5-1.5h90c.827 0 1.5.673 1.5 1.5v22.752c0 .829.672 1.5 1.5 1.5s1.5-.671 1.5-1.5v-22.752c0-2.481-2.019-4.5-4.5-4.5zm.31 63.98c-.001 0-.002 0-.002 0s.001 0 .002 0zm-.003 0c-.001 0-.002 0-.003 0zm-.094.041c-.001 0-.002.001-.003.001.001 0 .002-.001.003-.001z" fill="#746887"/></svg>