<?xml version="1.0" ?><svg viewBox="0 0 64 64" xmlns="http://www.w3.org/2000/svg"><defs><style>.cls-1{fill:#1394f6;}.cls-2{fill:#fff;}</style></defs><title/><g data-name="filled outline" id="filled_outline"><path class="cls-1" d="M27.87,61l-.94-6.56-.65-.16a22.83,22.83,0,0,1-6-2.48l-.58-.34-5.29,4L8.57,49.58l4-5.29-.34-.58a22.83,22.83,0,0,1-2.48-6l-.16-.65L3,36.13V27.87l6.56-.94.16-.65a22.83,22.83,0,0,1,2.48-6l.34-.58-4-5.29,5.85-5.85,5.29,4,.58-.34a22.83,22.83,0,0,1,6-2.48l.65-.16L27.87,3h8.26l.94,6.56.65.16a22.83,22.83,0,0,1,6,2.48l.58.34,5.29-4,5.85,5.85-4,5.29.34.58a22.83,22.83,0,0,1,2.48,6l.16.65,6.56.94v8.26l-6.56.94-.16.65a22.83,22.83,0,0,1-2.48,6l-.34.58,4,5.29-5.85,5.85-5.29-4-.58.34a22.83,22.83,0,0,1-6,2.48l-.65.16L36.13,61Z"/><circle class="cls-2" cx="32" cy="32" r="18"/><path d="M32,16A16,16,0,1,1,16,32,16,16,0,0,1,32,16m0-2A18,18,0,1,0,50,32,18,18,0,0,0,32,14Zm8.71,25.29L33,31.59V24H31v8.41l8.29,8.3ZM35.27,4,36,9l.19,1.32,1.3.33a21.86,21.86,0,0,1,5.73,2.37l1.16.68,1.06-.8,4.07-3,4.62,4.62-3,4.07-.8,1.06.68,1.16a21.86,21.86,0,0,1,2.37,5.73l.33,1.3L55,28l5,.71v6.54L55,36l-1.32.19-.33,1.3a21.86,21.86,0,0,1-2.37,5.73l-.68,1.16.8,1.06,3,4.07-4.62,4.62-4.07-3-1.06-.8-1.16.68a21.86,21.86,0,0,1-5.73,2.37l-1.3.33L36,55l-.71,5H28.73L28,55l-.19-1.32-1.3-.33a21.86,21.86,0,0,1-5.73-2.37l-1.16-.68-1.06.8-4.07,3L9.89,49.49l3-4.07.8-1.06-.68-1.16a21.86,21.86,0,0,1-2.37-5.73l-.33-1.3L9,36l-5-.71V28.73L9,28l1.32-.19.33-1.3a21.86,21.86,0,0,1,2.37-5.73l.68-1.16-.8-1.06-3-4.07,4.62-4.62,4.07,3,1.06.8,1.16-.68a21.86,21.86,0,0,1,5.73-2.37l1.3-.33L28,9l.71-5h6.54M37,2H27L26,8.75a23.88,23.88,0,0,0-6.26,2.59L14.32,7.25,7.25,14.32l4.09,5.46A23.88,23.88,0,0,0,8.75,26L2,27V37l6.75,1a23.88,23.88,0,0,0,2.59,6.26L7.25,49.68l7.07,7.07,5.46-4.09A23.88,23.88,0,0,0,26,55.25L27,62H37l1-6.75a23.88,23.88,0,0,0,6.26-2.59l5.46,4.09,7.07-7.07-4.09-5.46A23.88,23.88,0,0,0,55.25,38L62,37V27l-6.75-1a23.88,23.88,0,0,0-2.59-6.26l4.09-5.46L49.68,7.25l-5.46,4.09A23.88,23.88,0,0,0,38,8.75L37,2Z"/></g></svg>