<?xml version="1.0" encoding="utf-8"?>
<!-- Generator: Adobe Illustrator 24.0.0, SVG Export Plug-In . SVG Version: 6.00 Build 0)  -->
<svg version="1.1" id="Layer_1" xmlns="http://www.w3.org/2000/svg" xmlns:xlink="http://www.w3.org/1999/xlink" x="0px" y="0px"
	 viewBox="0 0 256 256" enable-background="new 0 0 256 256" xml:space="preserve">
<g>
</g>
<g>
	<polygon fill="#F0C020" points="128.003,5.277 142.56,24.115 166.174,21.088 163.147,44.702 181.985,59.259 163.147,73.816 
		166.174,97.43 142.56,94.402 128.003,113.24 113.446,94.402 89.832,97.43 92.86,73.816 74.022,59.259 92.86,44.702 89.832,21.088 
		113.446,24.115 	"/>
	<circle fill="#FC5D3D" cx="128.003" cy="59.259" r="25"/>
	<path fill="#AEAEAE" d="M205.757,204.001H50.249c-6.931,0-11.76-6.88-9.405-13.398l21.663-59.972
		c1.432-3.962,5.192-6.602,9.405-6.602h112.181c4.212,0,7.973,2.64,9.405,6.602l21.663,59.972
		C217.517,197.122,212.688,204.001,205.757,204.001z"/>
	<path fill="#F0C020" d="M215.294,99.256c-3.961-1.309-8.051-2.453-10.348-12.345c-2.115,9.112-5.504,10.745-10.348,12.345
		c7.9,2.61,9.092,6.933,10.348,12.345C207.111,102.271,210.692,100.777,215.294,99.256z"/>
	<path d="M202.356,112.202c-1.147-4.945-1.905-8.212-8.591-10.421c-2.43-0.803-2.424-4.25,0-5.051
		c4.025-1.33,6.684-2.209,8.591-10.422c0.633-2.73,4.546-2.737,5.181,0c1.95,8.399,4.863,9.193,8.591,10.421
		c2.43,0.803,2.424,4.25,0,5.051c-3.881,1.282-6.686,2.209-8.591,10.421C206.901,114.945,202.993,114.945,202.356,112.202z
		 M200.836,99.317c1.914,1.314,3.222,2.815,4.164,4.403c1.141-2.017,2.462-3.405,3.934-4.439c-1.411-1.01-2.778-2.44-3.977-4.601
		C203.77,96.813,202.384,98.254,200.836,99.317z"/>
	<path fill="#F0C020" d="M61.407,99.256c-3.961-1.309-8.051-2.453-10.348-12.345c-2.115,9.112-5.504,10.745-10.348,12.345
		c7.9,2.61,9.092,6.933,10.348,12.345C53.224,102.271,56.805,100.777,61.407,99.256z"/>
	<path d="M48.468,112.202c-1.147-4.945-1.905-8.212-8.591-10.421c-2.43-0.803-2.424-4.25,0-5.051
		c4.025-1.33,6.684-2.209,8.591-10.422c0.633-2.73,4.546-2.737,5.181,0c1.95,8.399,4.863,9.193,8.591,10.421
		c2.43,0.803,2.424,4.25,0,5.051c-3.881,1.282-6.686,2.209-8.591,10.421C53.013,114.945,49.106,114.945,48.468,112.202z
		 M46.949,99.317c1.914,1.314,3.222,2.815,4.164,4.403c1.141-2.017,2.462-3.405,3.934-4.439c-1.411-1.01-2.778-2.44-3.977-4.601
		C49.883,96.813,48.497,98.254,46.949,99.317z"/>
	<path fill="#71C1E8" d="M160.793,204v6.39c0,0.2-0.01,0.41-0.02,0.61c-0.31,5.24-4.66,9.39-9.98,9.39h-45.58
		c-5.32,0-9.67-4.15-9.98-9.39c-0.01-0.2-0.02-0.41-0.02-0.61V204H160.793z"/>
	<path fill="#4BA4C7" d="M160.793,204v6.39c0,0.2-0.01,0.41-0.02,0.61h-65.54c-0.01-0.2-0.02-0.41-0.02-0.61V204H160.793z"/>
	<rect x="118.863" y="220.39" fill="#EEEEEE" width="18.28" height="15.17"/>
	<rect x="118.863" y="220.39" fill="#AFAFAF" width="18.28" height="7"/>
	<path fill="#71C1E8" d="M171.003,245.561v5.16h-89v-5.16c0-5.53,4.48-10,10-10h69C166.523,235.561,171.003,240.031,171.003,245.561
		z"/>
	<path fill="#FFCAC2" d="M129.219,76.702c-1.29,0-2.383-0.991-2.489-2.298c-0.111-1.376,0.914-2.583,2.291-2.693
		c6.368-0.515,11.475-5.807,11.475-12.452c0-3.344-1.298-6.483-3.653-8.839c-0.977-0.976-0.977-2.559,0-3.535
		c0.977-0.977,2.559-0.977,3.535,0c3.301,3.3,5.118,7.695,5.118,12.374c0,9.319-7.174,16.716-16.072,17.435
		C129.355,76.7,129.286,76.702,129.219,76.702z M118.332,73.846c-0.967-0.642-1.876-1.386-2.703-2.213
		c-0.977-0.976-0.977-2.559,0-3.535c0.976-0.977,2.56-0.977,3.535,0c0.592,0.591,1.242,1.124,1.932,1.581
		c1.151,0.763,1.465,2.315,0.702,3.465C121.035,74.293,119.486,74.61,118.332,73.846z"/>
	<path fill="#EEEEEE" d="M205.756,196.502l-142.507,0c-1.381,0-2.5-1.119-2.5-2.5s1.119-2.5,2.5-2.5h138.946l-20.453-56.623
		l4.703-1.698l21.662,59.973C208.694,194.779,207.488,196.502,205.756,196.502z M53.249,196.501h-3c-1.381,0-2.5-1.119-2.5-2.5
		s1.119-2.5,2.5-2.5h3c1.381,0,2.5,1.119,2.5,2.5S54.63,196.501,53.249,196.501z"/>
	<path d="M72.493,61.24l17.7,13.68l-2.84,22.19c-0.211,1.635,1.19,3.01,2.8,2.8l22.19-2.85l13.68,17.71
		c1.002,1.295,2.958,1.295,3.959,0l13.681-17.71l22.189,2.85c1.591,0.204,3.014-1.135,2.8-2.8l-2.85-22.19l17.71-13.68
		c1.294-1.001,1.294-2.958,0-3.96l-17.71-13.68l2.85-22.19c0.21-1.631-1.168-3.009-2.8-2.8l-22.189,2.84l-13.681-17.7
		c-1.001-1.295-2.958-1.294-3.959,0l-8.51,11.01c-0.84,1.09-0.64,2.66,0.45,3.5c1.07,0.82,2.69,0.61,3.51-0.44l6.53-8.45
		l12.58,16.27c0.529,0.69,1.42,1.06,2.3,0.95l20.4-2.61l-2.62,20.4c-0.11,0.88,0.25,1.76,0.949,2.3l16.28,12.58l-16.28,12.58
		c-0.689,0.54-1.06,1.42-0.949,2.29l2.62,20.41l-20.41-2.62c-0.86-0.11-1.761,0.26-2.29,0.95l-12.58,16.28l-12.58-16.28
		c-0.54-0.69-1.43-1.06-2.29-0.95l-20.41,2.62l2.62-20.41c0.11-0.87-0.26-1.75-0.95-2.29l-16.28-12.58l16.28-12.58
		c0.69-0.54,1.06-1.42,0.95-2.3l-2.62-20.4l10.38,1.33c1.36,0.17,2.62-0.81,2.8-2.16c0.168-1.381-0.774-2.611-2.16-2.8l-13.59-1.74
		c-1.606-0.208-3.011,1.147-2.8,2.8l2.84,22.19l-17.7,13.68C71.199,58.282,71.199,60.239,72.493,61.24z"/>
	<path d="M110.863,23.781c-0.189,1.409,0.837,2.639,2.16,2.8c1.542,0.144,2.64-0.92,2.8-2.16c0.17-1.37-0.8-2.62-2.16-2.8
		C112.303,21.46,111.033,22.43,110.863,23.781z"/>
	<path d="M128.003,86.76c15.354,0,27.5-12.477,27.5-27.5c0-15.189-12.29-27.5-27.5-27.5c-15.203,0-27.5,12.29-27.5,27.5
		C100.503,74.45,112.793,86.76,128.003,86.76z M128.003,36.76c12.38,0.02,22.479,10.11,22.5,22.5
		c-0.021,12.38-10.12,22.48-22.5,22.5c-12.38-0.02-22.48-10.12-22.5-22.5C105.523,46.87,115.623,36.781,128.003,36.76z"/>
	<path d="M62.523,130.591c-1.27-0.46-2.75,0.25-3.2,1.51c-22.649,62.684-21.58,58.815-21.58,61.91c0,6.631,5.336,12.469,12.51,12.49
		c4.696,0,37.835,0,42.46,0c0,4.02-0.014,3.921,0.024,4.648c0.39,6.584,5.87,11.742,12.476,11.742h11.15v10.17h-24.36
		c-6.89,0-12.5,5.61-12.5,12.5v5.16c0,1.366,1.111,2.5,2.5,2.5h44.16c1.38,0,2.5-1.12,2.5-2.5s-1.12-2.5-2.5-2.5h-41.66v-2.66
		c0.01-4.13,3.37-7.49,7.5-7.5c13.701,0,56.194,0,69,0c4.13,0.01,7.49,3.37,7.5,7.5v2.66h-22.34c-1.38,0-2.5,1.12-2.5,2.5
		s1.12,2.5,2.5,2.5h24.84c1.396,0,2.5-1.125,2.5-2.5v-5.16c0-6.89-5.61-12.5-12.5-12.5h-21.36v-10.17h11.15
		c6.894,0,12.5-5.6,12.5-12.5v-3.89c4.128,0,37.897,0,42.46,0c8.755-0.025,14.678-8.695,11.76-16.75l-21.66-59.97
		c-1.79-4.94-6.51-8.25-11.76-8.25c-12.468,0-95.147,0-106.89,0c-1.37,0-2.5,1.12-2.5,2.5c0,1.38,1.13,2.5,2.5,2.5
		c0.01,0,0.01,0,0.02,0h10.662l-4.647,21.926H58.726l5.297-14.666C64.493,132.5,63.813,131.06,62.523,130.591z M71.997,201.5H50.253
		c-4.14-0.01-7.51-3.37-7.51-7.49c0-1.725,0.016-1.349,4.743-14.437h29.157L71.997,201.5z M77.108,201.5l4.647-21.926h27.016
		l-1.593,21.926H77.108z M134.643,233.06h-13.28v-10.17h13.28V233.06z M158.293,210.39c0,4.163-3.377,7.5-7.5,7.5
		c-5.261,0-39.915,0-45.58,0c-3.963,0-7.251-3.091-7.483-7.018c-0.026-0.523-0.017-3.819-0.017-4.372c7.073,0,53.236,0,60.58,0
		V210.39z M145.338,153.456h23.378l4.476,21.118h-26.32L145.338,153.456z M148.828,201.5l-1.592-21.926h27.017l4.647,21.926H148.828
		z M212.813,191.45c1.785,4.942-1.917,10.038-7.06,10.05h-21.744l-4.647-21.926h29.159L212.813,191.45z M206.715,174.574h-28.412
		l-4.476-21.118h25.257L206.715,174.574z M184.093,126.531c3.15,0,5.979,1.99,7.05,4.95l6.134,16.976h-24.51l-4.647-21.926H184.093z
		 M163.01,126.531l4.647,21.926h-22.682l-1.592-21.926H163.01z M117.637,126.531h20.733l1.592,21.926h-23.918L117.637,126.531z
		 M115.681,153.456h24.644l1.534,21.118h-27.712L115.681,153.456z M142.223,179.574l1.592,21.926h-31.623l1.593-21.926H142.223z
		 M92.996,126.531h19.627l-1.593,21.926H88.349L92.996,126.531z M87.29,153.456h23.378l-1.534,21.118h-26.32L87.29,153.456z
		 M82.178,153.456l-4.475,21.118H49.292l7.628-21.118H82.178z"/>
	<path d="M68.513,127.341c1.26-0.631,1.71-2.179,1.09-3.36c-0.6-1.2-2.15-1.71-3.36-1.09c0,0,0,0-0.01,0
		c-1.164,0.591-1.731,2.059-1.08,3.36C65.807,127.53,67.347,127.939,68.513,127.341z"/>
	<circle cx="136.163" cy="250.72" r="2.5"/>
</g>
</svg>
