<?xml version="1.0" ?><svg height="48" viewBox="0 0 48 48" width="48" xmlns="http://www.w3.org/2000/svg"><defs><style>.cls-1{fill:#f1f2f2;}.cls-2{fill:#35dc86;}.cls-3{fill:none;stroke:#474c54;stroke-linecap:round;stroke-linejoin:round;stroke-width:2px;}</style></defs><title/><g data-name="14-Android" id="_14-Android"><g data-name="&lt;Group&gt;" id="_Group_"><circle class="cls-1" cx="28" cy="9" r="2"/><circle class="cls-1" cx="20" cy="9" r="2"/><path class="cls-2" d="M38,34v3a2.006,2.006,0,0,1-2,2H33v6a2.006,2.006,0,0,1-2,2H29a2.006,2.006,0,0,1-2-2V39H21v6a2.006,2.006,0,0,1-2,2H17a2.006,2.006,0,0,1-2-2V39H12a2.006,2.006,0,0,1-2-2V34H7a.979.979,0,0,1-1-1V23a1.959,1.959,0,0,1,2-2H40a1.959,1.959,0,0,1,2,2V33a.979.979,0,0,1-1,1Z"/><path class="cls-2" d="M38,15v2H10V15a14,14,0,0,1,28,0ZM30,9a2,2,0,1,0-2,2A2.006,2.006,0,0,0,30,9ZM22,9a2,2,0,1,0-2,2A2.006,2.006,0,0,0,22,9Z"/><path class="cls-3" d="M38,15a14,14,0,0,0-28,0v2H38Z"/><line class="cls-3" x1="14" x2="10" y1="5" y2="1"/><line class="cls-3" x1="34" x2="38" y1="5" y2="1"/><path class="cls-3" d="M19,39h8v6a2.006,2.006,0,0,0,2,2h2a2.006,2.006,0,0,0,2-2V39h3a2.006,2.006,0,0,0,2-2V28"/><path class="cls-3" d="M10,28v9a2.006,2.006,0,0,0,2,2h3v6a2.006,2.006,0,0,0,2,2h2a2.006,2.006,0,0,0,2-2V43"/><path class="cls-3" d="M10,34H7a.979.979,0,0,1-1-1V23a1.959,1.959,0,0,1,2-2H40a1.959,1.959,0,0,1,2,2V33a.979.979,0,0,1-1,1H38"/><circle class="cls-3" cx="20" cy="9" r="2"/><circle class="cls-3" cx="28" cy="9" r="2"/></g></g></svg>