<svg xmlns="http://www.w3.org/2000/svg" width="128" height="128" viewBox="0 0 128 128">
  <title>BLANKET</title>
  <g>
    <path d="M93.407,52.405H34.216A12.582,12.582,0,0,1,21.634,39.823h0A12.582,12.582,0,0,1,34.216,27.241H93.407" fill="#ffc82c"/>
    <path d="M33.167,27.241H97.176a6.292,6.292,0,0,1,6.291,6.291h0a6.291,6.291,0,0,1-6.291,6.291H33.167" fill="#ffc82c"/>
    <path d="M33.167,39.823H97.176a6.292,6.292,0,0,1,6.291,6.291h0a6.292,6.292,0,0,1-6.291,6.291H33.167" fill="#ffc82c"/>
    <path d="M93.407,102.733H34.216A12.582,12.582,0,0,1,21.634,90.151h0A12.582,12.582,0,0,1,34.216,77.569H93.407" fill="#ffc82c"/>
    <path d="M33.167,77.569H97.176a6.291,6.291,0,0,1,6.291,6.291h0a6.292,6.292,0,0,1-6.291,6.291H33.167" fill="#ffc82c"/>
    <path d="M33.167,90.151H97.176a6.291,6.291,0,0,1,6.291,6.291h0a6.292,6.292,0,0,1-6.291,6.291H33.167" fill="#ffc82c"/>
    <path d="M31.694,77.569H90.885a12.582,12.582,0,0,0,12.582-12.582h0A12.582,12.582,0,0,0,90.885,52.405H31.694" fill="#ff8955"/>
    <path d="M91.934,52.405H27.925A6.291,6.291,0,0,0,21.634,58.7h0a6.291,6.291,0,0,0,6.291,6.291H91.934" fill="#ff8955"/>
    <path d="M91.934,64.987H27.925a6.291,6.291,0,0,0-6.291,6.291h0a6.291,6.291,0,0,0,6.291,6.291H91.934" fill="#ff8955"/>
    <rect x="75.25" y="27.241" width="12.25" height="12.582" fill="#ffaa4d"/>
    <rect x="75.25" y="39.823" width="12.25" height="12.582" fill="#ffaa4d"/>
    <rect x="39.25" y="52.405" width="12.25" height="12.582" fill="#f26641"/>
    <rect x="39.25" y="64.987" width="12.25" height="12.582" fill="#f26641"/>
    <rect x="75.25" y="77.569" width="12.25" height="12.582" fill="#ffaa4d"/>
    <rect x="75.25" y="90.151" width="12.25" height="12.582" fill="#ffaa4d"/>
  </g>
</svg>
