<svg xmlns="http://www.w3.org/2000/svg" viewBox="0 0 48 48"><defs><style>.cls-1{fill:#ffde76;}.cls-2{fill:#9dcc6b;}.cls-3{fill:#b5e08c;}.cls-4{fill:#a87e6b;}.cls-5{fill:#be927c;}.cls-6{fill:#f16f39;}.cls-7{fill:#f8834b;}.cls-8{fill:#b2e5fb;}.cls-9{fill:#fc6;}</style></defs><title>13. Watering Plant</title><g id="_13._Watering_Plant" data-name="13. Watering Plant"><path class="cls-1" d="M40.89,8.81c.46-5.61.66-6,.17-6.5-1-1-1.77.28-4.59,3.1A1,1,0,0,1,35.05,4L38.16.89a3,3,0,0,1,4.31,0c1.33,1.33.87,2.45.41,8.08A1,1,0,0,1,40.89,8.81Z"/><path class="cls-1" d="M27.61,11c-.56,0-.58-.17-2.84-2.35a5,5,0,1,1,7.06-7.09l2.26,2.23a1,1,0,0,1-1.4,1.42L30.42,3C27.6.17,23.36,4.41,26.17,7.22L28.3,9.28A1,1,0,0,1,27.61,11Z"/><path class="cls-2" d="M10.83,34.54c-4.67,1-8.06-2.41-7.07-7.08C8.56,26.47,11.81,30,10.83,34.54Z"/><path class="cls-3" d="M11,32.67A5.47,5.47,0,0,1,4.6,27.33,5.47,5.47,0,0,1,11,32.67Z"/><path class="cls-2" d="M11.17,36.54c-1-4.52,2.25-8.08,7.07-7.08C19.23,34.13,15.84,37.52,11.17,36.54Z"/><path class="cls-3" d="M17.4,29.33A5.47,5.47,0,0,1,11,34.67,5.47,5.47,0,0,1,17.4,29.33Z"/><path class="cls-4" d="M19,47H3A8.61,8.61,0,0,1,19,47Z"/><path class="cls-5" d="M17.89,45H9a1.67,1.67,0,0,1-1.25-2.79A8.13,8.13,0,0,1,11,41.58,8.5,8.5,0,0,1,17.89,45Z"/><path class="cls-5" d="M10,42V33a1,1,0,0,1,2,0v9A1,1,0,0,1,10,42Z"/><path class="cls-6" d="M44.12,14.73l-6.2,6.2a3,3,0,0,1-4.6-.43L26.17,10.05,33.24,3c11.41,7.8,10.9,7.32,11.35,8.13A3,3,0,0,1,44.12,14.73Z"/><path class="cls-7" d="M44.92,11.93l-1.29,1.29A8.53,8.53,0,0,1,30.56,12L28,8.24,33.24,3C44.67,10.8,44.55,10.4,44.92,11.93Z"/><path class="cls-8" d="M9,25c-1.33,0-1-1.36-1-5a6,6,0,0,1,6-6h1a1,1,0,0,1,0,2H14a4,4,0,0,0-4,4C10,23.58,10.35,25,9,25Z"/><path class="cls-8" d="M13,27a1,1,0,0,1-1-1V21c0-3,4-3.92,4-2,0,1.55-2,.45-2,2C14,25.72,14.34,27,13,27Z"/><path class="cls-9" d="M32.29,19H23l-4,2V13l4,2h6.56C31.21,17.4,30.58,16.48,32.29,19Z"/><path class="cls-1" d="M30.93,17c-6.05,0-7,.05-6.93,0a2.76,2.76,0,0,1-4-2.47v-1c3.78,1.89,1.69,1.5,9.56,1.5Z"/></g></svg>