<?xml version="1.0" ?><svg viewBox="0 0 64 64" xmlns="http://www.w3.org/2000/svg"><defs><style>.cls-1{fill:#8bc4ff;}.cls-2{fill:#2e58ff;}</style></defs><title/><g id="More"><circle class="cls-1" cx="9" cy="32" r="7"/><path class="cls-2" d="M9,41a9,9,0,1,1,9-9A9,9,0,0,1,9,41ZM9,27a5,5,0,1,0,5,5A5,5,0,0,0,9,27Z"/><circle class="cls-1" cx="32" cy="32" r="7"/><path class="cls-2" d="M32,41a9,9,0,1,1,9-9A9,9,0,0,1,32,41Zm0-14a5,5,0,1,0,5,5A5,5,0,0,0,32,27Z"/><circle class="cls-1" cx="55" cy="32" r="7"/><path class="cls-2" d="M55,41a9,9,0,1,1,9-9A9,9,0,0,1,55,41Zm0-14a5,5,0,1,0,5,5A5,5,0,0,0,55,27Z"/></g></svg>