<?xml version="1.0" ?><svg id="Layer_1" style="enable-background:new 0 0 50 50;" version="1.1" viewBox="0 0 50 50" xml:space="preserve" xmlns="http://www.w3.org/2000/svg" xmlns:xlink="http://www.w3.org/1999/xlink"><style type="text/css">
	.st0{fill:#F0C4DB;}
	.st1{fill:#FF9D9C;}
	.st2{fill:#9BEAF9;}
	.st3{fill:#E9F4BC;}
	.st4{fill:#505050;}
	.st5{fill:#FEBECC;}
	.st6{fill:#FFFFFF;}
	.st7{fill:#FDE4A1;}
	.st8{fill:#FEE7B5;}
	.st9{fill:#CDF6FC;}
	.st10{fill:#F2C6DD;}
	.st11{opacity:0.1;}
</style><g><path class="st5" d="M16.15,13.34c-5.61,0-10.7,2.22-14.47,5.8v29.73h29.6c3.63-3.77,5.87-8.89,5.87-14.54   C37.15,22.74,27.75,13.34,16.15,13.34z"/><g><polygon class="st6" points="47.51,11.16 47.51,47.88 13.75,47.88 13.75,1.88 38.23,1.88   "/><polygon class="st10" points="47.51,11.16 38.23,11.16 38.23,1.88   "/><path class="st2" d="M43.05,21.21c-3.43,4.54-7.92,6.81-12.41,6.81c-4.49,0-8.99-2.27-12.41-6.81    C25.08,12.12,36.19,12.12,43.05,21.21z"/><circle class="st1" cx="30.63" cy="21.21" r="6.81"/><path class="st6" d="M33.34,21.21c0,1.49-1.21,2.71-2.71,2.71c-1.49,0-2.71-1.22-2.71-2.71c0-1.49,1.21-2.71,2.71-2.71    C30.63,19.99,31.85,21.21,33.34,21.21z"/><g><circle class="st4" cx="22.28" cy="47.87" r="0.75"/><path class="st4" d="M43.1,37.56H18.27c-0.41,0-0.75,0.34-0.75,0.75s0.34,0.75,0.75,0.75H43.1c0.41,0,0.75-0.34,0.75-0.75     S43.52,37.56,43.1,37.56z"/><path class="st4" d="M43.1,33.59H18.27c-0.41,0-0.75,0.34-0.75,0.75s0.34,0.75,0.75,0.75H43.1c0.41,0,0.75-0.34,0.75-0.75     S43.52,33.59,43.1,33.59z"/><path class="st4" d="M18.27,43.03h11.36c0.41,0,0.75-0.34,0.75-0.75s-0.34-0.75-0.75-0.75H18.27c-0.41,0-0.75,0.34-0.75,0.75     S17.86,43.03,18.27,43.03z"/><path class="st4" d="M48.31,11.18v-0.02c0,0,0,0,0-0.01c0-0.09-0.02-0.18-0.05-0.27c0-0.01-0.01-0.02-0.01-0.03     c-0.04-0.08-0.08-0.16-0.15-0.23l-9.29-9.29c0,0,0,0,0,0c0,0-0.01-0.01-0.01-0.01c-0.06-0.06-0.13-0.1-0.2-0.13     c-0.03-0.01-0.06-0.02-0.09-0.03c-0.05-0.02-0.11-0.03-0.16-0.03c-0.02,0-0.04-0.01-0.07-0.01H13.81c-0.2,0-0.4,0.08-0.53,0.22     c-0.14,0.14-0.22,0.33-0.22,0.53v46c0,0.2,0.08,0.4,0.22,0.53c0.13,0.14,0.33,0.22,0.53,0.22h6.47c0.41,0,0.75-0.33,0.75-0.75     c0-0.4-0.33-0.74-0.73-0.75c-0.01,0-0.01,0-0.02,0h-5.73V2.62h22.98v8.54c0,0.41,0.34,0.75,0.75,0.75h8.54v35.21H24.28     c-0.41,0-0.75,0.34-0.75,0.75c0,0.42,0.34,0.75,0.75,0.75h23.28c0.21,0,0.39-0.08,0.54-0.22c0.14-0.14,0.21-0.33,0.21-0.53V11.24     C48.31,11.22,48.31,11.2,48.31,11.18z M39.03,10.41V3.69l6.72,6.72H39.03z"/><path class="st4" d="M43.7,20.76c-3.46-4.59-8.08-7.11-13.01-7.11c-4.93,0-9.55,2.53-13.01,7.11c-0.2,0.27-0.2,0.64,0,0.9     c3.46,4.58,8.08,7.11,13.01,7.11c4.93,0,9.55-2.53,13.01-7.11C43.9,21.39,43.9,21.02,43.7,20.76z M31.31,27.23c0,0-0.01,0-0.01,0     c-0.2,0.02-0.4,0.03-0.61,0.03c-0.2,0-0.39-0.01-0.58-0.03c-0.01,0-0.03,0-0.04,0c-3.05-0.31-5.43-2.9-5.43-6.03     c0-3.34,2.72-6.06,6.06-6.06s6.06,2.72,6.06,6.06C36.75,24.34,34.36,26.92,31.31,27.23z M19.22,21.21     c1.61-2.01,3.46-3.55,5.47-4.58c-0.97,1.27-1.56,2.86-1.56,4.58c0,1.72,0.58,3.3,1.56,4.58C22.69,24.76,20.83,23.22,19.22,21.21z      M36.69,25.79c0.97-1.27,1.56-2.86,1.56-4.58c0-1.72-0.59-3.31-1.56-4.58c2,1.03,3.86,2.56,5.47,4.58     C40.55,23.22,38.69,24.76,36.69,25.79z"/><path class="st4" d="M33.39,20.46c-1.08,0-1.96-0.88-1.96-1.96c0-0.41-0.34-0.75-0.75-0.75c-1.91,0-3.46,1.55-3.46,3.46     s1.55,3.46,3.46,3.46c1.91,0,3.46-1.55,3.46-3.46C34.14,20.79,33.81,20.46,33.39,20.46z M30.69,23.16     c-1.08,0-1.96-0.88-1.96-1.96c0-0.85,0.55-1.58,1.31-1.85c0.31,1.22,1.27,2.18,2.49,2.49C32.27,22.61,31.54,23.16,30.69,23.16z"/></g></g></g></svg>