<!-- icon666.com - MILLIONS OF FREE VECTOR ICONS --><svg version="1.1" id="Capa_1" xmlns="http://www.w3.org/2000/svg" xmlns:xlink="http://www.w3.org/1999/xlink" x="0px" y="0px" viewBox="0 0 512 512" style="enable-background:new 0 0 512 512;" xml:space="preserve"><path style="fill:#C5C9F7;" d="M211,0v90h90V0H211z"></path><rect x="256" style="fill:#A8AFF1;" width="45" height="90"></rect><path style="fill:#10BB67;" d="M421,512h-75v-54.595c0-7.866,0.645-15.396,1.611-22.939l0.674-5.156l2.358-2.402 C374.989,386.844,419.052,362,466,362h36.211l-50.508,50.508C432.191,432.02,421,459.104,421,486.805V512z"></path><path style="fill:#32D736;" d="M166,512H91v-25.195c0-27.7-11.191-54.785-30.703-74.297L9.789,362H46 c44.692,0,86.631,22.441,111.46,59.092h6.738l0.308,15.308c0.85,5.61,1.494,13.14,1.494,21.006V512z"></path><g><rect x="362" y="90" style="fill:#17CEB4;" width="30" height="30"></rect><rect x="422" y="60" style="fill:#17CEB4;" width="30" height="30"></rect><rect x="482" y="30" style="fill:#17CEB4;" width="30" height="30"></rect><rect x="482" y="90" style="fill:#17CEB4;" width="30" height="30"></rect><rect x="482" y="150" style="fill:#17CEB4;" width="30" height="30"></rect><rect x="422" y="120" style="fill:#17CEB4;" width="30" height="30"></rect></g><g><rect x="120" y="90" style="fill:#19DEC1;" width="30" height="30"></rect><rect x="60" y="60" style="fill:#19DEC1;" width="30" height="30"></rect><rect y="30" style="fill:#19DEC1;" width="30" height="30"></rect><rect y="90" style="fill:#19DEC1;" width="30" height="30"></rect><rect y="150" style="fill:#19DEC1;" width="30" height="30"></rect><rect x="60" y="120" style="fill:#19DEC1;" width="30" height="30"></rect></g><rect x="241" y="135" style="fill:#57555C;" width="30" height="236.3"></rect><path style="fill:#10BB67;" d="M211,512h-75v-54.595c0-3.413-0.146-6.768-0.41-10.063l-1.26-9.229 c-5.127-37.822-26.455-71.733-58.521-93.018L11.986,302H61c63.75,0,120.659,35.654,148.491,93.047l1.509,3.105V512z"></path><path style="fill:#32D736;" d="M454.9,242l-63.6,42.9c-37.8,25.199-60.3,67.2-60.3,112.5V512H181V397.4 c0-45.3-22.5-87.301-60.3-112.2L57.1,242H106c66.599,0,123.9,39.6,150,96.599C282.1,281.6,339.401,242,406,242H454.9z"></path><path style="fill:#0CA656;" d="M376,512h-75V398.152l1.509-3.105C330.341,337.654,387.25,302,451,302h49.014l-63.721,43.037 c-32.183,21.372-53.525,55.166-58.623,92.783l-0.894,5.303c-0.498,5.142-0.776,9.639-0.776,14.282L376,512L376,512z"></path><rect x="256" y="135" style="fill:#3C3A41;" width="15" height="236.3"></rect><path style="fill:#10BB67;" d="M454.9,242l-63.6,42.9c-37.8,25.199-60.3,67.2-60.3,112.5V512h-75V338.599 C282.1,281.6,339.401,242,406,242H454.9z"></path><path style="fill:#E1E4FB;" d="M181,60v90h150V60H181z"></path><rect x="256" y="60" style="fill:#C5C9F7;" width="75" height="90"></rect></svg>