<svg xmlns="http://www.w3.org/2000/svg" xml:space="preserve" width="800" height="800" viewBox="0 0 512 512"><path d="M252.033 188.055c-8.47-8.47-19.733-13.135-31.713-13.135s-23.241 4.665-31.712 13.135l-23.612-23.611c14.777-14.777 34.424-22.915 55.324-22.915 20.899 0 40.546 8.139 55.324 22.915zm87.65-87.651C307.799 68.521 265.41 50.963 220.32 50.963s-87.479 17.558-119.363 49.441l-23.61-23.611c38.191-38.19 88.966-59.222 142.974-59.222s104.783 21.032 142.974 59.222z" style="fill:#92E5EA"/><path d="M295.858 144.23c-20.177-20.176-47.003-31.289-75.538-31.289s-55.361 11.112-75.537 31.288l-23.611-23.611c26.483-26.484 61.695-41.068 99.148-41.068s72.665 14.585 99.149 41.068z" style="fill:#92E5EA"/><path d="m252.033 188.055 23.611-23.611c-14.777-14.778-34.425-22.915-55.324-22.915v33.391c11.98 0 23.243 4.665 31.713 13.135M363.294 76.793c-38.191-38.19-88.966-59.222-142.974-59.222v33.391c45.088 0 87.479 17.558 119.363 49.441zm-67.436 67.437 23.611-23.612C292.985 94.136 257.773 79.55 220.32 79.55v33.391c28.535.001 55.361 11.112 75.538 31.289" style="fill:#79BBBC"/><path d="m385.586 317.2-49-98.956H104.055L55.58 316.142H0v139.33h512V330.557z" style="fill:#F0C838"/><path d="m385.586 317.2-49-98.956H220.32v237.229H512V330.557z" style="fill:#E79C25"/><path d="M347.802 316.141H237.016v-64.508h78.843z" style="fill:#92E5EA"/><path d="M124.781 251.633h78.844v64.508H92.84z" style="fill:#C8F9FA"/><path d="M103.319 494.427c-30.687 0-55.652-24.966-55.652-55.652s24.966-55.652 55.652-55.652 55.652 24.966 55.652 55.652-24.965 55.652-55.652 55.652" style="fill:#6F6F6F"/><path d="M405.266 494.428c-30.687 0-55.652-24.966-55.652-55.652s24.966-55.652 55.652-55.652 55.652 24.966 55.652 55.652-24.966 55.652-55.652 55.652" style="fill:#444444"/></svg>