<!-- icon666.com - MILLIONS OF FREE VECTOR ICONS --><svg version="1.1" id="Capa_1" xmlns="http://www.w3.org/2000/svg" xmlns:xlink="http://www.w3.org/1999/xlink" x="0px" y="0px" viewBox="0 0 512 512" style="enable-background:new 0 0 512 512;" xml:space="preserve"><path style="fill:#6A1B9A;" d="M503.467,59.733v392.533c0.026,28.251-22.855,51.174-51.106,51.2c-0.031,0-0.063,0-0.094,0H59.734 c-28.268-0.022-51.178-22.932-51.2-51.199V59.733C8.507,31.482,31.388,8.559,59.639,8.533c0.031,0,0.064,0,0.095,0h392.533 C480.534,8.555,503.444,31.465,503.467,59.733z"></path><path style="fill:#9D27B0;" d="M477.867,85.334v392.533c0.011,7.268-1.531,14.453-4.522,21.077 c-6.624,2.992-13.81,4.533-21.077,4.522H59.734c-28.268-0.022-51.178-22.932-51.2-51.199V59.733 c-0.011-7.268,1.531-14.453,4.522-21.077c6.624-2.991,13.81-4.533,21.077-4.522h392.533 C454.935,34.156,477.845,57.066,477.867,85.334z"></path><g><path style="fill:#37474F;" d="M410.709,362.411l28.757,28.757c13.338,13.337,13.338,34.962,0,48.299 c-13.337,13.337-34.962,13.337-48.299,0L362.41,410.71"></path><path style="fill:#37474F;" d="M149.59,101.29l-28.757-28.757c-13.337-13.337-34.962-13.337-48.299,0s-13.337,34.962,0,48.299 l28.757,28.757"></path><path style="fill:#37474F;" d="M149.59,410.709l-28.757,28.757c-13.337,13.337-34.962,13.337-48.299,0s-13.337-34.962,0-48.299 l28.757-28.757"></path><path style="fill:#37474F;" d="M410.709,149.589l28.757-28.757c13.315-13.36,13.279-34.984-0.081-48.299 c-13.328-13.283-34.89-13.283-48.217,0l-28.757,28.757"></path></g><path d="M452.267,512H59.734c-32.974-0.037-59.696-26.759-59.733-59.733V59.733C0.038,26.759,26.759,0.037,59.734,0h392.533 c32.974,0.037,59.697,26.759,59.733,59.733v392.533C511.963,485.241,485.242,511.963,452.267,512z M59.734,17.066 c-23.553,0.027-42.639,19.114-42.667,42.667v392.533c0.027,23.553,19.114,42.639,42.667,42.667h392.533 c23.553-0.027,42.639-19.114,42.667-42.667V59.733c-0.027-23.553-19.114-42.639-42.667-42.667 C452.266,17.066,59.734,17.066,59.734,17.066z"></path><circle style="fill:#9E9E9E;" cx="255.995" cy="255.995" r="187.736"></circle><path d="M256,452.267c-108.395,0-196.267-87.872-196.267-196.267S147.605,59.733,256,59.733S452.267,147.605,452.267,256 C452.144,364.343,364.344,452.143,256,452.267z M256,76.799c-98.969,0-179.199,80.23-179.199,179.199s80.23,179.2,179.199,179.2 S435.2,354.969,435.2,256C435.09,157.076,354.923,76.911,256,76.799z"></path><path style="fill:#37474F;" d="M409.6,256c-0.091,84.74-68.86,153.363-153.6,153.273c-84.74-0.09-153.363-68.86-153.272-153.6 C102.818,171.06,171.388,102.49,256,102.4C340.797,102.481,409.519,171.203,409.6,256z"></path><path style="fill:#607D8B;" d="M375.467,273.066c0.032,51.488-25.809,99.548-68.779,127.915 c-80.017,28.039-167.613-14.098-195.651-94.115c-23.244-66.335,1.53-139.982,60.142-178.781 c80.051-28.013,167.656,14.172,195.669,94.224C372.557,238.622,375.471,255.783,375.467,273.066z"></path><path d="M256,418.133c-89.544,0-162.133-72.59-162.133-162.133S166.457,93.867,256,93.867S418.134,166.456,418.134,256 C418.032,345.501,345.502,418.031,256,418.133z M256,110.933c-80.118,0-145.067,64.949-145.067,145.067S175.883,401.067,256,401.067 S401.067,336.118,401.067,256C400.977,175.918,336.081,111.023,256,110.933z"></path><path d="M256,383.999c-33.959,0.074-66.536-13.44-90.471-37.529c-3.321-3.343-3.304-8.745,0.038-12.067 c3.328-3.307,8.701-3.307,12.029,0c43.202,43.302,113.326,43.382,156.627,0.181c0.061-0.061,0.121-0.12,0.181-0.181 c3.333-3.332,8.734-3.332,12.067,0c3.333,3.333,3.333,8.734,0,12.067C322.536,370.56,289.959,384.073,256,383.999z"></path><path style="fill:#424242;" d="M324.267,256c0,22.348-10.972,43.271-29.355,55.979c-11.383,8.031-24.981,12.326-38.912,12.288 c-37.682-0.051-68.217-30.585-68.266-68.266c-0.037-13.931,4.256-27.529,12.288-38.912c21.45-30.957,63.934-38.664,94.891-17.214 C313.319,212.628,324.291,233.606,324.267,256z"></path><path style="fill:#9E9E9E;" d="M307.201,273.066c0.037,13.931-4.256,27.529-12.288,38.912 c-11.383,8.031-24.981,12.326-38.912,12.288c-37.682-0.051-68.217-30.585-68.266-68.266c-0.037-13.931,4.256-27.529,12.288-38.912 c11.383-8.032,24.981-12.326,38.912-12.288C276.616,204.85,307.15,235.385,307.201,273.066z"></path><path d="M256,332.799c-42.415,0-76.799-34.384-76.799-76.799s34.384-76.799,76.799-76.799S332.8,213.585,332.8,256 C332.751,298.395,298.395,332.751,256,332.799z M256,196.267c-32.989,0-59.733,26.744-59.733,59.733s26.744,59.733,59.733,59.733 s59.733-26.744,59.733-59.733C315.696,223.026,288.975,196.303,256,196.267z"></path><path d="M290.134,264.533c-4.712,0-8.533-3.821-8.533-8.533c-0.015-14.132-11.467-25.584-25.599-25.599 c-4.712,0-8.533-3.821-8.533-8.533c0-4.712,3.821-8.533,8.533-8.533c23.553,0.027,42.639,19.114,42.667,42.667 C298.667,260.712,294.847,264.533,290.134,264.533z"></path><path d="M415.35,457.95c-11.314,0.02-22.174-4.45-30.196-12.429l-28.775-28.779c-3.332-3.333-3.332-8.734,0-12.067 c3.333-3.333,8.734-3.333,12.067,0l28.754,28.758c10.011,10,26.233,9.991,36.233-0.021c10-10.012,9.991-26.233-0.021-36.233l0,0 l-28.738-28.733c-3.333-3.333-3.333-8.734,0-12.067c3.333-3.333,8.734-3.333,12.067,0l28.758,28.754 c16.67,16.629,16.702,43.623,0.074,60.292C437.565,453.454,426.689,457.961,415.35,457.95L415.35,457.95z"></path><path d="M101.292,158.121c-2.263,0.003-4.434-0.898-6.033-2.501l-28.757-28.754c-16.596-16.7-16.596-43.667,0-60.367 c16.68-16.643,43.684-16.645,60.367-0.004l28.754,28.762c3.333,3.333,3.333,8.734,0,12.067s-8.734,3.333-12.067,0l-28.754-28.758 c-10.15-9.65-26.083-9.65-36.233,0c-9.954,10.038-9.945,26.227,0.021,36.254l28.738,28.733c3.332,3.333,3.332,8.736-0.002,12.068 C105.724,157.221,103.555,158.12,101.292,158.121L101.292,158.121z"></path><path d="M96.642,457.945c-23.544,0.021-42.647-19.047-42.667-42.591c-0.01-11.328,4.489-22.195,12.505-30.201l28.779-28.775 c3.333-3.333,8.734-3.333,12.067,0c3.333,3.332,3.333,8.734,0,12.067l-28.758,28.754c-10,10.011-9.991,26.233,0.021,36.233 c10.012,10,26.233,9.991,36.233-0.021l28.733-28.738c3.333-3.333,8.734-3.333,12.067,0c3.333,3.333,3.333,8.734,0,12.067 l-28.754,28.758C118.837,453.487,107.968,457.963,96.642,457.945z"></path><path d="M410.708,158.121c-4.712-0.001-8.532-3.822-8.531-8.535c0-2.262,0.9-4.431,2.499-6.031l28.758-28.754 c9.95-10.028,9.95-26.205,0-36.233c-10.149-9.653-26.086-9.651-36.233,0.004l-28.754,28.754c-3.333,3.333-8.734,3.333-12.067,0 c-3.333-3.333-3.333-8.734,0-12.067L385.134,66.5c16.673-16.666,43.701-16.66,60.367,0.013c16.653,16.66,16.662,43.661,0.021,60.333 l-28.779,28.775C415.144,157.224,412.973,158.123,410.708,158.121z"></path><path d="M102.401,110.933c-2.263,0.003-4.434-0.898-6.033-2.501l-8.533-8.533c-3.301-3.362-3.253-8.765,0.11-12.066 c3.319-3.259,8.637-3.259,11.957,0l8.533,8.533c3.332,3.333,3.332,8.736-0.002,12.068 C106.832,110.035,104.663,110.933,102.401,110.933z"></path><path d="M409.6,110.933c-4.712-0.001-8.532-3.822-8.531-8.535c0-2.262,0.899-4.431,2.499-6.031l8.533-8.533 c3.362-3.302,8.765-3.253,12.066,0.109c3.26,3.319,3.26,8.638,0,11.958l-8.533,8.533C414.035,110.036,411.864,110.936,409.6,110.933 z"></path><path d="M93.867,426.666c-4.712-0.001-8.532-3.822-8.531-8.535c0-2.262,0.9-4.431,2.499-6.031l8.533-8.533 c3.362-3.302,8.765-3.253,12.066,0.109c3.26,3.319,3.26,8.638,0,11.958l-8.533,8.533C98.302,425.769,96.131,426.669,93.867,426.666z "></path><path d="M418.134,426.666c-2.263,0.003-4.434-0.898-6.033-2.501l-8.533-8.533c-3.302-3.362-3.254-8.764,0.108-12.066 c3.319-3.261,8.639-3.261,11.958,0l8.533,8.533c3.332,3.333,3.332,8.736-0.002,12.068 C422.565,425.768,420.396,426.666,418.134,426.666z"></path><path d="M59.734,51.2h-8.533c-4.712,0-8.533-3.821-8.533-8.533s3.821-8.533,8.533-8.533h8.533c4.712,0,8.533,3.821,8.533,8.533 S64.447,51.2,59.734,51.2z"></path><path d="M460.801,477.866h-8.533c-4.712,0-8.533-3.821-8.533-8.533c0-4.712,3.821-8.533,8.533-8.533h8.533 c4.712,0,8.533,3.821,8.533,8.533C469.334,474.045,465.513,477.866,460.801,477.866z"></path></svg>