<?xml version="1.0" ?><svg height="64" viewBox="0 0 64 64" width="64" xmlns="http://www.w3.org/2000/svg"><defs><style>
      .cls-1 {
        fill: #42b9cc;
      }
    </style></defs><title/><g id="blog-content-copywriting"><polygon class="cls-1" points="57 37 47 47 44 54 51 51 61 41 57 37"/><rect class="cls-1" height="10" width="54" x="3" y="9"/><g><path d="M43,47a1,1,0,0,0-1-1H4V20H56V34a1,1,0,0,0,2,0V9a1,1,0,0,0-1-1H3A1,1,0,0,0,2,9V47a1,1,0,0,0,1,1H42A1,1,0,0,0,43,47ZM56,10v8H4V10Z"/><circle cx="8" cy="14" r="2"/><circle cx="14" cy="14" r="2"/><circle cx="20" cy="14" r="2"/><path d="M34,32a9,9,0,1,0,9-9A9.01,9.01,0,0,0,34,32Zm10.974-1H41.026c.188-3.9,1.438-6,1.974-6S44.786,27.1,44.974,31ZM43,39c-.536,0-1.786-2.1-1.974-6h3.947C44.786,36.9,43.536,39,43,39ZM40.1,25.639A16.168,16.168,0,0,0,39.025,31H36.08A7.01,7.01,0,0,1,40.1,25.639ZM36.08,33h2.945A16.168,16.168,0,0,0,40.1,38.361,7.01,7.01,0,0,1,36.08,33ZM45.9,38.361A16.168,16.168,0,0,0,46.975,33H49.92A7.01,7.01,0,0,1,45.9,38.361ZM49.92,31H46.975A16.168,16.168,0,0,0,45.9,25.639,7.01,7.01,0,0,1,49.92,31Z"/><path d="M50,17h4a1,1,0,0,0,1-1V12a1,1,0,0,0-1-1H50a1,1,0,0,0-1,1v4A1,1,0,0,0,50,17Zm1-4h2v2H51Z"/><path d="M61.707,40.293l-4-4a1,1,0,0,0-1.414,0l-10,10a.979.979,0,0,0-.176.265l-.011-.006-4,8a1,1,0,0,0,1.342,1.342l8-4-.006-.011a.98.98,0,0,0,.265-.176l10-10A1,1,0,0,0,61.707,40.293ZM59.586,41l-.64.64L56.36,39.054l.64-.64ZM47.274,48.688l2.038,2.038-4.076,2.038Zm3.726.9L48.414,47l6.532-6.532,2.586,2.586Z"/><path d="M31,24H17a1,1,0,0,0,0,2H31a1,1,0,0,0,0-2Z"/><path d="M31,28H17a1,1,0,0,0,0,2H31a1,1,0,0,0,0-2Z"/><path d="M31,32H9a1,1,0,0,0,0,2H31a1,1,0,0,0,0-2Z"/><path d="M31,36H9a1,1,0,0,0,0,2H31a1,1,0,0,0,0-2Z"/><path d="M31,40H9a1,1,0,0,0,0,2H31a1,1,0,0,0,0-2Z"/><path d="M9,30h4a1,1,0,0,0,1-1V25a1,1,0,0,0-1-1H9a1,1,0,0,0-1,1v4A1,1,0,0,0,9,30Zm1-4h2v2H10Z"/></g></g></svg>