<svg xmlns="http://www.w3.org/2000/svg" viewBox="0 0 60 60"><defs><style>.cls-1{fill:#ffc247;}.cls-2{fill:#ffe45c;}.cls-3{fill:#ffda45;}.cls-4{opacity:0.54;}.cls-5{fill:#fff;}.cls-6{fill:#2b1505;}</style></defs><title>36-Email</title><g id="_36-Email" data-name="36-Email"><path class="cls-1" d="M59,30a2.993,2.993,0,0,1-.88,2.12L58,32,47,21l-.35-.51L59,12Z"/><path class="cls-2" d="M59,12,46.65,20.49,43,23l-3.65-2.51L27,12a3,3,0,0,1,3-3H56A3,3,0,0,1,59,12Z"/><path class="cls-1" d="M39,21,28,32l-.12.12A2.993,2.993,0,0,1,27,30V12l12.35,8.49Z"/><path class="cls-2" d="M47,21,58,32l.12.12A2.993,2.993,0,0,1,56,33H30a2.993,2.993,0,0,1-2.12-.88L28,32,39,21l.35-.51L43,23l3.65-2.51Z"/><path class="cls-3" d="M58,32l-2.141-2.141A2.943,2.943,0,0,1,55,30H30l-2,2-.12.12A2.993,2.993,0,0,0,30,33H56a2.993,2.993,0,0,0,2.12-.88Z"/><polygon class="cls-1" points="43 26 46.65 23.49 48.333 22.333 47 21 46.65 20.49 43 23 39.35 20.49 39 21 37.667 22.333 39.35 23.49 43 26"/><g class="cls-4"><path class="cls-5" d="M33.594,9H30a3,3,0,0,0-3,3l2.021,1.389A4.577,4.577,0,0,1,33.594,9Z"/></g><path class="cls-1" d="M33,48a2.993,2.993,0,0,1-.88,2.12L32,50,21,39l-.35-.51L33,30Z"/><path class="cls-2" d="M33,30,20.65,38.49,17,41l-3.65-2.51L1,30a3,3,0,0,1,3-3H30A3,3,0,0,1,33,30Z"/><path class="cls-1" d="M13,39,2,50l-.12.12A2.993,2.993,0,0,1,1,48V30l12.35,8.49Z"/><path class="cls-2" d="M21,39,32,50l.12.12A2.993,2.993,0,0,1,30,51H4a2.993,2.993,0,0,1-2.12-.88L2,50,13,39l.35-.51L17,41l3.65-2.51Z"/><path class="cls-3" d="M32,50l-2.141-2.141A2.943,2.943,0,0,1,29,48H4L2,50l-.12.12A2.993,2.993,0,0,0,4,51H30a2.993,2.993,0,0,0,2.12-.88Z"/><polygon class="cls-1" points="17 44 20.65 41.49 22.333 40.333 21 39 20.65 38.49 17 41 13.35 38.49 13 39 11.667 40.333 13.35 41.49 17 44"/><g class="cls-4"><path class="cls-5" d="M7.594,27H4a3,3,0,0,0-3,3l2.021,1.389A4.577,4.577,0,0,1,7.594,27Z"/></g><path class="cls-6" d="M59.98,11.8v0A4,4,0,0,0,56,8H30a4,4,0,0,0-3.98,3.8h0c0,.067-.02.131-.02.2V26H4A4,4,0,0,0,.02,29.8h0c0,.067-.02.131-.02.2V48a4,4,0,0,0,4,4H30a4,4,0,0,0,4-4V34H56a4,4,0,0,0,4-4V12C60,11.932,59.983,11.868,59.98,11.8ZM58,30a1.96,1.96,0,0,1-.075.511L48.113,20.7,58,13.9ZM30,10H56a2,2,0,0,1,1.935,1.519L43,21.786,28.065,11.519A2,2,0,0,1,30,10Zm-2,3.9,9.887,6.8-5.594,5.594a.977.977,0,0,0-.206.31A3.97,3.97,0,0,0,30,26H28ZM22.113,38.7,32,31.9V48a1.96,1.96,0,0,1-.075.511ZM4,28H30a2,2,0,0,1,1.935,1.519L17,39.786,2.065,29.519A2,2,0,0,1,4,28ZM2.075,48.511A1.96,1.96,0,0,1,2,48V31.9l9.887,6.8ZM4,50a1.96,1.96,0,0,1-.511-.075L13.563,39.851l2.871,1.973a1,1,0,0,0,1.132,0l2.871-1.973L30.511,49.925A1.96,1.96,0,0,1,30,50ZM34,32V30c0-.068-.017-.132-.02-.2v0a3.971,3.971,0,0,0-.583-1.885.977.977,0,0,0,.31-.206l5.856-5.856,2.871,1.973a1,1,0,0,0,1.132,0l2.871-1.973L56.511,31.925A1.96,1.96,0,0,1,56,32Z"/><circle class="cls-1" cx="11" cy="23" r="1"/><circle class="cls-2" cx="11" cy="19" r="1"/><circle class="cls-1" cx="11" cy="15" r="1"/><circle class="cls-2" cx="15" cy="15" r="1"/><circle class="cls-1" cx="19" cy="15" r="1"/><circle class="cls-2" cx="23" cy="15" r="1"/><circle class="cls-2" cx="49" cy="37" r="1"/><circle class="cls-1" cx="49" cy="41" r="1"/><circle class="cls-2" cx="49" cy="45" r="1"/><circle class="cls-1" cx="45" cy="45" r="1"/><circle class="cls-2" cx="41" cy="45" r="1"/><circle class="cls-1" cx="37" cy="45" r="1"/></g></svg>