<svg enable-background="new 0 0 511.999 511.999" viewBox="0 0 511.999 511.999" xmlns="http://www.w3.org/2000/svg"><path d="m213.946 118.29c-99.354-11.594-129.857 22.929-129.857 76.339v67.448h24.904s-15.991 32.773-13.509 67.248h76.939l31.547-33.624-21.62-33.624z" fill="#e63f29"/><path d="m427.908 194.629c0-53.411-30.503-87.934-129.857-76.339l31.597 143.788-21.62 33.624 31.547 33.624h76.939c2.482-34.474-13.509-67.248-13.509-67.248h24.904z" fill="#e63f29"/><path d="m329.647 262.078c9.101-95.14 4.136-152.223-73.648-152.223s-82.749 57.084-73.648 152.223c0 0-9.927 7.954-9.927 67.248l83.576 31.79 83.576-31.791c-.002-59.293-9.929-67.247-9.929-67.247z" fill="#ff462e"/><path d="m75.663 329.327h360.666v63.575h-360.666z" fill="#ff8a3a"/><path d="m298.051 118.29c-10.79-5.545-24.579-8.435-42.052-8.435s-31.262 2.889-42.052 8.436c-99.354-11.595-129.857 22.928-129.857 76.338v67.448h24.904 294.011 24.904v-67.448c-.001-53.41-30.504-87.933-129.858-76.339z" opacity=".1"/><path d="m401.344 402.142c0-12.25-.111-45.138-.219-56.466-.402-42.353-.72-75.806 4.799-103.236 7.649-38.017 27.273-61.414 58.327-69.543 16.971-4.439 34.327 5.715 38.768 22.684s-5.714 34.326-22.684 38.768c-3.559.931-8.434 2.206-12.138 20.619-4.211 20.929-3.907 52.986-3.553 90.103.109 11.475.221 44.516.221 57.068h-63.522v.003z" fill="#ffac55"/><path d="m110.653 402.142c0-12.25.111-45.138.219-56.466.402-42.353.72-75.806-4.799-103.236-7.649-38.017-27.273-61.414-58.327-69.543-16.971-4.439-34.327 5.715-38.768 22.684s5.714 34.326 22.684 38.768c3.559.931 8.434 2.206 12.138 20.619 4.211 20.929 3.907 52.986 3.553 90.103-.109 11.475-.221 44.516-.221 57.068h63.522v.003z" fill="#ffac55"/><path d="m510.7 193.573c-5.542-21.174-27.278-33.895-48.46-28.355-10.315 2.7-19.472 6.908-27.47 12.583-2.558-19.197-9.758-34.239-21.851-45.648-17.152-16.181-43.105-24.046-79.342-24.046-10.457 0-21.929.691-34.112 2.039-11.746-5.505-26.135-8.23-43.466-8.23-17.238 0-31.67 2.699-43.455 8.231-53.111-5.884-89.78.883-112.029 20.687-12.755 11.353-20.527 27.128-23.249 46.994-8.008-5.689-17.177-9.905-27.509-12.61-21.179-5.539-42.917 7.18-48.459 28.355-5.543 21.177 7.176 42.916 28.355 48.46 1.28.335 1.28.335 1.754.944.949 1.22 2.807 4.604 4.61 13.56 4.046 20.112 3.739 52.478 3.414 86.746-.042 4.385 3.48 7.974 7.864 8.015 4.388.053 7.974-3.479 8.015-7.864.333-35.12.648-68.292-3.726-90.029-3.899-19.382-9.745-24.599-17.911-26.735-12.706-3.325-20.338-16.368-17.012-29.076 3.325-12.704 16.368-20.335 29.077-17.013 42.038 10.991 53.528 53.988 56.223 92.42 2.221 31.667.975 63.543.844 95.259-.034 8.311-.062 17.245-.078 24.633-.001.444-.002.882-.002 1.311h-47.641c.011-5.52.03-12.259.054-19.055.016-4.385-3.527-7.953-7.94-7.968-4.371 0-7.924 3.536-7.94 7.913-.038 10.635-.064 21.124-.064 27.051 0 4.385 3.555 7.94 7.94 7.94h63.522c4.385 0 7.94-3.555 7.94-7.94 0-.407 0-.843 0-1.296h274.809v1.296c0 4.385 3.555 7.94 7.94 7.94h63.522c4.385 0 7.94-3.555 7.94-7.94 0-12.087-.111-45.525-.221-57.144-.18-18.872-.35-36.698.104-52.225.128-4.383-3.321-8.041-7.705-8.169-4.401-.132-8.041 3.322-8.168 7.705-.463 15.835-.291 33.811-.11 52.84.09 9.579.182 34.054.212 49.053h-47.641c-.001-.429-.002-.867-.002-1.313-.057-30.419-.313-60.836-.313-91.254.339-25.205.962-51.78 9.786-75.705.013-.034.024-.068.037-.102 8.93-24.134 24.844-39.323 47.478-45.248 12.709-3.324 25.752 4.308 29.078 17.012 3.325 12.706-4.306 25.75-17.011 29.076-14.075 3.685-17.134 20.624-18.992 32.925-.655 4.336 2.329 8.382 6.666 9.037 4.336.654 8.382-2.329 9.037-6.668.896-5.935 1.719-14.053 5.554-18.988.473-.609.473-.609 1.755-.944 21.173-5.544 33.892-27.283 28.349-48.46zm-394.66 60.565c-.033-.247-.069-.483-.102-.728-.744-5.453-1.659-10.888-2.878-16.255-4.198-18.573-11.22-33.777-20.995-45.559.519-21.972 6.749-37.991 19.005-48.899 16.058-14.293 43.561-20.418 81.917-18.274-.716-.04-3.095 3.68-3.558 4.292-9.874 13.018-14.451 29.262-16.569 45.249-.576 4.347 2.482 8.338 6.83 8.914.275.037.548.058.82.066 4.027.125 7.564-2.818 8.105-6.893 3.477-26.22 12.679-42.329 28.96-50.697.195-.101.366-.228.551-.342 9.836-4.928 22.308-7.214 37.872-7.214 16.227 0 29.176 2.63 39.165 7.972 1.752.94 3.47 1.985 5.089 3.141 25.621 18.314 27.937 60.44 22.153 125.229h-132.816c-.476-5.352-.918-10.706-1.297-16.065-.001-.02-.003-.04-.004-.06-.839-11.871-1.267-22.096-1.321-31.294-.025-4.305-3.635-7.912-7.944-7.892-.015 0-.029-.002-.049-.002-4.385.026-7.918 3.603-7.893 7.988.08 13.616.904 27.223 2.012 40.79.178 2.179.361 4.357.553 6.533zm209.141 15.88c2.043 4.923 5.853 18.442 6.387 51.368h-151.139c.535-32.924 4.344-46.444 6.387-51.368zm-206.625 15.876c-.201-5.297-.486-10.59-.886-15.876h52.45c-2.752 9.65-5.166 25.461-5.577 51.368h-45.548c.041-11.83.01-23.669-.439-35.492zm.069 99.072c.016-5.477.036-11.413.059-17.089.042-10.163.113-20.327.204-30.489 0-.04.001-.082.001-.122h53.532 167.152 53.532c0 .04.001.082.001.122.006.744.014 1.503.02 2.253.018 2.006.037 4.025.057 6.074v.053c.043 4.575.089 12.93.127 22.105.023 5.677.044 11.616.059 17.094h-274.744zm275.208-113.018c-.925 8.146-.817 39.453-.832 42.885-.004 1.083-.016 6.553 0 6.553h-45.548c-.411-25.906-2.826-41.718-5.577-51.368h52.45c-.19.001-.353.702-.493 1.93zm5.101-34.79c-1.214 5.373-2.139 10.803-2.878 16.259-.033.242-.069.475-.101.72h-57.598c3.005-33.571 4.427-65.49-1.158-91.346-.221-1.046-.458-2.072-.702-3.092-.01-.038-.017-.076-.026-.113-3.381-14.135-8.902-25.816-17.266-35.018-.048-.052-.1-.1-.148-.152 5.042-.284 9.889-.427 14.519-.427 31.547 0 54.576 6.634 68.445 19.718 11.534 10.882 17.406 26.571 17.909 47.891-9.775 11.78-16.797 26.985-20.996 45.56z"/></svg>