<svg xmlns="http://www.w3.org/2000/svg" viewBox="0 0 512 512"><defs><style>.cls-1{fill:#7cc8fb;}.cls-2{fill:#e3e7fc;}.cls-3{fill:#fff;}.cls-4{fill:#c6c6c6;}.cls-5{fill:#4f4f74;}.cls-6{fill:#32314b;}.cls-7{fill:#3e436d;}.cls-8{fill:#27273d;}.cls-9{fill:#db1b1b;}.cls-10{fill:#d1d5e5;}.cls-11{fill:#e5e6ea;}.cls-12{fill:#afafaf;}</style></defs><title>50-Computer-Hardware</title><g id="BULINE"><circle class="cls-1" cx="256" cy="256" r="256"/></g><g id="Icons"><path class="cls-2" d="M325.16,39.35A184.41,184.41,0,0,0,256,26C153.79,26,70.92,108.86,70.92,211.06A185.08,185.08,0,1,0,325.16,39.35ZM265.16,238a27.77,27.77,0,0,1-9.16,1.53,28.49,28.49,0,1,1,20.55-8.78A28.09,28.09,0,0,1,265.16,238Z"/><path class="cls-3" d="M266.63,184.67a28.44,28.44,0,0,1,17.83,26.39H441.08A185.15,185.15,0,0,0,325.16,39.35L282.78,144.58Z"/><path class="cls-3" d="M265.16,238l13.93,40.93,36.56,107.38a185.33,185.33,0,0,0,74-47.18l-81.89-78.48-31.18-29.9A28,28,0,0,1,265.16,238Z"/><path class="cls-4" d="M282.78,144.58a71.67,71.67,0,1,0,44.88,66.48A71.36,71.36,0,0,0,282.78,144.58ZM265.16,238a27.77,27.77,0,0,1-9.16,1.53,28.49,28.49,0,1,1,20.55-8.78A28.09,28.09,0,0,1,265.16,238Z"/><circle class="cls-3" cx="256" cy="158.52" r="9.26"/><circle class="cls-3" cx="256" cy="264.22" r="9.26"/><circle class="cls-3" cx="203.53" cy="211.37" r="9.26"/><circle class="cls-3" cx="309.23" cy="211.37" r="9.26"/><rect class="cls-5" x="58" y="292.36" width="396" height="120.67" rx="15.08"/><rect class="cls-6" x="84.5" y="310.65" width="343" height="56.17" rx="11.35"/><path class="cls-7" d="M155.58,413H73.08A15.08,15.08,0,0,1,58,398v-90.5a15.08,15.08,0,0,1,15.08-15.08h82.5a15.08,15.08,0,0,0-15.08,15.08V398A15.08,15.08,0,0,0,155.58,413Z"/><path class="cls-8" d="M140.5,310.66v56.17H95.85A11.36,11.36,0,0,1,84.5,355.47V322a11.35,11.35,0,0,1,11.35-11.35Z"/><circle class="cls-9" cx="338.5" cy="388.74" r="11"/><rect class="cls-6" x="357.83" y="377.74" width="69.67" height="22" rx="5.58"/><circle class="cls-5" cx="383.28" cy="338.74" r="10.48"/><circle class="cls-5" cx="405.11" cy="338.74" r="7.42"/><path class="cls-10" d="M78.67,264.22c.82,2.79,1.72,5.55,2.68,8.28a183.67,183.67,0,0,0,8.33,19.86H422.3a183.64,183.64,0,0,0,11-28.14Z"/><polygon class="cls-11" points="340.81 292.36 283.66 292.36 279.09 278.93 274.08 264.22 311.45 264.22 340.81 292.36"/><path class="cls-12" d="M207.93,264.22a71.54,71.54,0,0,0,96.11,0Z"/><path class="cls-11" d="M265.25,264.22a9.26,9.26,0,0,1-18.51,0Z"/></g></svg>