<?xml version="1.0" encoding="utf-8"?>
<!-- Generator: Adobe Illustrator 16.0.0, SVG Export Plug-In . SVG Version: 6.00 Build 0)  -->
<!DOCTYPE svg PUBLIC "-//W3C//DTD SVG 1.1//EN" "http://www.w3.org/Graphics/SVG/1.1/DTD/svg11.dtd">
<svg version="1.1" id="icons" xmlns="http://www.w3.org/2000/svg" xmlns:xlink="http://www.w3.org/1999/xlink" x="0px" y="0px"
	 width="64px" height="64px" viewBox="0 0 64 64" enable-background="new 0 0 64 64" xml:space="preserve">
<g>
	<g>
		<polygon fill="#656D78" points="21.005,56 21.005,59 0.995,59 0.995,47 21.005,47 21.005,53 		"/>
	</g>
	<g>
		<polygon fill="#967ADC" points="41.995,47 41.995,53 21.005,53 21.005,47 0.995,47 0.995,5 41.995,5 41.995,10.99 41.995,17 
			41.995,23 41.995,29 41.995,35 41.995,41 		"/>
	</g>
	<g>
		<rect x="21.005" y="53" fill="#545C66" width="20.99" height="3"/>
	</g>
	<g>
		<rect x="21.005" y="56" fill="#545C66" width="20.99" height="3"/>
	</g>
	<g>
		<rect x="41.995" y="29" fill="#656D78" width="16" height="6"/>
	</g>
	<g>
		<rect x="41.995" y="35" fill="#656D78" width="16" height="6"/>
	</g>
	<g>
		<rect x="41.995" y="10.99" fill="#656D78" width="16" height="6.01"/>
	</g>
	<g>
		<rect x="41.995" y="23" fill="#656D78" width="16" height="6"/>
	</g>
	<g>
		<rect x="41.995" y="17" fill="#656D78" width="16" height="6"/>
	</g>
	<g>
		<rect x="41.995" y="41" fill="#656D78" width="16" height="6"/>
	</g>
	<g>
		<rect x="41.995" y="5" fill="#656D78" width="16" height="5.99"/>
	</g>
	<g>
		<polygon fill="#656D78" points="41.995,53 57.995,53 57.995,59 41.995,59 41.995,56 		"/>
	</g>
	<g>
		<rect x="41.995" y="47" fill="#656D78" width="16" height="6"/>
	</g>
	<g>
		<path fill="#AC92EC" d="M63.005,7v50c0,1.11-0.899,2-2,2h-0.01h-3v-6v-6v-6v-6v-6v-6v-6v-6.01V5h3h0.01
			C62.105,5,63.005,5.89,63.005,7z"/>
	</g>
</g>
<g>
	<g>
		<path d="M60.997,60H0.999c-0.553,0-1-0.447-1-1V5c0-0.552,0.447-1,1-1h59.998c0.553,0,1,0.448,1,1s-0.447,1-1,1H1.999v52h58.998
			c0.553,0,1,0.447,1,1S61.55,60,60.997,60z"/>
	</g>
	<g>
		<path d="M63.001,8c-0.553,0-1-0.448-1-1c0-0.551-0.448-1-1-1c-0.553,0-1-0.448-1-1s0.447-1,1-1c1.654,0,3,1.346,3,3
			C64.001,7.552,63.554,8,63.001,8z"/>
	</g>
	<g>
		<path d="M61.001,60c-0.553,0-1-0.447-1-1s0.447-1,1-1c0.552,0,1-0.448,1-1c0-0.553,0.447-1,1-1s1,0.447,1,1
			C64.001,58.654,62.655,60,61.001,60z"/>
	</g>
	<g>
		<path d="M63.001,58c-0.553,0-1-0.447-1-1V7c0-0.552,0.447-1,1-1s1,0.448,1,1v50C64.001,57.553,63.554,58,63.001,58z"/>
	</g>
	<g>
		<path d="M57.999,60c-0.553,0-1-0.447-1-1V5c0-0.552,0.447-1,1-1s1,0.448,1,1v54C58.999,59.553,58.552,60,57.999,60z"/>
	</g>
	<g>
		<path d="M41.998,60c-0.553,0-1-0.447-1-1V5c0-0.552,0.447-1,1-1s1,0.448,1,1v54C42.998,59.553,42.551,60,41.998,60z"/>
	</g>
	<g>
		<path d="M57.999,54.001H41.998c-0.553,0-1-0.447-1-1s0.447-1,1-1h16.001c0.553,0,1,0.447,1,1S58.552,54.001,57.999,54.001z"/>
	</g>
	<g>
		<path d="M57.999,48H41.998c-0.553,0-1-0.447-1-1s0.447-1,1-1h16.001c0.553,0,1,0.447,1,1S58.552,48,57.999,48z"/>
	</g>
	<g>
		<path d="M57.999,41.999H41.998c-0.553,0-1-0.447-1-1s0.447-1,1-1h16.001c0.553,0,1,0.447,1,1S58.552,41.999,57.999,41.999z"/>
	</g>
	<g>
		<path d="M57.999,35.998H41.998c-0.553,0-1-0.447-1-1s0.447-1,1-1h16.001c0.553,0,1,0.447,1,1S58.552,35.998,57.999,35.998z"/>
	</g>
	<g>
		<path d="M57.999,29.997H41.998c-0.553,0-1-0.448-1-1s0.447-1,1-1h16.001c0.553,0,1,0.448,1,1S58.552,29.997,57.999,29.997z"/>
	</g>
	<g>
		<path d="M57.999,23.996H41.998c-0.553,0-1-0.448-1-1s0.447-1,1-1h16.001c0.553,0,1,0.448,1,1S58.552,23.996,57.999,23.996z"/>
	</g>
	<g>
		<path d="M57.999,17.995H41.998c-0.553,0-1-0.448-1-1s0.447-1,1-1h16.001c0.553,0,1,0.448,1,1S58.552,17.995,57.999,17.995z"/>
	</g>
	<g>
		<path d="M57.999,11.994H41.998c-0.553,0-1-0.448-1-1s0.447-1,1-1h16.001c0.553,0,1,0.448,1,1S58.552,11.994,57.999,11.994z"/>
	</g>
	<g>
		<path d="M51.999,57h-4c-0.553,0-1-0.447-1-1s0.447-1,1-1h4c0.553,0,1,0.447,1,1S52.552,57,51.999,57z"/>
	</g>
	<g>
		<path d="M51.999,51h-4c-0.553,0-1-0.447-1-1s0.447-1,1-1h4c0.553,0,1,0.447,1,1S52.552,51,51.999,51z"/>
	</g>
	<g>
		<path d="M51.999,45h-4c-0.553,0-1-0.447-1-1s0.447-1,1-1h4c0.553,0,1,0.447,1,1S52.552,45,51.999,45z"/>
	</g>
	<g>
		<path d="M51.999,39h-4c-0.553,0-1-0.447-1-1s0.447-1,1-1h4c0.553,0,1,0.447,1,1S52.552,39,51.999,39z"/>
	</g>
	<g>
		<path d="M51.999,33h-4c-0.553,0-1-0.448-1-1s0.447-1,1-1h4c0.553,0,1,0.448,1,1S52.552,33,51.999,33z"/>
	</g>
	<g>
		<path d="M51.999,27h-4c-0.553,0-1-0.448-1-1s0.447-1,1-1h4c0.553,0,1,0.448,1,1S52.552,27,51.999,27z"/>
	</g>
	<g>
		<g>
			<path d="M49.999,10c-0.553,0-1-0.448-1-1V7c0-0.552,0.447-1,1-1s1,0.448,1,1v2C50.999,9.552,50.552,10,49.999,10z"/>
		</g>
		<g>
			<path d="M50.999,9h-2c-0.553,0-1-0.448-1-1s0.447-1,1-1h2c0.553,0,1,0.448,1,1S51.552,9,50.999,9z"/>
		</g>
	</g>
	<g>
		<g>
			<path d="M49.999,16c-0.553,0-1-0.448-1-1v-2c0-0.552,0.447-1,1-1s1,0.448,1,1v2C50.999,15.552,50.552,16,49.999,16z"/>
		</g>
		<g>
			<path d="M50.999,15h-2c-0.553,0-1-0.448-1-1s0.447-1,1-1h2c0.553,0,1,0.448,1,1S51.552,15,50.999,15z"/>
		</g>
	</g>
	<g>
		<g>
			<path d="M49.999,22c-0.553,0-1-0.448-1-1v-2c0-0.552,0.447-1,1-1s1,0.448,1,1v2C50.999,21.552,50.552,22,49.999,22z"/>
		</g>
		<g>
			<path d="M50.999,21h-2c-0.553,0-1-0.448-1-1s0.447-1,1-1h2c0.553,0,1,0.448,1,1S51.552,21,50.999,21z"/>
		</g>
	</g>
	<g>
		<path d="M21.001,60c-0.553,0-1-0.447-1-1V48H0.999c-0.553,0-1-0.447-1-1s0.447-1,1-1h20.002c0.553,0,1,0.447,1,1v12
			C22.001,59.553,21.554,60,21.001,60z"/>
	</g>
	<g>
		<path d="M41.998,57H21.001c-0.553,0-1-0.447-1-1s0.447-1,1-1h20.997c0.553,0,1,0.447,1,1S42.551,57,41.998,57z"/>
	</g>
	<g>
		<path d="M41.998,54.001H21.001c-0.553,0-1-0.447-1-1s0.447-1,1-1h20.997c0.553,0,1,0.447,1,1S42.551,54.001,41.998,54.001z"/>
	</g>
	<g>
		<g>
			<path d="M10.027,38.999c-0.553,0-1.005-0.447-1.005-1s0.442-1,0.994-1h0.011c0.552,0,1,0.447,1,1S10.579,38.999,10.027,38.999z"
				/>
		</g>
		<g>
			<path d="M10.027,31c-0.553,0-1.005-0.448-1.005-1s0.442-1,0.994-1h0.011c0.552,0,1,0.448,1,1S10.579,31,10.027,31z"/>
		</g>
		<g>
			<path d="M14.027,35c-0.553,0-1.005-0.447-1.005-1s0.442-1,0.994-1h0.011c0.552,0,1,0.447,1,1S14.579,35,14.027,35z"/>
		</g>
		<g>
			<path d="M18.027,38.999c-0.553,0-1.005-0.447-1.005-1s0.442-1,0.994-1h0.011c0.552,0,1,0.447,1,1S18.579,38.999,18.027,38.999z"
				/>
		</g>
		<g>
			<path d="M10.027,23c-0.553,0-1.005-0.448-1.005-1s0.442-1,0.994-1h0.011c0.552,0,1,0.448,1,1S10.579,23,10.027,23z"/>
		</g>
		<g>
			<path d="M14.027,27c-0.553,0-1.005-0.448-1.005-1s0.442-1,0.994-1h0.011c0.552,0,1,0.448,1,1S14.579,27,14.027,27z"/>
		</g>
		<g>
			<path d="M18.027,31c-0.553,0-1.005-0.448-1.005-1s0.442-1,0.994-1h0.011c0.552,0,1,0.448,1,1S18.579,31,18.027,31z"/>
		</g>
		<g>
			<path d="M22.027,35c-0.553,0-1.005-0.447-1.005-1s0.442-1,0.994-1h0.011c0.552,0,1,0.447,1,1S22.579,35,22.027,35z"/>
		</g>
		<g>
			<path d="M26.027,38.999c-0.553,0-1.005-0.447-1.005-1s0.442-1,0.994-1h0.011c0.552,0,1,0.447,1,1S26.579,38.999,26.027,38.999z"
				/>
		</g>
		<g>
			<path d="M10.027,15c-0.553,0-1.005-0.448-1.005-1s0.442-1,0.994-1h0.011c0.552,0,1,0.448,1,1S10.579,15,10.027,15z"/>
		</g>
		<g>
			<path d="M14.027,19c-0.553,0-1.005-0.448-1.005-1s0.442-1,0.994-1h0.011c0.552,0,1,0.448,1,1S14.579,19,14.027,19z"/>
		</g>
		<g>
			<path d="M18.027,23c-0.553,0-1.005-0.448-1.005-1s0.442-1,0.994-1h0.011c0.552,0,1,0.448,1,1S18.579,23,18.027,23z"/>
		</g>
		<g>
			<path d="M22.027,27c-0.553,0-1.005-0.448-1.005-1s0.442-1,0.994-1h0.011c0.552,0,1,0.448,1,1S22.579,27,22.027,27z"/>
		</g>
		<g>
			<path d="M26.027,31c-0.553,0-1.005-0.448-1.005-1s0.442-1,0.994-1h0.011c0.552,0,1,0.448,1,1S26.579,31,26.027,31z"/>
		</g>
		<g>
			<path d="M30.027,35c-0.553,0-1.005-0.447-1.005-1s0.442-1,0.994-1h0.011c0.552,0,1,0.447,1,1S30.579,35,30.027,35z"/>
		</g>
		<g>
			<path d="M34.027,38.999c-0.553,0-1.005-0.447-1.005-1s0.442-1,0.994-1h0.011c0.552,0,1,0.447,1,1S34.579,38.999,34.027,38.999z"
				/>
		</g>
		<g>
			<path d="M18.027,15c-0.553,0-1.005-0.448-1.005-1s0.442-1,0.994-1h0.011c0.552,0,1,0.448,1,1S18.579,15,18.027,15z"/>
		</g>
		<g>
			<path d="M22.027,19c-0.553,0-1.005-0.448-1.005-1s0.442-1,0.994-1h0.011c0.552,0,1,0.448,1,1S22.579,19,22.027,19z"/>
		</g>
		<g>
			<path d="M26.027,23c-0.553,0-1.005-0.448-1.005-1s0.442-1,0.994-1h0.011c0.552,0,1,0.448,1,1S26.579,23,26.027,23z"/>
		</g>
		<g>
			<path d="M30.027,27c-0.553,0-1.005-0.448-1.005-1s0.442-1,0.994-1h0.011c0.552,0,1,0.448,1,1S30.579,27,30.027,27z"/>
		</g>
		<g>
			<path d="M34.027,31c-0.553,0-1.005-0.448-1.005-1s0.442-1,0.994-1h0.011c0.552,0,1,0.448,1,1S34.579,31,34.027,31z"/>
		</g>
		<g>
			<path d="M26.027,15c-0.553,0-1.005-0.448-1.005-1s0.442-1,0.994-1h0.011c0.552,0,1,0.448,1,1S26.579,15,26.027,15z"/>
		</g>
		<g>
			<path d="M30.027,19c-0.553,0-1.005-0.448-1.005-1s0.442-1,0.994-1h0.011c0.552,0,1,0.448,1,1S30.579,19,30.027,19z"/>
		</g>
		<g>
			<path d="M34.027,23c-0.553,0-1.005-0.448-1.005-1s0.442-1,0.994-1h0.011c0.552,0,1,0.448,1,1S34.579,23,34.027,23z"/>
		</g>
		<g>
			<path d="M34.027,15c-0.553,0-1.005-0.448-1.005-1s0.442-1,0.994-1h0.011c0.552,0,1,0.448,1,1S34.579,15,34.027,15z"/>
		</g>
	</g>
</g>
</svg>
