<svg viewBox="0 0 512 512" xmlns="http://www.w3.org/2000/svg"><path d="m452.491 256.702v162.513h-208.271v-232.43l64.414 59.898z" fill="#ccc"/><path d="m331.671 303h64.156v64.156h-64.156z" fill="#53737f"/><path d="m171.071 116.543v-.119l-.061.059-.061-.059v.119l-94.205 92.207v210.465h188.532v-210.465z" fill="#f2f2f2"/><path d="m171.071 116.424-.061.059-.061-.059v.119l-94.205 92.207v49.383l94.205-92.015 94.327 92.134v-49.502l-94.205-92.207z" fill="#ccc"/><path d="m204.45 419.215h-67v-91.444a33.5 33.5 0 1 1 67 0z" fill="#53737f"/><path d="m318.324 240.038-147.253-147.253-147.496 147.253 17.434 17.434 129.94-129.939 132.27 134.972z" fill="#d85656"/><path d="m171.071 92.785h170.111l147.253 147.253h-170.111z" fill="#ff7b69"/><path d="m303.219 262.505h176.429l8.787-22.467h-170.111z" fill="#d85656"/><g fill="#333"><path d="m289.318 419.214a5.821 5.821 0 0 0 5.82 5.821h157.353a5.822 5.822 0 0 0 5.821-5.821v-130.5c-.192-7.636-11.431-7.713-11.641 0v124.68h-151.533a5.82 5.82 0 0 0 -5.82 5.82z"/><path d="m395.827 372.976a5.82 5.82 0 0 0 5.82-5.82v-64.156a5.821 5.821 0 0 0 -5.82-5.821h-64.156a5.821 5.821 0 0 0 -5.821 5.821v64.156a5.821 5.821 0 0 0 5.821 5.82zm-58.336-64.156h52.516v52.516h-52.516z"/><path d="m494.078 241.454a5.851 5.851 0 0 0 -1.429-5.416c.043-.078-147.336-147.283-147.351-147.367a5.821 5.821 0 0 0 -4.116-1.706h-170.111a6 6 0 0 0 -4.112 1.7l-147.497 147.254a5.859 5.859 0 0 0 0 8.234l17.434 17.434a5.819 5.819 0 0 0 8.232 0l25.8-25.8v183.427a5.821 5.821 0 0 0 5.82 5.821c55.9-.011 132.636.007 188.532 0a5.82 5.82 0 0 0 5.821-5.82v-156.309a5.821 5.821 0 0 0 -11.641 0v150.488h-49.189v-85.623a39.322 39.322 0 1 0 -78.643 0v85.623h-49.064v-189.246l88.344-88.343 128.154 130.774a5.916 5.916 0 0 0 4.157 1.746h176.429a5.82 5.82 0 0 0 5.42-3.7l8.787-22.467a5.8 5.8 0 0 0 .223-.704zm-350.81 86.317c1.3-36.638 54.066-36.628 55.362 0v85.622h-55.362zm195.5-229.165 135.615 135.612h-153.649l-135.612-135.612zm-36.4 154.723-127.262-129.87a5.819 5.819 0 0 0 -8.272-.042l-125.825 125.823-9.2-9.2 139.258-139.027 139.754 139.753zm173.3 3.356h-161.522l7.278-10.826h158.485z"/></g></svg>