<?xml version="1.0" ?><svg enable-background="new 0 0 128 128" id="Слой_1" version="1.1" viewBox="0 0 128 128" xml:space="preserve" xmlns="http://www.w3.org/2000/svg" xmlns:xlink="http://www.w3.org/1999/xlink"><g id="Easel_1_"><polygon fill="#8D6E63" points="62,39.9 58.4,39 16,39 16,99.5 108,99.3 108,39.9  "/><path d="M24,112h-8V98h8V112z M108,98h-8v14h8V98z" fill="#5D4037"/><polygon fill="#6D4C41" points="80.7,98 100,98 100,99 108,99 108,39 80.7,39  "/><polygon fill="#FFF3E0" points="62,16 56.8,16 24,16 24,98 56.8,98 62,98 100,98 100,16  "/><polygon fill="#6D4C41" points="62,88 58.5,88 14,88 14,102 58.5,102 62,102 110,102 110,88  "/><polygon fill="#8D6E63" points="62,88 58.5,88 14,88 14,94 58.5,94 62,94 85,94 85,88  "/><rect fill="#8D6E63" height="6" width="26.6" x="83.4" y="88"/><rect fill="#8D6E63" height="8" width="24" x="50" y="9"/><path d="M32,112h-8v-8h8V112z M100,104h-8v8h8V104z" fill="#6D4C41"/><path d="M31,91.5c0,0.8-0.9,1.5-2,1.5c-1.1,0-2-0.7-2-1.5s0.9-1.5,2-1.5C30.1,90,31,90.7,31,91.5z M93,91.5   c0,0.8,0.9,1.5,2,1.5c1.1,0,2-0.7,2-1.5S96.1,90,95,90C93.9,90,93,90.7,93,91.5z" fill="#CFD8DC"/></g><g id="Brush_1_"><g><g><path d="M69.6,85.3L65,90.4c0,0-2.9,1.6-4.8,5.9c-3.3,7.2-1.5,15.3-0.6,18.6c0.9,3-3.4,5.5,5.3,4.3     c2.9-0.4,10.8-5.2,14.3-11.2c2.4-4.1,2.4-10.2,2.4-10.2l0.7-6.9L69.6,85.3z" fill="#3E2723"/><path d="M61,98.8c-2.4,5.2,1.9,8.9-3.4,17c-0.1,0.2-0.4,0.2-0.4-0.1c1.3-5.4,0.5-12.3,3.5-17     C60.9,98.5,61.1,98.6,61,98.8z M77.2,106.6c-0.1-0.1-0.2,0-0.2,0.1c0.4,1.1-0.4,2.4-0.8,3.3c-0.9,1.6-4.2,2.8-5.6,4     c-2.2,1.9-0.1,3-3.7,5c-0.2,0.1-1.4,0.7,0,0.4c3.2-0.6,7.5-4.5,9.7-7.3c1.1-1.4-0.1-1.3,0.5-2.9     C77.4,108.4,77.7,107.3,77.2,106.6z M57.1,107.7c0,0.5-0.1,1-0.1,1.6c0,1.1,0,1.1,0.4,0.2c3-5.8,2.8-12.5,6.7-17.5     c0.1-0.1,0.2-0.1,0.3-0.2c0.1-0.1,0.1-0.1,0-0.2c0.2-0.3,0.4-0.6,0.7-0.8c0.1-0.1-0.1-0.4-0.2-0.2c-0.3,0.4-0.6,0.7-0.9,1.1     c-2.3,0.7-3.9,3.5-5.4,5.2c-0.1,0.1,0,0.3,0.2,0.2c0.3-0.3,0.6-0.5,0.9-0.8c-0.5,0.9-2,3.4-2.2,3.8c-1.7,3.4-0.8,8.3-2.1,12.1     c0,0.1,0.1,0.2,0.2,0.1c0.9-1.4,1.3-3.1,1.6-4.9L57.1,107.7z M77.9,108.5c-1,3.8-5,5.1-6.3,9.4c0,0.1,0.1,0.2,0.1,0.1     c2.2-3,5.2-3.8,6.9-7.8c0.7-1.6,1.6-3.7,1.9-5.5c0.3-1.5,0.1-3.9-0.3-5.5c0-0.1-0.2-0.1-0.2,0C80.2,102.5,78.7,105.6,77.9,108.5z     " fill="#3E2723"/></g></g><path d="M76.2,62.6c3.6-8,22-49.4,31.3-45.3c9,4-9.4,45.4-13,53.4c-3.6,8-10.6,12.7-15.6,10.4   C73.7,78.9,72.6,70.6,76.2,62.6z" fill="#FF9800"/><path d="M90.9,78.7l0.2-0.5c0.3-0.6,0-1.3-0.6-1.6l-16-7.1c-0.6-0.3-1.3,0-1.6,0.6l-0.2,0.5c-0.3,0.6,0,1.2,0.5,1.5   c-0.1,0.2-0.2,0.5-0.5,1.1c-0.2,0.4,0.3,1.1,0.6,1.4c0.5,0.6,0.6,1.4,0.3,2c-0.2,0.4-0.7,0.7-1.3,0.8c-1.1,0.2-2,0.9-2.5,1.9   c-1.6,2.9-4.9,8.7-6.5,12.5c0.3-0.8,4.7,0.4,9.7,2.7c5,2.2,8.9,4.7,8.5,5.4c1.7-3.8,3.8-10.1,4.9-13.2c0.3-1,0.3-2.1-0.3-3.1   c-0.3-0.5-0.5-1.1-0.3-1.5c0.3-0.7,1-1.1,1.8-1.1c0.5,0,1.2-0.1,1.4-0.5c0.3-0.6,0.4-0.9,0.5-1.1C90,79.5,90.6,79.3,90.9,78.7z" fill="#B0BEC5"/></g></svg>