<?xml version="1.0" encoding="UTF-8"?>
<!DOCTYPE svg PUBLIC "-//W3C//DTD SVG 1.1//EN" "http://www.w3.org/Graphics/SVG/1.1/DTD/svg11.dtd">
<!-- Creator: CorelDRAW -->
<svg xmlns="http://www.w3.org/2000/svg" xml:space="preserve" width="2048px" height="2048px" style="shape-rendering:geometricPrecision; text-rendering:geometricPrecision; image-rendering:optimizeQuality; fill-rule:evenodd; clip-rule:evenodd"
viewBox="0 0 2048 2048"
 xmlns:xlink="http://www.w3.org/1999/xlink">
 <defs>
  <style type="text/css">
   <![CDATA[
    .str0 {stroke:#424242;stroke-width:2.08347}
    .fil2 {fill:none}
    .fil6 {fill:#2196F3}
    .fil9 {fill:#333333}
    .fil12 {fill:#424242}
    .fil1 {fill:#5E35B1}
    .fil13 {fill:#636262}
    .fil0 {fill:#7E57C2}
    .fil14 {fill:#8BC34A}
    .fil7 {fill:#999999}
    .fil11 {fill:#ABA695}
    .fil3 {fill:#B3B3B3}
    .fil4 {fill:#C4C0B2}
    .fil5 {fill:#D1CDC1}
    .fil16 {fill:#F44336}
    .fil10 {fill:#FFA000}
    .fil15 {fill:#FFC107}
    .fil8 {fill:#FFFFFE}
   ]]>
  </style>
   <clipPath id="id0">
    <path d="M1024 -0.0011811c565.541,0 1024,458.461 1024,1024 0,565.541 -458.461,1024 -1024,1024 -565.541,0 -1024,-458.461 -1024,-1024 0,-565.541 458.461,-1024 1024,-1024z"/>
   </clipPath>
 </defs>
 <g id="Layer_x0020_1">
  <metadata id="CorelCorpID_0Corel-Layer"/>
  <path class="fil0" d="M1024 -0.0011811c565.541,0 1024,458.461 1024,1024 0,565.541 -458.461,1024 -1024,1024 -565.541,0 -1024,-458.461 -1024,-1024 0,-565.541 458.461,-1024 1024,-1024z"/>
  <g style="clip-path:url(#id0)">
   <g id="_452525504">
    <polygon id="_4525035921" class="fil1" points="1596,952.084 1427.26,836.609 1413.46,831.855 626.925,831.855 612.819,836.964 450.47,952.084 448,952.084 448,1082.92 448,1083.79 448,1172.12 448,1173.27 448,1188.51 448,1216.15 1583.88,2352.03 1703.66,2352.03 2611.77,2352.03 2735.88,2352.03 2735.88,2324.39 2735.88,2309.16 2735.88,2308 2735.88,2219.67 2735.88,2219.63 2735.88,2087.97 1600,952.084 "/>
   </g>
  </g>
  <path class="fil2" d="M1024 -0.0011811c565.541,0 1024,458.461 1024,1024 0,565.541 -458.461,1024 -1024,1024 -565.541,0 -1024,-458.461 -1024,-1024 0,-565.541 458.461,-1024 1024,-1024z"/>
  <g id="_459268760">
   <polygon id="_319393240" class="fil3" points="448.059,953.794 612.819,836.964 626.925,831.855 1413.46,831.855 1427.26,836.609 1598.5,953.794 "/>
   <path id="_319396816" class="fil4" d="M1600 952.084c0,88.0205 0,176.041 0,264.062l-1152 0c0,-88.0205 0,-176.041 0,-264.062l1152 0z"/>
   <polygon id="_319397464" class="fil4" points="1600,1083.79 1600,1172.12 448,1172.12 448,1083.79 "/>
   <polygon id="_319393912" class="fil5" points="1600,952.084 1600,1083.75 1600,1083.79 448,1083.79 448,1082.92 448,952.084 "/>
   <path id="_319391728" class="fil6" d="M1600 1173.27c0,5.07993 0,10.1587 0,15.2386l-1152 0c0,-5.07993 0,-10.1587 0,-15.2386l1152 0z"/>
   <rect id="_319395064" class="fil7" x="516.691" y="1092.4" width="59.9666" height="57.0516" rx="4.37244" ry="4.37244"/>
   <rect id="_319398520" class="fil8" x="516.691" y="1094.52" width="59.9666" height="57.0516" rx="4.37244" ry="4.37244"/>
   <polygon id="_319392304" class="fil9" points="523.354,1101.39 569.996,1101.39 569.996,1131.37 562.29,1131.37 562.29,1135.54 555.837,1135.54 555.837,1139.29 537.513,1139.29 537.513,1135.54 531.057,1135.54 531.057,1131.37 523.354,1131.37 "/>
   <rect id="_319384768" class="fil10" x="527.779" y="1103.99" width="6.14209" height="9.68279"/>
   <rect id="_319382608" class="fil10" x="538.328" y="1103.99" width="6.14209" height="9.68279"/>
   <rect id="_319411144" class="fil10" x="548.878" y="1103.99" width="6.14209" height="9.68279"/>
   <rect id="_319390312" class="fil10" x="559.428" y="1103.99" width="6.14209" height="9.68279"/>
   <rect id="_319409416" class="fil7" x="516.691" y="1016.35" width="59.9666" height="57.0516" rx="4.37244" ry="4.37244"/>
   <rect id="_319390168" class="fil8" x="516.691" y="1014.57" width="59.9666" height="57.0516" rx="4.37244" ry="4.37244"/>
   <polygon id="_319383232" class="fil9" points="523.354,1021.45 569.996,1021.45 569.996,1051.43 562.29,1051.43 562.29,1055.59 555.837,1055.59 555.837,1059.34 537.513,1059.34 537.513,1055.59 531.057,1055.59 531.057,1051.43 523.354,1051.43 "/>
   <rect id="_459257144" class="fil10" x="527.779" y="1024.05" width="6.14209" height="9.68279"/>
   <rect id="_459253328" class="fil10" x="538.328" y="1024.05" width="6.14209" height="9.68279"/>
   <rect id="_459259952" class="fil10" x="548.878" y="1024.05" width="6.14209" height="9.68279"/>
   <rect id="_459257864" class="fil10" x="559.428" y="1024.05" width="6.14209" height="9.68279"/>
   <rect id="_459275360" class="fil8" x="622.368" y="1094.52" width="59.9666" height="57.0516" rx="4.37244" ry="4.37244"/>
   <polygon id="_459275480" class="fil9" points="629.031,1101.39 675.673,1101.39 675.673,1131.37 667.968,1131.37 667.968,1135.54 661.514,1135.54 661.514,1139.29 643.19,1139.29 643.19,1135.54 636.735,1135.54 636.735,1131.37 629.031,1131.37 "/>
   <rect id="_459272384" class="fil10" x="633.456" y="1103.99" width="6.14209" height="9.68279"/>
   <rect id="_459266216" class="fil10" x="644.005" y="1103.99" width="6.14209" height="9.68279"/>
   <rect id="_459249392" class="fil10" x="654.555" y="1103.99" width="6.14209" height="9.68279"/>
   <rect id="_459251096" class="fil10" x="665.106" y="1103.99" width="6.14209" height="9.68279"/>
   <rect id="_459255680" class="fil7" x="622.368" y="1016.35" width="59.9666" height="57.0516" rx="4.37244" ry="4.37244"/>
   <rect id="_459274160" class="fil8" x="622.368" y="1014.57" width="59.9666" height="57.0516" rx="4.37244" ry="4.37244"/>
   <polygon id="_459275072" class="fil9" points="629.031,1021.45 675.673,1021.45 675.673,1051.43 667.968,1051.43 667.968,1055.59 661.514,1055.59 661.514,1059.34 643.19,1059.34 643.19,1055.59 636.735,1055.59 636.735,1051.43 629.031,1051.43 "/>
   <rect id="_459267896" class="fil10" x="633.456" y="1024.05" width="6.14209" height="9.68279"/>
   <rect id="_459259640" class="fil10" x="644.005" y="1024.05" width="6.14209" height="9.68279"/>
   <rect id="_459256136" class="fil10" x="654.555" y="1024.05" width="6.14209" height="9.68279"/>
   <rect id="_459269960" class="fil10" x="665.106" y="1024.05" width="6.14209" height="9.68279"/>
   <rect id="_459251336" class="fil8" x="728.045" y="1094.52" width="59.9666" height="57.0516" rx="4.37244" ry="4.37244"/>
   <polygon id="_459246512" class="fil9" points="734.709,1101.39 781.349,1101.39 781.349,1131.37 773.645,1131.37 773.645,1135.54 767.19,1135.54 767.19,1139.29 748.868,1139.29 748.868,1135.54 742.412,1135.54 742.412,1131.37 734.709,1131.37 "/>
   <rect id="_459255752" class="fil10" x="739.133" y="1103.99" width="6.14209" height="9.68279"/>
   <rect id="_459264560" class="fil10" x="749.682" y="1103.99" width="6.14209" height="9.68279"/>
   <rect id="_459250640" class="fil10" x="760.233" y="1103.99" width="6.14209" height="9.68279"/>
   <rect id="_459259592" class="fil10" x="770.783" y="1103.99" width="6.14209" height="9.68279"/>
   <rect id="_459263960" class="fil7" x="728.045" y="1016.35" width="59.9666" height="57.0516" rx="4.37244" ry="4.37244"/>
   <rect id="_459266432" class="fil8" x="728.045" y="1014.57" width="59.9666" height="57.0516" rx="4.37244" ry="4.37244"/>
   <polygon id="_459259760" class="fil9" points="734.709,1021.45 781.349,1021.45 781.349,1051.43 773.645,1051.43 773.645,1055.59 767.19,1055.59 767.19,1059.34 748.868,1059.34 748.868,1055.59 742.412,1055.59 742.412,1051.43 734.709,1051.43 "/>
   <rect id="_459268688" class="fil10" x="739.133" y="1024.05" width="6.14209" height="9.68279"/>
   <rect id="_459268160" class="fil10" x="749.682" y="1024.05" width="6.14209" height="9.68279"/>
   <rect id="_459258752" class="fil10" x="760.233" y="1024.05" width="6.14209" height="9.68279"/>
   <rect id="_459268016" class="fil10" x="770.783" y="1024.05" width="6.14209" height="9.68279"/>
   <rect id="_459277136" class="fil8" x="833.722" y="1094.52" width="59.9666" height="57.0516" rx="4.37244" ry="4.37244"/>
   <polygon id="_459247904" class="fil9" points="840.386,1101.39 887.027,1101.39 887.027,1131.37 879.322,1131.37 879.322,1135.54 872.868,1135.54 872.868,1139.29 854.545,1139.29 854.545,1135.54 848.089,1135.54 848.089,1131.37 840.386,1131.37 "/>
   <rect id="_459244976" class="fil10" x="844.81" y="1103.99" width="6.14209" height="9.68279"/>
   <rect id="_459255512" class="fil10" x="855.36" y="1103.99" width="6.14209" height="9.68279"/>
   <rect id="_459274784" class="fil10" x="865.91" y="1103.99" width="6.14209" height="9.68279"/>
   <rect id="_459262088" class="fil10" x="876.46" y="1103.99" width="6.14209" height="9.68279"/>
   <rect id="_459273176" class="fil7" x="833.722" y="1016.35" width="59.9666" height="57.0516" rx="4.37244" ry="4.37244"/>
   <rect id="_459257504" class="fil8" x="833.722" y="1014.57" width="59.9666" height="57.0516" rx="4.37244" ry="4.37244"/>
   <polygon id="_459275120" class="fil9" points="840.386,1021.45 887.027,1021.45 887.027,1051.43 879.322,1051.43 879.322,1055.59 872.868,1055.59 872.868,1059.34 854.545,1059.34 854.545,1055.59 848.089,1055.59 848.089,1051.43 840.386,1051.43 "/>
   <rect id="_459267968" class="fil10" x="844.81" y="1024.05" width="6.14209" height="9.68279"/>
   <rect id="_459266504" class="fil10" x="855.36" y="1024.05" width="6.14209" height="9.68279"/>
   <rect id="_459265352" class="fil10" x="865.91" y="1024.05" width="6.14209" height="9.68279"/>
   <rect id="_459269456" class="fil10" x="876.46" y="1024.05" width="6.14209" height="9.68279"/>
   <rect id="_459246488" class="fil8" x="939.4" y="1094.52" width="59.9666" height="57.0516" rx="4.37244" ry="4.37244"/>
   <polygon id="_459248024" class="fil9" points="946.063,1101.39 992.704,1101.39 992.704,1131.37 985,1131.37 985,1135.54 978.545,1135.54 978.545,1139.29 960.222,1139.29 960.222,1135.54 953.767,1135.54 953.767,1131.37 946.063,1131.37 "/>
   <rect id="_459275264" class="fil10" x="950.488" y="1103.99" width="6.14209" height="9.68279"/>
   <rect id="_459247016" class="fil10" x="961.037" y="1103.99" width="6.14209" height="9.68279"/>
   <rect id="_459263744" class="fil10" x="971.587" y="1103.99" width="6.14209" height="9.68279"/>
   <rect id="_459270872" class="fil10" x="982.137" y="1103.99" width="6.14209" height="9.68279"/>
   <rect id="_459252872" class="fil7" x="939.4" y="1016.35" width="59.9666" height="57.0516" rx="4.37244" ry="4.37244"/>
   <rect id="_459260144" class="fil8" x="939.4" y="1014.57" width="59.9666" height="57.0516" rx="4.37244" ry="4.37244"/>
   <polygon id="_459257312" class="fil9" points="946.063,1021.45 992.704,1021.45 992.704,1051.43 985,1051.43 985,1055.59 978.545,1055.59 978.545,1059.34 960.222,1059.34 960.222,1055.59 953.767,1055.59 953.767,1051.43 946.063,1051.43 "/>
   <rect id="_459276560" class="fil10" x="950.488" y="1024.05" width="6.14209" height="9.68279"/>
   <rect id="_459251936" class="fil10" x="961.037" y="1024.05" width="6.14209" height="9.68279"/>
   <rect id="_459271328" class="fil10" x="971.587" y="1024.05" width="6.14209" height="9.68279"/>
   <rect id="_459247400" class="fil10" x="982.137" y="1024.05" width="6.14209" height="9.68279"/>
   <rect id="_459255272" class="fil8" x="1045.08" y="1094.52" width="59.9666" height="57.0516" rx="4.37244" ry="4.37244"/>
   <polygon id="_459276728" class="fil9" points="1051.74,1101.39 1098.38,1101.39 1098.38,1131.37 1090.68,1131.37 1090.68,1135.54 1084.22,1135.54 1084.22,1139.29 1065.9,1139.29 1065.9,1135.54 1059.44,1135.54 1059.44,1131.37 1051.74,1131.37 "/>
   <rect id="_459261176" class="fil10" x="1056.16" y="1103.99" width="6.14209" height="9.68279"/>
   <rect id="_459258656" class="fil10" x="1066.71" y="1103.99" width="6.14209" height="9.68279"/>
   <rect id="_459262592" class="fil10" x="1077.26" y="1103.99" width="6.14209" height="9.68279"/>
   <rect id="_459260408" class="fil10" x="1087.81" y="1103.99" width="6.14209" height="9.68279"/>
   <rect id="_459272888" class="fil7" x="1045.08" y="1016.35" width="59.9666" height="57.0516" rx="4.37244" ry="4.37244"/>
   <rect id="_459256568" class="fil8" x="1045.08" y="1014.57" width="59.9666" height="57.0516" rx="4.37244" ry="4.37244"/>
   <polygon id="_459252680" class="fil9" points="1051.74,1021.45 1098.38,1021.45 1098.38,1051.43 1090.68,1051.43 1090.68,1055.59 1084.22,1055.59 1084.22,1059.34 1065.9,1059.34 1065.9,1055.59 1059.44,1055.59 1059.44,1051.43 1051.74,1051.43 "/>
   <rect id="_459253256" class="fil10" x="1056.16" y="1024.05" width="6.14209" height="9.68279"/>
   <rect id="_459265112" class="fil10" x="1066.71" y="1024.05" width="6.14209" height="9.68279"/>
   <rect id="_459262448" class="fil10" x="1077.26" y="1024.05" width="6.14209" height="9.68279"/>
   <rect id="_459261488" class="fil10" x="1087.81" y="1024.05" width="6.14209" height="9.68279"/>
   <rect id="_459250880" class="fil8" x="1150.75" y="1094.52" width="59.9666" height="57.0516" rx="4.37244" ry="4.37244"/>
   <polygon id="_459272576" class="fil9" points="1157.42,1101.39 1204.06,1101.39 1204.06,1131.37 1196.35,1131.37 1196.35,1135.54 1189.9,1135.54 1189.9,1139.29 1171.58,1139.29 1171.58,1135.54 1165.12,1135.54 1165.12,1131.37 1157.42,1131.37 "/>
   <rect id="_459263264" class="fil10" x="1161.84" y="1103.99" width="6.14209" height="9.68279"/>
   <rect id="_459263528" class="fil10" x="1172.39" y="1103.99" width="6.14209" height="9.68279"/>
   <rect id="_459254192" class="fil10" x="1182.94" y="1103.99" width="6.14209" height="9.68279"/>
   <rect id="_459246728" class="fil10" x="1193.49" y="1103.99" width="6.14209" height="9.68279"/>
   <rect id="_459263432" class="fil7" x="1150.75" y="1016.35" width="59.9666" height="57.0516" rx="4.37244" ry="4.37244"/>
   <rect id="_459269240" class="fil8" x="1150.75" y="1014.57" width="59.9666" height="57.0516" rx="4.37244" ry="4.37244"/>
   <polygon id="_459247664" class="fil9" points="1157.42,1021.45 1204.06,1021.45 1204.06,1051.43 1196.35,1051.43 1196.35,1055.59 1189.9,1055.59 1189.9,1059.34 1171.58,1059.34 1171.58,1055.59 1165.12,1055.59 1165.12,1051.43 1157.42,1051.43 "/>
   <rect id="_459263720" class="fil10" x="1161.84" y="1024.05" width="6.14209" height="9.68279"/>
   <rect id="_459262520" class="fil10" x="1172.39" y="1024.05" width="6.14209" height="9.68279"/>
   <rect id="_459249968" class="fil10" x="1182.94" y="1024.05" width="6.14209" height="9.68279"/>
   <rect id="_459267752" class="fil10" x="1193.49" y="1024.05" width="6.14209" height="9.68279"/>
   <polygon id="_459270320" class="fil11" points="1428.27,1188.51 613.744,1188.51 448,1188.51 448,1216.15 567.782,1216.15 1475.89,1216.15 1600,1216.15 1600,1188.51 "/>
   <ellipse id="_459246608" class="fil8" cx="1280.29" cy="1130.66" rx="20.3484" ry="20.3484"/>
   <circle id="_459260216" class="fil12" cx="1280.29" cy="1130.66" r="10.1739"/>
   <ellipse id="_459249512" class="fil8" cx="1346.74" cy="1130.66" rx="20.3484" ry="20.3484"/>
   <circle id="_459251240" class="fil12" cx="1346.74" cy="1130.66" r="10.1739"/>
   <ellipse id="_459249344" class="fil8" cx="1411.31" cy="1130.66" rx="20.3484" ry="20.3484"/>
   <circle id="_459273776" class="fil12" cx="1411.31" cy="1130.66" r="10.1739"/>
   <path id="_459245168" class="fil12" d="M1358.98 952.084l14.8347 0 0 81.1631c0,4.07953 -3.33662,7.41615 -7.41615,7.41615l-0.00236221 0c-4.07953,0 -7.41615,-3.33662 -7.41615,-7.41615l0 -81.1631z"/>
   <path id="_459263312" class="fil12" d="M1391.67 952.084l14.8347 0 0 81.1631c0,4.07953 -3.33662,7.41615 -7.41615,7.41615l-0.00236221 0c-4.07953,0 -7.41615,-3.33662 -7.41615,-7.41615l0 -81.1631z"/>
   <path id="_459266720" class="fil12" d="M1424.36 952.084l14.8347 0 0 81.1631c0,4.07953 -3.33662,7.41615 -7.41615,7.41615l-0.00236221 0c-4.07953,0 -7.41615,-3.33662 -7.41615,-7.41615l0 -81.1631z"/>
   <path id="_459261128" class="fil12" d="M1457.05 952.084l14.8347 0 0 81.1631c0,4.07953 -3.33662,7.41615 -7.41615,7.41615l-0.00236221 0c-4.07953,0 -7.41615,-3.33662 -7.41615,-7.41615l0 -81.1631z"/>
   <path id="_459273368" class="fil12" d="M1489.74 952.084l14.8347 0 0 81.1631c0,4.07953 -3.3378,7.41615 -7.41615,7.41615l-0.00354331 0c-4.07835,0 -7.41497,-3.33662 -7.41497,-7.41615l0 -81.1631z"/>
   <path id="_459268592" class="fil12" d="M1522.44 952.084l14.8347 0 0 81.1631c0,4.07953 -3.33662,7.41615 -7.41615,7.41615l-0.00236221 0c-4.07953,0 -7.41615,-3.33662 -7.41615,-7.41615l0 -81.1631z"/>
   <path id="_459248120" class="fil12" d="M1555.13 952.084l14.8347 0 0 81.1631c0,4.07953 -3.33662,7.41615 -7.41615,7.41615l-0.00236221 0c-4.07953,0 -7.41615,-3.33662 -7.41615,-7.41615l0 -81.1631z"/>
   <path id="_459255944" class="fil12" d="M1260.51 952.084l14.8347 0 0 81.1631c0,4.07953 -3.33662,7.41615 -7.41615,7.41615l-0.00236221 0c-4.07953,0 -7.41615,-3.33662 -7.41615,-7.41615l0 -81.1631z"/>
   <path id="_459277448" class="fil12" d="M1293.34 952.084l14.8347 0 0 81.1631c0,4.07953 -3.33662,7.41615 -7.41615,7.41615l-0.00236221 0c-4.07953,0 -7.41615,-3.33662 -7.41615,-7.41615l0 -81.1631z"/>
   <path id="_459267368" class="fil12" d="M1326.16 952.084l14.8347 0 0 81.1631c0,4.07953 -3.3378,7.41615 -7.41615,7.41615l-0.00236221 0c-4.07953,0 -7.41615,-3.33662 -7.41615,-7.41615l0 -81.1631z"/>
   <rect id="_459259616" class="fil8" x="1452" y="1099.17" width="36.1005" height="57.57"/>
   <polygon id="_459269792" class="fil12" points="1480.6,1127.44 1480.6,1149.24 1459.5,1149.24 1459.5,1127.44 "/>
   <polygon id="_459248600" class="fil13" points="1459.5,1106.67 1480.6,1106.67 1480.6,1127.69 1480.6,1127.95 1459.5,1127.95 1459.5,1127.33 "/>
   <rect id="_459265568" class="fil8" x="1508.26" y="1099.17" width="36.1005" height="57.57"/>
   <polygon id="_459272072" class="fil12" points="1536.86,1127.44 1536.86,1149.24 1515.76,1149.24 1515.76,1127.44 "/>
   <polygon id="_459277400" class="fil13" points="1515.76,1106.67 1536.86,1106.67 1536.86,1127.69 1536.86,1127.95 1515.76,1127.95 1515.76,1127.33 "/>
   <rect id="_459270032" class="fil14 str0" x="1259.26" y="1061.81" width="17.3485" height="8.20466"/>
   <rect id="_459257480" class="fil14 str0" x="1292.08" y="1061.81" width="17.3485" height="8.20466"/>
   <rect id="_459254432" class="fil14 str0" x="1324.9" y="1061.81" width="17.3485" height="8.20466"/>
   <rect id="_459272000" class="fil14 str0" x="1357.72" y="1061.81" width="17.3485" height="8.20466"/>
   <rect id="_459268856" class="fil14 str0" x="1390.41" y="1061.81" width="17.3485" height="8.20466"/>
   <rect id="_459249056" class="fil14 str0" x="1423.1" y="1061.81" width="17.3485" height="8.20466"/>
   <rect id="_459276296" class="fil15 str0" x="1455.79" y="1061.81" width="17.3485" height="8.20466"/>
   <rect id="_459277304" class="fil15 str0" x="1488.49" y="1061.81" width="17.3485" height="8.20466"/>
   <rect id="_459250040" class="fil15 str0" x="1521.18" y="1061.81" width="17.3485" height="8.20466"/>
   <rect id="_459256088" class="fil16 str0" x="1553.87" y="1061.81" width="17.3485" height="8.20466"/>
  </g>
 </g>
</svg>
