<svg xmlns="http://www.w3.org/2000/svg" viewBox="0 0 512 512"><title>Artboard 126</title><g id="Bicycle"><path d="M245.33333,405.33333a10.63207,10.63207,0,0,1-7.54166-3.125L195.125,359.54167a10.66553,10.66553,0,0,1,15.08333-15.08334L252.875,387.125a10.66667,10.66667,0,0,1-7.54167,18.20833Z" style="fill:#774dff"/><rect x="257.83011" y="80.91506" width="60.33978" height="30.16989" transform="translate(16.471 231.7645) rotate(-45)" style="fill:#ff8132"/><path d="M216.81142,309.13652,256,256l-64-21.33333,21.33333-64L282.651,211.743a42.66668,42.66668,0,0,1,10.27645,54.68556l-41.65453,65.6823a20.70879,20.70879,0,0,1-35.75325-2.22592l0,0A20.70877,20.70877,0,0,1,216.81142,309.13652Z" style="fill:#ff8132"/><path d="M213.33333,320h20.39085a18.646,18.646,0,0,1,17.68914,12.74962l13.4393,40.31789a18.646,18.646,0,0,1-4.50443,19.08109l0,0a18.646,18.646,0,0,1-26.36942,0l-35.73036-35.73036a21.33332,21.33332,0,0,1,0-30.16986l0,0A21.33334,21.33334,0,0,1,213.33333,320Z" style="fill:#0e8900"/><rect x="192" y="320" width="42.66667" height="21.33333" rx="10.66666" ry="10.66666" style="fill:#0d9f00"/><rect x="234.66667" y="277.33333" width="21.33333" height="42.66667" rx="10.66666" ry="10.66666" style="fill:#ec590a"/><path d="M447.46254,341.8708l-52.7956,52.7956v.00054l52.7956,52.7956a74.65975,74.65975,0,0,0,0-105.59174Z" style="fill:#f1ecff"/><path d="M170.1292,341.8708l-52.7956,52.7956v.00054l52.7956,52.7956a74.65972,74.65972,0,0,0,0-105.59174Z" style="fill:#f1ecff"/><path d="M117.33333,320a74.66667,74.66667,0,1,1-74.66666,74.66667A74.75111,74.75111,0,0,1,117.33333,320m0-21.33333a96,96,0,1,0,96,96,96.00007,96.00007,0,0,0-96-96Z" style="fill:#480fed"/><circle cx="117.33333" cy="394.66667" r="32" style="fill:#d1c2ff"/><path d="M394.66667,320A74.66667,74.66667,0,1,1,320,394.66667,74.75111,74.75111,0,0,1,394.66667,320m0-21.33333a96,96,0,1,0,96,96,96.00006,96.00006,0,0,0-96-96Z" style="fill:#480fed"/><circle cx="394.66667" cy="394.66667" r="32" style="fill:#d1c2ff"/><path d="M245.33333,426.66667a10.69354,10.69354,0,0,1-10.125-7.29167l-64-192a10.67269,10.67269,0,0,1,20.25-6.75l64,192a10.68185,10.68185,0,0,1-10.125,14.04167Z" style="fill:#ff690b"/><path d="M266.66667,405.33333H117.33333A10.66935,10.66935,0,0,1,109,388l85.33333-106.66667a10.70161,10.70161,0,0,1,6.82292-3.89583l149.33333-21.33333A10.671,10.671,0,0,1,360.875,272.58333l-85.33333,128A10.66957,10.66957,0,0,1,266.66667,405.33333ZM139.53125,384H260.95833l68.9375-103.39583L208.35417,297.95833Z" style="fill:#ff690b"/><path d="M266.66667,405.33333h-64a10.66666,10.66666,0,1,1,0-21.33333h64a10.66667,10.66667,0,0,1,0,21.33333Z" style="fill:#d34000"/><path d="M234.65625,294.09375a10.66818,10.66818,0,0,1-1.5-21.22917l31.625-4.52083a10.66995,10.66995,0,1,1,3.02083,21.125l-31.625,4.52083A10.76541,10.76541,0,0,1,234.65625,294.09375Z" style="fill:#d34000"/><path d="M245.32292,426.66667a10.66771,10.66771,0,0,1-8.66667-16.86459l24.98958-34.97916A10.6633,10.6633,0,0,1,279,387.21875l-24.98958,34.97917A10.64145,10.64145,0,0,1,245.32292,426.66667Z" style="fill:#d34000"/><path d="M245.33333,426.66667a10.69354,10.69354,0,0,1-10.125-7.29167l-21.33333-64a10.67269,10.67269,0,0,1,20.25-6.75l21.33333,64a10.68185,10.68185,0,0,1-10.125,14.04167Z" style="fill:#d34000"/><path d="M195.74316,277.85415a10.69352,10.69352,0,0,1-10.125-7.29166L171.20833,227.375a10.67269,10.67269,0,0,1,20.25-6.75l14.40983,43.18749a10.68183,10.68183,0,0,1-10.125,14.04166Z" style="fill:#e4dbff"/><circle cx="181.33333" cy="245.33333" r="10.66667" style="fill:#ac93ff"/><path d="M128,234.66667S128,256,149.33333,256s48-21.33333,69.33334-21.33333,21.33333-21.33334,0-21.33334H149.33333C128,213.33333,128,234.66667,128,234.66667Z" style="fill:#480fed"/><path d="M426.66667,213.33333H373.33333a10.66667,10.66667,0,0,0,0,21.33334h53.33334a21.33333,21.33333,0,1,1,0,42.66666H416a10.66667,10.66667,0,0,0,0,21.33334h10.66667a42.66667,42.66667,0,0,0,0-85.33334Z" style="fill:#480fed"/><rect x="384" y="213.33333" width="42.66667" height="21.33333" rx="10.66666" ry="10.66666" style="fill:#1300a0"/><circle cx="245.33333" cy="394.66667" r="32" style="fill:#480fed"/><path d="M222.70592,417.29408l.04557.04558.01485.01462.03418.034.01335.01335.043.04258.01853.0183.026.02555.02187.02141.02463.02416.04051.03959.0168.01635.02981.02911.00794.00772c.03407.03314.06963.06755.10393.10047l.0038.00357c.07365.07089.14662.14063.221.21084l.00046.00046.03648.03441.00288.00265.06122.05754.01428.01335.02382.02222.02912.027c.14731.13719.29635.27357.44585.40765.04891.04223.09863.08459.14835.126q.14173.13171.28979.25987a31.80364,31.80364,0,0,0,12.1923,6.57l.00058.00035q.39861.11238.79872.21406l.00506.00138.04063.01.00356.001.03959.01013.00668.00161.039.00978.00587.0015.03775.00921.00806.00207.03683.0092.00909.002.03522.009.00978.00218.03844.00944.003.00069.03994.00978.00828.00185.03925.00955h0l.04385.01047.0038.00081c.14766.03556.29416.06951.44182.10231l.0053.00115.03763.0084.00829.00184.03234.00726.01519.00322.03384.00759.00966.00231.035.00736.01185.00288.03327.00725.01219.00253.03188.00679.01531.00311.031.00679.013.00265.03337.00713.01278.00288.032.00667.01508.00334.02992.006.01577.00356.03153.00622.01048.00242.0359.00736.00921.00184.03591.00737.01.002.03522.00713.01128.00253.03533.007.00368.00092c.08827.01761.17528.03465.264.05179l.00391.00069.03407.00645.01312.00253.031.00587.01531.00311.0305.00541.01519.00322.03027.00564.01657.00276.02613.00518.02175.004.02428.00426.02095.00391.02716.00506.01726.003.03039.00552.01542.003.029.00507.01865.00345.02762.0046.01784.00334.02819.005.018.00322.02831.00484.02025.00368.0236.004.025.00448.0229.0038.022.0038.02359.004.02106.0038.02693.00437.0198.00322.02428.00426.02785.00437.01968.00334.09253.01519.00691.00138.0412.00668.002-.00012.04327.00737.01623.00219.02992.00506.02164.00322.02313.00357.02221.00357.027.00426.01588.00253.03119.00472.01519.0023.03177.00506.01542.00208.03119.00471.0145.00208.03418.0054.0122.00162.0328.00494.016.00242.02981.00426.01853.00265.02635.004.02026.00276.02888.00426.01715.00218.02958.00449.01692.00242.03142.00449.01542.00207.03315.0046.01289.00184.0397.00541.00645.00092.04626.00622.00012-.00012c.09552.01312.19012.02532.28565.03752h.00184l.04511.00553.004.00057.04178.00518.01128.00161.036.00449.0107.00127.03476.00391.01542.00207.03292.00391.01174.00115.03533.00426.013.00173.03395.0038.01243.00138.03406.00368.0145.00207.03419.00357.01081.00115.03545.00414.01324.0015.03648.004.009.00115.0359.00368.01324.0015.03844.00391.00644.00092.04351.00438.00334.00034c.09575.01013.18955.01945.2853.02866l.00679.00057.04189.00415.00069.00023.04638.00425.00426.00035.04374.00414.00356.00012.04144.00368.01162.00127.03637.00322.01013.00092.03671.00288.0107.00126.03764.00288.0092.00092.03637.00322.01278.001.0366.003.00863.00058.03993.00334.00679.00057.041.00322.00679.00058.03924.00311.00921.00092.0397.00264.00668.00069.0435.00346.00346.00023.04557.00322.00173.00011.04477.00311.00333.00035c.1754.01243.35022.02359.52631.03349l.00023-.00023.04523.00265.00621.00023.042.00218.00437.00023.04281.0023.0061.00035.0404.002.00852.00069.03786.00172.0099.00023.04224.002.00253.00023.0458.00207h.00185c.03234.00173.06329.003.09529.00414h0q.26379.01105.52734.01773h.00092l.04557.00138.00484-.00023.04477.00126h.00092l.04523.00081.00437.00023.044.00115.0038-.00011.04351.00069.00437.00023a32.08344,32.08344,0,0,0,11.15891-1.78883l.00208-.00023q.366-.12845.72931-.26528l.00023-.00023.04546-.01692h0l.04489-.01726.00115-.00023.04454-.01692.00057-.00058.04328-.01657.00311-.00127.04419-.01657.00011-.00011.04374-.017.00207-.00115c.03061-.01128.05939-.02255.08965-.03441l.00058-.00057q.31729-.124.63161-.255l.00115-.00023.04419-.01842.00023-.00023.04305-.01818.00437-.00161c.014-.00576.02808-.01151.04178-.01784l.001-.00012.04431-.01852.00046-.00047.08954-.038.00012-.00012c.23823-.102.47693-.20716.71309-.31534l.00426-.0015.03993-.01876.00449-.00173.03959-.01841.00472-.002.03913-.01795.00633-.00265.03545-.017.0099-.00437.03579-.01646.007-.00334.03982-.01864.0023-.00138c.03-.01347.05824-.02694.08781-.04086l.00023-.00023q.24342-.115.485-.23363l.00207-.00115.04028-.02.00668-.003.03844-.01911.003-.00115.041-.02071.00242-.0015.04109-.01991.00379-.002.03856-.01922.00656-.00379.03717-.01876.00541-.00265.039-.01968.00414-.0023.04086-.0206.00184-.00092.04016-.01991.00472-.00288c.0282-.01439.05743-.02889.08517-.04373h.00092c.1457-.07481.28979-.15077.43492-.22777l.00207-.00115.08413-.04546.00288-.001.04155-.02221.00046-.00047.04074-.02232.005-.00219.04051-.0221.00023-.00023.041-.02255.00391-.00208.03971-.02129.00322-.0023.03763-.02014.0068-.004.038-.02048.00426-.00242.03741-.02083.006-.00322.03971-.02222.00195-.001.03959-.0221.00392-.00207.042-.02359.00012-.00012c.11486-.06422.22822-.12878.34262-.19438l.0046-.00277.03706-.0214.00817-.00449.03384-.02.00863-.005.03292-.0191.01231-.00679.02923-.01726.013-.00748.029-.017.014-.00851.02728-.01623.01438-.00794.0274-.01635.01588-.00943.02612-.01508.01473-.00921.02694-.01588.01576-.00932.02728-.01623.01335-.00782.02854-.0175.0137-.00817.03142-.01853.00909-.00541.03475-.02094.00726-.00449.04051-.02486h0l.03729-.02256.00621-.00345c.05651-.03441.11106-.06779.16722-.10278l.00772-.004.03441-.02153.00782-.00506.03349-.0206.00979-.0061.03176-.0198.01255-.00794.027-.01692.01692-.01047.025-.01577.01612-.00966.0252-.016.01542-.0099.02693-.0168.01451-.009.02554-.01634.01681-.01036.02532-.01611.01519-.00967.02612-.01692.01451-.009.02785-.01773.01358-.009.026-.01681.01542-.0099.02739-.01726.01324-.00863.02934-.01922.01094-.00725.03084-.0198.0107-.007.0305-.01945.01082-.00713.0343-.02233.0061-.00426c.0557-.03637.10979-.072.1655-.10841l.00448-.00357.03683-.02394.00449-.00357.03579-.02382.00852-.00575.03223-.02118.01081-.00714.03073-.0206.0084-.00564.03246-.02232.00967-.006.02992-.02071.01277-.00817.02786-.01865.01335-.00967.02785-.01864.012-.00829.02854-.01933.01254-.00886.029-.0198.0107-.007.02969-.02049.01163-.00794.03038-.02117.009-.00622.03119-.02106.01047-.00771.02854-.01934.01278-.00909.025-.01761.01657-.011.02762-.01934.01071-.00794.02992-.02072.01151-.00782c.06629-.047.13465-.09507.20106-.14214l.01416-.01047.02509-.01772.01588-.01128.02509-.01865.01231-.00863.02751-.01922.01415-.01047.02624-.01888.01358-.00989.02578-.01842.01508-.01139.02532-.018.0145-.01081.0244-.018.01646-.01185.02359-.01715.01565-.012.02337-.01692.017-.01243.024-.01761.01451-.01081.02531-.01888.01416-.01047.02739-.02.01174-.009.02774-.02037.01208-.00932.02808-.02071.012-.00921.02647-.01911.01335-.01058.02843-.02107.01093-.00817.02809-.02163.012-.00829c.05272-.03982.10508-.08022.15791-.12015l.0092-.00737.02981-.02244.01347-.0107.02555-.01911.0145-.01174.02532-.01887.01312-.01036.02532-.0198.01657-.01289.022-.01737.01589-.0122.024-.01853.01542-.01174.02382-.01922.014-.01036.02555-.02.01428-.0115.02509-.01957.013-.01024.02566-.02014.01462-.01186.02417-.01864.01439-.01163.02347-.01887.01669-.013.02325-.01864.01381-.011.02762-.0221.01117-.0084.03015-.02463.00806-.00621.02842-.0229.01151-.00967.02785-.02233.01036-.00851.02624-.02072.01381-.011.03142-.02589.0061-.00518c.01105-.00829.02256-.018.033-.02659l.01623-.01346.02877-.02325.00656-.00564.03131-.02578.01127-.00852.02843-.02382.00886-.007.02831-.02371.0152-.01243.02313-.01945.01577-.013.02209-.01842.01589-.01312.02313-.01945.01542-.01266.02187-.01818.017-.01427.02221-.01853.01566-.01289.02163-.01888.01634-.01358.02279-.0191.01588-.01312.02084-.01807.01737-.01462.02141-.01772.01646-.01462.02163-.01795.01577-.01393.02314-.01945.01519-.01335.02152-.01784.01646-.01461.02347-.0198.014-.0122.02589-.02221.01185-.01.02705-.02337.01082-.00989.02831-.02463.00978-.00794.03476-.03108.003-.00207.0381-.03349.00333-.00242.03327-.02958.01841-.01657.019-.01623.01887-.017.01888-.01611.01657-.01473.02175-.019.01416-.01324.02336-.0206.01485-.013.02152-.01968.01715-.01531.02083-.01807.01634-.0145.02049-.01865.0183-.01645.01795-.01612.01922-.01737.01818-.01635.01876-.01692.02026-.01841.01508-.01323.02267-.02084.01519-.01427.02072-.01887.0168-.015.0198-.018.01749-.01657.02025-.01841.01635-.01451.0214-.01956.01577-.01485.02244-.0206.01393-.013.02152-.01968.01634-.01542.02521-.02337.01059-.00967.02566-.02382.0122-.01128.036-.03418.01036-.00944.02636-.02451.01323-.01231.02406-.02314.01265-.01174.02291-.022.01864-.0168.0183-.01738.01819-.01726.01818-.01727.01738-.01645.02-.01911.01577-.01577.01968-.01876.01749-.01657.01957-.01864.017-.01612.01853-.0176.0183-.0183.01853-.01761.01738-.01646.019-.019.01692-.016.02025-.01933.01588-.01588.01968-.01876.01669-.01669.02037-.01945.01566-.01565.01979-.0198.01669-.01577.01876-.01876.01749-.01749.01784-.01692.01807-.01807.02049-.02048.01484-.01485.0244-.02348.01174-.01174.0282-.02819.00759-.0076.03614-.03614.04857-.04856.01254-.01255c.01542-.01542.03211-.03211.04707-.048l.00115-.00115.0488-.0488.01174-.01174c.015-.01588.03154-.03245.047-.04788l.00149-.00149c.01612-.017.03188-.0328.04846-.04937l.0107-.01163.04615-.04707.003-.003.04719-.049.0122-.0122.04523-.04707.00265-.00265.047-.0488.012-.01289c.01542-.01542.03-.03095.04489-.04672l.003-.003.04742-.05018.01093-.01094.04477-.04753.00311-.00311.04638-.04914.0122-.01312.04189-.04465.00529-.00622.04581-.04857.01243-.01335c.01369-.01461.02808-.02992.0412-.04488l.00529-.00529.045-.04869.01324-.01415.04085-.04454.00507-.006.046-.04972.01105-.012.04132-.04592.00541-.00541.04534-.04994.01082-.01174c.01427-.01612.02854-.03223.04328-.04788l.00287-.0038.04546-.05006.01174-.01358c.01312-.014.02624-.029.03879-.04339l.00713-.00806.04316-.04868.01347-.01439.03959-.04511.00483-.00575.045-.05053.01059-.01243.03878-.04431.00725-.00817c.01485-.01669.029-.03268.04328-.04972l.012-.01289c.01266-.01542.02566-.03027.03878-.04523l.0061-.007.04316-.0496.01266-.0145.03579-.04224.00875-.00967.04155-.04891.01358-.01542.03579-.04224.00817-.00909.04212-.05041.01186-.0137.03614-.04258.008-.0099.042-.05029.01128-.01312c.01243-.01427.02451-.02912.03648-.04385l.0084-.00932.04178-.05007.01128-.014.036-.04339.0076-.00943c.01427-.017.02808-.03361.04189-.0511l.0107-.01255.0366-.04488.0076-.00852.04178-.0519.01024-.01209.03568-.044.0084-.01024.03993-.05007.01266-.01542.03223-.03959.01128-.014.03832-.04845.0137-.01738.03119-.03856.01093-.01369.03878-.04892.01324-.01691.03107-.03936.01105-.01382.03867-.04971.01266-.01543.03085-.04005.01093-.01369.03855-.04961.0122-.01588c.01071-.01346.02106-.02658.03131-.04051l.01082-.01358.038-.049.01312-.01772.02934-.03764.01186-.01553c.012-.01658.02428-.03257.03671-.04868l.01416-.01876.02831-.0366.012-.01658c.013-.01668.02486-.03222.0374-.04937l.01289-.01657c.00909-.01278.01876-.02521.02831-.03752l.01243-.017.0366-.04857.013-.01761.028-.03809.01289-.01658c.0114-.016.02394-.03314.0358-.04868l.01392-.01853.02624-.03637.013-.01761c.01185-.01553.02417-.03245.03556-.04845l.01427-.01887.02624-.03637.01324-.01784.03521-.049.0137-.0183.02566-.03579.01347-.019c.01185-.01554.02325-.03245.0351-.048l.01324-.01876.02647-.03752.01277-.01738.03464-.04845.01393-.02037.0244-.03453.01392-.01945.03419-.048.01358-.02c.009-.01173.01691-.02336.02532-.03544l.01369-.01922c.01139-.01692.02221-.03234.03407-.0488l.01277-.01922.02463-.03476.01427-.02071c.01071-.01623.02141-.03154.03269-.04742l.01473-.02118.02256-.0336.0153-.02175.03246-.04719.014-.02141.02279-.03291.01438-.02175.033-.04777.01312-.02048.02371-.03476.01416-.0206.032-.04857.01416-.0206.02267-.03372.01416-.02152.03222-.0488.01243-.01887.02475-.03672.01266-.02.032-.04857.014-.02141.02152-.03257.01462-.0229.03119-.04776.01415-.02152.02141-.03338.01427-.02256.03177-.04833.013-.02037.02106-.034.01473-.023.03085-.04742.01369-.022.02083-.0328.015-.02417.02957-.04615.01554-.02475.01842-.02946.01588-.02509.029-.04742.01485-.024.019-.03.01553-.02566c.00944-.015.01968-.03073.02866-.04615l.01588-.026.01738-.02751.01646-.02658.028-.04639.015-.02416.0191-.032.01473-.02394c.00956-.016.01876-.03165.02878-.04718l.01473-.02486.01738-.02935.01611-.02624.02785-.04627.01473-.02578.01772-.02969.01577-.02589.02774-.04708.01461-.02474.017-.029.016-.02705.02717-.04649.0145-.02555.01692-.02889.01634-.02831.0214-.03614.02187-.03844.01347-.02267.01772-.03154.01266-.02186.03073-.05375.01174-.02095.01887-.03268.01151-.0198c.01059-.01887.02026-.03683.03131-.05524l.01116-.02037.01853-.03326.0099-.01727c.01058-.01887.02186-.03844.032-.05777l.01255-.02175.018-.03269.00944-.0168.03314-.05985.00967-.018.01933-.035.00622-.01082c.01174-.02186.02417-.04442.03625-.06571l.00956-.01876.0191-.03476.006-.01059.03614-.06744.00852-.015.01991-.0374.00173-.00357c.01392-.025.0267-.0488.04016-.07423l.00806-.01543c.0206-.039.04143-.07734.06192-.11624l.00667-.01312.0198-.03729.005-.00955.03648-.06963.00725-.01461c.0206-.039.04063-.07746.06054-.1167l.00725-.0137.01979-.03821.00219-.004.038-.07388.00759-.01589c.02072-.04005.04052-.07918.06066-.11957l.00483-.00944.02026-.04051.00023-.00023.04016-.07976.00576-.0122.01956-.0389.00219-.004.03786-.07653.00553-.012c.02014-.04132.03947-.08.05961-.1213l.005-.01048.06008-.1236.00322-.00783.02014-.04132.00023-.00023.039-.08228.00448-.0091c.02014-.04223.03936-.08355.05951-.12579l.0023-.006c.01922-.0404.03867-.08195.05743-.1228l.00587-.01232.01876-.03993.00069-.00161.03867-.08471.0023-.00414c.01979-.04374.03947-.08643.05915-.13005l.00138-.00323c.02038-.04431.03971-.08758.05951-.13223l.00046-.00046c.01991-.04477.03913-.08885.05892-.13351l.00058-.00057c.07872-.17908.1556-.35724.23121-.53689l.00035-.00127a32.11152,32.11152,0,0,0,.16216-24.41,10.66674,10.66674,0,0,0-19.77459,8.00513,10.67326,10.67326,0,0,1-16.84938,12.0939c-.06065-.0526-.12107-.10358-.18253-.15445-.03786-.03764-.07607-.07492-.11486-.11256l-.29152-.28116a10.90017,10.90017,0,0,0-15.219.13684,10.43448,10.43448,0,0,0-.27472,14.53194c.13523.14007.27069.27806.4088.41616Z" style="fill:#1300a0"/><path d="M288,448a10.63213,10.63213,0,0,1-7.54167-3.125l-42.66666-42.66667A10.66552,10.66552,0,1,1,252.875,387.125l42.66667,42.66667A10.66667,10.66667,0,0,1,288,448Z" style="fill:#d1c2ff"/><path d="M277.33333,42.66667H320a42.66662,42.66662,0,0,1,42.66662,42.66662v.00009A42.66662,42.66662,0,0,1,320,128H320a42.66662,42.66662,0,0,1-42.66662-42.66662V42.66667A0,0,0,0,1,277.33333,42.66667Z" style="fill:#ff9c5e"/><rect x="277.33333" y="42.66667" width="21.33333" height="85.33333" rx="10.66666" ry="10.66666" style="fill:#ff8132"/><path d="M277.33331,42.66669a30.16986,30.16986,0,0,0,0,42.66662l0,0h21.33334V64l10.66667-10.66668a15.08491,15.08491,0,0,0,0-21.33331l0,0A15.08493,15.08493,0,0,0,288,32Z" style="fill:#d34000"/><path d="M234.66667,170.66667l57.91969,96.53283a42.66659,42.66659,0,0,1,6.08031,21.95182V384a21.33331,21.33331,0,0,1-21.33332,21.33331h0A21.33331,21.33331,0,0,1,256,384V298.66667l-64-64Z" style="fill:#ff9c5e"/><path d="M267.15234,234.89046a10.66874,10.66874,0,0,0-9.13606,16.15609L268.99219,269.34a10.66656,10.66656,0,0,0,18.31054-10.94646l-8.515-14.19238-.00391-.00586-.01953-.0332-.00976-.016-.01563-.02572-.03841-.06429-.01562-.02653-.03646-.06071-.02214-.03646-.196-.32714-.00912-.01465c-1.24609-2.07634-2.112-3.51986-2.112-3.51986a10.66013,10.66013,0,0,0-9.1569-5.18034Z" style="fill:#ffceaf"/><path d="M221.40755,238.32243a10.66667,10.66667,0,0,0-7.54232,18.20915L256,298.66667v68.41194a10.66667,10.66667,0,1,0,21.33333,0V298.66667a21.33347,21.33347,0,0,0-6.248-15.085l-42.13542-42.1351a10.63257,10.63257,0,0,0-7.54232-3.12418Z" style="fill:#ff8d45"/><rect x="277.33333" y="298.66667" width="21.33333" height="42.66667" rx="10.66666" ry="10.66666" style="fill:#ffaf7d"/><path d="M309.33333,107.32292a10.65606,10.65606,0,0,1-7.64583-18.09375l21.33333-21.98959A10.6593,10.6593,0,1,1,338.3125,82.09375l-21.33333,21.98958A10.58375,10.58375,0,0,1,309.33333,107.32292Z" style="fill:#1300a0"/><path d="M309.33333,128a10.66053,10.66053,0,0,1-10.66666-10.66667v-64a10.66666,10.66666,0,0,1,21.33333,0v64A10.66053,10.66053,0,0,1,309.33333,128Z" style="fill:#602fff"/><circle cx="309.33333" cy="74.66667" r="10.66667" style="fill:#480fed"/><path d="M170.66667,213.33333l14.87,25.53672A38.45918,38.45918,0,0,0,238.87,249.53671l.00006,0a38.45918,38.45918,0,0,0,10.66666-53.33328l-14.87-25.53671Z" style="fill:#0e8900"/><path d="M234.66667,149.33333H192A42.66663,42.66663,0,0,0,149.33333,192V192A42.66663,42.66663,0,0,0,192,234.66667h42.66671Z" style="fill:#0e8900"/><path d="M150.54753,214.83529a10.667,10.667,0,0,0-8.27149,17.39436,63.87106,63.87106,0,0,0,19.59375,16.14958,10.66672,10.66672,0,0,0,10.0625-18.8112,42.88244,42.88244,0,0,1-5.16471-3.24593l-.0013-.00081c-.07032-.0516-.14258-.105-.21289-.15706l-.00326-.00245-.04687-.035-.00782-.006c-.06836-.05062-.13867-.10352-.20638-.15462l-.00781-.00586-.04492-.034-.00651-.00456-.05013-.03808-.00065-.00065c-.03451-.02621-.06836-.05193-.10287-.07846l-.00976-.00732-.041-.03141-.01042-.008-.041-.03174-.01042-.00748-.04557-.03532-.00391-.00326-.05013-.03857-.01041-.00781-.03972-.03125-.013-.00993-.03516-.02751-.01757-.01334-.0319-.02507-.01758-.01383-.03581-.028-.01237-.00977-.04753-.0371-.01757-.014-.02995-.02328-.02214-.01774-.026-.02083-.02148-.0166-.02735-.02181-.02213-.01742-.02735-.022-.03776-.03011-.026-.02083-.02409-.01888-.02474-.01986-.02474-.02018-.01953-.01547-.02864-.02327-.01758-.01384-.02995-.02408-.00716-.00619-.0651-.05224-.01563-.0127-.02995-.02458-.01627-.01318-.03-.02441-.01758-.014-.02734-.02246-.01953-.01644-.10743-.08789-.00651-.00521-.03385-.02816-.01237-.01041-.0332-.02735-.01042-.00862-.03516-.029-.00455-.00407-.11914-.09928-.00456-.00407-.03646-.03027-.00911-.00749-.03646-.03092-.00391-.00342-.16406-.13851-.002-.00163-.0371-.03174-.00847-.00716c-.08268-.07031-.16406-.14046-.24544-.21126h0a42.88108,42.88108,0,0,1-5.20573-5.37012,10.64577,10.64577,0,0,0-8.28385-3.93961Z" style="fill:#1300a0"/><circle cx="213.33333" cy="192" r="42.66667" style="fill:#007913"/><path d="M285.41177,98.58814l.00007.00007a45.25479,45.25479,0,0,1,0,63.99994l-32,31.99966A64.001,64.001,0,0,1,208.157,213.33326l-7.31907.00007a64.001,64.001,0,0,1-45.25612-18.74544l0,0a21.33333,21.33333,0,0,1,0-30.16989l65.83013-65.82982A45.25479,45.25479,0,0,1,285.41177,98.58814Z" style="fill:#30bf00"/><path d="M253.41211,85.3335a45.11137,45.11137,0,0,0-32,13.25472h0s-.07747.07763-.22331.2233l-.00521.00521c-.07161.07162-.1595.15934-.26171.26188l-.01433.01384-.02864.02913-.00782.008-.02994.02962-.01563.01562-.0319.03174-.01432.01449-.00847.00814-.082.08219-.00976.00993-19.41732,19.41748a10.66655,10.66655,0,0,0,15.11588,15.05355l20.1198-20.11947a23.76262,23.76262,0,0,1,16.91471-7.006,10.66667,10.66667,0,1,0,0-21.33333Zm-74.74675,60.41943a10.6364,10.6364,0,0,0-7.52669,3.1084l-12.08724,12.0874A10.66668,10.66668,0,0,0,174.14,176.03011l12.06771-12.068a10.66675,10.66675,0,0,0-7.54232-18.20915Z" style="fill:#8ae963"/><circle cx="245.33333" cy="138.66667" r="32" style="fill:#0d9f00"/><path d="M286.86523,128.70654a10.67216,10.67216,0,0,0-10.31315,7.97266,23.869,23.869,0,0,1-6.22461,10.82406l-32,31.99951a42.39111,42.39111,0,0,1-30.17057,12.49739h-6.41016a10.66667,10.66667,0,0,0,0,21.33334h6.41016a64.00318,64.00318,0,0,0,45.25521-18.74561l32-31.99967c.02018-.02051.041-.04134.06185-.06185l.01888-.01888c.015-.01514.02995-.03076.04557-.0459l.01823-.01872c.041-.04118.082-.08268.1224-.124l.01953-.01986.04557-.04606.01758-.01807.12239-.12548.01823-.01889.04427-.04557.01954-.02018.05859-.06087.00195-.002.05925-.06152.01953-.02034.04362-.04623.01823-.01855.12044-.12663.01758-.01872.04362-.04638.01888-.02035c.01953-.02018.03841-.0402.05729-.06055l.0026-.00309c.01954-.02034.03907-.041.058-.06136l.02018-.02214.04167-.04427.01888-.02067c.03971-.04248.07877-.08463.11849-.12728l.01627-.01822.04427-.048.01758-.01888c.03971-.04313.07878-.08561.11784-.12874l.01628-.01807.04557-.0498.015-.01661c.03972-.04361.07878-.08707.11849-.13085l.01432-.01644.04558-.05062.01562-.01774c.03907-.04346.07813-.08675.11654-.13037l.01562-.01742c.015-.01693.0306-.03418.04493-.05111l.015-.0166.11589-.13118.01562-.01856.04232-.04785.01823-.021.11328-.13021.015-.01774.04492-.05144.01433-.01676c.03841-.04427.07617-.08871.11393-.13314l.01432-.01644.04427-.05159.015-.01807c.03776-.04411.07487-.08805.11263-.13232l.01562-.01872.043-.05078.01432-.01742c.03776-.04476.07487-.08935.112-.13411l.01368-.01628.04492-.05387.013-.01563c.03776-.04524.07487-.09017.112-.13558l.013-.01562.04557-.0555.01172-.01416.112-.138.01042-.01237.04687-.05795.01107-.014.112-.13851.00976-.01253.04753-.05925.00976-.01188.11133-.14079.00912-.0109c.015-.01954.0306-.0389.04622-.05843L289,158.55029c.03646-.04638.07357-.0931.10938-.13948l.00911-.0114.04753-.061.00911-.01123c.03646-.04736.07357-.095.11-.14258l.00716-.0096c.01627-.02067.0319-.04086.04752-.06153l.00977-.01269c.03646-.0472.07227-.09391.10807-.14128l.00977-.01253c.01562-.02051.03125-.041.04622-.06152l.00781-.01026c.03711-.04834.07292-.09651.11-.145l.00456-.00651.05013-.06673.00586-.00846.10937-.14632.00456-.00635.05078-.069.00456-.00537.10937-.14942.00261-.00293.05143-.07112.00456-.0057.10807-.14893.00325-.0052.05079-.07015.0039-.00537.10742-.15023.00261-.00391c.01693-.0236.03385-.04671.05013-.07047l.00521-.00668c.03515-.05013.071-.10058.10612-.15088l.0013-.00179c.01823-.02539.03581-.05045.05338-.07584l.00066-.00049c.05338-.077.10742-.1543.1608-.23145l.00065-.00114a44.97105,44.97105,0,0,0,6.50912-14.19726,10.676,10.676,0,0,0-10.32748-13.36589Z" style="fill:#0d9f00"/><path d="M242.87522,154.51029l64.628,67.6596a42.66668,42.66668,0,0,0,30.16989,12.49678H384a21.33331,21.33331,0,0,0,21.33331-21.33332v0A21.33331,21.33331,0,0,0,384,192H352a21.33331,21.33331,0,0,1-17.06665-8.53332l-49.82027-65.58909a28.02577,28.02577,0,0,0-42.23781-3.00175l0,.00005A28.02575,28.02575,0,0,0,242.87522,154.51029Z" style="fill:#ff9c5e"/><path d="M291.49414,133.256a10.66757,10.66757,0,0,0-8.48633,17.11931l12.9043,16.98811a10.66659,10.66659,0,0,0,17.00391-12.883l-12.93881-17.03418a10.64765,10.64765,0,0,0-8.48307-4.19027Z" style="fill:#ffceaf"/><path d="M394.65625,405.33333A10.65171,10.65171,0,0,1,384.32292,397.25L341.65625,226.58333a10.66146,10.66146,0,1,1,20.6875-5.16666l42.66667,170.66666a10.68055,10.68055,0,0,1-10.35417,13.25Z" style="fill:#ff690b"/><path d="M354.65625,245.33333A10.65171,10.65171,0,0,1,344.32292,237.25l-2.66667-10.66667a10.66146,10.66146,0,1,1,20.6875-5.16666l2.66667,10.66666a10.68055,10.68055,0,0,1-10.35417,13.25Z" style="fill:#d34000"/><path d="M262.67513,106.66667A28.02636,28.02636,0,0,0,242.875,154.51025h0l.00521.0057.0039.00423.03842.0402.01692.01758.00651.00651.04818.05062.03646.03841.013.01319.00846.00895.01433.01546.01888.01937.0358.0376.002.00228.015.01578.02344.02393.04622.04866.01367.01465.002.00179.04427.04639.0293.03076.00911.00944.0345.03613.01628.01709.05729.05957v.00049l.0319.033.01172.01237.01367.014.03842.04036.00716.00765.06771.071.01757.01855.01368.01416.01432.01465.01562.01644v.00016l.0625.06527.01368.01416.03645.03841.04688.04948.08008.08317.015.01611.01237.0127.05143.0542.01237.013.38021.39795c.07227.07519.14844.155.22461.23535l.01237.01286.02083.02181.08789.09147.00586.00651.04362.04557.00651.007.14388.15039.04362.0459.03581.03711.07357.07747.02734.02849.02409.02539.11458.11995.01433.015.07031.07356.01432.01482.01823.0192.02084.02132.05533.05827.06641.06983.041.0428.0664.06966.0306.03142.03255.03466.03972.04118c.03255.03451.06445.06771.0983.1027l.015.01628c.12044.12581.24284.25391.36979.38672l.03125.03288c.07422.07747.14844.15559.22461.23518l.02995.03109.00651.007.05859.06169c.07943.08252.16016.16748.24154.25244l.0332.035c.03125.03272.06055.06364.09245.09652l.0039.00456.0612.06347.071.07455.04752.04948.1237.12988c.0306.0319.0599.06234.09049.09456l.00326.00375c.0319.0332.06315.06608.0957.09961l.01693.0179c.04362.04606.08854.09277.13281.13932l.01823.01872c.07357.07715.14909.15592.224.23486l.01107.01123c.04948.05225.10156.10645.15169.15935l.00326.00309c.06835.07178.13671.14306.20638.216l.62239.65153.02539.02653.09115.0957.00846.009.11.11507.00325.00342.04623.048c.20573.21582.41862.43848.63281.66309l.03125.03239c.11328.11848.22721.238.3431.35888l.02539.027.00781.0083.05469.057.26107.27327.13086.13737c.10026.10449.19791.207.29948.31315l.02929.03044c.013.01416.02735.02864.041.043l.0332.035.01693.0179.07617.07943c.14062.14714.2806.29427.42448.44434l.11849.124.00911.0096.10742.113c.08464.08838.17123.17855.25652.2679l.375.39307.01237.01286.07487.07812c.14062.14714.28059.29379.42317.44336l.05925.06218c.04036.04166.08268.08642.123.12825l.11394.11963.02278.02376.095.09978q.14162.14794.28386.2972l.069.07177.02018.021.03906.04134.03256.03386.13216.13867.00521.005.05794.061.02734.02864.30469.31853c.06445.06787.13021.13671.19531.20507l.00912.00928c.056.0586.11.11507.166.17383l.37956.39746.02474.02588.08008.08366c.12695.13265.25846.27034.38607.40429l.04557.04786.02409.02522.07161.07487c18.83008,19.71289,51.89,54.32357,51.89,54.32357a42.66687,42.66687,0,0,0,30.16992,12.49675H384a10.66667,10.66667,0,0,0,0-21.33334H337.67318a20.95912,20.95912,0,0,1-14.74349-5.89876l-64.97005-68.00928a6.7,6.7,0,0,1,0-9.46452A6.5463,6.5463,0,0,1,262.67513,128a10.66667,10.66667,0,1,0,0-21.33333Z" style="fill:#ff8d45"/><path d="M320,21.33333H266.66667A10.66636,10.66636,0,0,0,256,32c0,14.99374,42.66667,53.21543,104.6424,53.21543,16.17844,0,28.397-15.37293,21.30578-29.91447C374.04942,39.10348,352.4,21.33333,320,21.33333Z" style="fill:#30bf00"/><path d="M341.332,84.04883a10.66732,10.66732,0,0,0-1.27409,21.25651q4.77443.58056,9.71615.89876c.23047.01465.46029.022.6875.022a10.66685,10.66685,0,0,0,.66732-21.31217q-3.13086-.19921-6.1862-.52344l-.01758-.002-.153-.01611-.00912-.001-.07487-.00814-.03385-.00358-.10157-.01107-.05794-.00618-.054-.006-.08269-.009-.04687-.0052-.08529-.00944-.04167-.00456-.10742-.01188-.01888-.00212-.10091-.01139-.026-.00293-.11784-.01335-.01042-.00114-.11458-.013-.015-.00179-.1224-.014-.00911-.001c-.08138-.00944-.17123-.01986-.25261-.02946l-.00716-.00082c-.17383-.02034-.3444-.04069-.51758-.06152l-.0013-.00016-.13151-.016a10.7976,10.7976,0,0,0-1.29948-.07894Z" style="fill:#ff690b"/><path d="M302.35156,50.85042a10.6683,10.6683,0,0,0-4.60547,20.29379,142.9543,142.9543,0,0,0,24.7474,9.09684l.00065.00032c.48372.12875.9668.255,1.45378.37972l.00325.00065c.20182.0516.403.10271.60612.15349l.00651.00179c.08008.02018.15951.04.24024.06006l.0013.00032c.08008.02.16146.0402.24219.06022l.00325.00082.12044.02962.00261.00081c.08073.01986.16015.03939.24088.05909l.00651.00146c.07943.01953.16016.03923.23959.05859l.00521.00114c.08072.0197.16276.03955.24349.05909h.00065l.12239.02962h.00065c.08138.01953.16341.03922.24479.05843l.00391.00114.24024.057.00781.002.11979.02816.00195.00048.1211.02849.0026.00048.11914.028.00846.00195c.08008.01872.15821.037.23829.0555l.00911.00212c.08008.01855.16146.03743.24219.05583l.00325.00081q.18458.04248.36914.08447l.00521.00114c.082.01856.16341.037.24479.0555l.00261.00049c.08333.01872.16341.03679.24674.05534l.00261.00065.12044.02686.00911.00195c.08073.01807.15886.03532.23959.05322l.01041.00228q.11915.02637.23829.05241l.01106.00244c.082.01791.16211.03548.24414.05322l.00261.00066.12109.0262.00977.00212.11849.02555.0013.00016.11784.02539.01432.0031c.08008.01725.15885.034.23893.05094l.00912.00211.11979.0254.00781.00162.11784.02491.00391.00081.11979.02523.01172.00244c.07877.0166.1582.0332.23763.04964l.01562.00326.24089.05.00651.00131.12174.02506.00651.0013c.041.00847.08008.01628.12045.02474l.0026.00049.12174.02474.00912.002c.082.0166.16146.03272.24349.04916l.00911.00195.12045.02425.00716.00147.11588.02327.00977.00179.11914.02376.01042.00212c.08073.01611.16211.03223.24283.04818l.01107.00211c.082.01612.16146.03174.24414.04769l.00847.00179c.08268.01612.166.03239.24869.04834l.00391.00065.123.02377.00781.00162.24414.04672.01367.0026.24545.04655.0052.001.12435.02343.00521.001c.08268.01563.16471.03092.2474.04622l.01237.00245c.08138.01513.16341.03027.24479.04524l.00911.00163c.08138.015.16146.02979.24349.0446l.015.00276.11914.02165.01041.002.11784.02133.00586.001.11914.02149.01628.00293.11979.02148.0026.00049.11654.02083.01823.00309.11914.02116.00716.00131.11654.0205.01107.002.11979.021.01367.00244c.08073.01416.16276.02849.24349.04248l.01432.00245.24089.0415.01758.00293.11979.02067.00781.00114.12044.02051.00651.00114.1211.0205.015.00261c.08138.01351.16081.02685.24219.04053l.01693.00276.11979.02.00716.00114c.03971.00651.07617.0127.11588.019l.015.00261.11653.0192.02149.00342.11068.01807.00781.0013.11849.01937.02083.00342.23828.03841.02018.00325.1198.019.00716.00114.11849.01888.01041.00162.1211.01921.015.00228.12044.019.002.00016.12239.01921.01628.00244.24609.03825.01237.00179.1224.01872.01172.00179.12044.01839.00391.00065.125.019.01237.00179c.082.01237.16341.02458.24544.03679l.01953.00293.11979.0179.00781.00114.11654.01725.015.00212.12045.01774.01562.00228.11133.01628.01432.00211.11719.01709.02279.00326.23893.03434.02279.00325.11849.01677.01237.00179.11458.01627.013.00179.12044.01709.01823.00245.11719.01627.00521.00082.11979.0166.02344.00325c.08007.01107.16145.0223.24153.03321l.01953.0026.11914.01628.01628.00211.10742.01449.02084.00293.11849.01579.01888.0026c.08138.01074.16471.02181.24609.03271l.01628.002.123.01627.00651.00082.11784.01546.01758.00212.12044.01578.01628.002.11588.015.00912.00114.11914.0153.026.00325.23893.03011.026.00326.11849.01481.00977.00114.11328.01416.01953.00244.11849.01449.02214.00276.10807.01319.01693.00211.11784.01416.02408.00293.11914.01433.00847.001.11328.01368.02344.00276.11914.014.01823.00228.10807.01253.02018.00244.11849.01384.02214.0026c.08138.00944.16276.01872.24349.028l.02278.0026.12305.014.00195.00016.11719.01335.02669.00293.11914.01334.015.00163.11263.01253.01627.00179.1211.01335.02083.00228.11524.01253.00976.00114.11914.01286.02669.00293.11784.01269.015.00147.11067.01188.02084.00212.11849.01253.02409.0026.11132.01156.01237.0013.12175.01253.02344.00244c.08138.00847.1608.01661.24283.02491l.0254.0026.12109.012.01237.00131.11328.01139.02083.00195.11784.01172.028.00277.10416.01025.01823.00179.11589.01123.0319.0031.11719.01123.00911.001.11524.01091.02408.00228.11849.01123.02344.00211.10612.00993.02018.00195.11784.01075.0293.00276.10742.00977.015.00146.11654.01058.03255.00293.11784.01058.01107.001.11133.00976.02669.00245.11979.01041.01953.00179.11133.00961.01758.00162.12239.01042.02084.00179c.08268.00716.16732.01432.25.02116l.02213.002.12045.00993.02213.00179.10547.00879.02409.002.12109.00977.01953.00163.11654.00944.01172.00081.12109.00977.0267.002.12369.00977h0l.1224.0096.02539.00179.1237.0096.01041.00065.11654.00895.02083.00147.1211.00911.02213.00163.1224.00912.00325.00016.12435.00911.02539.00179.1224.00879.01107.00082.11328.00813.02669.00179.11849.00831.02539.00179.10677.00748.02149.00147.11849.008.02864.002q.123.0083.2461.01643l.02734.0018.12175.008.01432.001.112.00716.02539.00179.11979.00749.02539.00162.112.007.01367.001.12175.00749.02929.00179.11524.007.01758.001.11718.007.02084.0013.125.00733.01627.001.11654.00684.01562.00081.12435.00716.02474.00131.11459.00651.01237.00065.123.00683.02735.00147.12369.00667.00717.00033.11458.00618.03125.00163.11914.00618.02344.00131.10872.00553.02214.00114.12239.00618.02409.00131.11589.00569.01237.00049.12239.006.02669.00131.1237.00586.01432.00065.11394.00537.02474.00114.12109.00553.02669.0013.10808.00472.02018.001.12044.00537.0293.00114.11979.00521.00781.00032.12044.005.02995.0013.123.00505.01432.00049.11459.00472.02343.00081.1237.00488.02083.00082.11849.00455.013.00049.1263.00472.02278.00082.12826.00472h0l.1263.00439.02474.001.123.00423.02148.00065.11524.00391.01692.00048.125.00407.026.001.11719.00358.01042.00033.12044.00374.03516.00114.12174.00358.00782.00032.12109.00342.02409.00065.12435.00358.02083.00049.11263.00309.02148.00049.123.00326.026.00065.12175.00309.00651.00016.125.00293.03.00082.11979.00277.02734.00048.10287.00244.02864.00049.12044.00261.0306.00065.10612.00211.02214.00049.12239.00244.02995.00049.12435.00228.00651.00016.11849.00212.0319.00049.11979.002.02735.00049.10286.00163.03125.00048.11979.0018.0293.00032.11393.00163.01368.00016.12565.00163.02669.00032.1263.00147.01237.00016.11589.0013.02864.00033.12435.00114.02018.00016.11654.00114.01823.00016.12435.001.02995.00016.11718.00082.01042.00016.12565.00081.02865.00017.12825.00065h.00391l.12435.00049.02474.00016.1263.00032.02148.00017.11328.00016.02279.00016.12435.00016h.21484l.0306-.00016h.01888l.026-.00016.01954-.00016.02539-.00017.02148-.00016.02344-.00016.02148-.00016.02344-.00033.02214-.00016.02539-.00033.01823-.00016.02734-.00049.01888-.00016.03255-.00065.01172-.00017.04492-.00081.01367-.00016.03191-.00065.01627-.00033.028-.00065.01953-.00033.02669-.00065.01888-.00048.02539-.00066.01888-.00048.028-.00082.01823-.00049.02408-.00065.02214-.00065.02344-.00065.02083-.00065.02669-.001.01758-.00049.03385-.00113.026-.001.02864-.001.02084-.00081.02408-.001.01954-.00081.026-.001.01888-.00081.026-.001.01953-.001.02409-.001.02213-.001.02344-.00114.02018-.00081.026-.0013.01888-.00082.02929-.00146.01433-.00082.0332-.00162.01237-.00065.04427-.00228.01107-.00065.0332-.00179.01953-.00114.02409-.00131.02474-.00146.01823-.00114.026-.00147.01888-.00113.02539-.00163.01758-.001.02669-.00179.01693-.00114.02734-.00163.01563-.001.02864-.002.01172-.00081.112-.00781.00456-.00033.0306-.00228.013-.001.0293-.00212.015-.00114.02734-.00211.01628-.00131.028-.00211.01628-.0013.026-.00212.01823-.00146.02734-.00212.013-.00114.03059-.0026.01107-.00082.1517-.01334.00781-.00066.0306-.00276.013-.0013.02734-.00245.01758-.00162.02669-.00261.015-.00146.02864-.00277.015-.00146.02864-.00277.015-.00147.02734-.00276.01628-.00163.02864-.00293.00521-.00049.11393-.012.00716-.00065.03451-.00375.00716-.00081.03385-.00374.00912-.001.03385-.00374.00912-.00114.0319-.00358.01172-.00131.03255-.00374.00781-.001.03516-.00407.00456-.00065c.08138-.00944.1621-.01937.24283-.02962l.00261-.00049.03776-.00472.0039-.00065.03711-.00472.00521-.00081.03711-.00489.00456-.00048.03711-.00505.00456-.00049c.10872-.01481.21679-.02995.32552-.04606h0q.22559-.03345.44922-.0708h0l.041-.00684h0a24.38622,24.38622,0,0,0,9.80664-3.96451l.002-.00147.0293-.02034.00261-.002.02864-.01953.00391-.00309.02929-.02018.00131-.0013.02994-.02068.00326-.00227c.0625-.04379.12435-.08757.1862-.13184l.00065-.00033.02864-.02067.00326-.00227.02539-.01823.00781-.0057.02409-.01742.00847-.006.02278-.01676.00977-.00668.02343-.01692.00847-.00651.02213-.01612.01172-.00846.02214-.01611v-.00033l.08789-.06478.00586-.0039.02669-.02019.00391-.0026.02409-.01807.00911-.00683.02083-.01546.01237-.009.01888-.01416.01433-.01123.01757-.013.01368-.01009.01888-.01448.013-.00977.01888-.01432.013-.00993.01888-.01432.00911-.007.04558-.03451.00716-.00586.01953-.01448.01367-.01058.01432-.01123.01823-.014.015-.01123.01627-.013.01693-.0127.01432-.01123.01758-.01383.015-.01188.01563-.01189.01758-.01367.015-.01188.01693-.013.01432-.01139.01758-.014.02214-.01742.02343-.01855.00782-.00635.02408-.01888.01042-.00862.02148-.01693.01172-.00895.01953-.01595.013-.01026.01953-.01562.01172-.00977.01953-.01579.01237-.00976.02018-.0166.01107-.00879.02343-.01905.00782-.006.0306-.02523.00065-.00032.06445-.0529.00456-.00374.02669-.022.00846-.007.02279-.01905.00911-.00732.02214-.01855.01042-.00863.02148-.01758.00977-.008.02083-.01758.01172-.00977.02148-.01823.00847-.00683.02539-.02165.00586-.00472c.043-.0363.084-.07113.1263-.10758l.00325-.00245.0293-.02522.00195-.00179.028-.02426.00521-.00406.028-.02474.00195-.00147c.07422-.06429.14714-.12793.22006-.193l.002-.00179.0306-.02686h0a22.85052,22.85052,0,0,0,1.84831-1.84668,10.66655,10.66655,0,0,0-15.92318-14.19694,2.93851,2.93851,0,0,1-2.18815.80957,125.10608,125.10608,0,0,1-53.70052-11.9873,10.621,10.621,0,0,0-4.5905-1.04444Z" style="fill:#0d9f00"/><rect x="298.66667" y="21.33333" width="42.66667" height="21.33333" rx="10.66666" ry="10.66666" style="fill:#8ae963"/><rect x="341.33333" y="192" width="42.66667" height="21.33333" rx="10.66666" ry="10.66666" style="fill:#ffceaf"/><circle cx="245.33333" cy="394.66667" r="10.66667" style="fill:#e4dbff"/><path d="M264.83655,362.66667h20.39084a18.646,18.646,0,0,1,17.68915,12.74961l13.4393,40.31789a18.646,18.646,0,0,1-4.50444,19.0811l0,0a18.646,18.646,0,0,1-26.36943,0L249.7516,399.08493a21.33331,21.33331,0,0,1,0-30.16986l0,0A21.33331,21.33331,0,0,1,264.83655,362.66667Z" style="fill:#0d9f00"/><path d="M309.75521,395.93229l-6.83854-20.51562a18.64464,18.64464,0,0,0-17.68881-12.75H264.83724a10.66667,10.66667,0,1,0,0,21.33333h18.45312l6.22657,18.67839a10.66651,10.66651,0,0,0,20.23828-6.7461Z" style="fill:#30bf00"/></g></svg>