<?xml version="1.0" ?><!DOCTYPE svg  PUBLIC '-//W3C//DTD SVG 1.1//EN'  'http://www.w3.org/Graphics/SVG/1.1/DTD/svg11.dtd'><svg enable-background="new 0 0 256 256" height="256px" id="Layer_1" version="1.1" viewBox="0 0 256 256" width="256px" xml:space="preserve" xmlns="http://www.w3.org/2000/svg" xmlns:xlink="http://www.w3.org/1999/xlink"><g><g><path d="M231.594,128c0,10.219-1.488,20.096-4.26,29.432c-9.811,33.064-35.721,59.271-68.6,69.506    c-9.713,3.025-20.039,4.656-30.734,4.656c-57.121,0-103.596-46.473-103.596-103.594S70.879,24.405,128,24.405    S231.594,70.879,231.594,128z" fill="#FCAE42"/><path d="M128,10.592C63.156,10.592,10.592,63.157,10.592,128c0,64.844,52.564,117.408,117.408,117.408    c64.842,0,117.408-52.564,117.408-117.408C245.408,63.157,192.842,10.592,128,10.592z M128,231.596    c-57.123,0-103.596-46.475-103.596-103.596C24.404,70.878,70.877,24.405,128,24.405c57.121,0,103.596,46.473,103.596,103.595    C231.596,185.121,185.121,231.596,128,231.596z" fill="#90CD62"/></g><defs><filter filterUnits="userSpaceOnUse" height="133.12" id="Adobe_OpacityMaskFilter" width="141.26" x="86.074" y="93.817"><feFlood result="back" style="flood-color:white;flood-opacity:1"/><feBlend in="SourceGraphic" in2="back" mode="normal"/></filter></defs><mask height="133.12" id="SVGID_1_" maskUnits="userSpaceOnUse" width="141.26" x="86.074" y="93.817"><g filter="url(#Adobe_OpacityMaskFilter)"><defs><filter filterUnits="userSpaceOnUse" height="133.12" id="Adobe_OpacityMaskFilter_1_" width="141.26" x="86.074" y="93.817"><feFlood result="back" style="flood-color:white;flood-opacity:1"/><feBlend in="SourceGraphic" in2="back" mode="normal"/></filter></defs><mask height="133.12" id="SVGID_1_" maskUnits="userSpaceOnUse" width="141.26" x="86.074" y="93.817"/><linearGradient gradientUnits="userSpaceOnUse" id="SVGID_2_" x1="201.6416" x2="99.4053" y1="200.792" y2="98.5557"><stop offset="0" style="stop-color:#FFFFFF"/><stop offset="1" style="stop-color:#B2B2B2"/></linearGradient><path d="M227.334,157.432c-9.811,33.064-35.721,59.271-68.6,69.506L95.41,163.613     l27.604-1.43l-36.939-35.066l19.258-19.3l-1.189-14l61.123,1.545L227.334,157.432z" fill="url(#SVGID_2_)" mask="url(#SVGID_1_)"/></g></mask><path d="M227.334,157.432c-9.811,33.064-35.721,59.271-68.6,69.506L95.41,163.613l27.604-1.43l-36.939-35.066   l19.258-19.3l-1.189-14l61.123,1.545L227.334,157.432z" fill="#E9A03D"/><path d="M130.359,80.752c-15.902,0-30.025,7.609-38.934,19.384l-6.631-3.661l1.281,30.643l26.055-15.539   l-6.799-3.758c6.08-6.996,15.031-11.429,25.027-11.429c18.316,0,33.168,14.848,33.168,33.167c0,18.316-14.852,33.164-33.168,33.164   c-12.488,0-23.359-6.908-29.02-17.109c-1.818-2.404-6.52-3.596-10.074-1.496c-4.256,2.516-4.25,8.225-2.311,11.281   c8.625,13.789,23.945,22.961,41.404,22.961c26.957,0,48.805-21.848,48.805-48.801C179.164,102.604,157.316,80.752,130.359,80.752z" fill="#2476BE"/></g></svg>