<?xml version="1.0" ?><svg enable-background="new 0 0 52 52" id="Layer_1" version="1.1" viewBox="0 0 52 52" xml:space="preserve" xmlns="http://www.w3.org/2000/svg" xmlns:xlink="http://www.w3.org/1999/xlink"><g><g><g><g><path d="M24.0050049,30.2099915c-1.6600342,0-3,1.3400269-3,3c0,1.6500244,1.3399658,3,3,3      c1.6499634,0,3-1.3499756,3-3C27.0050049,31.5500183,25.6549683,30.2099915,24.0050049,30.2099915z M24.0050049,34.2099915      c-0.5599976,0-1-0.4500122-1-1c0-0.5599976,0.4400024-1,1-1s1,0.4400024,1,1      C25.0050049,33.7599792,24.5549927,34.2099915,24.0050049,34.2099915z" fill="#0096E6"/></g></g><g><g><path d="M45.335022,22.1700134l-1.4100342-1.4199829l-7.4699707-7.4700317l-1.4200439-1.4099731      l-1.2599487-1.2700195L22.914978,21.4700012l-1.4199829,1.4099731l4.8900146,4.8900146      c0.9099731,0.9200439,1.4699707,2.1099854,1.5899658,3.3800049c0.0300293,0.3500366,0.0300293,0.710022,0,1.0599976      c-0.0100098,0.1799927-0.039978,0.3500366-0.0799561,0.5300293c-0.0200195,0.1300049-0.0500488,0.2600098-0.0900269,0.3899536      c-0.0499878,0.210022-0.1199951,0.4200439-0.210022,0.6300049c-0.0699463,0.1700439-0.1399536,0.3300171-0.2299805,0.4900513      c-0.25,0.4899902-0.5800171,0.9400024-0.9799805,1.3399658c-1.0499878,1.039978-2.4299927,1.6199951-3.9100342,1.6199951      c-1.4699707,0-2.8599854-0.5800171-3.8999634-1.6199951l-4.8800049-4.8800049l-0.6400146,1.1900024      c-0.1199951,0.2200317-0.2199707,0.4400024-0.3200073,0.6699829c-1.4400024,3.3600464-0.6900024,7.3600464,1.9299927,9.9700317      c1.710022,1.7199707,3.9899902,2.6699829,6.4200439,2.6699829c2.4199829,0,4.6999512-0.9500122,6.4099731-2.6699829      L46.6049805,23.440033L45.335022,22.1700134z M26.085022,41.1299744c-1.3400269,1.3400269-3.1100464,2.0800171-5,2.0800171      c-1.9000244,0-3.6700439-0.7399902-5.0100098-2.0800171c-1.8400269-1.8399658-2.5-4.5599976-1.7800293-7l2.8699951,2.8700562      c1.4100342,1.4199829,3.2999878,2.2099609,5.3099976,2.2099609s3.9000244-0.7799683,5.3200073-2.2099609      c0.3500366-0.3600464,0.6699829-0.7400513,0.9400024-1.1500244c0.1400146-0.2000122,0.2700195-0.4099731,0.3800049-0.6300049      c0.1199951-0.210022,0.2200317-0.4299927,0.3200073-0.6599731c0.2799683-0.6700439,0.460022-1.3900146,0.5299683-2.1300049      c0.0300293-0.25,0.0400391-0.5,0.0400391-0.75s-0.0100098-0.5-0.0400391-0.75      c-0.0699463-0.7399902-0.25-1.460022-0.5299683-2.1300049c-0.0999756-0.2300415-0.2000122-0.4500122-0.3200073-0.6600342      c-0.1099854-0.2199707-0.2399902-0.4299927-0.3800049-0.6300049c-0.2700195-0.4099731-0.5899658-0.789978-0.9400024-1.1499634      l-3.4699707-3.4700317l9.4500122-9.4599609l10,10.0100098L26.085022,41.1299744z" fill="#0096E6"/></g><g><path d="M43.7750244,23.440033L26.085022,41.1299744c-1.3400269,1.3400269-3.1100464,2.0800171-5,2.0800171      c-1.9000244,0-3.6700439-0.7399902-5.0100098-2.0800171c-1.8400269-1.8399658-2.5-4.5599976-1.7800293-7l2.8699951,2.8700562      c1.4100342,1.4199829,3.2999878,2.2099609,5.3099976,2.2099609s3.9000244-0.7799683,5.3200073-2.2099609      c0.3500366-0.3600464,0.6699829-0.7400513,0.9400024-1.1500244c0.1400146-0.2000122,0.2700195-0.4099731,0.3800049-0.6300049      c0.1199951-0.210022,0.2299805-0.4400024,0.3200073-0.6599731c0.2799683-0.6700439,0.460022-1.3900146,0.5299683-2.1300049      c0.0300293-0.25,0.0400391-0.5,0.0400391-0.75s-0.0100098-0.5-0.0400391-0.75      c-0.0699463-0.7399902-0.25-1.460022-0.5299683-2.1300049c-0.0900269-0.2200317-0.2000122-0.4500122-0.3200073-0.6600342      c-0.1099854-0.2199707-0.2399902-0.4299927-0.3800049-0.6300049c-0.2700195-0.4099731-0.5899658-0.789978-0.9400024-1.1499634      l-3.4699707-3.4700317l9.4500122-9.4599609L43.7750244,23.440033z" fill="#D0E8F9"/></g></g><g><g><path d="M40.1149902,6.7900085L33.625,13.2799988l0.1500244,0.1500244l10,10.0100098l0.1499634,0.1399536      l1.4100342-1.4099731l5.0799561-5.0800171L40.1149902,6.7900085z M43.9249878,20.7500305l-7.4699707-7.4700317      l3.6599731-3.6599731l6.3499756,6.3499756l1.1200562,1.1199951L43.9249878,20.7500305z" fill="#0096E6"/></g></g><g><g><rect fill="#0096E6" height="1.9997864" transform="matrix(0.7071068 -0.7071068 0.7071068 0.7071068 2.050391 36.5916214)" width="3.5904315" x="43.3999748" y="14.8208771"/></g></g><g><g><rect fill="#0096E6" height="1.9997864" transform="matrix(0.7071068 -0.7071068 0.7071068 0.7071068 3.6275575 32.7840042)" width="3.5904315" x="39.5923576" y="11.0132599"/></g></g></g><g><g><path d="M24.0050049,30.2099915c-1.6600342,0-3,1.3400269-3,3c0,1.6500244,1.3399658,3,3,3     c1.6499634,0,3-1.3499756,3-3C27.0050049,31.5500183,25.6549683,30.2099915,24.0050049,30.2099915z M24.0050049,34.2099915     c-0.5599976,0-1-0.4500122-1-1c0-0.5599976,0.4400024-1,1-1s1,0.4400024,1,1     C25.0050049,33.7599792,24.5549927,34.2099915,24.0050049,34.2099915z M24.0050049,30.2099915c-1.6600342,0-3,1.3400269-3,3     c0,1.6500244,1.3399658,3,3,3c1.6499634,0,3-1.3499756,3-3C27.0050049,31.5500183,25.6549683,30.2099915,24.0050049,30.2099915z      M24.0050049,34.2099915c-0.5599976,0-1-0.4500122-1-1c0-0.5599976,0.4400024-1,1-1s1,0.4400024,1,1     C25.0050049,33.7599792,24.5549927,34.2099915,24.0050049,34.2099915z M29.9649658,30.9300232     c-0.0699463-0.7399902-0.25-1.460022-0.5299683-2.1300049c-0.0999756-0.2300415-0.2000122-0.4500122-0.3200073-0.6600342     c-0.1099854-0.2199707-0.2399902-0.4299927-0.3800049-0.6300049c-0.2700195-0.4099731-0.5899658-0.789978-0.9400024-1.1499634     l-3.4699707-3.4700317l-1.4100342-1.4199829L12.2349854,10.7900085L1.585022,21.4300232l11.1499634,11.1399536     l1.5599976,1.5599976l2.8699951,2.8700562c1.4100342,1.4199829,3.2999878,2.2099609,5.3099976,2.2099609     s3.9000244-0.7799683,5.3200073-2.2099609c0.3500366-0.3600464,0.6699829-0.7400513,0.9400024-1.1500244     c0.1400146-0.2000122,0.2700195-0.4099731,0.3800049-0.6300049c0.1199951-0.210022,0.2200317-0.4299927,0.3200073-0.6599731     c0.2799683-0.6700439,0.460022-1.3900146,0.5299683-2.1300049c0.0300293-0.25,0.0400391-0.5,0.0400391-0.75     S29.9949951,31.1800232,29.9649658,30.9300232z M27.9749756,32.2099915     c-0.0100098,0.1799927-0.039978,0.3500366-0.0799561,0.5300293c-0.0200195,0.1300049-0.0500488,0.2600098-0.0900269,0.3899536     c-0.0499878,0.210022-0.1199951,0.4200439-0.210022,0.6300049c-0.0599976,0.1700439-0.1399536,0.3300171-0.2299805,0.4900513     c-0.25,0.4899902-0.5800171,0.9400024-0.9799805,1.3399658c-1.0499878,1.039978-2.4299927,1.6199951-3.9100342,1.6199951     c-1.4699707,0-2.8599854-0.5800171-3.8999634-1.6199951l-4.8800049-4.8800049L4.414978,21.4300232l7.8200073-7.8099976     l9.2600098,9.2599487l4.8900146,4.8900146c0.9099731,0.9200439,1.4699707,2.1099854,1.5899658,3.3800049     c0.0200195,0.1799927,0.0300293,0.3500366,0.0300293,0.5300293S27.9949951,32.0400085,27.9749756,32.2099915z      M24.0050049,30.2099915c-1.6600342,0-3,1.3400269-3,3c0,1.6500244,1.3399658,3,3,3c1.6499634,0,3-1.3499756,3-3     C27.0050049,31.5500183,25.6549683,30.2099915,24.0050049,30.2099915z M24.0050049,34.2099915c-0.5599976,0-1-0.4500122-1-1     c0-0.5599976,0.4400024-1,1-1s1,0.4400024,1,1C25.0050049,33.7599792,24.5549927,34.2099915,24.0050049,34.2099915z      M24.0050049,30.2099915c-1.6600342,0-3,1.3400269-3,3c0,1.6500244,1.3399658,3,3,3c1.6499634,0,3-1.3499756,3-3     C27.0050049,31.5500183,25.6549683,30.2099915,24.0050049,30.2099915z M24.0050049,34.2099915c-0.5599976,0-1-0.4500122-1-1     c0-0.5599976,0.4400024-1,1-1s1,0.4400024,1,1C25.0050049,33.7599792,24.5549927,34.2099915,24.0050049,34.2099915z      M24.0050049,30.2099915c-1.6600342,0-3,1.3400269-3,3c0,1.6500244,1.3399658,3,3,3c1.6499634,0,3-1.3499756,3-3     C27.0050049,31.5500183,25.6549683,30.2099915,24.0050049,30.2099915z M24.0050049,34.2099915c-0.5599976,0-1-0.4500122-1-1     c0-0.5599976,0.4400024-1,1-1s1,0.4400024,1,1C25.0050049,33.7599792,24.5549927,34.2099915,24.0050049,34.2099915z" fill="#0096E6"/></g></g><g><g><path d="M24.0050049,30.2099915c-1.6600342,0-3,1.3400269-3,3c0,1.6500244,1.3399658,3,3,3     c1.6499634,0,3-1.3499756,3-3C27.0050049,31.5500183,25.6549683,30.2099915,24.0050049,30.2099915z M24.0050049,34.2099915     c-0.5599976,0-1-0.4500122-1-1c0-0.5599976,0.4400024-1,1-1s1,0.4400024,1,1     C25.0050049,33.7599792,24.5549927,34.2099915,24.0050049,34.2099915z" fill="#0096E6"/></g></g><g><g><path d="M24.0050049,30.2099915c-1.6600342,0-3,1.3400269-3,3c0,1.6500244,1.3399658,3,3,3     c1.6499634,0,3-1.3499756,3-3C27.0050049,31.5500183,25.6549683,30.2099915,24.0050049,30.2099915z M24.0050049,34.2099915     c-0.5599976,0-1-0.4500122-1-1c0-0.5599976,0.4400024-1,1-1s1,0.4400024,1,1     C25.0050049,33.7599792,24.5549927,34.2099915,24.0050049,34.2099915z" fill="#0096E6"/></g><g><path d="M25.0050049,33.2099915c0,0.5499878-0.4500122,1-1,1c-0.5599976,0-1-0.4500122-1-1     c0-0.5599976,0.4400024-1,1-1S25.0050049,32.6499939,25.0050049,33.2099915z" fill="#D0E8F9"/></g></g></g></svg>