<?xml version="1.0" encoding="iso-8859-1"?>
<!-- Generator: Adobe Illustrator 19.0.0, SVG Export Plug-In . SVG Version: 6.00 Build 0)  -->
<svg version="1.1" id="Layer_1" xmlns="http://www.w3.org/2000/svg" xmlns:xlink="http://www.w3.org/1999/xlink" x="0px" y="0px"
	 viewBox="0 0 512.001 512.001" style="enable-background:new 0 0 512.001 512.001;" xml:space="preserve">
<path style="fill:#FFC843;" d="M256.001,504.016c-22.868,0-48.747-9.196-76.916-27.331c-22.874-14.726-46.123-34.575-67.232-57.399
	c-22.783-24.632-42.067-51.792-55.766-78.54c-17.033-33.256-25.669-65.783-25.669-96.676V76.074
	c0-37.546,30.546-68.089,68.089-68.089h314.987c37.545,0,68.089,30.544,68.089,68.089v167.997c0,30.893-8.635,63.418-25.668,96.676
	c-13.7,26.75-32.983,53.909-55.766,78.54C381.765,439.164,317.039,504.016,256.001,504.016z"/>
<path style="fill:#D49000;" d="M82.951,244.071V76.074c0-8.555,7.001-15.555,15.555-15.555h314.988c8.555,0,15.553,7,15.553,15.555
	v167.997c0,95.572-122.23,207.411-173.047,207.411S82.951,339.642,82.951,244.071z"/>
<path style="fill:#333E48;" d="M325.908,196.028h-34.067c0-19.763-16.078-35.84-35.84-35.84c-19.763,0-35.84,16.077-35.84,35.84
	h-34.067c0-38.546,31.359-69.907,69.907-69.907C294.548,126.122,325.908,157.482,325.908,196.028z"/>
<path style="opacity:0.2;enable-background:new    ;" d="M186.094,196.028h34.067c0-4.972,1.019-9.709,2.857-14.016h-35.51
	C186.582,186.542,186.094,191.229,186.094,196.028z M324.494,182.012h-35.51c1.839,4.307,2.857,9.045,2.857,14.016h34.067
	C325.908,191.229,325.42,186.542,324.494,182.012z"/>
<path style="fill:#5C6670;" d="M343.284,211.997c0-8.783-7.186-15.969-15.969-15.969H184.686c-8.783,0-15.969,7.186-15.969,15.969
	v108.232c0,8.783,7.186,15.969,15.969,15.969h142.629c8.783,0,15.969-7.186,15.969-15.969L343.284,211.997L343.284,211.997z"/>
<g>
	<path style="fill:#FFFFFF;" d="M98.507,60.519c-8.555,0-15.555,7-15.555,15.555v57.936c40.587,0,73.491-32.903,73.491-73.49
		C156.444,60.519,98.507,60.519,98.507,60.519z"/>
	<path style="fill:#FFFFFF;" d="M413.494,60.519c8.555,0,15.555,7,15.555,15.555v57.936c-40.587,0-73.49-32.903-73.49-73.49
		C355.558,60.519,413.494,60.519,413.494,60.519z"/>
	<path style="fill:#FFFFFF;" d="M256.001,402.672c-22.102,0-41.909,9.771-55.383,25.211c21.232,14.787,41.119,23.599,55.383,23.599
		c14.261,0,34.15-8.812,55.382-23.599C297.909,412.443,278.102,402.672,256.001,402.672z"/>
</g>
<path style="opacity:0.1;enable-background:new    ;" d="M413.494,60.519H98.507c-8.555,0-15.555,7-15.555,15.555v12.648
	c0-8.555,7.001-15.556,15.555-15.556h314.987c8.555,0,15.553,7.001,15.553,15.556V76.074
	C429.048,67.519,422.049,60.519,413.494,60.519z"/>
<path style="fill:#1E252B;" d="M333.549,188.872c-3.627-39.606-37.014-70.735-77.549-70.735s-73.922,31.129-77.549,70.735
	c-10.194,2.751-17.719,12.073-17.719,23.125v108.232c0,13.208,10.745,23.953,23.953,23.953h142.629
	c13.207,0,23.953-10.745,23.953-23.953V211.997C351.268,200.946,343.744,191.623,333.549,188.872z M256.001,134.106
	c31.437,0,57.46,23.555,61.39,53.938h-18.308c-3.765-20.364-21.645-35.84-43.082-35.84s-39.317,15.476-43.082,35.84h-18.308
	C198.542,157.66,224.564,134.106,256.001,134.106z M282.685,188.044h-53.368c3.442-11.48,14.099-19.871,26.684-19.871
	C268.585,168.173,279.243,176.564,282.685,188.044z M335.299,320.229c0,4.402-3.581,7.984-7.984,7.984H184.686
	c-4.403,0-7.984-3.582-7.984-7.984V211.997c0-4.402,3.581-7.984,7.984-7.984h142.629c4.403,0,7.984,3.582,7.984,7.984
	L335.299,320.229L335.299,320.229z M413.494,52.535H98.507c-12.979,0-23.539,10.56-23.539,23.539v167.997
	c0,44.312,25.365,97.15,69.591,144.966c38.963,42.125,83.747,70.429,111.442,70.429s72.479-28.303,111.442-70.429
	c44.225-47.816,69.589-100.654,69.589-144.966V76.074C437.033,63.094,426.473,52.535,413.494,52.535z M421.064,244.071
	c0,40.339-23.817,89.225-65.345,134.123c-34.997,37.839-76.935,65.303-99.718,65.303s-64.721-27.464-99.719-65.303
	c-41.527-44.899-65.345-93.785-65.345-134.123V76.074c0-4.174,3.396-7.57,7.57-7.57h314.987c4.174,0,7.569,3.396,7.569,7.57v167.997
	H421.064z M413.494,0H98.507C56.559,0,22.433,34.126,22.433,76.074v167.997c0,32.172,8.932,65.922,26.546,100.314
	c14.026,27.388,33.74,55.163,57.011,80.323c21.56,23.312,45.34,43.606,68.772,58.691c29.479,18.978,56.811,28.602,81.238,28.602
	c64.283,0,131.071-66.815,150.01-87.293c23.269-25.157,42.982-52.932,57.011-80.323c17.615-34.392,26.545-68.143,26.545-100.315
	V76.074C489.568,34.126,455.441,0,413.494,0z M473.599,244.071c0,29.617-8.341,60.917-24.791,93.036
	c-13.374,26.112-32.226,52.655-54.52,76.759c-9.674,10.46-29.664,30.701-54.866,48.749c-30.964,22.174-59.031,33.418-83.42,33.418
	c-21.311,0-45.734-8.768-72.594-26.06c-22.317-14.368-45.033-33.768-65.693-56.108c-22.297-24.105-41.149-50.648-54.521-76.759
	c-16.45-32.118-24.791-63.42-24.791-93.036V76.074c0-33.141,26.963-60.105,60.105-60.105h314.987
	c33.142,0,60.105,26.964,60.105,60.105L473.599,244.071L473.599,244.071z M256.001,232.758c-11.955,0-21.646,9.692-21.646,21.646
	c0,9.132,5.663,16.927,13.662,20.107v29.22h15.969v-29.22c7.999-3.18,13.662-10.975,13.662-20.107
	C277.647,242.448,267.955,232.758,256.001,232.758z"/>
<g>
</g>
<g>
</g>
<g>
</g>
<g>
</g>
<g>
</g>
<g>
</g>
<g>
</g>
<g>
</g>
<g>
</g>
<g>
</g>
<g>
</g>
<g>
</g>
<g>
</g>
<g>
</g>
<g>
</g>
</svg>
