<svg xmlns="http://www.w3.org/2000/svg" xml:space="preserve" viewBox="0 0 512.001 512.001"><path d="M256.001 504.016c-22.868 0-48.747-9.196-76.916-27.331-22.874-14.726-46.123-34.575-67.232-57.399-22.783-24.632-42.067-51.792-55.766-78.54-17.033-33.256-25.669-65.783-25.669-96.676V76.074c0-37.546 30.546-68.089 68.089-68.089h314.987c37.545 0 68.089 30.544 68.089 68.089v167.997c0 30.893-8.635 63.418-25.668 96.676-13.7 26.75-32.983 53.909-55.766 78.54-18.384 19.877-83.11 84.729-144.148 84.729" style="fill:#FFC843"/><path d="M82.951 244.071V76.074c0-8.555 7.001-15.555 15.555-15.555h314.988c8.555 0 15.553 7 15.553 15.555v167.997c0 95.572-122.23 207.411-173.047 207.411S82.951 339.642 82.951 244.071" style="fill:#D49000"/><path d="M325.908 196.028h-34.067c0-19.763-16.078-35.84-35.84-35.84-19.763 0-35.84 16.077-35.84 35.84h-34.067c0-38.546 31.359-69.907 69.907-69.907 38.547.001 69.907 31.361 69.907 69.907" style="fill:#333E48"/><path d="M186.094 196.028h34.067c0-4.972 1.019-9.709 2.857-14.016h-35.51c-.926 4.53-1.414 9.217-1.414 14.016m138.4-14.016h-35.51c1.839 4.307 2.857 9.045 2.857 14.016h34.067c0-4.799-.488-9.486-1.414-14.016" style="opacity:0.2"/><path d="M343.284 211.997c0-8.783-7.186-15.969-15.969-15.969H184.686c-8.783 0-15.969 7.186-15.969 15.969v108.232c0 8.783 7.186 15.969 15.969 15.969h142.629c8.783 0 15.969-7.186 15.969-15.969z" style="fill:#5C6670"/><path d="M98.507 60.519c-8.555 0-15.555 7-15.555 15.555v57.936c40.587 0 73.491-32.903 73.491-73.49.001-.001-57.936-.001-57.936-.001m314.987 0c8.555 0 15.555 7 15.555 15.555v57.936c-40.587 0-73.49-32.903-73.49-73.49-.001-.001 57.935-.001 57.935-.001M256.001 402.672c-22.102 0-41.909 9.771-55.383 25.211 21.232 14.787 41.119 23.599 55.383 23.599 14.261 0 34.15-8.812 55.382-23.599-13.474-15.44-33.281-25.211-55.382-25.211" style="fill:#FFFFFF"/><path d="M413.494 60.519H98.507c-8.555 0-15.555 7-15.555 15.555v12.648c0-8.555 7.001-15.556 15.555-15.556h314.987c8.555 0 15.553 7.001 15.553 15.556V76.074c.001-8.555-6.998-15.555-15.553-15.555" style="opacity:0.1"/><path d="M333.549 188.872c-3.627-39.606-37.014-70.735-77.549-70.735s-73.922 31.129-77.549 70.735c-10.194 2.751-17.719 12.073-17.719 23.125v108.232c0 13.208 10.745 23.953 23.953 23.953h142.629c13.207 0 23.953-10.745 23.953-23.953V211.997c.001-11.051-7.523-20.374-17.718-23.125m-77.548-54.766c31.437 0 57.46 23.555 61.39 53.938h-18.308c-3.765-20.364-21.645-35.84-43.082-35.84s-39.317 15.476-43.082 35.84h-18.308c3.931-30.384 29.953-53.938 61.39-53.938m26.684 53.938h-53.368c3.442-11.48 14.099-19.871 26.684-19.871 12.584 0 23.242 8.391 26.684 19.871m52.614 132.185c0 4.402-3.581 7.984-7.984 7.984H184.686c-4.403 0-7.984-3.582-7.984-7.984V211.997c0-4.402 3.581-7.984 7.984-7.984h142.629c4.403 0 7.984 3.582 7.984 7.984zm78.195-267.694H98.507c-12.979 0-23.539 10.56-23.539 23.539v167.997c0 44.312 25.365 97.15 69.591 144.966 38.963 42.125 83.747 70.429 111.442 70.429s72.479-28.303 111.442-70.429c44.225-47.816 69.589-100.654 69.589-144.966V76.074c.001-12.98-10.559-23.539-23.538-23.539m7.57 191.536c0 40.339-23.817 89.225-65.345 134.123-34.997 37.839-76.935 65.303-99.718 65.303s-64.721-27.464-99.719-65.303c-41.527-44.899-65.345-93.785-65.345-134.123V76.074c0-4.174 3.396-7.57 7.57-7.57h314.987c4.174 0 7.569 3.396 7.569 7.57v167.997zM413.494 0H98.507C56.559 0 22.433 34.126 22.433 76.074v167.997c0 32.172 8.932 65.922 26.546 100.314 14.026 27.388 33.74 55.163 57.011 80.323 21.56 23.312 45.34 43.606 68.772 58.691 29.479 18.978 56.811 28.602 81.238 28.602 64.283 0 131.071-66.815 150.01-87.293 23.269-25.157 42.982-52.932 57.011-80.323 17.615-34.392 26.545-68.143 26.545-100.315V76.074C489.568 34.126 455.441 0 413.494 0m60.105 244.071c0 29.617-8.341 60.917-24.791 93.036-13.374 26.112-32.226 52.655-54.52 76.759-9.674 10.46-29.664 30.701-54.866 48.749-30.964 22.174-59.031 33.418-83.42 33.418-21.311 0-45.734-8.768-72.594-26.06-22.317-14.368-45.033-33.768-65.693-56.108-22.297-24.105-41.149-50.648-54.521-76.759-16.45-32.118-24.791-63.42-24.791-93.036V76.074c0-33.141 26.963-60.105 60.105-60.105h314.987c33.142 0 60.105 26.964 60.105 60.105zm-217.598-11.313c-11.955 0-21.646 9.692-21.646 21.646 0 9.132 5.663 16.927 13.662 20.107v29.22h15.969v-29.22c7.999-3.18 13.662-10.975 13.662-20.107-.001-11.956-9.693-21.646-21.647-21.646" style="fill:#1E252B"/></svg>