<?xml version="1.0" encoding="iso-8859-1"?>
<!-- Generator: Adobe Illustrator 19.0.0, SVG Export Plug-In . SVG Version: 6.00 Build 0)  -->
<svg version="1.1" id="Layer_1" xmlns="http://www.w3.org/2000/svg" xmlns:xlink="http://www.w3.org/1999/xlink" x="0px" y="0px"
	 viewBox="0 0 512 512" style="enable-background:new 0 0 512 512;" xml:space="preserve">
<path style="fill:#A88D68;" d="M347.498,503.916H88.926c-11.906,0-21.558-9.651-21.558-21.558v-97.011h301.688v97.011
	C369.056,494.264,359.405,503.916,347.498,503.916z"/>
<path style="fill:#B79C79;" d="M369.056,363.789v43.116c0,11.906-9.651,21.558-21.558,21.558H88.926
	c-11.906,0-21.558-9.651-21.558-21.558v-43.116c0-11.906,9.651-21.558,21.558-21.558h258.572
	C359.405,342.231,369.056,351.883,369.056,363.789z"/>
<path style="fill:#93795A;" d="M369.056,385.347v97.011c0,11.906-9.647,21.558-21.549,21.558h-26.86V385.347H369.056z"/>
<path style="fill:#A88D68;" d="M369.056,363.789v43.116c0,11.906-9.647,21.558-21.549,21.558h-26.86v-86.232h26.86
	C359.409,342.231,369.056,351.883,369.056,363.789z"/>
<path style="fill:#8EC155;" d="M239.762,362.127v23.22h-37.613v-23.22c0-63.069,23.278-124.987,69.187-184.036
	c3.624-4.662,8.783-7.422,14.209-8.134c3.721,0.463,7.372,1.882,10.546,4.351c9.394,7.31,11.086,20.854,3.78,30.252
	C259.985,255.863,239.762,308.875,239.762,362.127z"/>
<path style="fill:#CAF893;" d="M212.901,362.127v23.22h-16.238v-23.22c0-63.069,23.278-124.987,69.187-184.036
	c1.068-1.374,2.283-2.563,3.586-3.604c9.204,7.348,10.825,20.749,3.574,30.074C233.125,255.863,212.901,308.875,212.901,362.127z"/>
<path style="fill:#8EC155;" d="M245.857,196.753L245.857,196.753c-10.567-22.669-2.5-49.662,18.77-62.809l86.506-53.47
	c31.201-19.285,72.233-7.013,87.733,26.24l0,0c15.5,33.253-1.478,72.587-36.3,84.102l-96.549,31.925
	C282.278,230.592,256.424,219.423,245.857,196.753z"/>
<path style="fill:#84AB4F;" d="M438.867,106.716c15.5,33.253-1.478,72.587-36.3,84.102l-96.549,31.925
	c-23.74,7.849-49.594-3.319-60.159-25.988l0,0c-7.282-15.623-5.712-33.297,2.929-47.08c11.901,19.01,35.452,27.825,57.232,20.622
	l96.549-31.925c16.683-5.517,29.254-17.425,36.136-31.984C438.755,106.498,438.815,106.604,438.867,106.716L438.867,106.716z"/>
<path style="fill:#AEEF66;" d="M232.156,178.635l-3.14-105.224c-1.133-37.952,31.093-68.389,68.901-65.08l0,0
	c37.808,3.309,64.26,38.883,56.557,76.061l-21.356,103.08c-5.252,25.345-28.633,42.746-54.408,40.49l0,0
	C252.934,225.706,232.928,204.508,232.156,178.635z"/>
<path style="fill:#B7F87A;" d="M306.065,84.391l-21.356,103.08c-3.161,15.258-12.897,27.626-25.766,34.571
	c-15.597-8.422-26.228-24.688-26.788-43.408l-3.14-105.224c-0.816-27.358,15.705-50.807,39.152-60.529
	C295.512,24.15,312.421,53.715,306.065,84.391z"/>
<path d="M347.528,334.146h-97.724c4.574-32.931,17.203-65.8,37.709-98.065c7.69-0.563,15.214-2.628,22.153-6.111
	c3.989-2.004,5.601-6.862,3.596-10.852c-2.004-3.991-6.865-5.6-10.853-3.596c-7.096,3.562-15.043,5.077-22.979,4.385
	c-11.846-1.037-22.246-6.832-29.353-15.425c-0.057-0.072-0.115-0.143-0.176-0.215c-5.8-7.107-9.36-16.096-9.653-25.876
	l-3.14-105.225c-0.472-15.789,5.844-31.063,17.327-41.903c11.476-10.834,27.083-16.261,42.791-14.884
	c15.719,1.376,30.138,9.428,39.559,22.09c9.428,12.672,12.997,28.81,9.793,44.278l-21.356,103.08
	c-0.906,4.372,1.905,8.65,6.277,9.557c4.371,0.9,8.651-1.904,9.557-6.277l21.358-103.081c4.14-19.984-0.471-40.836-12.651-57.208
	c-12.175-16.364-30.807-26.768-51.121-28.547c-20.322-1.782-40.473,5.233-55.302,19.233c-14.839,14.008-23,33.742-22.391,54.143
	l3.14,105.225c0.341,11.433,3.929,22.081,9.893,31.022c-30.125,49.28-45.392,100.466-45.392,152.231v15.136h-13.466
	c-4.466,0-8.085,3.62-8.085,8.084c0,4.465,3.62,8.084,8.085,8.084h75.428c4.466,0,8.085-3.62,8.085-8.084
	c0-4.465-3.62-8.084-8.085-8.084h-2.69v-15.136c0-3.936,0.115-7.874,0.347-11.813h99.323c7.425,0,13.465,6.044,13.465,13.474v43.116
	c0,7.43-6.041,13.474-13.465,13.474h-32.327c-4.466,0-8.085,3.62-8.085,8.084c0,4.465,3.62,8.084,8.085,8.084h32.327
	c4.845,0,9.423-1.17,13.465-3.24v49.053c0,7.43-6.041,13.474-13.465,13.474H88.92c-7.425,0-13.466-6.044-13.466-13.474v-8.084
	h78.118c4.466,0,8.085-3.62,8.085-8.084c0-4.465-3.62-8.084-8.085-8.084H75.454v-24.799c4.042,2.071,8.621,3.24,13.466,3.24h195.483
	c4.466,0,8.085-3.62,8.085-8.084s-3.62-8.084-8.085-8.084H88.92c-7.425,0-13.466-6.044-13.466-13.474v-43.116
	c0-7.43,6.042-13.474,13.466-13.474h76.774c4.466,0,8.085-3.62,8.085-8.084c0-4.465-3.62-8.084-8.085-8.084H88.92
	c-16.341,0-29.636,13.298-29.636,29.642v118.569C59.284,498.703,72.579,512,88.92,512h258.608c16.341,0,29.635-13.298,29.635-29.642
	V363.788C377.164,347.443,363.87,334.146,347.528,334.146z M232.678,341.394c-0.004,0.042-0.009,0.083-0.013,0.125
	c-0.65,6.866-0.974,13.735-0.974,20.607v15.136h-26.931v-15.136c0-47.296,13.625-94.226,40.518-139.641
	c6.875,5.752,15.089,9.975,24.138,12.134C248.409,269.651,236.1,305.447,232.678,341.394z M134.176,377.262
	c4.466,0,8.085,3.62,8.085,8.084c0,4.465-3.62,8.084-8.085,8.084h-2.155c-4.466,0-8.085-3.62-8.085-8.084
	c0-4.465,3.62-8.084,8.085-8.084H134.176z M447.034,160.129c-7.846,18.168-23.12,32.149-41.904,38.36l-64.583,21.354
	c-0.842,0.278-1.698,0.411-2.539,0.411c-3.393,0-6.553-2.151-7.676-5.549c-1.401-4.239,0.899-8.812,5.138-10.213l64.583-21.354
	c14.405-4.763,26.117-15.486,32.135-29.419c6.02-13.94,5.794-29.83-0.621-43.592c-7.7-16.519-23.099-27.832-41.194-30.263
	c-4.425-0.594-7.53-4.664-6.936-9.089c0.596-4.426,4.661-7.533,9.09-6.936c23.582,3.168,43.655,17.918,53.695,39.456
	C454.587,121.239,454.883,141.954,447.034,160.129z M263.481,463.495c4.466,0,8.085,3.62,8.085,8.084
	c0,4.465-3.62,8.084-8.085,8.084h-2.155c-4.466,0-8.085-3.62-8.085-8.084c0-4.465,3.62-8.084,8.085-8.084H263.481z M207.449,452.716
	c4.466,0,8.085,3.62,8.085,8.084s-3.62,8.084-8.085,8.084h-2.155c-4.466,0-8.085-3.62-8.085-8.084s3.62-8.084,8.085-8.084H207.449z"
	/>
<g>
</g>
<g>
</g>
<g>
</g>
<g>
</g>
<g>
</g>
<g>
</g>
<g>
</g>
<g>
</g>
<g>
</g>
<g>
</g>
<g>
</g>
<g>
</g>
<g>
</g>
<g>
</g>
<g>
</g>
</svg>
