<svg viewBox="0 0 48 48" xmlns="http://www.w3.org/2000/svg"><path d="m40.89 8.81c.46-5.61.66-6 .17-6.5-1-1-1.77.28-4.59 3.1a1 1 0 0 1 -1.42-1.41l3.11-3.11a3 3 0 0 1 4.31 0c1.33 1.33.87 2.45.41 8.08a1 1 0 0 1 -1.99-.16z" fill="#ffde76"/><path d="m27.61 11c-.56 0-.58-.17-2.84-2.35a5 5 0 1 1 7.06-7.09l2.26 2.23a1 1 0 0 1 -1.4 1.42l-2.27-2.21c-2.82-2.83-7.06 1.41-4.25 4.22l2.13 2.06a1 1 0 0 1 -.69 1.72z" fill="#ffde76"/><path d="m10.83 34.54c-4.67 1-8.06-2.41-7.07-7.08 4.8-.99 8.05 2.54 7.07 7.08z" fill="#9dcc6b"/><path d="m11 32.67a5.47 5.47 0 0 1 -6.4-5.34 5.47 5.47 0 0 1 6.4 5.34z" fill="#b5e08c"/><path d="m11.17 36.54c-1-4.52 2.25-8.08 7.07-7.08.99 4.67-2.4 8.06-7.07 7.08z" fill="#9dcc6b"/><path d="m17.4 29.33a5.47 5.47 0 0 1 -6.4 5.34 5.47 5.47 0 0 1 6.4-5.34z" fill="#b5e08c"/><path d="m19 47h-16a8.61 8.61 0 0 1 16 0z" fill="#a87e6b"/><path d="m17.89 45h-8.89a1.67 1.67 0 0 1 -1.25-2.79 8.13 8.13 0 0 1 3.25-.63 8.5 8.5 0 0 1 6.89 3.42z" fill="#be927c"/><path d="m10 42v-9a1 1 0 0 1 2 0v9a1 1 0 0 1 -2 0z" fill="#be927c"/><path d="m44.12 14.73-6.2 6.2a3 3 0 0 1 -4.6-.43l-7.15-10.45 7.07-7.05c11.41 7.8 10.9 7.32 11.35 8.13a3 3 0 0 1 -.47 3.6z" fill="#f16f39"/><path d="m44.92 11.93-1.29 1.29a8.53 8.53 0 0 1 -13.07-1.22l-2.56-3.76 5.24-5.24c11.43 7.8 11.31 7.4 11.68 8.93z" fill="#f8834b"/><path d="m9 25c-1.33 0-1-1.36-1-5a6 6 0 0 1 6-6h1a1 1 0 0 1 0 2h-1a4 4 0 0 0 -4 4c0 3.58.35 5-1 5z" fill="#b2e5fb"/><path d="m13 27a1 1 0 0 1 -1-1v-5c0-3 4-3.92 4-2 0 1.55-2 .45-2 2 0 4.72.34 6-1 6z" fill="#b2e5fb"/><path d="m32.29 19h-9.29l-4 2v-8l4 2h6.56c1.65 2.4 1.02 1.48 2.73 4z" fill="#fc6"/><path d="m30.93 17c-6.05 0-7 .05-6.93 0a2.76 2.76 0 0 1 -4-2.47v-1c3.78 1.89 1.69 1.5 9.56 1.5z" fill="#ffde76"/></svg>