<svg xmlns="http://www.w3.org/2000/svg" viewBox="0 0 32 32"><defs><style>.cls-1{fill:#568c78}.cls-2{fill:#f2d8c2}</style></defs><title/><g id="Layer_5" data-name="Layer 5"><circle cx="7" cy="7" r="5" class="cls-1"/><circle cx="15" cy="8" r="4" class="cls-1"/><rect width="17.96" height="13" x="2" y="11" class="cls-2" rx="1"/><path d="M29.59 11.21a1 1 0 0 0-.89-.15l-9.42 3A1 1 0 0 0 18 15v5.06a1 1 0 0 0 .72 1l10 2.94a.9.9 0 0 0 .28 0 1 1 0 0 0 .6-.2 1 1 0 0 0 .4-.8V12a1 1 0 0 0-.41-.79" class="cls-2"/></g></svg>