<!-- icon666.com - MILLIONS OF FREE VECTOR ICONS --><svg viewBox="0 0 64 64" xmlns="http://www.w3.org/2000/svg"><g id="Color"><path d="m51.715 58.594h-48.162v-37.33h30.445 17.717z" fill="#fb8500"></path><path d="m49.519 21.264v32.675a2.458 2.458 0 0 1 -2.458 2.461h-3.2v2.2h7.858v-37.336z" fill="#ce5800"></path><path d="m39.367 9.634h-11.733-20.994l-4.531 11.63h25.525 6.364z" fill="#00b4d8"></path><path d="m43.764 33.519v25.075h-32.26v-37.33h22.494l10.073 1.807z" fill="#ce5800"></path><circle cx="47.604" cy="20.463" fill="#00b4d8" r="13.606"></circle><path d="m56.032 18.388-6.092-.019.882-10.66-11.645 14.434 5.945-.015-1.055 11.09z" fill="#ffb703"></path><path d="m9.308 21.264v32.675a2.458 2.458 0 0 1 -2.458 2.461h-3.3v2.2h7.95v-37.336z" fill="#ce5800"></path></g><g id="Line" fill="#381d07"><path d="m51.715 59.594h-48.162a1 1 0 0 1 -1-1v-37.33a1 1 0 0 1 1-1h30.447v2h-29.447v35.33h46.162v-24.376h2v25.376a1 1 0 0 1 -1 1z"></path><path d="m43.764 59.594h-32.264a1 1 0 0 1 -1-1v-37.33a1 1 0 0 1 1-1h22.5v2h-21.5v35.33h30.26v-24.075h2v25.075a1 1 0 0 1 -.996 1z"></path><path d="m34 22.264h-31.891a1 1 0 0 1 -.931-1.364l4.531-11.63a1 1 0 0 1 .932-.637h32.726v2h-32.043l-3.752 9.631h30.428z"></path><path d="m11.504 50.155h32.26v2h-32.26z"></path><path d="m11.504 42.715h32.26v2h-32.26z"></path><path d="m11.504 35.276h32.26v2h-32.26z"></path><path d="m11.504 27.702h25.568v2h-25.568z"></path><path d="m47.6 35.07a14.607 14.607 0 1 1 14.611-14.607 14.624 14.624 0 0 1 -14.611 14.607zm0-27.213a12.607 12.607 0 1 0 12.611 12.606 12.62 12.62 0 0 0 -12.611-12.606z"></path><path d="m44.067 34.218a1 1 0 0 1 -.995-1.1l.95-9.992-4.842.013a1 1 0 0 1 -.779-1.628l11.643-14.43a1 1 0 0 1 1.775.71l-.793 9.581 5.009.016a1 1 0 0 1 .776 1.628l-11.965 14.83a1 1 0 0 1 -.779.372zm1.055-13.09a1 1 0 0 1 .995 1.095l-.739 7.777 8.567-10.62-4.008-.012a1 1 0 0 1 -.994-1.082l.615-7.418-8.286 10.27 3.847-.01z"></path></g></svg>