<svg enable-background="new 0 0 256 256" viewBox="0 0 256 256" xmlns="http://www.w3.org/2000/svg"><path d="m159.021 138.772 5.21-16.797c.962-3.101 2.664-5.921 4.96-8.217l38.194-38.194c2.151-2.151 2.151-5.639 0-7.79l-19.21-19.21c-2.151-2.151-5.639-2.151-7.79 0l-38.194 38.194c-2.296 2.296-5.116 3.998-8.217 4.96l-16.797 5.21c-2.156.669-2.829 3.39-1.233 4.987l38.091 38.091c1.596 1.595 4.318.922 4.986-1.234z" fill="#f0c020"/><path d="m146.668 132.646-4.94 4.95-11.15 11.15c-1.29 1.29-3.38 1.29-4.67 0l-.27-.26c-.413-.414-18.021-18.036-18.44-18.44-1.29-1.29-1.29-3.39 0-4.68l16.1-16.1z" fill="#7d7b79"/><path d="m129.012 106.901h6.997v33.061h-6.997z" fill="#4c4944" transform="matrix(.7064 -.7078 .7078 .7064 -48.461 130.0344)"/><path d="m163.077 81.451c-.977-.977-.977-2.559 0-3.535l4.242-4.242c.977-.977 2.559-.977 3.535 0s.977 2.559 0 3.535l-4.242 4.242c-.976.976-2.558.976-3.535 0zm32.21-9.369-9.653-9.653-7.708 7.708c-.977.977-2.559.977-3.535 0s-.977-2.559 0-3.535l9.476-9.476c.977-.977 2.559-.977 3.535 0l11.421 11.421c.977.977.977 2.559 0 3.535-.977.977-2.559.977-3.536 0z" fill="#f9e5af"/><path d="m44.823 192.936 62.64-62.629 18.178 18.178-62.629 62.64c-2.159 2.148-5.641 2.148-7.8 0l-10.389-10.389c-2.148-2.16-2.148-5.641 0-7.8z" fill="#afafaf"/><path d="m54.737 198.603c-.977-.977-.977-2.56 0-3.535l31.926-31.916c.977-.977 2.561-.977 3.535 0 .977.977.977 2.56 0 3.535l-31.926 31.916c-.976.976-2.559.977-3.535 0z" fill="#efefef"/><path d="m31.777 214.558 13.438-13.438 9.613 9.613-13.438 13.438-13.828 4.215z" fill="#afafaf"/><path d="m206.265 66.654-16.971-16.971 8.361-8.361c1.953-1.953 5.118-1.953 7.071 0l9.899 9.899c1.953 1.953 1.953 5.118 0 7.071z" fill="#afafaf"/><path d="m248.438 30.286c1.37 0 2.5-1.12 2.5-2.5 0-1.381-1.13-2.5-2.5-2.5-22.099 0-26.933 5.624-38.76 17.45l-3.18-3.18c-2.933-2.933-7.698-2.933-10.61 0l-6.636 6.636c-3.305-2.619-7.859-2.191-10.634.604l-38.19 38.189c-3.981 3.961-6.4 4.093-23.99 9.551-3.927 1.212-5.214 6.223-2.26 9.149l5.581 5.581-14.331 14.339c-1.567 1.567-2.232 4.07-1.211 6.412l-19.438 19.428c-.971.98-.98 2.561 0 3.54.939.95 2.59.95 3.539 0 0 0 0 0 0-.01l19.146-19.135 14.645 14.645-60.869 60.87c-1.164 1.164-2.94 1.311-4.641-.39l-9.62-9.61c-1.716-1.716-1.532-3.498-.39-4.66l27.58-27.569c.97-.971.979-2.561 0-3.53-.94-.95-2.59-.95-3.53 0l-27.58 27.57c-2.468 2.467-3.187 6.448-1.201 9.781l-11.849 11.849c-.29.28-.51.64-.62 1.03l-3.68 12.06h-18.146c-1.381 0-2.5 1.119-2.5 2.5s1.119 2.5 2.5 2.5h240c1.381 0 2.5-1.119 2.5-2.5s-1.119-2.5-2.5-2.5h-204.355l11.79-11.79c1.229.738 2.633 1.14 4.1 1.14v-.05l.021.05c2.13 0 4.14-.83 5.66-2.34l61.149-61.168c2.253.982 4.78.434 6.411-1.212l14.33-14.34c.086.086 5.506 5.511 5.599 5.59 2.885 2.94 7.894 1.694 9.141-2.25l5.21-16.8c.84-2.7 2.34-5.19 4.34-7.19 17.283-17.287 34.038-34.047 38.189-38.199 2.838-2.82 3.178-7.394.611-10.629l6.639-6.632c2.958-2.999 2.874-7.737 0-10.609l-3.185-3.185c11.096-11.097 14.657-15.986 35.225-15.986zm-208.371 191.67-8.75 2.67 2.671-8.74 11.219-11.23 6.08 6.08zm88.741-74.98c-.33.33-.834.306-1.14 0-.417-.417-18.284-18.283-18.7-18.7-.314-.312-.319-.821 0-1.14l14.325-14.335c6.009 6.009 13.833 13.833 19.84 19.84zm76.81-73.18-16.765 16.765-5.905-5.906c-.95-.939-2.601-.939-3.54 0-.976.976-.973 2.569 0 3.54l5.905 5.905-7.31 7.31-5.905-5.905c-.939-.94-2.59-.95-3.54 0-.97.979-.97 2.56 0 3.54l5.909 5.901-7.039 7.039c-2.58 2.58-4.51 5.771-5.58 9.25l-5.21 16.79c-.109.344-.545.495-.83.21 0 0 0 0-.01 0-.25-.26-36.78-36.79-38.09-38.09-.283-.306-.142-.723.21-.83 17.033-5.282 20.982-5.732 26.04-10.79l38.189-38.199c1.212-1.192 3.08-1.161 4.261 0l19.21 19.21c1.137 1.157 1.214 3.023 0 4.26zm7.239-17.27-6.59 6.591-13.439-13.431 6.59-6.6c.998-.978 2.541-.976 3.54 0l3.185 3.185-4.185 4.185c-.999.999-.95 2.58 0 3.529.98.982 2.576.966 3.54 0 0 0 0 0 .01-.01l4.17-4.17 3.18 3.18c.977.978.978 2.564-.001 3.541z"/><path d="m14.361 174.618c-.977.977-.977 2.56 0 3.535.977.977 2.56.978 3.535 0 7.053-7.054 7.053-18.53 0-25.584-5.115-5.115-5.117-13.397 0-18.514.977-.976.977-2.559 0-3.535s-2.559-.977-3.535 0c-7.07 7.068-7.071 18.513 0 25.584 5.104 5.105 5.104 13.41 0 18.514z"/><path d="m32.778 174.618c-.977.977-.977 2.559 0 3.535.977.977 2.559.977 3.535 0 7.054-7.054 7.054-18.53 0-25.584-5.115-5.115-5.117-13.397 0-18.514.977-.976.977-2.559 0-3.535s-2.559-.977-3.535 0c-7.07 7.068-7.071 18.513 0 25.584 5.104 5.105 5.104 13.41-0 18.514z"/><path d="m102.404 157.777c.977-.977.977-2.559 0-3.535l-.698-.698c-.977-.977-2.559-.977-3.535 0s-.977 2.559 0 3.535l.698.698c.977.976 2.559.976 3.535 0z"/><path d="m110.485 149.696c.977-.976.978-2.558.002-3.535l-.697-.698c-.977-.978-2.559-.978-3.535-.002s-.978 2.558-.002 3.535l.697.698c.977.978 2.557.978 3.535.002z"/><path d="m81.238 160.056c.979-.97.979-2.56 0-3.53-.94-.949-2.591-.949-3.53 0-.995.997-.954 2.576 0 3.53.969.969 2.548.98 3.53 0z"/></svg>