<svg xmlns="http://www.w3.org/2000/svg" viewBox="0 0 48 48"><defs><style>.cls-1{fill:#9dcc6b;}.cls-2{fill:#b5e08c;}.cls-3{fill:#db5669;}.cls-4{fill:#f26674;}.cls-5{fill:#dad7e5;}.cls-6{fill:#edebf2;}</style></defs><title>18. Switch button</title><g id="_18._Switch_button" data-name="18. Switch button"><path class="cls-1" d="M47,13a9,9,0,0,1-9,9H10A9,9,0,0,1,10,4H38A9,9,0,0,1,47,13Z"/><path class="cls-2" d="M44.38,19.34C42.1,20.28,43,20,13,20A9,9,0,0,1,6.62,4.66C8.9,3.72,8,4,38,4A9,9,0,0,1,44.38,19.34Z"/><path class="cls-3" d="M47,35a9,9,0,0,1-9,9H10a9,9,0,0,1,0-18H38A9,9,0,0,1,47,35Z"/><path class="cls-4" d="M44.38,41.34C42.1,42.28,43,42,13,42A9,9,0,0,1,6.62,26.66C8.9,25.72,8,26,38,26A9,9,0,0,1,44.38,41.34Z"/><path class="cls-5" d="M15,13A5,5,0,1,1,7.61,8.61,5,5,0,0,1,15,13Z"/><path class="cls-6" d="M14.39,15.39A5,5,0,0,1,7.61,8.61,5,5,0,0,1,14.39,15.39Z"/><circle class="cls-5" cx="38" cy="35" r="5"/><path class="cls-6" d="M24,18a4,4,0,0,1-4-4V12a4,4,0,0,1,8,0v2A4,4,0,0,1,24,18Zm-2-6v2a2,2,0,0,0,4,0V12A2,2,0,0,0,22,12Z"/><path class="cls-6" d="M37,18c-.68,0-.4.14-5-6,0,4.72.34,6-1,6a1,1,0,0,1-1-1V9a1,1,0,0,1,1.8-.6L36,14V9a1,1,0,0,1,2,0C38,16.55,38.42,18,37,18Z"/><path class="cls-6" d="M10,40a4,4,0,0,1-4-4V34a4,4,0,0,1,8,0v2A4,4,0,0,1,10,40ZM8,34v2a2,2,0,0,0,4,0V34A2,2,0,0,0,8,34Z"/><path class="cls-6" d="M16,39V31c0-1.33,1.36-1,5-1a1,1,0,0,1,0,2H18v7A1,1,0,0,1,16,39Z"/><path class="cls-6" d="M21,36c-3.58,0-5,.35-5-1s1.36-1,5-1A1,1,0,0,1,21,36Z"/><path class="cls-6" d="M24,39V31c0-1.33,1.36-1,5-1a1,1,0,0,1,0,2H26v7A1,1,0,0,1,24,39Z"/><path class="cls-6" d="M29,36c-3.58,0-5,.35-5-1s1.36-1,5-1A1,1,0,0,1,29,36Z"/><path class="cls-6" d="M42.39,37.39a5,5,0,0,1-6.78-6.78A5,5,0,0,1,42.39,37.39Z"/></g></svg>