<?xml version="1.0" encoding="iso-8859-1"?>
<!-- Generator: Adobe Illustrator 19.0.0, SVG Export Plug-In . SVG Version: 6.00 Build 0)  -->
<svg xmlns="http://www.w3.org/2000/svg" xmlns:xlink="http://www.w3.org/1999/xlink" version="1.1" id="Capa_1" x="0px" y="0px" viewBox="0 0 512 512" style="enable-background:new 0 0 512 512;" xml:space="preserve">
<path style="fill:#96695A;" d="M471.207,380.25L471.207,380.25c-4.427,7.668-14.232,10.295-21.9,5.868L46.661,153.65  c-7.668-4.427-10.295-14.232-5.868-21.9l0,0c4.427-7.668,14.232-10.295,21.9-5.868L465.339,358.35  C473.007,362.777,475.634,372.582,471.207,380.25z"/>
<g>
	<path style="fill:#825A50;" d="M402.158,321.872l-28.027-16.181c-2.062,4.887-4.336,9.726-7.057,14.438   c-2.721,4.713-5.774,9.101-8.975,13.331l28.027,16.181c3.091-4.306,6.011-8.791,8.717-13.479   C397.55,331.473,399.975,326.702,402.158,321.872z"/>
	<path style="fill:#825A50;" d="M109.842,190.128l28.027,16.181c2.062-4.887,4.336-9.726,7.057-14.438   c2.721-4.713,5.774-9.101,8.975-13.33l-28.027-16.181c-3.091,4.306-6.011,8.791-8.717,13.479   C114.45,180.527,112.025,185.298,109.842,190.128z"/>
</g>
<path style="fill:#96695A;" d="M40.793,380.25L40.793,380.25c4.427,7.668,14.232,10.295,21.9,5.868L465.339,153.65  c7.668-4.427,10.295-14.232,5.868-21.9l0,0c-4.427-7.668-14.232-10.295-21.9-5.868L46.661,358.35  C38.993,362.777,36.365,372.582,40.793,380.25z"/>
<g>
	<path style="fill:#825A50;" d="M109.842,321.872l28.027-16.181c2.062,4.887,4.336,9.726,7.057,14.438   c2.721,4.713,5.774,9.101,8.975,13.331l-28.027,16.181c-3.091-4.306-6.011-8.791-8.717-13.479   C114.45,331.473,112.025,326.702,109.842,321.872z"/>
	<path style="fill:#825A50;" d="M402.158,190.128l-28.027,16.181c-2.062-4.887-4.336-9.726-7.057-14.438   c-2.721-4.713-5.774-9.101-8.975-13.33l28.027-16.181c3.091,4.306,6.011,8.791,8.717,13.479   C397.55,180.527,399.975,185.298,402.158,190.128z"/>
</g>
<path style="fill:#96695A;" d="M256,504.5L256,504.5c-8.854,0-16.032-7.178-16.032-16.032V23.532  c0-8.854,7.178-16.032,16.032-16.032l0,0c8.854,0,16.032,7.178,16.032,16.032v464.935C272.032,497.322,264.854,504.5,256,504.5z"/>
<g>
	<path style="fill:#825A50;" d="M272.032,415.513V383.15c-5.264,0.658-10.591,1.108-16.032,1.108c-5.441,0-10.769-0.45-16.032-1.108   v32.362c5.274,0.524,10.619,0.81,16.032,0.81C261.413,416.322,266.758,416.037,272.032,415.513z"/>
	<path style="fill:#825A50;" d="M239.968,96.487v32.362c5.264-0.658,10.591-1.108,16.032-1.108c5.441,0,10.769,0.45,16.032,1.108   V96.487c-5.274-0.524-10.619-0.81-16.032-0.81C250.587,95.677,245.242,95.963,239.968,96.487z"/>
	<circle style="fill:#825A50;" cx="256" cy="256" r="56.11"/>
</g>
<path style="fill:#AA785F;" d="M256,440.371c-101.665,0-184.371-82.709-184.371-184.371S154.335,71.629,256,71.629  S440.371,154.338,440.371,256S357.665,440.371,256,440.371z M256,103.694c-83.981,0-152.306,68.325-152.306,152.306  S172.019,408.306,256,408.306S408.306,339.981,408.306,256S339.981,103.694,256,103.694z"/>
<circle style="fill:#FFC850;" cx="256" cy="256" r="24.05"/>
<path d="M380.269,155.504c-2.608-3.218-7.331-3.711-10.549-1.103c-2.956,2.396-3.606,6.575-1.67,9.734l-72.674,41.959  c-4.777-3.777-10.104-6.882-15.843-9.176V113.11c24.625,4.033,47.897,14.369,67.518,30.273c3.217,2.608,7.941,2.114,10.549-1.104  s2.114-7.94-1.104-10.549c-30.505-24.729-69.001-37.281-108.388-35.344c-39.672,1.95-77,18.504-105.108,46.612  s-44.663,65.437-46.612,105.108c-1.937,39.389,10.616,77.882,35.344,108.387c1.482,1.829,3.647,2.777,5.831,2.777  c1.659,0,3.329-0.548,4.718-1.674c2.957-2.396,3.606-6.575,1.67-9.734l72.674-41.958c4.777,3.777,10.104,6.882,15.843,9.176v83.808  c-24.624-4.034-47.899-14.37-67.518-30.273c-3.217-2.608-7.941-2.114-10.549,1.104c-2.608,3.218-2.114,7.94,1.104,10.549  c28.457,23.068,63.861,35.54,100.463,35.539c2.635,0,5.28-0.065,7.924-0.195c39.672-1.95,77-18.504,105.108-46.612  s44.663-65.437,46.612-105.108C417.549,224.502,404.997,186.01,380.269,155.504z M400.631,263.155  c-0.746,15.174-3.859,29.965-9.113,43.914l-72.575-41.901c0.434-2.995,0.67-6.054,0.67-9.167s-0.235-6.172-0.67-9.167l72.593-41.912  C398.46,223.315,401.616,243.106,400.631,263.155z M376.929,335.671l-70.639-40.784c3.477-4.486,6.369-9.442,8.558-14.763  l70.624,40.774C382.924,325.978,380.07,330.909,376.929,335.671z M256,304.613c-26.805,0-48.613-21.808-48.613-48.613  s21.808-48.613,48.613-48.613c26.805,0,48.613,21.808,48.613,48.613S282.805,304.613,256,304.613z M126.521,320.902l70.631-40.778  c2.189,5.321,5.082,10.277,8.558,14.763l-70.651,40.79C131.913,330.911,129.066,325.977,126.521,320.902z M111.369,248.845  c0.746-15.173,3.859-29.965,9.113-43.914l72.575,41.901c-0.434,2.995-0.67,6.054-0.67,9.167c0,3.113,0.235,6.172,0.67,9.167  l-72.593,41.912C113.54,288.685,110.384,268.894,111.369,248.845z M135.071,176.329l70.639,40.784  c-3.477,4.486-6.369,9.442-8.558,14.763l-70.624-40.774C129.076,186.022,131.93,181.09,135.071,176.329z M385.479,191.098  l-70.631,40.778c-2.189-5.321-5.082-10.277-8.558-14.763l70.65-40.79C380.087,181.089,382.934,186.023,385.479,191.098z   M248.844,111.369c5.254-0.258,10.49-0.224,15.688,0.08v81.527c-2.793-0.376-5.638-0.589-8.532-0.589  c-2.894,0-5.739,0.212-8.532,0.589v-81.523C247.927,111.426,248.385,111.392,248.844,111.369z M232.468,113.111v83.807  c-5.739,2.294-11.066,5.399-15.843,9.176l-72.596-41.914c3.006-3.661,6.196-7.193,9.577-10.574  C175.168,132.045,202.715,117.99,232.468,113.111z M263.156,400.631c-2.401,0.118-4.792,0.177-7.184,0.177  c-2.844,0-5.679-0.09-8.504-0.255v-81.529c2.793,0.376,5.638,0.589,8.532,0.589c2.894,0,5.739-0.212,8.532-0.589v81.523  C264.073,400.574,263.615,400.608,263.156,400.631z M279.532,398.889v-83.807c5.739-2.294,11.066-5.399,15.843-9.176l72.596,41.914  c-3.006,3.661-6.196,7.193-9.578,10.574C336.832,379.955,309.285,394.01,279.532,398.889z"/>
<path d="M280.048,248.5c-4.142,0-7.5,3.358-7.5,7.5c0,9.125-7.423,16.548-16.548,16.548c-9.125,0-16.548-7.423-16.548-16.548  s7.423-16.548,16.548-16.548c4.142,0,7.5-3.358,7.5-7.5s-3.358-7.5-7.5-7.5c-17.396,0-31.548,14.153-31.548,31.548  s14.152,31.548,31.548,31.548s31.548-14.153,31.548-31.548C287.548,251.858,284.19,248.5,280.048,248.5z"/>
<path d="M469.089,351.854l-36.415-21.024c9.781-23.005,15.197-48.297,15.197-74.83s-5.416-51.825-15.197-74.83l36.415-21.024  c11.237-6.487,15.101-20.908,8.613-32.146s-20.91-15.102-32.146-8.613l-36.484,21.064c-30.587-40.419-76.783-68.396-129.54-74.877  V23.532C279.532,10.557,268.976,0,256,0c-12.976,0-23.532,10.557-23.532,23.532v42.042c-52.756,6.481-98.953,34.458-129.54,74.877  l-36.484-21.064c-11.238-6.488-25.658-2.623-32.146,8.613c-6.487,11.238-2.623,25.658,8.614,32.146l36.415,21.024  C69.546,204.175,64.13,229.467,64.13,256s5.416,51.825,15.197,74.83l-36.415,21.024C31.674,358.342,27.81,372.762,34.297,384  c4.354,7.541,12.28,11.762,20.419,11.762c3.99,0,8.031-1.015,11.727-3.148l36.484-21.064c30.587,40.419,76.784,68.396,129.54,74.877  v42.042C232.468,501.443,243.024,512,256,512s23.532-10.557,23.532-23.532v-42.042c52.756-6.481,98.953-34.458,129.54-74.877  l36.484,21.064c3.697,2.135,7.737,3.148,11.727,3.148c8.139-0.001,16.066-4.222,20.42-11.762  C484.19,372.762,480.326,358.342,469.089,351.854z M453.057,132.377c4.075-2.352,9.303-0.951,11.655,3.123  c2.353,4.074,0.952,9.303-3.123,11.655l-35.353,20.411c-2.638-5.057-5.486-9.988-8.549-14.769L453.057,132.377z M247.468,23.532  c0-4.705,3.828-8.532,8.532-8.532c4.704,0,8.532,3.828,8.532,8.532v40.796c-2.83-0.125-5.672-0.2-8.532-0.2  c-2.86,0-5.702,0.075-8.532,0.2V23.532z M50.411,147.155c-4.074-2.353-5.475-7.581-3.123-11.655  c2.353-4.074,7.581-5.475,11.656-3.123l35.369,20.42c-3.063,4.782-5.911,9.712-8.549,14.77L50.411,147.155z M58.943,379.623  c-4.074,2.353-9.303,0.951-11.655-3.123c-2.353-4.074-0.952-9.303,3.123-11.655l35.353-20.411c2.638,5.057,5.486,9.987,8.549,14.769  L58.943,379.623z M264.532,488.468c0,4.705-3.828,8.532-8.532,8.532c-4.704,0-8.532-3.828-8.532-8.532v-40.796  c2.83,0.125,5.672,0.2,8.532,0.2c2.86,0,5.702-0.075,8.532-0.2V488.468z M256,432.871c-97.527,0-176.871-79.344-176.871-176.871  S158.473,79.129,256,79.129S432.871,158.473,432.871,256S353.527,432.871,256,432.871z M464.712,376.5  c-2.352,4.074-7.58,5.476-11.656,3.123l-35.369-20.42c3.063-4.782,5.911-9.712,8.549-14.769l35.353,20.411  C465.664,367.197,467.064,372.426,464.712,376.5z"/>
<g>
</g>
<g>
</g>
<g>
</g>
<g>
</g>
<g>
</g>
<g>
</g>
<g>
</g>
<g>
</g>
<g>
</g>
<g>
</g>
<g>
</g>
<g>
</g>
<g>
</g>
<g>
</g>
<g>
</g>
</svg>
