<?xml version="1.0" ?><!DOCTYPE svg  PUBLIC '-//W3C//DTD SVG 1.1//EN'  'http://www.w3.org/Graphics/SVG/1.1/DTD/svg11.dtd'><svg height="16.197mm" style="shape-rendering:geometricPrecision; text-rendering:geometricPrecision; image-rendering:optimizeQuality; fill-rule:evenodd; clip-rule:evenodd" version="1.1" viewBox="0 0 1518 1620" width="15.1844mm" xml:space="preserve" xmlns="http://www.w3.org/2000/svg" xmlns:xlink="http://www.w3.org/1999/xlink"><defs><style type="text/css">
   <![CDATA[
    .fil2 {fill:#E62129}
    .fil1 {fill:#80D010}
    .fil3 {fill:#A12815}
    .fil0 {fill:#F98812}
   ]]>
  </style></defs><g id="Layer_x0020_1"><g id="_1005760496"><rect class="fil0" height="101" width="108" x="1312" y="1215"/><g><rect class="fil1" height="203" width="607" x="516"/><rect class="fil1" height="202" width="101" x="415" y="101"/><rect class="fil1" height="202" width="101" x="1124" y="101"/><rect class="fil1" height="101" width="101" x="617" y="405"/><rect class="fil1" height="101" width="101" x="921" y="405"/><rect class="fil1" height="101" width="192" x="1124" y="709"/><rect class="fil1" height="101" width="313" x="1013" y="810"/><rect class="fil1" height="101" width="516" x="810" y="911"/><rect class="fil1" height="101" width="205" x="1022" y="1012"/><rect class="fil1" height="101" width="111" x="810" y="1114"/><rect class="fil1" height="101" width="205" x="1022" y="1215"/><rect class="fil1" height="101" width="401" x="810" y="1316"/><rect class="fil1" height="202.419" width="94.8189" x="1228" y="1114"/></g><rect class="fil2" height="202" width="607" x="516" y="203"/><rect class="fil2" height="304" width="101" x="415" y="304"/><rect class="fil2" height="101" width="101" x="617" y="506"/><rect class="fil2" height="101" width="101" x="921" y="506"/><rect class="fil2" height="304" width="101" x="1124" y="304"/><rect class="fil0" height="405" width="101" x="213" y="203"/><rect class="fil0" height="405" width="101" x="1326" y="203"/><rect class="fil0" height="304" width="101" x="1225" y="405"/><rect class="fil0" height="405" width="101" x="1022" y="405"/><rect class="fil0" height="202" width="111" x="304" y="405"/><rect class="fil0" height="202" width="111" x="506" y="405"/><rect class="fil0" height="202" width="212" x="709" y="405"/><rect class="fil0" height="101" width="415" x="810" y="607"/><rect class="fil0" height="405" width="101" x="1013" y="405"/><rect class="fil0" height="304" width="102" x="911" y="607"/><rect class="fil0" height="101" width="101" x="810" y="810"/><rect class="fil0" height="405" width="101" x="1316" y="203"/><rect class="fil3" height="810" width="810" y="607"/><rect class="fil0" height="709" width="202" x="304" y="709"/><rect class="fil0" height="203" width="607" x="101" y="911"/><rect class="fil3" height="101" width="611" x="98" y="1417"/><rect class="fil3" height="101" width="405" x="202" y="1519"/><rect class="fil0" height="101" width="190" x="1228" y="1012"/><rect class="fil0" height="101" width="196" x="1322" y="1114"/><rect class="fil2" height="101" width="213" x="810" y="1012"/><rect class="fil2" height="101" width="213" x="810" y="1215"/><rect class="fil2" height="101" width="316" x="911" y="1114"/><rect class="fil2" height="101" width="304" x="911" y="1417"/><rect class="fil2" height="101" width="101" x="810" y="709"/><rect class="fil2" height="405" width="111" x="1316" y="607"/><rect class="fil2" height="304" width="101" x="1417" y="810"/></g></g></svg>