<svg width="24" height="24" xmlns="http://www.w3.org/2000/svg">

 <g>
  <title>background</title>
  <rect fill="none" id="canvas_background" height="402" width="582" y="-1" x="-1"/>
 </g>
 <g>
  <title fill="#ff0000">Layer 1</title>
  <path fill="#7fff00" id="svg_4" d="m12,7.1c-1.7,0 -3.1,-1.4 -3.1,-3.1c0,-1.7 1.400001,-3.1 3.1,-3.1s3.1,1.4 3.1,3.1c0,1.7 -1.400001,3.1 -3.1,3.1z"/>
  <path fill="#7f00ff" id="svg_6" d="m20.4,7.1c-1.699999,0 -3.1,-1.4 -3.1,-3.1c0,-1.7 1.400002,-3.1 3.1,-3.1c1.700001,0 3.1,1.4 3.1,3.1c0,1.7 -1.4,3.1 -3.1,3.1z"/>
  <path fill="#ff0000" id="svg_9" d="m3.6,15.1c-1.7,0 -3.1,-1.400001 -3.1,-3.1s1.4,-3.1 3.1,-3.1c1.7,0 3.1,1.400001 3.1,3.1s-1.3,3.1 -3.1,3.1z"/>
  <path fill="#ffff00" id="svg_11" d="m12,15.1c-1.7,0 -3.1,-1.400001 -3.1,-3.1s1.400001,-3.1 3.1,-3.1s3.1,1.400001 3.1,3.1s-1.400001,3.1 -3.1,3.1z"/>
  <path fill="#007fff" id="svg_13" d="m20.4,15.1c-1.699999,0 -3.1,-1.400001 -3.1,-3.1s1.400002,-3.1 3.1,-3.1c1.700001,0 3.1,1.400001 3.1,3.1s-1.4,3.1 -3.1,3.1z"/>
  <path fill="#ff7f00" id="svg_16" d="m12,23.1c-1.7,0 -3.1,-1.4 -3.1,-3.1c0,-1.700001 1.400001,-3.1 3.1,-3.1s3.1,1.4 3.1,3.1c0,1.700001 -1.400001,3.1 -3.1,3.1z"/>
  <path fill="#bf00bf" id="svg_18" d="m20.4,23.1c-1.699999,0 -3.1,-1.4 -3.1,-3.1c0,-1.700001 1.400002,-3.1 3.1,-3.1c1.700001,0 3.1,1.4 3.1,3.1c0,1.700001 -1.4,3.1 -3.1,3.1z"/>
 </g>
</svg>