<?xml version="1.0" ?><svg data-name="Layer 1" id="Layer_1" viewBox="0 0 140 140" xmlns="http://www.w3.org/2000/svg"><defs><style>.cls-1{fill:#52b1b1;}.cls-2{fill:#333;}.cls-3{fill:#525354;}.cls-4{fill:#d7dadb;}</style></defs><title/><circle class="cls-1" cx="70" cy="70" r="64"/><path class="cls-2" d="M42.68,110.55,30,97.82a10,10,0,0,1,0-14.14L74.5,39.13a1,1,0,0,1,1.41,0l25.46,25.46a1,1,0,0,1,0,1.41L56.82,110.55A10,10,0,0,1,42.68,110.55Z"/><rect class="cls-2" height="24" rx="1" ry="1" transform="translate(-1.51 81.68) rotate(-45)" width="20" x="87.83" y="30.67"/><path class="cls-3" d="M42.68,109.55,30,96.82a10,10,0,0,1,0-14.14L74.5,38.13a1,1,0,0,1,1.41,0l25.46,25.46a1,1,0,0,1,0,1.41L56.82,109.55A10,10,0,0,1,42.68,109.55Z"/><rect class="cls-4" height="24" rx="1" ry="1" transform="translate(-0.81 81.38) rotate(-45)" width="20" x="87.83" y="29.67"/><rect class="cls-3" height="4" rx="1" ry="1" transform="translate(54.58 -55.51) rotate(45)" width="4" x="92.3" y="36.13"/><rect class="cls-3" height="4" rx="1" ry="1" transform="translate(61.65 -58.44) rotate(45)" width="4" x="99.37" y="43.2"/><rect class="cls-2" height="4" rx="1" ry="1" transform="translate(80.84 -0.7) rotate(45)" width="4" x="39.27" y="95.23"/><rect class="cls-1" height="4" rx="1" ry="1" transform="translate(81.55 -0.41) rotate(45)" width="4" x="39.27" y="96.23"/></svg>