<svg viewBox="0 0 60 60" xmlns="http://www.w3.org/2000/svg"><g fill="none" fill-rule="evenodd"><path d="m29 10v5h-28v-5c0-1.65685425 1.34314575-3 3-3h22c1.6568542 0 3 1.34314575 3 3z" fill="#02a9f4"/><path d="m26 7h-3c1.6568542 0 3 1.34314575 3 3v5h3v-5c0-1.65685425-1.3431458-3-3-3z" fill="#0377bc"/><path d="m29 15v41c0 1.6568542-1.3431458 3-3 3h-22c-1.65685425 0-3-1.3431458-3-3v-41z" fill="#3f51b5"/><path d="m26 15v41c0 1.6568542-1.3431458 3-3 3h3c1.6568542 0 3-1.3431458 3-3v-41z" fill="#283593"/><path d="m24 7h-18l2.447-4.894c.33884916-.6781033 1.03194808-1.10635324 1.79-1.106h9.528c.7573314.00040444 1.4494729.42854118 1.788 1.106z" fill="#7f8e94"/><path d="m21.553 2.106c-.3385271-.67745882-1.0306686-1.10559556-1.788-1.106h-3c.7573314.00040444 1.4494729.42854118 1.788 1.106l2.447 4.894h3z" fill="#545c60"/><path d="m21.194 36h-3.778l1.3-11.039c.0651958-.3532875-.1115956-.7070128-.4332916-.8669323-.3216959-.1599196-.7104195-.0873198-.9527084.1779323l-9.11 10.292c-.2231389.2450468-.28540401.5966012-.16000089.9033795.12540311.3067784.41610208.5140502.74700089.5326205h3.778l-1.3 11.039c-.0651958.3532875.1115956.7070128.4332916.8669323.3216959.1599196.7104195.0873198.9527084-.1779323l9.113-10.292c.2234013-.2454557.2854103-.597649.1592766-.9046457-.1261338-.3069966-.4178393-.5138615-.7492766-.5313543z" fill="#ffdc00"/><g fill="#ffeb3a"><path d="m48 33v2.628c-.0034471.5259094.295983 1.0068809.769417 1.2359067.4734339.2290258 1.0363933.1652391 1.446583-.1639067l3.272-2.628c.3237181-.2604321.5119866-.6535264.5119866-1.069s-.1882685-.8085679-.5119866-1.069l-3.272-2.634c-.4101897-.3291458-.9731491-.3929325-1.446583-.1639067-.473434.2290258-.7728641.7099973-.769417 1.2359067z"/><path d="m36.5 52.919 2.276-1.314c.4537506-.2646784 1.0192194-.245045 1.4535198.0504672.4343005.2955122.660127.8143019.5804802 1.3335328l-.64 4.148c-.0636495.4106764-.3100105.7703708-.6699343.9781237-.3599237.207753-.7946155.2411717-1.1820657.0908763l-3.912-1.52c-.4892698-.190671-.8254956-.645451-.8643492-1.1691215-.0388537-.5236705.2265753-1.0230901.6823492-1.2838785z"/><path d="m36.5 13.081-2.276-1.314c-.4557739-.2607884-.7212029-.760208-.6823492-1.2838785.0388536-.52367054.3750794-.97845051.8643492-1.1691215l3.912-1.52c.3874502-.15029542.822142-.11687665 1.1820657.0908763.3599238.20775294.6062848.56744729.6699343.9781237l.64 4.148c.0819505.520071-.1429533 1.040835-.5777349 1.3377435-.4347817.2969084-1.0016845.3168618-1.4562651.0512565z"/><path d="m44.919 21.5 1.314 2.276c.2607884.4557739.760208.7212029 1.2838785.6823492.5236705-.0388536.9784505-.3750794 1.1691215-.8643492l1.52-3.912c.1502954-.3874502.1168767-.822142-.0908763-1.1820657-.2077529-.3599238-.5674473-.6062848-.9781237-.6699343l-4.148-.64c-.5198271-.0810901-1.0399479.1440122-1.3366453.5784848-.2966974.4344727-.3170699 1.0008486-.0523547 1.4555152z"/><path d="m44.919 44.5 1.314-2.276c.2607884-.4557739.760208-.7212029 1.2838785-.6823492.5236705.0388536.9784505.3750794 1.1691215.8643492l1.52 3.912c.1502954.3874502.1168767.822142-.0908763 1.1820657-.2077529.3599238-.5674473.6062848-.9781237.6699343l-4.148.64c-.5198271.0810901-1.0399479-.1440122-1.3366453-.5784848-.2966974-.4344727-.3170699-1.0008486-.0523547-1.4555152z"/></g><path d="m29 51.57c8.7505948-1.8828331 14.9993618-9.6191358 14.9993618-18.57s-6.248767-16.6871669-14.9993618-18.57z" fill="#ffdc00"/><path d="m29 14.43v.912c7.2427899 2.8680009 11.9997829 9.8680428 11.9997829 17.658s-4.756993 14.7899991-11.9997829 17.658v.912c8.7505948-1.8828331 14.9993618-9.6191358 14.9993618-18.57s-6.248767-16.6871669-14.9993618-18.57z" fill="#fec108"/><g fill="#000" fill-rule="nonzero"><path d="m26 6h-1.381l-2.171-4.341c-.5048714-1.01931912-1.5455061-1.66278277-2.683-1.659h-9.528c-1.13756285-.00411482-2.17850536.63891152-2.684 1.658l-2.171 4.342h-1.382c-2.209139 0-4 1.790861-4 4v46c0 2.209139 1.790861 4 4 4h22c2.209139 0 4-1.790861 4-4v-3.658c8.828784-2.267994 15.0013044-10.2265612 15.0013044-19.342s-6.1725204-17.074006-15.0013044-19.342v-3.658c0-2.209139-1.790861-4-4-4zm-16.658-3.447c.16942458-.33905165.51597404-.55317662.895-.553h9.528c.3786657.00020222.7247365.21427059.894.553l1.723 3.447h-14.763zm-5.342 5.447h22c1.1045695 0 2 .8954305 2 2v4h-26v-4c0-1.1045695.8954305-2 2-2zm22 50h-22c-1.1045695 0-2-.8954305-2-2v-40h26v40c0 1.1045695-.8954305 2-2 2zm17-25c-.0304197 8.0019907-5.3195476 15.0312416-13 17.277v-34.554c7.6804524 2.2457584 12.9695803 9.2750093 13 17.277z"/><path d="m21.194 35h-2.653l1.171-9.922c.1038658-.8058227-.3301948-1.5851033-1.07-1.921-.7100023-.3254708-1.549731-.1410406-2.058.452l-9.113 10.291c-.48884526.557188-.60620406 1.3489687-.3 2.024.28238945.6524655.92504693 1.0751424 1.636 1.076h2.653l-1.171 9.922c-.1038658.8058227.3301948 1.5851033 1.07 1.921.2300556.1040321.479517.1582184.732.159.5094973-.002612.9929806-.2253935 1.326-.611l9.113-10.291c.4888453-.557188.6062041-1.3489687.3-2.024-.2823894-.6524655-.9250469-1.0751424-1.636-1.076zm-8.852 11.588 1.236-10.471c.033412-.2836111-.0560236-.5679764-.2457595-.7814054-.1897359-.2134289-.461668-.3355569-.7472405-.3355946h-3.415l8.489-9.588-1.236 10.471c-.033412.2836111.0560236.5679764.2457595.7814054.1897359.2134289.461668.3355569.7472405.3355946h3.415z"/><path d="m55 33c.0022456-.7192322-.3240255-1.4001297-.886-1.849l-3.272-2.628c-.7097957-.56964-1.6836495-.681017-2.5037309-.2863448-.8200814.3946721-1.340616 1.2252381-1.3382691 2.1353448v5.256c-.0047794.9112147.5154571 1.7437696 1.3365455 2.1389264.8210883.3951568 1.7963105.2823059 2.5054545-.2899264l3.272-2.628c.5619745-.4488703.8882456-1.1297678.886-1.849zm-2.138.29-3.272 2.628c-.1063963.0904112-.2567968.1077803-.381.044-.1310982-.0584811-.2137259-.1905272-.209-.334v-5.256c-.0047259-.1434728.0779018-.2755189.209-.334.0498306-.0244442.1044997-.0374281.16-.038.081183.0005589.1595198.0299795.221.083l3.272 2.627c.0872125.0710239.1378306.1775259.1378306.29s-.0506181.2189761-.1378306.29z"/><path d="m38.276 50.738-2.276 1.314-2.275 1.314c-.7888711.453196-1.247673 1.3188795-1.1798213 2.2261282.0678516.9072488.6503154 1.6950577 1.4978213 2.0258718l3.913 1.519c.6697715.2587551 1.4206853.2003384 2.0423816-.1588855s1.047313-.9806212 1.1576184-1.6901145l.64-4.148c.1370721-.89897-.2538787-1.7968358-1.0053522-2.3089131-.7514736-.5120774-1.730121-.5474983-2.5166478-.0910869zm.906 6.246c-.0177177.110643-.0842377.2074591-.1811668.263678-.096929.0562188-.2139968.0658836-.3188332.026322l-3.912-1.52c-.131835-.0465854-.222356-.1683342-.229-.308-.014433-.1424854.0586527-.2795704.185-.347l2.274-1.315 2.276-1.313c.1214355-.0760599.2768564-.0709188.393.013.1175836.0755175.1779973.2145085.153.352z"/><path d="m38.276 15.262c.7892501.4586822 1.7725288.4197096 2.523-.1.7532391-.5098698 1.1431364-1.4097527 1-2.308l-.64-4.148c-.1103054-.70949333-.5359221-1.33089062-1.1576184-1.6901145s-1.3726101-.41764065-2.0423816-.1588855l-3.916 1.524c-.8476244.3305962-1.4303095 1.11828885-1.4983756 2.0255528-.0680662.907264.3905669 1.77308 1.1793756 2.2264472l2.276 1.314zm-3.552-4.362c-.1263473-.0674296-.199433-.2045146-.185-.347.006644-.1396658.097165-.2614146.229-.308l3.912-1.52c.1047806-.04168485.2229645-.03245173.32.025.0980824.05576293.1651644.15343736.182.265l.64 4.148c.0249973.1374915-.0354164.2764825-.153.352-.116327.0833804-.2714171.0885106-.393.013l-2.276-1.312z"/><path d="m49.289 16.842-4.147-.64c-.89897-.1370721-1.7968358.2538787-2.3089131 1.0053522-.5120774.7514736-.5474983 1.730121-.0910869 2.5166478l2.627 4.552c.4192338.7348518 1.2009734 1.1877795 2.047 1.186.062 0 .123 0 .186-.007.907456-.0653991 1.6950085-.6502153 2.02-1.5l1.519-3.913c.2591536-.6697596.2009194-1.4208679-.1583708-2.042679s-.9809472-1.0473667-1.6906292-1.157321zm-.016 2.478-1.518 3.912c-.051693.1306216-.1739364.2198386-.3140998.2292398s-.2732263-.0626916-.3419002-.1852398l-1.314-2.276-1.314-2.276c-.0752391-.1216554-.0701143-.2765827.013-.393.063221-.0983594.172075-.1578713.289-.158.0214184.000294.0427958.0019641.064.005l4.147.64c.1108342.0172871.2078959.083793.2640304.1809114.0561344.0971185.0653137.2144204.0249696.3190886z"/><path d="m47.6 40.545c-.9107062-.0767959-1.7827781.3836487-2.233 1.179l-2.628 4.552c-.423096.7299174-.4253158 1.6299497-.0058253 2.3619452s1.1971583 1.1850914 2.0408253 1.1890548c.1235609-.0002087.2469235-.0099039.369-.029l4.147-.64c.7096758-.1100414 1.3313403-.5355504 1.6907798-1.1572836.3594394-.6217331.4179814-1.3727974.1592202-2.0427164l-1.521-3.913c-.3244293-.8497853-1.1117368-1.4347092-2.019-1.5zm1.649 6.455c-.0555363.0982903-.1533247.1654506-.265.182l-4.147.64c-.1377239.0245927-.2767849-.0356802-.353-.153-.0831143-.1164173-.0882391-.2713446-.013-.393l1.314-2.276 1.315-2.276c.0616544-.1167973.1839579-.1887861.316-.186h.031c.1395698.0069118.2611857.097334.308.229l1.52 3.912c.041251.1052913.0316586.2237201-.026.321z"/></g></g></svg>