<svg viewBox="0 0 60 60" xmlns="http://www.w3.org/2000/svg"><path d="m7 30v15.5a12.5 12.5 0 0 0 25 0v-31a8.5 8.5 0 0 1 17 0v15.5h4v-15.5a12.5 12.5 0 0 0 -25 0v31a8.5 8.5 0 0 1 -17 0v-15.5z" fill="#6a85a0"/><path d="m15 2v4l-1 1h-10l-1-1v-4a1 1 0 0 1 1-1h10a1 1 0 0 1 1 1z" fill="#ffc95c"/><path d="m3 6h12v8h-12z" fill="#dbeffa"/><path d="m17 15v1.05a9.166 9.166 0 0 1 -.2 1.88l-.87 4.07-1.29 6-.3 1.42a2 2 0 0 1 -1.96 1.58h-6.76a2 2 0 0 1 -1.96-1.58l-.3-1.42-1.29-6-.87-4.07a9.166 9.166 0 0 1 -.2-1.88v-1.05a2.006 2.006 0 0 1 2-2h12a2.006 2.006 0 0 1 2 2z" fill="#526e84"/><path d="m11 6v11a1 1 0 0 1 -1 1h-2a1 1 0 0 1 -1-1v-11z" fill="#aad2e2"/><path d="m45 58v-4l1-1h10l1 1v4a1 1 0 0 1 -1 1h-10a1 1 0 0 1 -1-1z" fill="#ffc95c"/><path d="m45 46h12v8h-12z" fill="#dbeffa"/><path d="m43 45v-1.05a9.166 9.166 0 0 1 .2-1.88l.87-4.07 1.29-6 .3-1.42a2 2 0 0 1 1.96-1.58h6.76a2 2 0 0 1 1.96 1.58l.3 1.42 1.29 6 .87 4.07a9.166 9.166 0 0 1 .2 1.88v1.05a2.006 2.006 0 0 1 -2 2h-12a2.006 2.006 0 0 1 -2-2z" fill="#526e84"/><path d="m49 54v-11a1 1 0 0 1 1-1h2a1 1 0 0 1 1 1v11z" fill="#aad2e2"/><g fill="#3e5768"><path d="m8 27a1 1 0 0 1 -1 1h-3.64l-.43-2h4.07a1 1 0 0 1 1 1z"/><path d="m8 23a1 1 0 0 1 -1 1h-4.5l-.43-2h4.93a1 1 0 0 1 1 1z"/><path d="m15.07 26-.43 2h-3.64a1 1 0 0 1 0-2z"/><path d="m15.93 22-.43 2h-4.5a1 1 0 0 1 0-2z"/></g><path d="m6 1h2v5h-2z" fill="#ce953a"/><path d="m10 1h2v5h-2z" fill="#ce953a"/><g fill="#3e5768"><path d="m52 33a1 1 0 0 1 1-1h3.64l.43 2h-4.07a1 1 0 0 1 -1-1z"/><path d="m52 37a1 1 0 0 1 1-1h4.5l.43 2h-4.93a1 1 0 0 1 -1-1z"/><path d="m44.93 34 .43-2h3.64a1 1 0 0 1 0 2z"/><path d="m44.07 38 .43-2h4.5a1 1 0 0 1 0 2z"/></g><path d="m52 54h2v5h-2z" fill="#ce953a"/><path d="m48 54h2v5h-2z" fill="#ce953a"/></svg>