<?xml version="1.0" encoding="utf-8"?>
<!-- Generator: Adobe Illustrator 22.1.0, SVG Export Plug-In . SVG Version: 6.00 Build 0)  -->
<svg version="1.1" id="Layer_1" xmlns="http://www.w3.org/2000/svg" xmlns:xlink="http://www.w3.org/1999/xlink" x="0px" y="0px"
	 viewBox="0 0 256 256" style="enable-background:new 0 0 256 256;" xml:space="preserve">
<style type="text/css">
	.st0{fill:#D73735;}
	.st1{fill:#F85252;}
	.st2{fill:#EDAF85;}
	.st3{fill:#F7C09A;}
	.st4{fill:#D8D6D7;}
	.st5{fill:#FFFFFF;}
	.st6{fill:#1C868E;}
	.st7{fill:#40C4DF;}
	.st8{fill:#491352;}
	.st9{fill:#56C1B3;}
	.st10{fill:#7BEFE4;}
</style>
<g>
	<path class="st7" d="M247.487,247.167H8.513c-2.75,0-5-2.25-5-5V13.833c0-2.75,2.25-5,5-5h238.973c2.75,0,5,2.25,5,5v228.333
		C252.487,244.917,250.237,247.167,247.487,247.167z"/>
	<path class="st4" d="M237.49,28.83v198.34c0,2.76-2.24,5-5,5H23.51c-2.76,0-5-2.24-5-5V28.83c0-2.76,2.24-5,5-5h208.98
		C235.25,23.83,237.49,26.07,237.49,28.83z"/>
	<path class="st5" d="M237.49,28.83v198.34c0,2.76-2.24,5-5,5H40.63c-2.76,0-5-2.24-5-5V28.83c0-2.76,2.24-5,5-5h191.86
		C235.25,23.83,237.49,26.07,237.49,28.83z"/>
	<path class="st0" d="M204.68,97.34c-11.43,21.87-31.08,31.87-49.45,36.21c0.02-0.08,0.03-0.17,0.05-0.25
		c0.8-4.13,0.65-8.22-0.31-12.05c-1.9-7.58-6.96-14.11-13.96-17.8c3.14-9.43,3.94-18.92,3.97-26c0.06-16.48,12.88-30.48,29.35-30.8
		c10.51-0.21,19.41,4.15,25.53,10.94C209.03,67.78,211.95,83.43,204.68,97.34z"/>
	<path class="st1" d="M204.68,97.34c-11.43,21.87-31.08,31.87-49.45,36.21c0.02-0.08,0.03-0.17,0.05-0.25
		c0.8-4.13,0.65-8.22-0.31-12.05c5.8-11.74,7.1-24.69,7.13-33.71c0.06-16.48,12.88-30.48,29.35-30.8c2.94-0.06,5.75,0.24,8.41,0.85
		C209.03,67.78,211.95,83.43,204.68,97.34z"/>
	<path class="st0" d="M133.56,100.77c-0.09-0.02-0.17-0.03-0.26-0.05c-5.39-1.05-10.72-0.46-15.47,1.41
		c-6.1,2.41-11.26,6.94-14.39,12.86c-9.43-3.14-18.91-3.94-25.99-3.97c-16.48-0.06-30.48-12.88-30.8-29.35
		C46.52,75.04,48.2,69.05,51.17,64c8.79-14.98,28.84-21.74,46.17-12.68C119.21,62.76,129.21,82.4,133.56,100.77z"/>
	<path class="st1" d="M133.56,100.77c-0.09-0.02-0.17-0.03-0.26-0.05c-5.39-1.05-10.72-0.46-15.47,1.41
		c-12.28-6.74-26.28-8.2-35.85-8.23C65.5,93.84,51.5,81.02,51.18,64.55c0-0.19-0.01-0.37-0.01-0.55
		c8.79-14.98,28.84-21.74,46.17-12.68C119.21,62.76,129.21,82.4,133.56,100.77z"/>
	<path class="st0" d="M114.99,152.56c-3.14,9.43-3.94,18.91-3.97,25.99c-0.06,16.48-12.88,30.48-29.35,30.8
		c-11.29,0.22-20.71-4.82-26.83-12.48c-8.13-10.18-10.44-24.98-3.52-38.21c11.44-21.88,31.09-31.88,49.46-36.23
		c-0.02,0.09-0.04,0.18-0.06,0.27c-1.13,5.83-0.35,11.59,1.9,16.63C105.12,144.93,109.44,149.63,114.99,152.56z"/>
	<path class="st1" d="M102.62,139.33c-4.08,10.43-5.07,21.27-5.1,29.13c-0.06,16.48-12.88,30.48-29.35,30.8
		c-4.82,0.1-9.3-0.77-13.33-2.39c-8.13-10.18-10.44-24.98-3.52-38.21c11.44-21.88,31.09-31.88,49.46-36.23
		c-0.02,0.09-0.04,0.18-0.06,0.27C99.59,128.53,100.37,134.29,102.62,139.33z"/>
	<path class="st0" d="M209.35,174.33c0.19,9.49-3.35,17.67-9.04,23.67c-10.06,10.61-26.84,14.42-41.65,6.68
		c-21.87-11.43-31.87-31.08-36.21-49.45c0.08,0.02,0.17,0.03,0.25,0.05c4.49,0.87,8.93,0.61,13.03-0.59
		c0.45-0.12,0.9-0.27,1.34-0.42c6.58-2.27,12.17-6.98,15.49-13.26c9.43,3.14,18.91,3.94,25.99,3.97
		C195.03,145.04,209.03,157.86,209.35,174.33z"/>
	<path class="st1" d="M200.79,191.45c0.04,2.26-0.12,4.45-0.48,6.55c-10.06,10.61-26.84,14.42-41.65,6.68
		c-21.87-11.43-31.87-31.08-36.21-49.45c0.08,0.02,0.17,0.03,0.25,0.05c4.49,0.87,8.93,0.61,13.03-0.59
		c11.88,6.04,25.1,7.38,34.26,7.41C186.46,162.16,200.47,174.98,200.79,191.45z"/>
	<path class="st6" d="M155.28,133.3c-1.96,10.09-9.15,17.84-18.21,20.97c-4.47,1.55-9.39,1.98-14.37,1.01
		c-15.07-2.93-24.91-17.51-21.98-32.58c2.93-15.07,17.51-24.91,32.58-21.98c1.29,0.25,2.54,0.59,3.75,1.01
		C149.96,106.15,157.96,119.52,155.28,133.3z"/>
	<path class="st7" d="M155.28,133.3c-1.96,10.09-9.15,17.84-18.21,20.97c-12.91-4.42-20.91-17.79-18.23-31.57
		c1.96-10.09,9.15-17.84,18.21-20.97C149.96,106.15,157.96,119.52,155.28,133.3z"/>
	<g>
		<path class="st8" d="M178.558,142.98c-5.869-0.025-14.473-0.622-23.204-3.194c0.635-1.475,1.14-3.012,1.529-4.591
			c23.065-5.737,39.748-18.146,49.569-36.928c12.943-24.754-4.622-54.198-32.162-53.616c-17.2,0.334-31.247,15.044-31.311,32.792
			c-0.025,5.869-0.622,14.473-3.194,23.204c-1.475-0.634-3.011-1.14-4.591-1.529c-5.737-23.065-18.146-39.749-36.928-49.569
			c-24.75-12.941-54.162,4.599-53.616,32.162c0.334,17.2,15.045,31.247,32.792,31.311c5.869,0.025,14.473,0.622,23.204,3.194
			c-0.635,1.475-1.14,3.012-1.529,4.591c-23.065,5.737-39.749,18.145-49.569,36.928c-12.967,24.8,4.662,54.164,32.162,53.616
			c17.2-0.334,31.247-15.045,31.311-32.792c0.025-5.869,0.622-14.473,3.194-23.204c1.475,0.634,3.011,1.14,4.591,1.529
			c8.945,35.966,35.258,53.909,54.362,53.907c19.422,0,36.599-15.448,36.183-36.5C211.015,157.091,196.305,143.044,178.558,142.98z
			 M146.98,77.458c0.057-15.593,12.343-28.516,27.39-28.808c24.541-0.464,40.066,25.717,28.538,47.764
			c-9.021,17.254-24.238,28.841-45.254,34.472c1.12-11.226-4.204-22.349-14.243-28.386C145.742,94.91,146.942,86.496,146.98,77.458z
			 M77.458,109.02c-15.592-0.057-28.516-12.343-28.808-27.39c-0.483-24.442,25.647-40.102,47.764-28.538
			c17.254,9.021,28.824,24.251,34.454,45.265c-11.446-1.135-22.408,4.347-28.357,14.254
			C94.915,110.276,86.504,109.058,77.458,109.02z M109.02,178.542c-0.057,15.592-12.343,28.516-27.39,28.808
			c-24.439,0.528-40.096-25.659-28.538-47.764c9.021-17.254,24.251-28.824,45.265-34.454c-1.134,11.444,4.347,22.409,14.254,28.357
			C110.276,161.085,109.058,169.496,109.02,178.542z M115.925,150.792c-9.896-5.23-15.572-16.302-13.184-27.956
			c3.61-17.858,23.912-26.271,39.172-16.56c8.9,5.663,13.449,16.109,11.404,26.643l0,0
			C149.784,150.587,130.689,158.659,115.925,150.792z M159.587,202.908c-17.251-9.02-28.82-24.246-34.451-45.254
			c11.499,1.139,22.44-4.394,28.364-14.263c7.593,2.334,16,3.551,25.043,3.589c15.592,0.057,28.516,12.343,28.808,27.39
			C207.834,198.814,181.7,214.471,159.587,202.908z"/>
		<path class="st8" d="M232.49,21.83H23.51c-3.86,0-7,3.14-7,7v198.34c0,3.86,3.14,7,7,7h208.98c3.86,0,7-3.14,7-7V28.83
			C239.49,24.97,236.35,21.83,232.49,21.83z M235.49,227.17c0,1.654-1.346,3-3,3H23.51c-1.654,0-3-1.346-3-3V28.83
			c0-1.654,1.346-3,3-3h208.98c1.654,0,3,1.346,3,3V227.17z"/>
		<path class="st8" d="M247.49,6.83H8.51c-3.86,0-7,3.14-7,7v228.34c0,3.86,3.14,7,7,7h238.98c3.86,0,7-3.14,7-7V13.83
			C254.49,9.97,251.35,6.83,247.49,6.83z M250.49,242.17c0,1.654-1.346,3-3,3H8.51c-1.654,0-3-1.346-3-3V13.83c0-1.654,1.346-3,3-3
			h238.98c1.654,0,3,1.346,3,3V242.17z"/>
	</g>
</g>
</svg>
