<?xml version="1.0" encoding="utf-8"?>
<!-- Generator: Adobe Illustrator 22.0.0, SVG Export Plug-In . SVG Version: 6.00 Build 0)  -->
<svg version="1.1" id="Layer_1" xmlns="http://www.w3.org/2000/svg" xmlns:xlink="http://www.w3.org/1999/xlink" x="0px" y="0px"
	 viewBox="0 0 500 500" style="enable-background:new 0 0 500 500;" xml:space="preserve">
<style type="text/css">
	.st0{fill:#AAB1BA;}
	.st1{fill:#FDDF7F;}
	.st2{fill:#ECF4F7;}
	.st3{fill:#83E1E5;}
	.st4{fill:#1C1D21;}
	.st5{fill:none;}
</style>
<g>
	<path class="st3" d="M434.58,60.695H65.42c-17.99,0-32.573,14.583-32.573,32.573v369.159C32.848,480.417,47.431,495,65.42,495
		H434.58c17.99,0,32.573-14.583,32.573-32.573V93.268C467.152,75.279,452.569,60.695,434.58,60.695z"/>
</g>
<g>
	<path class="st0" d="M405.057,164.506L405.057,164.506l-112.5,0c-11.259,10.183-26.179,16.39-42.558,16.39
		s-31.298-6.207-42.558-16.39h-112.5v0c10.132,0,18.346,8.214,18.346,18.346c0,10.131-8.212,18.344-18.342,18.346h100.688
		c5.408,0,9.791,4.384,9.791,9.791v61.194c0,8.432-2.023,16.74-5.899,24.228l-62.892,121.491h0
		c4.658-8.998,15.728-12.517,24.726-7.859c8.997,4.657,12.515,15.726,7.86,24.723l64.574-124.741
		c0.158-0.305,0.348-0.586,0.553-0.854c-1.698-2.781-2.694-6.038-2.694-9.535c0-10.132,8.214-18.346,18.346-18.346
		s18.346,8.214,18.346,18.346c0,3.497-0.996,6.754-2.694,9.535c0.205,0.268,0.395,0.548,0.553,0.854l64.574,124.741
		c-4.655-8.997-1.137-20.066,7.86-24.723c8.998-4.658,20.068-1.139,24.726,7.859h0L300.474,296.41
		c-3.876-7.488-5.899-15.796-5.899-24.228v-61.194c0-5.408,4.384-9.791,9.791-9.791h100.688
		c-10.13-0.002-18.342-8.215-18.342-18.346C386.711,172.72,394.925,164.506,405.057,164.506z"/>
</g>
<g>
	<circle class="st2" cx="94.943" cy="182.852" r="18.346"/>
</g>
<g>
	<circle class="st2" cx="405.057" cy="182.852" r="18.346"/>
</g>
<g>
	<circle class="st2" cx="157.954" cy="182.852" r="18.346"/>
</g>
<g>
	<circle class="st2" cx="250" cy="226.435" r="18.346"/>
</g>
<g>
	<circle class="st2" cx="342.046" cy="182.852" r="18.346"/>
</g>
<g>
	<circle class="st2" cx="347.073" cy="426.335" r="18.346"/>
</g>
<g>
	<circle class="st2" cx="312.322" cy="359.205" r="18.346"/>
</g>
<g>
	<circle class="st2" cx="152.927" cy="426.335" r="18.346"/>
</g>
<g>
	<circle class="st2" cx="187.678" cy="359.205" r="18.346"/>
</g>
<g>
	<path class="st1" d="M303.387,106.513H196.613v39.498h-3.303c10.47,20.691,31.916,34.886,56.69,34.886s46.221-14.194,56.69-34.886
		h-3.303V106.513z"/>
</g>
<g>
	<path class="st0" d="M308.774,80.227h-7.281C289.957,64.267,271.198,53.872,250,53.872s-39.957,10.395-51.494,26.354h-7.281
		c-9.664,0-17.498,7.834-17.498,17.498v41.275c0,3.872,3.139,7.011,7.011,7.011h15.874v-39.498h106.773v39.498h15.874
		c3.872,0,7.011-3.139,7.011-7.011v-32.487v-8.788C326.272,88.061,318.438,80.227,308.774,80.227z"/>
</g>
<g>
	<path class="st0" d="M276.915,154.328h-24.613c-2.339,0-4.235-1.896-4.235-4.235v-8.165c0-2.339,1.896-4.235,4.235-4.235h24.613
		c2.339,0,4.235,1.896,4.235,4.235v8.165C281.15,152.432,279.254,154.328,276.915,154.328z"/>
</g>
<g>
	<circle class="st2" cx="250" cy="299.635" r="18.346"/>
</g>
<path class="st4" d="M472.152,93.268v369.159c0,20.718-16.854,37.573-37.572,37.573H65.42c-20.718,0-37.572-16.855-37.572-37.573
	V93.268c0-20.718,16.854-37.573,37.572-37.573h119.824c2.762,0,5,2.239,5,5s-2.238,5-5,5H65.42
	c-15.203,0-27.572,12.369-27.572,27.573v369.159C37.848,477.631,50.217,490,65.42,490h369.16c15.203,0,27.572-12.369,27.572-27.573
	V93.268c0-15.204-12.369-27.573-27.572-27.573H313.989c-2.762,0-5-2.239-5-5s2.238-5,5-5H434.58
	C455.298,55.695,472.152,72.55,472.152,93.268z M238.466,21.535H245v6.534c0,2.761,2.238,5,5,5s5-2.239,5-5v-6.534h6.534
	c2.762,0,5-2.239,5-5s-2.238-5-5-5H255V5c0-2.761-2.238-5-5-5s-5,2.239-5,5v6.535h-6.534c-2.762,0-5,2.239-5,5
	S235.704,21.535,238.466,21.535z M121.226,22.368h5.22v5.219c0,2.761,2.238,5,5,5s5-2.239,5-5v-5.219h5.219c2.762,0,5-2.239,5-5
	s-2.238-5-5-5h-5.219V7.148c0-2.761-2.238-5-5-5s-5,2.239-5,5v5.219h-5.22c-2.762,0-5,2.239-5,5S118.464,22.368,121.226,22.368z
	 M358.336,22.368h5.219v5.219c0,2.761,2.238,5,5,5s5-2.239,5-5v-5.219h5.22c2.762,0,5-2.239,5-5s-2.238-5-5-5h-5.22V7.148
	c0-2.761-2.238-5-5-5s-5,2.239-5,5v5.219h-5.219c-2.762,0-5,2.239-5,5S355.574,22.368,358.336,22.368z M273.346,226.435
	c0,12.873-10.473,23.346-23.346,23.346s-23.346-10.473-23.346-23.346s10.473-23.346,23.346-23.346S273.346,213.562,273.346,226.435z
	 M263.346,226.435c0-7.359-5.987-13.346-13.346-13.346s-13.346,5.987-13.346,13.346s5.987,13.346,13.346,13.346
	S263.346,233.794,263.346,226.435z M428.403,182.852c0,12.873-10.473,23.346-23.346,23.346c-0.006,0-0.013,0-0.019,0h-62.973
	c-0.007,0-0.013,0-0.019,0s-0.013,0-0.019,0h-37.661c-2.642,0-4.791,2.149-4.791,4.792v61.194c0,7.598,1.847,15.181,5.34,21.929
	l62.887,121.482c0.001,0.003,0.003,0.005,0.004,0.008c4.115,7.951,3.194,17.196-1.591,24.083h29.729c2.762,0,5,2.239,5,5
	s-2.238,5-5,5H104.057c-2.762,0-5-2.239-5-5s2.238-5,5-5h29.729c-4.785-6.886-5.706-16.132-1.591-24.082
	c0.001,0,0.001-0.001,0.001-0.002l62.891-121.488c3.493-6.748,5.34-14.331,5.34-21.929v-61.194c0-2.642-2.149-4.792-4.791-4.792
	h-37.661c-0.007,0-0.013,0-0.019,0s-0.013,0-0.019,0H94.962c-0.007,0-0.013,0-0.019,0c-12.873,0-23.346-10.473-23.346-23.346
	s10.473-23.346,23.346-23.346h112.5c1.239,0,2.435,0.46,3.354,1.292c10.764,9.736,24.687,15.098,39.203,15.098
	s28.439-5.362,39.203-15.098c0.92-0.832,2.115-1.292,3.354-1.292h112.5C417.931,159.506,428.403,169.979,428.403,182.852z
	 M108.288,182.852c0-7.359-5.987-13.346-13.346-13.346s-13.346,5.987-13.346,13.346c0,7.358,5.987,13.345,13.344,13.346
	c0.001,0,0.003,0,0.004,0c3.219-0.001,6.175-1.147,8.482-3.052c0.12-0.099,0.23-0.211,0.347-0.315
	c0.203-0.18,0.409-0.355,0.601-0.547C106.792,189.867,108.288,186.531,108.288,182.852z M134.608,182.852
	c0-4.96,1.56-9.561,4.208-13.346h-24.727c0.029,0.041,0.053,0.085,0.081,0.126c0.279,0.405,0.547,0.818,0.801,1.241
	c0.059,0.098,0.113,0.198,0.17,0.296c0.211,0.364,0.413,0.734,0.605,1.11c0.055,0.108,0.112,0.214,0.165,0.322
	c0.218,0.443,0.421,0.895,0.611,1.353c0.049,0.119,0.095,0.24,0.142,0.361c0.157,0.398,0.303,0.8,0.439,1.208
	c0.033,0.101,0.07,0.2,0.102,0.302c0.151,0.478,0.284,0.963,0.405,1.453c0.033,0.135,0.063,0.271,0.094,0.407
	c0.101,0.443,0.19,0.889,0.265,1.341c0.013,0.078,0.03,0.156,0.042,0.234c0.079,0.509,0.136,1.024,0.182,1.543
	c0.013,0.145,0.023,0.29,0.033,0.436c0.035,0.51,0.059,1.022,0.06,1.54c0,0.024,0.003,0.048,0.003,0.073
	c0,0.024-0.003,0.047-0.003,0.071c-0.002,0.519-0.025,1.033-0.06,1.544c-0.01,0.144-0.021,0.288-0.033,0.432
	c-0.045,0.521-0.103,1.038-0.182,1.548c-0.011,0.075-0.028,0.148-0.04,0.222c-0.075,0.457-0.166,0.909-0.268,1.357
	c-0.03,0.133-0.06,0.265-0.092,0.397c-0.121,0.494-0.255,0.982-0.407,1.463c-0.03,0.095-0.065,0.189-0.096,0.284
	c-0.138,0.416-0.287,0.827-0.447,1.232c-0.045,0.115-0.089,0.23-0.136,0.344c-0.191,0.463-0.397,0.919-0.617,1.367
	c-0.05,0.101-0.103,0.2-0.154,0.301c-0.197,0.386-0.404,0.766-0.621,1.14c-0.053,0.091-0.104,0.184-0.158,0.274
	c-0.257,0.428-0.528,0.846-0.811,1.256c-0.026,0.038-0.049,0.079-0.076,0.117h24.727
	C136.168,192.412,134.608,187.812,134.608,182.852z M171.3,182.852c0-7.359-5.987-13.346-13.346-13.346s-13.346,5.987-13.346,13.346
	c0,7.356,5.982,13.34,13.336,13.345h0.02C165.318,196.192,171.3,190.208,171.3,182.852z M174.959,363.248
	c1.08,3.397,3.418,6.171,6.584,7.81c3.166,1.639,6.779,1.947,10.178,0.867c3.396-1.08,6.17-3.418,7.809-6.583
	c1.639-3.166,1.947-6.781,0.867-10.178c-1.079-3.397-3.417-6.17-6.583-7.809c-6.533-3.384-14.604-0.818-17.987,5.717
	C174.188,356.236,173.879,359.85,174.959,363.248z M161.368,415.999c-0.017-0.014-0.033-0.03-0.05-0.044
	c-0.279-0.226-0.576-0.434-0.877-0.638c-0.073-0.049-0.139-0.105-0.213-0.153c-0.314-0.205-0.644-0.391-0.98-0.572
	c-0.064-0.034-0.122-0.075-0.186-0.108c-0.817-0.423-1.657-0.753-2.509-0.994c-0.312-0.088-0.627-0.152-0.942-0.216
	c-0.114-0.023-0.227-0.058-0.342-0.078c-3.42-0.607-6.931,0.162-9.773,2.061c-0.018,0.012-0.037,0.021-0.055,0.033
	c-0.303,0.205-0.595,0.429-0.882,0.66c-0.051,0.041-0.105,0.075-0.156,0.117c-0.254,0.21-0.494,0.44-0.733,0.67
	c-0.075,0.073-0.156,0.137-0.23,0.211c-0.213,0.215-0.411,0.449-0.61,0.68c-0.089,0.103-0.185,0.197-0.271,0.302
	c-0.186,0.229-0.354,0.475-0.525,0.719c-0.086,0.123-0.181,0.236-0.264,0.362c-0.175,0.266-0.33,0.55-0.488,0.833
	c-0.066,0.119-0.142,0.23-0.205,0.351l-0.003,0.006c0,0,0,0.001-0.001,0.001c-3.382,6.535-0.817,14.603,5.718,17.986
	c6.532,3.382,14.604,0.819,17.987-5.717c0-0.001,0-0.002,0.001-0.002l0.001-0.002c0.027-0.051,0.046-0.105,0.072-0.156
	c0.178-0.356,0.345-0.714,0.489-1.078c0.033-0.082,0.055-0.167,0.086-0.25c0.127-0.34,0.248-0.681,0.345-1.025
	c0.01-0.033,0.015-0.067,0.024-0.1C167.186,424.789,165.441,419.323,161.368,415.999z M171.84,412.662
	c0.245,0.339,0.477,0.688,0.703,1.041c0.129,0.201,0.253,0.404,0.375,0.608c0.215,0.358,0.427,0.717,0.623,1.088
	c0.012,0.023,0.027,0.045,0.039,0.069l17.147-33.124c-1.024,0.137-2.052,0.219-3.077,0.219c-3.685,0-7.34-0.882-10.706-2.625
	c-4.304-2.228-7.717-5.665-9.918-9.871l-17.15,33.13c0.05-0.007,0.101-0.008,0.151-0.014c0.489-0.062,0.979-0.11,1.472-0.141
	c0.109-0.007,0.218-0.009,0.327-0.015c0.428-0.021,0.858-0.03,1.288-0.027c0.114,0.001,0.227-0.001,0.341,0.001
	c0.499,0.01,0.999,0.038,1.498,0.081c0.121,0.01,0.242,0.025,0.363,0.037c0.438,0.044,0.875,0.101,1.312,0.17
	c0.095,0.015,0.189,0.027,0.284,0.043c0.501,0.086,1,0.192,1.498,0.313c0.125,0.031,0.251,0.064,0.376,0.096
	c0.456,0.118,0.911,0.249,1.363,0.396c0.061,0.02,0.123,0.036,0.184,0.057c0.497,0.167,0.99,0.356,1.48,0.558
	c0.124,0.051,0.246,0.104,0.369,0.156c0.487,0.211,0.971,0.433,1.45,0.68c0.01,0.005,0.019,0.009,0.029,0.014
	c0.63,0.326,1.233,0.684,1.821,1.058c0.203,0.129,0.397,0.268,0.595,0.403c0.371,0.253,0.735,0.512,1.088,0.784
	c0.235,0.18,0.466,0.364,0.694,0.552c0.292,0.243,0.572,0.494,0.85,0.749c0.241,0.22,0.485,0.436,0.715,0.666
	c0.228,0.228,0.439,0.469,0.656,0.705c0.469,0.508,0.914,1.035,1.335,1.583C171.557,412.288,171.703,412.471,171.84,412.662z
	 M327.927,439.684c-0.576-0.828-1.112-1.697-1.588-2.617c-0.004-0.009-0.008-0.017-0.013-0.026l-61.715-119.217
	c-4.003,3.223-9.085,5.157-14.612,5.157c-5.527,0-10.609-1.935-14.612-5.157l-61.715,119.217c-0.004,0.009-0.008,0.017-0.013,0.026
	c-0.476,0.92-1.011,1.789-1.588,2.617H327.927z M236.714,300.813c0.012,0.13,0.025,0.26,0.041,0.39
	c0.031,0.267,0.074,0.53,0.121,0.792c0.051,0.279,0.111,0.555,0.18,0.83c0.039,0.157,0.077,0.315,0.121,0.47
	c0.07,0.241,0.146,0.48,0.23,0.717c0.023,0.066,0.048,0.13,0.072,0.196c0.301,0.815,0.679,1.605,1.137,2.356
	c2.346,3.84,6.565,6.417,11.384,6.417s9.038-2.577,11.384-6.417c0.459-0.751,0.837-1.542,1.137-2.356
	c0.024-0.065,0.049-0.13,0.072-0.196c0.083-0.237,0.16-0.476,0.23-0.717c0.044-0.155,0.082-0.313,0.121-0.47
	c0.069-0.275,0.129-0.551,0.18-0.83c0.047-0.262,0.09-0.525,0.121-0.792c0.016-0.13,0.029-0.26,0.041-0.39
	c0.034-0.389,0.06-0.78,0.06-1.177c0-6.899-5.262-12.592-11.983-13.277c-0.448-0.046-0.903-0.069-1.363-0.069
	s-0.915,0.023-1.363,0.069c-6.721,0.685-11.983,6.378-11.983,13.277C236.654,300.033,236.68,300.424,236.714,300.813z
	 M350.928,413.572c-0.294-0.089-0.591-0.168-0.89-0.237c-0.077-0.018-0.153-0.039-0.231-0.055c-0.363-0.076-0.73-0.136-1.1-0.182
	c-0.103-0.013-0.206-0.021-0.309-0.031c-0.291-0.03-0.584-0.05-0.877-0.06c-0.106-0.004-0.211-0.01-0.317-0.011
	c-0.158-0.002-0.318,0.01-0.476,0.013c-0.337,0.008-0.674,0.025-1.011,0.059c-0.17,0.017-0.34,0.041-0.51,0.065
	c-0.318,0.044-0.635,0.101-0.951,0.169c-0.17,0.037-0.34,0.073-0.509,0.117c-0.333,0.086-0.664,0.19-0.994,0.303
	c-0.143,0.049-0.287,0.091-0.429,0.145c-0.468,0.179-0.932,0.379-1.388,0.615c-0.064,0.033-0.123,0.074-0.186,0.108
	c-0.335,0.181-0.666,0.367-0.98,0.572c-0.074,0.048-0.14,0.104-0.213,0.153c-0.3,0.205-0.598,0.413-0.877,0.638
	c-0.017,0.014-0.033,0.03-0.05,0.044c-4.073,3.324-5.817,8.79-4.429,13.857c0.009,0.033,0.014,0.067,0.024,0.1
	c0.097,0.344,0.219,0.686,0.345,1.025c0.031,0.083,0.053,0.167,0.086,0.25c0.144,0.364,0.311,0.722,0.489,1.078
	c0.025,0.05,0.044,0.103,0.07,0.153l0.003,0.004c0,0.001,0,0.001,0,0.001c0,0.001,0,0.001,0.001,0.002
	c3.384,6.536,11.454,9.101,17.987,5.717c6.534-3.382,9.099-11.449,5.718-17.985c0-0.001-0.001-0.001-0.001-0.002l-0.011-0.02
	c-0.19-0.366-0.4-0.716-0.619-1.057c-0.054-0.084-0.109-0.167-0.165-0.249c-0.198-0.294-0.405-0.58-0.623-0.853
	c-0.033-0.041-0.063-0.085-0.096-0.125c-0.251-0.308-0.516-0.6-0.791-0.881c-0.063-0.065-0.128-0.126-0.193-0.189
	c-0.228-0.224-0.464-0.439-0.706-0.646c-0.067-0.057-0.133-0.116-0.201-0.171c-0.298-0.243-0.605-0.474-0.921-0.689
	c-0.057-0.039-0.116-0.073-0.174-0.111c-0.268-0.177-0.542-0.342-0.821-0.499c-0.091-0.051-0.182-0.102-0.274-0.15
	c-0.334-0.177-0.673-0.345-1.02-0.493c-0.009-0.004-0.019-0.007-0.028-0.011c-0.342-0.145-0.69-0.27-1.042-0.386
	C351.138,413.635,351.033,413.603,350.928,413.572z M323.055,379.938c-3.366,1.742-7.022,2.625-10.706,2.625
	c-1.026,0-2.052-0.082-3.077-0.219l17.147,33.124c0.012-0.023,0.027-0.045,0.039-0.069c0.196-0.371,0.408-0.729,0.623-1.088
	c0.123-0.204,0.246-0.408,0.375-0.608c0.227-0.353,0.458-0.701,0.703-1.041c0.137-0.19,0.284-0.374,0.427-0.56
	c0.421-0.548,0.866-1.075,1.335-1.583c0.217-0.236,0.428-0.477,0.656-0.705c0.231-0.229,0.475-0.445,0.715-0.666
	c0.278-0.255,0.558-0.507,0.85-0.749c0.228-0.189,0.458-0.372,0.694-0.552c0.353-0.271,0.717-0.531,1.088-0.784
	c0.198-0.135,0.392-0.274,0.595-0.403c0.587-0.374,1.19-0.732,1.821-1.058c0.009-0.005,0.019-0.009,0.029-0.013
	c0.481-0.248,0.968-0.472,1.458-0.684c0.117-0.05,0.233-0.1,0.35-0.149c0.498-0.206,0.999-0.398,1.504-0.567
	c0.04-0.013,0.08-0.024,0.119-0.037c0.483-0.158,0.968-0.297,1.455-0.423c0.101-0.026,0.202-0.053,0.303-0.077
	c0.519-0.126,1.039-0.236,1.562-0.326c0.057-0.01,0.114-0.017,0.171-0.026c0.486-0.08,0.973-0.142,1.46-0.19
	c0.085-0.009,0.171-0.019,0.257-0.026c0.524-0.046,1.049-0.074,1.572-0.085c0.079-0.001,0.158,0,0.238-0.001
	c0.475-0.004,0.949,0.006,1.422,0.03c0.077,0.004,0.155,0.006,0.232,0.01c0.512,0.031,1.022,0.081,1.529,0.146
	c0.041,0.005,0.082,0.006,0.122,0.012l-17.15-33.13C330.771,374.273,327.359,377.71,323.055,379.938z M312.3,345.861
	c-2.064,0-4.157,0.48-6.113,1.493c-3.166,1.639-5.504,4.412-6.583,7.809c-1.08,3.397-0.771,7.012,0.867,10.178
	c1.639,3.166,4.412,5.504,7.809,6.584c3.4,1.08,7.014,0.771,10.178-0.867c3.166-1.639,5.504-4.413,6.584-7.81
	c1.08-3.397,0.771-7.012-0.867-10.177C321.804,348.491,317.132,345.861,312.3,345.861z M318.7,182.852
	c0-4.96,1.56-9.561,4.208-13.346h-28.465c-12.391,10.583-28.096,16.39-44.442,16.39s-32.052-5.807-44.442-16.39h-28.465
	c2.648,3.786,4.208,8.386,4.208,13.346c0,4.96-1.559,9.56-4.207,13.345h18.542c8.156,0,14.791,6.635,14.791,14.792v61.194
	c0,9.191-2.233,18.363-6.459,26.526l-19.343,37.365c4.58-0.611,9.382,0.118,13.787,2.399c4.304,2.228,7.717,5.664,9.918,9.87
	l20.327-39.267c-1.281-2.885-1.999-6.073-2.001-9.428c0-0.004,0-0.009,0-0.013v0v0c0-10.862,7.456-20.014,17.518-22.609
	c0.745-0.192,1.505-0.349,2.277-0.467c0.772-0.118,1.556-0.199,2.351-0.239c0.397-0.02,0.797-0.031,1.2-0.031s0.802,0.01,1.2,0.031
	c0.794,0.04,1.579,0.121,2.351,0.239c0.772,0.118,1.532,0.274,2.277,0.467c10.063,2.595,17.518,11.748,17.518,22.609v0v0
	c0,0.004,0,0.008,0,0.013c-0.002,3.354-0.72,6.543-2.001,9.428l20.327,39.267c2.201-4.206,5.614-7.642,9.918-9.87
	c4.405-2.281,9.207-3.01,13.787-2.399l-19.343-37.365c-4.226-8.163-6.459-17.335-6.459-26.526v-61.194
	c0-8.156,6.635-14.792,14.791-14.792h18.542C320.26,192.412,318.7,187.812,318.7,182.852z M355.392,182.852
	c0-7.359-5.987-13.346-13.346-13.346s-13.346,5.987-13.346,13.346c0,7.356,5.982,13.34,13.336,13.345h0.02
	C349.409,196.192,355.392,190.208,355.392,182.852z M381.711,182.852c0-0.024,0.003-0.048,0.003-0.072
	c0.001-0.518,0.025-1.031,0.06-1.542c0.01-0.145,0.021-0.289,0.033-0.433c0.045-0.519,0.103-1.036,0.182-1.545
	c0.012-0.079,0.029-0.156,0.042-0.234c0.075-0.452,0.164-0.898,0.265-1.341c0.031-0.136,0.061-0.272,0.094-0.407
	c0.121-0.49,0.254-0.975,0.405-1.453c0.032-0.101,0.069-0.201,0.102-0.302c0.135-0.408,0.282-0.811,0.439-1.209
	c0.047-0.12,0.093-0.241,0.142-0.36c0.19-0.459,0.393-0.91,0.611-1.354c0.053-0.108,0.11-0.215,0.165-0.322
	c0.192-0.376,0.393-0.746,0.605-1.11c0.057-0.099,0.112-0.199,0.17-0.296c0.254-0.423,0.521-0.836,0.801-1.241
	c0.028-0.041,0.052-0.085,0.081-0.126h-24.727c2.648,3.786,4.208,8.386,4.208,13.346c0,4.96-1.559,9.56-4.207,13.345h24.727
	c-0.027-0.038-0.049-0.079-0.076-0.117c-0.283-0.41-0.554-0.828-0.811-1.256c-0.054-0.09-0.104-0.183-0.158-0.274
	c-0.217-0.374-0.424-0.753-0.621-1.14c-0.051-0.1-0.104-0.199-0.154-0.3c-0.22-0.448-0.426-0.904-0.617-1.367
	c-0.047-0.113-0.09-0.228-0.135-0.343c-0.16-0.406-0.31-0.817-0.448-1.233c-0.031-0.095-0.066-0.188-0.096-0.284
	c-0.152-0.481-0.286-0.969-0.407-1.463c-0.032-0.132-0.062-0.264-0.092-0.397c-0.102-0.448-0.192-0.9-0.268-1.357
	c-0.012-0.074-0.028-0.147-0.04-0.222c-0.079-0.511-0.137-1.028-0.182-1.549c-0.012-0.143-0.023-0.286-0.033-0.429
	c-0.035-0.511-0.059-1.026-0.06-1.545C381.714,182.898,381.711,182.875,381.711,182.852z M418.403,182.852
	c0-7.359-5.987-13.346-13.346-13.346s-13.346,5.987-13.346,13.346c0,3.679,1.497,7.015,3.913,9.432
	c0.192,0.191,0.398,0.367,0.601,0.547c0.117,0.104,0.226,0.216,0.347,0.315c2.308,1.905,5.264,3.051,8.482,3.052
	c0.001,0,0.003,0,0.004,0C412.417,196.197,418.403,190.21,418.403,182.852z M191.226,75.227h4.794
	C208.966,58.68,228.95,48.872,250,48.872s41.034,9.808,53.98,26.355h4.794c12.405,0,22.498,10.092,22.498,22.498v41.274
	c0,6.623-5.389,12.011-12.012,12.011h-15.874h-17.284c-0.462,4.663-4.406,8.317-9.188,8.317h-24.613
	c-5.092,0-9.234-4.143-9.234-9.235v-8.165c0-5.092,4.143-9.235,9.234-9.235h24.613c4.782,0,8.726,3.654,9.188,8.317h12.284v-29.498
	h-96.773v34.498c0,2.761-2.238,5-5,5h-15.874c-6.623,0-12.012-5.388-12.012-12.011V97.725
	C168.728,85.319,178.82,75.227,191.226,75.227z M276.149,142.693h-23.082v6.635h23.082V142.693z M255,75.227h35.542
	C280.92,65.995,268.349,60.258,255,59.101V75.227z M209.458,75.227H245V59.101C231.651,60.258,219.08,65.995,209.458,75.227z
	 M178.728,138.999c0,1.109,0.902,2.011,2.012,2.011h10.874v-34.498c0-2.761,2.238-5,5-5h106.773c2.762,0,5,2.239,5,5v34.498h10.874
	c1.109,0,2.012-0.902,2.012-2.011V97.725c0-6.891-5.606-12.498-12.498-12.498H191.226c-6.892,0-12.498,5.606-12.498,12.498V138.999z
	 M79.99,439.684c-2.762,0-5,2.239-5,5s2.238,5,5,5h3.972c2.762,0,5-2.239,5-5s-2.238-5-5-5H79.99z M416.038,439.684
	c-2.762,0-5,2.239-5,5s2.238,5,5,5h3.972c2.762,0,5-2.239,5-5s-2.238-5-5-5H416.038z"/>
</svg>
